<?xml version="1.0" encoding="UTF-8" standalone="no"?>
<svg
   xmlns:dc="http://purl.org/dc/elements/1.1/"
   xmlns:cc="http://creativecommons.org/ns#"
   xmlns:rdf="http://www.w3.org/1999/02/22-rdf-syntax-ns#"
   xmlns:svg="http://www.w3.org/2000/svg"
   xmlns="http://www.w3.org/2000/svg"
   xmlns:sodipodi="http://sodipodi.sourceforge.net/DTD/sodipodi-0.dtd"
   xmlns:inkscape="http://www.inkscape.org/namespaces/inkscape"
   style="background-color:#dddddd"
   width="162"
   height="200"
   version="1.1"
   id="svg40"
   sodipodi:docname="Maypad Jig.svg"
   inkscape:version="0.92.4 (5da689c313, 2019-01-14)">
  <metadata
     id="metadata46">
    <rdf:RDF>
      <cc:Work
         rdf:about="">
        <dc:format>image/svg+xml</dc:format>
        <dc:type
           rdf:resource="http://purl.org/dc/dcmitype/StillImage" />
        <dc:title></dc:title>
      </cc:Work>
    </rdf:RDF>
  </metadata>
  <defs
     id="defs44" />
  <sodipodi:namedview
     pagecolor="#ffffff"
     bordercolor="#666666"
     borderopacity="1"
     objecttolerance="10"
     gridtolerance="10"
     guidetolerance="10"
     inkscape:pageopacity="0"
     inkscape:pageshadow="2"
     inkscape:window-width="1920"
     inkscape:window-height="1137"
     id="namedview42"
     showgrid="false"
     inkscape:zoom="3.337544"
     inkscape:cx="52.124098"
     inkscape:cy="100.83717"
     inkscape:window-x="1672"
     inkscape:window-y="-8"
     inkscape:window-maximized="1"
     inkscape:current-layer="svg40" />
  <path
     d="M 0 0 L 0 10 L 114 10 L 114 38 L 0 38 L 0 48 L 114 48 L 114 76 L 0 76 L 0 86 L 114 86 L 114 114 L 0 114 L 0 124 L 114 124 L 114 152 L 0 152 L 0 162 L 114 162 L 114 190 L 0 190 L 0 200 L 162 200 L 162 171 L 124 171 L 124 143 L 162 143 L 162 95 L 124 95 L 124 67 L 162 67 L 162 38 L 124 38 L 124 10 L 162 10 L 162 0 L 0 0 z "
     id="path2" />
</svg>
