<?xml version="1.0" encoding="UTF-8" standalone="no"?>
<!-- Generated by SVGo -->

<svg
   xmlns:dc="http://purl.org/dc/elements/1.1/"
   xmlns:cc="http://creativecommons.org/ns#"
   xmlns:rdf="http://www.w3.org/1999/02/22-rdf-syntax-ns#"
   xmlns:svg="http://www.w3.org/2000/svg"
   xmlns="http://www.w3.org/2000/svg"
   xmlns:sodipodi="http://sodipodi.sourceforge.net/DTD/sodipodi-0.dtd"
   xmlns:inkscape="http://www.inkscape.org/namespaces/inkscape"
   width="338.802mm"
   height="129.251mm"
   viewBox="0.000 0.000 338.802 129.251"
   version="1.1"
   id="svg24"
   sodipodi:docname="Bottomnocomment.svg"
   inkscape:version="0.92.4 (5da689c313, 2019-01-14)">
  <metadata
     id="metadata30">
    <rdf:RDF>
      <cc:Work
         rdf:about="">
        <dc:format>image/svg+xml</dc:format>
        <dc:type
           rdf:resource="http://purl.org/dc/dcmitype/StillImage" />
        <dc:title />
      </cc:Work>
    </rdf:RDF>
  </metadata>
  <defs
     id="defs28" />
  <sodipodi:namedview
     pagecolor="#ffffff"
     bordercolor="#666666"
     borderopacity="1"
     objecttolerance="10"
     gridtolerance="10"
     guidetolerance="10"
     inkscape:pageopacity="0"
     inkscape:pageshadow="2"
     inkscape:window-width="3360"
     inkscape:window-height="1990"
     id="namedview26"
     showgrid="false"
     inkscape:snap-midpoints="true"
     inkscape:zoom="1.4003957"
     inkscape:cx="552.33888"
     inkscape:cy="147.84704"
     inkscape:window-x="2928"
     inkscape:window-y="-12"
     inkscape:window-maximized="1"
     inkscape:current-layer="svg24"
     inkscape:snap-bbox="true"
     inkscape:snap-bbox-midpoints="true"
     inkscape:snap-nodes="false"
     inkscape:snap-others="false" />
  <path
     inkscape:connector-curvature="0"
     style="fill:none;stroke:#000000;stroke-width:0.05mm"
     d="m 327.80118,6.1257243 0.47077,0.018603 0.46819,0.055294 0.46199,0.091984 0.45372,0.1276408 0.44235,0.1632974 0.42685,0.1968873 0.41082,0.2309937 0.39223,0.2609659 0.37,0.2919719 0.34572,0.3203938 0.32039,0.3457154 0.29197,0.3700031 0.26097,0.3922242 0.23099,0.4108275 0.19689,0.4268475 0.16278,0.4423502 0.12816,0.453719 0.092,0.461987 0.0553,0.468189 0.0176,0.469738 0.001,107.251333 -0.0186,0.47077 -0.0553,0.46819 -0.092,0.46199 -0.12816,0.45372 -0.16278,0.44235 -0.19689,0.42685 -0.23099,0.41082 -0.26097,0.39223 -0.29197,0.37 -0.32039,0.34572 -0.34572,0.32039 -0.37,0.29197 -0.39223,0.26097 -0.41082,0.23099 -0.42685,0.19689 -0.44235,0.16278 -0.45372,0.12816 -0.46199,0.092 -0.46819,0.0553 -0.47077,0.0176 H 10.999851 l -0.469742,-0.0176 -0.46818,-0.0553 -0.4619888,-0.092 -0.453734,-0.12816 -0.4423304,-0.16278 -0.4268523,-0.19689 -0.4108185,-0.23099 -0.3922448,-0.26097 -0.3699933,-0.29197 -0.3457311,-0.32039 -0.3203839,-0.34572 -0.2919677,-0.37 -0.2609585,-0.39223 -0.2310078,-0.41082 -0.1968764,-0.42685 -0.1627981,-0.44235 -0.1281377,-0.45372 -0.091996,-0.46199 -0.055298,-0.46819 -0.018521,-0.47077 V 12.126391 L 5.0188121,11.655619 5.07411,11.187431 5.1661057,10.725443 5.2942434,10.271724 5.4570415,9.8293742 5.6539179,9.4025266 5.8849257,8.9916991 6.1458842,8.599475 6.4378519,8.2294718 6.7582358,7.8837564 7.1039669,7.5633627 7.4739602,7.2713907 7.866205,7.0104248 8.2770235,6.7794311 8.7038758,6.5825438 9.1462062,6.4192464 l 0.453734,-0.1276408 0.4619888,-0.091984 0.46818,-0.055294 0.469742,-0.018603 H 297.42733 V 17.750855 h 1.50016 v 8.000028 h 1.52652 6.94687 1.52652 v -8.000029 h 1.50016 V 6.1257243 Z"
     id="polygon2" />
  <rect
     style="color:#000000;clip-rule:nonzero;display:inline;overflow:visible;visibility:visible;opacity:1;isolation:auto;mix-blend-mode:normal;color-interpolation:sRGB;color-interpolation-filters:linearRGB;solid-color:#000000;solid-opacity:1;vector-effect:none;fill:none;fill-opacity:1;fill-rule:nonzero;stroke:#008000;stroke-width:0.05mm;stroke-linecap:butt;stroke-linejoin:miter;stroke-miterlimit:4;stroke-dasharray:none;stroke-dashoffset:0;stroke-opacity:1;color-rendering:auto;image-rendering:auto;shape-rendering:auto;text-rendering:auto;enable-background:accumulate"
     id="rect37"
     width="5"
     height="5"
     x="-295.40106"
     y="63.750999"
     transform="scale(-1,1)" />
  <g
     id="g466"
     transform="matrix(-1,0,0,1,337.36397,0)"
     style="stroke:#008000">
    <path
       sodipodi:nodetypes="cccccccccccccccccccc"
       inkscape:connector-curvature="0"
       d="m 20.141738,24.795724 2.99981,1e-6 v 4.549869 h -2.99981 z m 0,12.21287 h 2.99981 v 4.55 h -2.99981 z m 30.00023,4.55 h -2.99982 v -4.55 h 2.99982 z m -2.99982,-16.762869 v 4.549869 h 2.99982 v -4.54987 z"
       style="fill:none;fill-rule:evenodd;stroke:#008000;stroke-width:0.26458332px;stroke-linecap:butt;stroke-linejoin:miter;stroke-opacity:1"
       id="path383" />
    <path
       id="path462"
       style="fill:none;fill-rule:evenodd;stroke:#008000;stroke-width:0.26458332px;stroke-linecap:butt;stroke-linejoin:miter;stroke-opacity:1"
       d="m 285.78391,24.795724 2.99981,1e-6 v 4.549869 h -2.99981 z m 0,12.21287 h 2.99981 v 4.55 h -2.99981 z m 30.00023,4.55 h -2.99982 v -4.55 h 2.99982 z m -2.99982,-16.762869 v 4.549869 h 2.99982 v -4.54987 z"
       inkscape:connector-curvature="0"
       sodipodi:nodetypes="cccccccccccccccccccc" />
  </g>
  <path
     inkscape:connector-curvature="0"
     id="path483"
     d="m 325.90156,12.125503 a 1.8999996,1.8999998 0 0 0 1.9,1.899999 1.8999996,1.8999998 0 0 0 1.9,-1.899999 1.8999996,1.8999998 0 0 0 -1.9,-1.900001 1.8999996,1.8999998 0 0 0 -1.9,1.900001 z"
     style="color:#000000;overflow:visible;opacity:1;vector-effect:none;fill:none;fill-opacity:1;stroke:#008000;stroke-width:0.05mm;stroke-linecap:butt;stroke-linejoin:miter;stroke-miterlimit:4;stroke-dasharray:none;stroke-dashoffset:0;stroke-opacity:1" />
  <path
     inkscape:connector-curvature="0"
     id="path485"
     d="m 325.90156,65.751503 a 1.8999996,1.8999998 0 0 0 1.9,1.899999 1.8999996,1.8999998 0 0 0 1.9,-1.899999 1.8999996,1.8999998 0 0 0 -1.9,-1.900001 1.8999996,1.8999998 0 0 0 -1.9,1.900001 z"
     style="color:#000000;overflow:visible;opacity:1;vector-effect:none;fill:none;fill-opacity:1;stroke:#008000;stroke-width:0.05mm;stroke-linecap:butt;stroke-linejoin:miter;stroke-miterlimit:4;stroke-dasharray:none;stroke-dashoffset:0;stroke-opacity:1" />
  <path
     inkscape:connector-curvature="0"
     id="path487"
     d="m 325.90156,119.3765 a 1.8999996,1.8999998 0 0 0 1.9,1.9 1.8999996,1.8999998 0 0 0 1.9,-1.9 1.8999996,1.8999998 0 0 0 -1.9,-1.9 1.8999996,1.8999998 0 0 0 -1.9,1.9 z"
     style="color:#000000;overflow:visible;opacity:1;vector-effect:none;fill:none;fill-opacity:1;stroke:#008000;stroke-width:0.05mm;stroke-linecap:butt;stroke-linejoin:miter;stroke-miterlimit:4;stroke-dasharray:none;stroke-dashoffset:0;stroke-opacity:1" />
  <path
     inkscape:connector-curvature="0"
     id="path489"
     d="m 220.30106,119.3765 a 1.8999996,1.8999998 0 0 0 1.9,1.9 1.8999996,1.8999998 0 0 0 1.9,-1.9 1.8999996,1.8999998 0 0 0 -1.9,-1.9 1.8999996,1.8999998 0 0 0 -1.9,1.9 z"
     style="color:#000000;overflow:visible;opacity:1;vector-effect:none;fill:none;fill-opacity:1;stroke:#008000;stroke-width:0.05mm;stroke-linecap:butt;stroke-linejoin:miter;stroke-miterlimit:4;stroke-dasharray:none;stroke-dashoffset:0;stroke-opacity:1" />
  <path
     inkscape:connector-curvature="0"
     id="path491"
     d="m 114.70106,119.3765 a 1.8999996,1.8999998 0 0 0 1.9,1.9 1.8999996,1.8999998 0 0 0 1.9,-1.9 1.8999996,1.8999998 0 0 0 -1.9,-1.9 1.8999996,1.8999998 0 0 0 -1.9,1.9 z"
     style="color:#000000;overflow:visible;opacity:1;vector-effect:none;fill:none;fill-opacity:1;stroke:#008000;stroke-width:0.05mm;stroke-linecap:butt;stroke-linejoin:miter;stroke-miterlimit:4;stroke-dasharray:none;stroke-dashoffset:0;stroke-opacity:1" />
  <path
     inkscape:connector-curvature="0"
     id="path493"
     d="m 9.10006,119.3765 a 1.8999996,1.8999998 0 0 0 1.9,1.9 1.8999996,1.8999998 0 0 0 1.9,-1.9 1.8999996,1.8999998 0 0 0 -1.9,-1.9 1.8999996,1.8999998 0 0 0 -1.9,1.9 z"
     style="color:#000000;overflow:visible;opacity:1;vector-effect:none;fill:none;fill-opacity:1;stroke:#008000;stroke-width:0.05mm;stroke-linecap:butt;stroke-linejoin:miter;stroke-miterlimit:4;stroke-dasharray:none;stroke-dashoffset:0;stroke-opacity:1" />
  <path
     inkscape:connector-curvature="0"
     id="path495"
     d="m 9.10006,65.751503 a 1.8999996,1.8999998 0 0 0 1.9,1.899999 1.8999996,1.8999998 0 0 0 1.9,-1.899999 1.8999996,1.8999998 0 0 0 -1.9,-1.900001 1.8999996,1.8999998 0 0 0 -1.9,1.900001 z"
     style="color:#000000;overflow:visible;opacity:1;vector-effect:none;fill:none;fill-opacity:1;stroke:#008000;stroke-width:0.05mm;stroke-linecap:butt;stroke-linejoin:miter;stroke-miterlimit:4;stroke-dasharray:none;stroke-dashoffset:0;stroke-opacity:1" />
  <path
     inkscape:connector-curvature="0"
     id="path497"
     d="m 9.10006,12.126503 a 1.8999996,1.8999998 0 0 0 1.9,1.899999 1.8999996,1.8999998 0 0 0 1.9,-1.899999 1.8999996,1.8999998 0 0 0 -1.9,-1.900001 1.8999996,1.8999998 0 0 0 -1.9,1.900001 z"
     style="color:#000000;overflow:visible;opacity:1;vector-effect:none;fill:none;fill-opacity:1;stroke:#008000;stroke-width:0.05mm;stroke-linecap:butt;stroke-linejoin:miter;stroke-miterlimit:4;stroke-dasharray:none;stroke-dashoffset:0;stroke-opacity:1" />
  <path
     inkscape:connector-curvature="0"
     id="path499"
     d="m 114.70106,12.126503 a 1.8999996,1.8999998 0 0 0 1.9,1.899999 1.8999996,1.8999998 0 0 0 1.9,-1.899999 1.8999996,1.8999998 0 0 0 -1.9,-1.900001 1.8999996,1.8999998 0 0 0 -1.9,1.900001 z"
     style="color:#000000;overflow:visible;opacity:1;vector-effect:none;fill:none;fill-opacity:1;stroke:#008000;stroke-width:0.05mm;stroke-linecap:butt;stroke-linejoin:miter;stroke-miterlimit:4;stroke-dasharray:none;stroke-dashoffset:0;stroke-opacity:1" />
  <path
     inkscape:connector-curvature="0"
     id="path501"
     d="m 220.30106,12.126503 a 1.8999996,1.8999998 0 0 0 1.9,1.899999 1.8999996,1.8999998 0 0 0 1.9,-1.899999 1.8999996,1.8999998 0 0 0 -1.9,-1.900001 1.8999996,1.8999998 0 0 0 -1.9,1.900001 z"
     style="color:#000000;overflow:visible;opacity:1;vector-effect:none;fill:none;fill-opacity:1;stroke:#008000;stroke-width:0.05mm;stroke-linecap:butt;stroke-linejoin:miter;stroke-miterlimit:4;stroke-dasharray:none;stroke-dashoffset:0;stroke-opacity:1" />
  <path
     style="color:#000000;overflow:visible;opacity:1;vector-effect:none;fill:none;fill-opacity:1;stroke:#008000;stroke-width:0.05mm;stroke-linecap:butt;stroke-linejoin:miter;stroke-miterlimit:4;stroke-dasharray:none;stroke-dashoffset:0;stroke-opacity:1"
     d="m 220.30106,12.126503 a 1.8999996,1.8999998 0 0 0 1.9,1.899999 1.8999996,1.8999998 0 0 0 1.9,-1.899999 1.8999996,1.8999998 0 0 0 -1.9,-1.900001 1.8999996,1.8999998 0 0 0 -1.9,1.900001 z"
     id="path274"
     inkscape:connector-curvature="0" />
  <g
     id="g529"
     transform="matrix(-1,0,0,1,442.8029,-22.596636)">
    <path
       style="color:#000000;overflow:visible;opacity:1;vector-effect:none;fill:#0000ff;fill-opacity:1;stroke:#0000ff;stroke-width:0.05mm;stroke-linecap:butt;stroke-linejoin:miter;stroke-miterlimit:4;stroke-dasharray:none;stroke-dashoffset:0;stroke-opacity:1"
       d="m 145.10184,66.949604 -2.24999,1.298629 v 2.598291 l 2.24999,1.299145 2.24999,-1.299145 v -2.598291 z m 0,1.597836 a 0.9999999,0.99999998 0 0 1 1.00046,0.999938 0.9999999,0.99999998 0 0 1 -1.00046,0.999939 0.9999999,0.99999998 0 0 1 -0.99994,-0.999939 0.9999999,0.99999998 0 0 1 0.99994,-0.999938 z"
       id="path525"
       inkscape:connector-curvature="0" />
    <ellipse
       style="color:#000000;overflow:visible;opacity:1;vector-effect:none;fill:none;fill-opacity:1;stroke:#008000;stroke-width:0.05mm;stroke-linecap:butt;stroke-linejoin:miter;stroke-miterlimit:4;stroke-dasharray:none;stroke-dashoffset:0;stroke-opacity:1"
       id="ellipse527"
       cx="145.10205"
       cy="69.547485"
       rx="0.99999994"
       ry="1" />
  </g>
  <g
     id="g535"
     transform="matrix(-1,0,0,1,442.8029,34.503366)">
    <path
       style="color:#000000;overflow:visible;opacity:1;vector-effect:none;fill:#0000ff;fill-opacity:1;stroke:#0000ff;stroke-width:0.05mm;stroke-linecap:butt;stroke-linejoin:miter;stroke-miterlimit:4;stroke-dasharray:none;stroke-dashoffset:0;stroke-opacity:1"
       d="m 145.10184,66.949604 -2.24999,1.298629 v 2.598291 l 2.24999,1.299145 2.24999,-1.299145 v -2.598291 z m 0,1.597836 a 0.9999999,0.99999998 0 0 1 1.00046,0.999938 0.9999999,0.99999998 0 0 1 -1.00046,0.999939 0.9999999,0.99999998 0 0 1 -0.99994,-0.999939 0.9999999,0.99999998 0 0 1 0.99994,-0.999938 z"
       id="path531"
       inkscape:connector-curvature="0" />
    <ellipse
       style="color:#000000;overflow:visible;opacity:1;vector-effect:none;fill:none;fill-opacity:1;stroke:#008000;stroke-width:0.05mm;stroke-linecap:butt;stroke-linejoin:miter;stroke-miterlimit:4;stroke-dasharray:none;stroke-dashoffset:0;stroke-opacity:1"
       id="ellipse533"
       cx="145.10205"
       cy="69.547485"
       rx="0.99999994"
       ry="1" />
  </g>
  <g
     transform="matrix(-1,0,0,1,206.70291,-23.096636)"
     id="g541">
    <path
       style="color:#000000;overflow:visible;opacity:1;vector-effect:none;fill:#0000ff;fill-opacity:1;stroke:#0000ff;stroke-width:0.05mm;stroke-linecap:butt;stroke-linejoin:miter;stroke-miterlimit:4;stroke-dasharray:none;stroke-dashoffset:0;stroke-opacity:1"
       d="m 145.10184,66.949604 -2.24999,1.298629 v 2.598291 l 2.24999,1.299145 2.24999,-1.299145 v -2.598291 z m 0,1.597836 a 0.9999999,0.99999998 0 0 1 1.00046,0.999938 0.9999999,0.99999998 0 0 1 -1.00046,0.999939 0.9999999,0.99999998 0 0 1 -0.99994,-0.999939 0.9999999,0.99999998 0 0 1 0.99994,-0.999938 z"
       id="path537"
       inkscape:connector-curvature="0" />
    <ellipse
       style="color:#000000;overflow:visible;opacity:1;vector-effect:none;fill:none;fill-opacity:1;stroke:#008000;stroke-width:0.05mm;stroke-linecap:butt;stroke-linejoin:miter;stroke-miterlimit:4;stroke-dasharray:none;stroke-dashoffset:0;stroke-opacity:1"
       id="ellipse539"
       cx="145.10205"
       cy="69.547485"
       rx="0.99999994"
       ry="1" />
  </g>
  <g
     transform="matrix(-1,0,0,1,200.70291,34.503366)"
     id="g547">
    <path
       style="color:#000000;overflow:visible;opacity:1;vector-effect:none;fill:#0000ff;fill-opacity:1;stroke:#0000ff;stroke-width:0.05mm;stroke-linecap:butt;stroke-linejoin:miter;stroke-miterlimit:4;stroke-dasharray:none;stroke-dashoffset:0;stroke-opacity:1"
       d="m 145.10184,66.949604 -2.24999,1.298629 v 2.598291 l 2.24999,1.299145 2.24999,-1.299145 v -2.598291 z m 0,1.597836 a 0.9999999,0.99999998 0 0 1 1.00046,0.999938 0.9999999,0.99999998 0 0 1 -1.00046,0.999939 0.9999999,0.99999998 0 0 1 -0.99994,-0.999939 0.9999999,0.99999998 0 0 1 0.99994,-0.999938 z"
       id="path543"
       inkscape:connector-curvature="0" />
    <ellipse
       style="color:#000000;overflow:visible;opacity:1;vector-effect:none;fill:none;fill-opacity:1;stroke:#008000;stroke-width:0.05mm;stroke-linecap:butt;stroke-linejoin:miter;stroke-miterlimit:4;stroke-dasharray:none;stroke-dashoffset:0;stroke-opacity:1"
       id="ellipse545"
       cx="145.10205"
       cy="69.547485"
       rx="0.99999994"
       ry="1" />
  </g>
  <text
     xml:space="preserve"
     style="font-style:normal;font-variant:normal;font-weight:bold;font-stretch:normal;font-size:8.46666643px;line-height:125%;font-family:'Times New Roman';-inkscape-font-specification:'Times New Roman, Bold';font-variant-ligatures:normal;font-variant-caps:normal;font-variant-numeric:normal;font-feature-settings:normal;text-align:start;letter-spacing:0px;word-spacing:0px;writing-mode:lr;text-anchor:start;fill:#dde9af;fill-opacity:1;stroke:none;stroke-width:0.26458332px;stroke-linecap:butt;stroke-linejoin:miter;stroke-opacity:1;"
     x="142.55655"
     y="47.911049"
     id="text566"><tspan
       sodipodi:role="line"
       id="tspan564"
       x="142.55655"
       y="47.911049"
       style="font-style:normal;font-variant:normal;font-weight:bold;font-stretch:normal;font-size:8.46666643px;font-family:'Times New Roman';-inkscape-font-specification:'Times New Roman, Bold';font-variant-ligatures:normal;font-variant-caps:normal;font-variant-numeric:normal;font-feature-settings:normal;text-align:start;writing-mode:lr;text-anchor:start;stroke-width:0.26458332px;fill:#dde9af;">Clarity is my mama. </tspan><tspan
       sodipodi:role="line"
       x="142.55655"
       y="56.730495"
       style="font-style:normal;font-variant:normal;font-weight:bold;font-stretch:normal;font-size:8.46666643px;font-family:'Times New Roman';-inkscape-font-specification:'Times New Roman, Bold';font-variant-ligatures:normal;font-variant-caps:normal;font-variant-numeric:normal;font-feature-settings:normal;text-align:start;writing-mode:lr;text-anchor:start;stroke-width:0.26458332px;fill:#dde9af;"
       id="tspan568">Clarity is my honey. </tspan><tspan
       sodipodi:role="line"
       x="142.55655"
       y="65.549934"
       style="font-style:normal;font-variant:normal;font-weight:bold;font-stretch:normal;font-size:8.46666643px;font-family:'Times New Roman';-inkscape-font-specification:'Times New Roman, Bold';font-variant-ligatures:normal;font-variant-caps:normal;font-variant-numeric:normal;font-feature-settings:normal;text-align:start;writing-mode:lr;text-anchor:start;stroke-width:0.26458332px;fill:#dde9af;"
       id="tspan570">Clarity is my baby doll.</tspan></text>
  <text
     xml:space="preserve"
     style="font-style:normal;font-variant:normal;font-weight:bold;font-stretch:normal;font-size:4.23333311px;line-height:125%;font-family:'Times New Roman';-inkscape-font-specification:'Times New Roman, Bold';font-variant-ligatures:normal;font-variant-caps:normal;font-variant-numeric:normal;font-feature-settings:normal;text-align:center;letter-spacing:0px;word-spacing:0px;writing-mode:lr-tb;text-anchor:middle;fill:#dde9af;fill-opacity:1;stroke:none;stroke-width:0.26458332px;stroke-linecap:butt;stroke-linejoin:miter;stroke-opacity:1;"
     x="209.41551"
     y="76.727165"
     id="text574"><tspan
       sodipodi:role="line"
       id="tspan576"
       x="209.41551"
       y="76.727165">–For Allison, 7/2021</tspan></text>
</svg>
