  0
SECTION
  2
HEADER
  9
$ACADVER
  1
AC1014
  9
$HANDSEED
  5
FFFF
  9
$MEASUREMENT
 70
     1
  0
ENDSEC
  0
SECTION
  2
TABLES
  0
TABLE
  2
VPORT
  5
8
330
0
100
AcDbSymbolTable
 70
     4
  0
VPORT
  5
2E
330
8
100
AcDbSymbolTableRecord
100
AcDbViewportTableRecord
  2
*ACTIVE
 70
     0
 10
0.0
 20
0.0
 11
1.0
 21
1.0
 12
210.0
 22
148.5
 13
0.0
 23
0.0
 14
10.0
 24
10.0
 15
10.0
 25
10.0
 16
0.0
 26
0.0
 36
1.0
 17
0.0
 27
0.0
 37
0.0
 40
341.0
 41
1.24
 42
50.0
 43
0.0
 44
0.0
 50
0.0
 51
0.0
 71
     0
 72
   100
 73
     1
 74
     3
 75
     0
 76
     0
 77
     0
 78
     0
  0
ENDTAB
  0
TABLE
  2
LTYPE
  5
5
330
0
100
AcDbSymbolTable
 70
     1
  0
LTYPE
  5
14
330
5
100
AcDbSymbolTableRecord
100
AcDbLinetypeTableRecord
  2
BYBLOCK
 70
     0
  3

 72
    65
 73
     0
 40
0.0
  0
LTYPE
  5
15
330
5
100
AcDbSymbolTableRecord
100
AcDbLinetypeTableRecord
  2
BYLAYER
 70
     0
  3

 72
    65
 73
     0
 40
0.0
  0
LTYPE
  5
16
330
5
100
AcDbSymbolTableRecord
100
AcDbLinetypeTableRecord
  2
CONTINUOUS
 70
     0
  3
Solid line
 72
    65
 73
     0
 40
0.0
  0
ENDTAB
  0
TABLE
  2
LAYER
  5
2
100
AcDbSymbolTable
 70
1
  0
LAYER
  5
50
100
AcDbSymbolTableRecord
100
AcDbLayerTableRecord
  2
0
 70
0
  6
CONTINUOUS
  0
ENDTAB
  0
TABLE
  2
STYLE
  5
3
330
0
100
AcDbSymbolTable
 70
     1
  0
STYLE
  5
11
330
3
100
AcDbSymbolTableRecord
100
AcDbTextStyleTableRecord
  2
STANDARD
 70
     0
 40
0.0
 41
1.0
 50
0.0
 71
     0
 42
2.5
  3
txt
  4

  0
ENDTAB
  0
TABLE
  2
VIEW
  5
6
330
0
100
AcDbSymbolTable
 70
     0
  0
ENDTAB
  0
TABLE
  2
UCS
  5
7
330
0
100
AcDbSymbolTable
 70
     0
  0
ENDTAB
  0
TABLE
  2
APPID
  5
9
330
0
100
AcDbSymbolTable
 70
     2
  0
APPID
  5
12
330
9
100
AcDbSymbolTableRecord
100
AcDbRegAppTableRecord
  2
ACAD
 70
     0
  0
ENDTAB
  0
TABLE
  2
DIMSTYLE
  5
A
330
0
100
AcDbSymbolTable
 70
     1
  0
DIMSTYLE
105
27
330
A
100
AcDbSymbolTableRecord
100
AcDbDimStyleTableRecord
  2
ISO-25
 70
     0
  3

  4

  5

  6

  7

 40
1.0
 41
2.5
 42
0.625
 43
3.75
 44
1.25
 45
0.0
 46
0.0
 47
0.0
 48
0.0
140
2.5
141
2.5
142
0.0
143
0.03937007874016
144
1.0
145
0.0
146
1.0
147
0.625
 71
     0
 72
     0
 73
     0
 74
     0
 75
     0
 76
     0
 77
     1
 78
     8
170
     0
171
     3
172
     1
173
     0
174
     0
175
     0
176
     0
177
     0
178
     0
270
     2
271
     2
272
     2
273
     2
274
     3
340
11
275
     0
280
     0
281
     0
282
     0
283
     0
284
     8
285
     0
286
     0
287
     3
288
     0
  0
ENDTAB
  0
TABLE
  2
BLOCK_RECORD
  5
1
330
0
100
AcDbSymbolTable
 70
     1
  0
BLOCK_RECORD
  5
1F
330
1
100
AcDbSymbolTableRecord
100
AcDbBlockTableRecord
  2
*MODEL_SPACE
  0
BLOCK_RECORD
  5
1B
330
1
100
AcDbSymbolTableRecord
100
AcDbBlockTableRecord
  2
*PAPER_SPACE
  0
ENDTAB
  0
ENDSEC
  0
SECTION
  2
BLOCKS
  0
BLOCK
  5
20
330
1F
100
AcDbEntity
  8
0
100
AcDbBlockBegin
  2
*MODEL_SPACE
 70
     0
 10
0.0
 20
0.0
 30
0.0
  3
*MODEL_SPACE
  1

  0
ENDBLK
  5
21
330
1F
100
AcDbEntity
  8
0
100
AcDbBlockEnd
  0
BLOCK
  5
1C
330
1B
100
AcDbEntity
 67
     1
  8
0
100
AcDbBlockBegin
  2
*PAPER_SPACE
  1

  0
ENDBLK
  5
1D
330
1B
100
AcDbEntity
 67
     1
  8
0
100
AcDbBlockEnd
  0
ENDSEC
  0
SECTION
  2
ENTITIES
  0
LINE
  5
100
100
AcDbEntity
  8
0
 62
7
100
AcDbLine
 10
327.801180
 20
123.125276
 30
0.0
 11
328.271950
 21
123.106673
 31
0.0
  0
LINE
  5
101
100
AcDbEntity
  8
0
 62
7
100
AcDbLine
 10
328.271950
 20
123.106673
 30
0.0
 11
328.740140
 21
123.051379
 31
0.0
  0
LINE
  5
102
100
AcDbEntity
  8
0
 62
7
100
AcDbLine
 10
328.740140
 20
123.051379
 30
0.0
 11
329.202130
 21
122.959395
 31
0.0
  0
LINE
  5
103
100
AcDbEntity
  8
0
 62
7
100
AcDbLine
 10
329.202130
 20
122.959395
 30
0.0
 11
329.655850
 21
122.831754
 31
0.0
  0
LINE
  5
104
100
AcDbEntity
  8
0
 62
7
100
AcDbLine
 10
329.655850
 20
122.831754
 30
0.0
 11
330.098200
 21
122.668457
 31
0.0
  0
LINE
  5
105
100
AcDbEntity
  8
0
 62
7
100
AcDbLine
 10
330.098200
 20
122.668457
 30
0.0
 11
330.525050
 21
122.471569
 31
0.0
  0
LINE
  5
106
100
AcDbEntity
  8
0
 62
7
100
AcDbLine
 10
330.525050
 20
122.471569
 30
0.0
 11
330.935870
 21
122.240576
 31
0.0
  0
LINE
  5
107
100
AcDbEntity
  8
0
 62
7
100
AcDbLine
 10
330.935870
 20
122.240576
 30
0.0
 11
331.328100
 21
121.979610
 31
0.0
  0
LINE
  5
108
100
AcDbEntity
  8
0
 62
7
100
AcDbLine
 10
331.328100
 20
121.979610
 30
0.0
 11
331.698100
 21
121.687638
 31
0.0
  0
LINE
  5
109
100
AcDbEntity
  8
0
 62
7
100
AcDbLine
 10
331.698100
 20
121.687638
 30
0.0
 11
332.043820
 21
121.367244
 31
0.0
  0
LINE
  5
10a
100
AcDbEntity
  8
0
 62
7
100
AcDbLine
 10
332.043820
 20
121.367244
 30
0.0
 11
332.364210
 21
121.021529
 31
0.0
  0
LINE
  5
10b
100
AcDbEntity
  8
0
 62
7
100
AcDbLine
 10
332.364210
 20
121.021529
 30
0.0
 11
332.656180
 21
120.651525
 31
0.0
  0
LINE
  5
10c
100
AcDbEntity
  8
0
 62
7
100
AcDbLine
 10
332.656180
 20
120.651525
 30
0.0
 11
332.917150
 21
120.259301
 31
0.0
  0
LINE
  5
10d
100
AcDbEntity
  8
0
 62
7
100
AcDbLine
 10
332.917150
 20
120.259301
 30
0.0
 11
333.148140
 21
119.848474
 31
0.0
  0
LINE
  5
10e
100
AcDbEntity
  8
0
 62
7
100
AcDbLine
 10
333.148140
 20
119.848474
 30
0.0
 11
333.345030
 21
119.421626
 31
0.0
  0
LINE
  5
10f
100
AcDbEntity
  8
0
 62
7
100
AcDbLine
 10
333.345030
 20
119.421626
 30
0.0
 11
333.507810
 21
118.979276
 31
0.0
  0
LINE
  5
110
100
AcDbEntity
  8
0
 62
7
100
AcDbLine
 10
333.507810
 20
118.979276
 30
0.0
 11
333.635970
 21
118.525557
 31
0.0
  0
LINE
  5
111
100
AcDbEntity
  8
0
 62
7
100
AcDbLine
 10
333.635970
 20
118.525557
 30
0.0
 11
333.727970
 21
118.063570
 31
0.0
  0
LINE
  5
112
100
AcDbEntity
  8
0
 62
7
100
AcDbLine
 10
333.727970
 20
118.063570
 30
0.0
 11
333.783270
 21
117.595381
 31
0.0
  0
LINE
  5
113
100
AcDbEntity
  8
0
 62
7
100
AcDbLine
 10
333.783270
 20
117.595381
 30
0.0
 11
333.800870
 21
117.125643
 31
0.0
  0
LINE
  5
114
100
AcDbEntity
  8
0
 62
7
100
AcDbLine
 10
333.800870
 20
117.125643
 30
0.0
 11
333.801870
 21
9.874310
 31
0.0
  0
LINE
  5
115
100
AcDbEntity
  8
0
 62
7
100
AcDbLine
 10
333.801870
 20
9.874310
 30
0.0
 11
333.783270
 21
9.403540
 31
0.0
  0
LINE
  5
116
100
AcDbEntity
  8
0
 62
7
100
AcDbLine
 10
333.783270
 20
9.403540
 30
0.0
 11
333.727970
 21
8.935350
 31
0.0
  0
LINE
  5
117
100
AcDbEntity
  8
0
 62
7
100
AcDbLine
 10
333.727970
 20
8.935350
 30
0.0
 11
333.635970
 21
8.473360
 31
0.0
  0
LINE
  5
118
100
AcDbEntity
  8
0
 62
7
100
AcDbLine
 10
333.635970
 20
8.473360
 30
0.0
 11
333.507810
 21
8.019640
 31
0.0
  0
LINE
  5
119
100
AcDbEntity
  8
0
 62
7
100
AcDbLine
 10
333.507810
 20
8.019640
 30
0.0
 11
333.345030
 21
7.577290
 31
0.0
  0
LINE
  5
11a
100
AcDbEntity
  8
0
 62
7
100
AcDbLine
 10
333.345030
 20
7.577290
 30
0.0
 11
333.148140
 21
7.150440
 31
0.0
  0
LINE
  5
11b
100
AcDbEntity
  8
0
 62
7
100
AcDbLine
 10
333.148140
 20
7.150440
 30
0.0
 11
332.917150
 21
6.739620
 31
0.0
  0
LINE
  5
11c
100
AcDbEntity
  8
0
 62
7
100
AcDbLine
 10
332.917150
 20
6.739620
 30
0.0
 11
332.656180
 21
6.347390
 31
0.0
  0
LINE
  5
11d
100
AcDbEntity
  8
0
 62
7
100
AcDbLine
 10
332.656180
 20
6.347390
 30
0.0
 11
332.364210
 21
5.977390
 31
0.0
  0
LINE
  5
11e
100
AcDbEntity
  8
0
 62
7
100
AcDbLine
 10
332.364210
 20
5.977390
 30
0.0
 11
332.043820
 21
5.631670
 31
0.0
  0
LINE
  5
11f
100
AcDbEntity
  8
0
 62
7
100
AcDbLine
 10
332.043820
 20
5.631670
 30
0.0
 11
331.698100
 21
5.311280
 31
0.0
  0
LINE
  5
120
100
AcDbEntity
  8
0
 62
7
100
AcDbLine
 10
331.698100
 20
5.311280
 30
0.0
 11
331.328100
 21
5.019310
 31
0.0
  0
LINE
  5
121
100
AcDbEntity
  8
0
 62
7
100
AcDbLine
 10
331.328100
 20
5.019310
 30
0.0
 11
330.935870
 21
4.758340
 31
0.0
  0
LINE
  5
122
100
AcDbEntity
  8
0
 62
7
100
AcDbLine
 10
330.935870
 20
4.758340
 30
0.0
 11
330.525050
 21
4.527350
 31
0.0
  0
LINE
  5
123
100
AcDbEntity
  8
0
 62
7
100
AcDbLine
 10
330.525050
 20
4.527350
 30
0.0
 11
330.098200
 21
4.330460
 31
0.0
  0
LINE
  5
124
100
AcDbEntity
  8
0
 62
7
100
AcDbLine
 10
330.098200
 20
4.330460
 30
0.0
 11
329.655850
 21
4.167680
 31
0.0
  0
LINE
  5
125
100
AcDbEntity
  8
0
 62
7
100
AcDbLine
 10
329.655850
 20
4.167680
 30
0.0
 11
329.202130
 21
4.039520
 31
0.0
  0
LINE
  5
126
100
AcDbEntity
  8
0
 62
7
100
AcDbLine
 10
329.202130
 20
4.039520
 30
0.0
 11
328.740140
 21
3.947520
 31
0.0
  0
LINE
  5
127
100
AcDbEntity
  8
0
 62
7
100
AcDbLine
 10
328.740140
 20
3.947520
 30
0.0
 11
328.271950
 21
3.892220
 31
0.0
  0
LINE
  5
128
100
AcDbEntity
  8
0
 62
7
100
AcDbLine
 10
328.271950
 20
3.892220
 30
0.0
 11
327.801180
 21
3.874620
 31
0.0
  0
LINE
  5
129
100
AcDbEntity
  8
0
 62
7
100
AcDbLine
 10
327.801180
 20
3.874620
 30
0.0
 11
10.999851
 21
3.874620
 31
0.0
  0
LINE
  5
12a
100
AcDbEntity
  8
0
 62
7
100
AcDbLine
 10
10.999851
 20
3.874620
 30
0.0
 11
10.530109
 21
3.892220
 31
0.0
  0
LINE
  5
12b
100
AcDbEntity
  8
0
 62
7
100
AcDbLine
 10
10.530109
 20
3.892220
 30
0.0
 11
10.061929
 21
3.947520
 31
0.0
  0
LINE
  5
12c
100
AcDbEntity
  8
0
 62
7
100
AcDbLine
 10
10.061929
 20
3.947520
 30
0.0
 11
9.599940
 21
4.039520
 31
0.0
  0
LINE
  5
12d
100
AcDbEntity
  8
0
 62
7
100
AcDbLine
 10
9.599940
 20
4.039520
 30
0.0
 11
9.146206
 21
4.167680
 31
0.0
  0
LINE
  5
12e
100
AcDbEntity
  8
0
 62
7
100
AcDbLine
 10
9.146206
 20
4.167680
 30
0.0
 11
8.703876
 21
4.330460
 31
0.0
  0
LINE
  5
12f
100
AcDbEntity
  8
0
 62
7
100
AcDbLine
 10
8.703876
 20
4.330460
 30
0.0
 11
8.277024
 21
4.527350
 31
0.0
  0
LINE
  5
130
100
AcDbEntity
  8
0
 62
7
100
AcDbLine
 10
8.277024
 20
4.527350
 30
0.0
 11
7.866205
 21
4.758340
 31
0.0
  0
LINE
  5
131
100
AcDbEntity
  8
0
 62
7
100
AcDbLine
 10
7.866205
 20
4.758340
 30
0.0
 11
7.473960
 21
5.019310
 31
0.0
  0
LINE
  5
132
100
AcDbEntity
  8
0
 62
7
100
AcDbLine
 10
7.473960
 20
5.019310
 30
0.0
 11
7.103967
 21
5.311280
 31
0.0
  0
LINE
  5
133
100
AcDbEntity
  8
0
 62
7
100
AcDbLine
 10
7.103967
 20
5.311280
 30
0.0
 11
6.758236
 21
5.631670
 31
0.0
  0
LINE
  5
134
100
AcDbEntity
  8
0
 62
7
100
AcDbLine
 10
6.758236
 20
5.631670
 30
0.0
 11
6.437852
 21
5.977390
 31
0.0
  0
LINE
  5
135
100
AcDbEntity
  8
0
 62
7
100
AcDbLine
 10
6.437852
 20
5.977390
 30
0.0
 11
6.145884
 21
6.347390
 31
0.0
  0
LINE
  5
136
100
AcDbEntity
  8
0
 62
7
100
AcDbLine
 10
6.145884
 20
6.347390
 30
0.0
 11
5.884926
 21
6.739620
 31
0.0
  0
LINE
  5
137
100
AcDbEntity
  8
0
 62
7
100
AcDbLine
 10
5.884926
 20
6.739620
 30
0.0
 11
5.653918
 21
7.150440
 31
0.0
  0
LINE
  5
138
100
AcDbEntity
  8
0
 62
7
100
AcDbLine
 10
5.653918
 20
7.150440
 30
0.0
 11
5.457042
 21
7.577290
 31
0.0
  0
LINE
  5
139
100
AcDbEntity
  8
0
 62
7
100
AcDbLine
 10
5.457042
 20
7.577290
 30
0.0
 11
5.294243
 21
8.019640
 31
0.0
  0
LINE
  5
13a
100
AcDbEntity
  8
0
 62
7
100
AcDbLine
 10
5.294243
 20
8.019640
 30
0.0
 11
5.166106
 21
8.473360
 31
0.0
  0
LINE
  5
13b
100
AcDbEntity
  8
0
 62
7
100
AcDbLine
 10
5.166106
 20
8.473360
 30
0.0
 11
5.074110
 21
8.935350
 31
0.0
  0
LINE
  5
13c
100
AcDbEntity
  8
0
 62
7
100
AcDbLine
 10
5.074110
 20
8.935350
 30
0.0
 11
5.018812
 21
9.403540
 31
0.0
  0
LINE
  5
13d
100
AcDbEntity
  8
0
 62
7
100
AcDbLine
 10
5.018812
 20
9.403540
 30
0.0
 11
5.000291
 21
9.874310
 31
0.0
  0
LINE
  5
13e
100
AcDbEntity
  8
0
 62
7
100
AcDbLine
 10
5.000291
 20
9.874310
 30
0.0
 11
5.000291
 21
117.124609
 31
0.0
  0
LINE
  5
13f
100
AcDbEntity
  8
0
 62
7
100
AcDbLine
 10
5.000291
 20
117.124609
 30
0.0
 11
5.018812
 21
117.595381
 31
0.0
  0
LINE
  5
140
100
AcDbEntity
  8
0
 62
7
100
AcDbLine
 10
5.018812
 20
117.595381
 30
0.0
 11
5.074110
 21
118.063569
 31
0.0
  0
LINE
  5
141
100
AcDbEntity
  8
0
 62
7
100
AcDbLine
 10
5.074110
 20
118.063569
 30
0.0
 11
5.166106
 21
118.525557
 31
0.0
  0
LINE
  5
142
100
AcDbEntity
  8
0
 62
7
100
AcDbLine
 10
5.166106
 20
118.525557
 30
0.0
 11
5.294243
 21
118.979276
 31
0.0
  0
LINE
  5
143
100
AcDbEntity
  8
0
 62
7
100
AcDbLine
 10
5.294243
 20
118.979276
 30
0.0
 11
5.457042
 21
119.421626
 31
0.0
  0
LINE
  5
144
100
AcDbEntity
  8
0
 62
7
100
AcDbLine
 10
5.457042
 20
119.421626
 30
0.0
 11
5.653918
 21
119.848473
 31
0.0
  0
LINE
  5
145
100
AcDbEntity
  8
0
 62
7
100
AcDbLine
 10
5.653918
 20
119.848473
 30
0.0
 11
5.884926
 21
120.259301
 31
0.0
  0
LINE
  5
146
100
AcDbEntity
  8
0
 62
7
100
AcDbLine
 10
5.884926
 20
120.259301
 30
0.0
 11
6.145884
 21
120.651525
 31
0.0
  0
LINE
  5
147
100
AcDbEntity
  8
0
 62
7
100
AcDbLine
 10
6.145884
 20
120.651525
 30
0.0
 11
6.437852
 21
121.021528
 31
0.0
  0
LINE
  5
148
100
AcDbEntity
  8
0
 62
7
100
AcDbLine
 10
6.437852
 20
121.021528
 30
0.0
 11
6.758236
 21
121.367244
 31
0.0
  0
LINE
  5
149
100
AcDbEntity
  8
0
 62
7
100
AcDbLine
 10
6.758236
 20
121.367244
 30
0.0
 11
7.103967
 21
121.687637
 31
0.0
  0
LINE
  5
14a
100
AcDbEntity
  8
0
 62
7
100
AcDbLine
 10
7.103967
 20
121.687637
 30
0.0
 11
7.473960
 21
121.979609
 31
0.0
  0
LINE
  5
14b
100
AcDbEntity
  8
0
 62
7
100
AcDbLine
 10
7.473960
 20
121.979609
 30
0.0
 11
7.866205
 21
122.240575
 31
0.0
  0
LINE
  5
14c
100
AcDbEntity
  8
0
 62
7
100
AcDbLine
 10
7.866205
 20
122.240575
 30
0.0
 11
8.277024
 21
122.471569
 31
0.0
  0
LINE
  5
14d
100
AcDbEntity
  8
0
 62
7
100
AcDbLine
 10
8.277024
 20
122.471569
 30
0.0
 11
8.703876
 21
122.668456
 31
0.0
  0
LINE
  5
14e
100
AcDbEntity
  8
0
 62
7
100
AcDbLine
 10
8.703876
 20
122.668456
 30
0.0
 11
9.146206
 21
122.831754
 31
0.0
  0
LINE
  5
14f
100
AcDbEntity
  8
0
 62
7
100
AcDbLine
 10
9.146206
 20
122.831754
 30
0.0
 11
9.599940
 21
122.959394
 31
0.0
  0
LINE
  5
150
100
AcDbEntity
  8
0
 62
7
100
AcDbLine
 10
9.599940
 20
122.959394
 30
0.0
 11
10.061929
 21
123.051378
 31
0.0
  0
LINE
  5
151
100
AcDbEntity
  8
0
 62
7
100
AcDbLine
 10
10.061929
 20
123.051378
 30
0.0
 11
10.530109
 21
123.106672
 31
0.0
  0
LINE
  5
152
100
AcDbEntity
  8
0
 62
7
100
AcDbLine
 10
10.530109
 20
123.106672
 30
0.0
 11
10.999851
 21
123.125275
 31
0.0
  0
LINE
  5
153
100
AcDbEntity
  8
0
 62
7
100
AcDbLine
 10
10.999851
 20
123.125275
 30
0.0
 11
297.427330
 21
123.125275
 31
0.0
  0
LINE
  5
154
100
AcDbEntity
  8
0
 62
7
100
AcDbLine
 10
297.427330
 20
123.125275
 30
0.0
 11
297.427330
 21
111.500145
 31
0.0
  0
LINE
  5
155
100
AcDbEntity
  8
0
 62
7
100
AcDbLine
 10
297.427330
 20
111.500145
 30
0.0
 11
298.927490
 21
111.500145
 31
0.0
  0
LINE
  5
156
100
AcDbEntity
  8
0
 62
7
100
AcDbLine
 10
298.927490
 20
111.500145
 30
0.0
 11
298.927490
 21
103.500117
 31
0.0
  0
LINE
  5
157
100
AcDbEntity
  8
0
 62
7
100
AcDbLine
 10
298.927490
 20
103.500117
 30
0.0
 11
300.454010
 21
103.500117
 31
0.0
  0
LINE
  5
158
100
AcDbEntity
  8
0
 62
7
100
AcDbLine
 10
300.454010
 20
103.500117
 30
0.0
 11
307.400880
 21
103.500117
 31
0.0
  0
LINE
  5
159
100
AcDbEntity
  8
0
 62
7
100
AcDbLine
 10
307.400880
 20
103.500117
 30
0.0
 11
308.927400
 21
103.500117
 31
0.0
  0
LINE
  5
15a
100
AcDbEntity
  8
0
 62
7
100
AcDbLine
 10
308.927400
 20
103.500117
 30
0.0
 11
308.927400
 21
111.500146
 31
0.0
  0
LINE
  5
15b
100
AcDbEntity
  8
0
 62
7
100
AcDbLine
 10
308.927400
 20
111.500146
 30
0.0
 11
310.427560
 21
111.500146
 31
0.0
  0
LINE
  5
15c
100
AcDbEntity
  8
0
 62
7
100
AcDbLine
 10
310.427560
 20
111.500146
 30
0.0
 11
310.427560
 21
123.125276
 31
0.0
  0
LINE
  5
15d
100
AcDbEntity
  8
0
 62
7
100
AcDbLine
 10
310.427560
 20
123.125276
 30
0.0
 11
327.801180
 21
123.125276
 31
0.0
  0
LINE
  5
15e
100
AcDbEntity
  8
0
 62
6
100
AcDbLine
 10
18.901172
 20
109.999979
 30
0.0
 11
18.901172
 21
16.999972
 31
0.0
  0
LINE
  5
15f
100
AcDbEntity
  8
0
 62
6
100
AcDbLine
 10
18.901172
 20
16.999972
 30
0.0
 11
319.900878
 21
16.999972
 31
0.0
  0
LINE
  5
160
100
AcDbEntity
  8
0
 62
6
100
AcDbLine
 10
319.900878
 20
16.999972
 30
0.0
 11
319.900878
 21
109.999979
 31
0.0
  0
LINE
  5
161
100
AcDbEntity
  8
0
 62
6
100
AcDbLine
 10
319.900878
 20
109.999979
 30
0.0
 11
308.927390
 21
109.999979
 31
0.0
  0
LINE
  5
162
100
AcDbEntity
  8
0
 62
6
100
AcDbLine
 10
308.927390
 20
109.999979
 30
0.0
 11
308.927390
 21
103.500117
 31
0.0
  0
LINE
  5
163
100
AcDbEntity
  8
0
 62
6
100
AcDbLine
 10
308.927390
 20
103.500117
 30
0.0
 11
298.927490
 21
103.500117
 31
0.0
  0
LINE
  5
164
100
AcDbEntity
  8
0
 62
6
100
AcDbLine
 10
298.927490
 20
103.500117
 30
0.0
 11
298.927490
 21
109.999979
 31
0.0
  0
LINE
  5
165
100
AcDbEntity
  8
0
 62
6
100
AcDbLine
 10
298.927490
 20
109.999979
 30
0.0
 11
18.901172
 21
109.999979
 31
0.0
  0
LINE
  5
166
100
AcDbEntity
  8
0
 62
6
100
AcDbLine
 10
18.901172
 20
109.999979
 30
0.0
 11
18.901172
 21
109.999979
 31
0.0
  0
LINE
  5
167
100
AcDbEntity
  8
0
 62
3
100
AcDbLine
 10
295.401060
 20
65.500001
 30
0.0
 11
290.401060
 21
65.500001
 31
0.0
  0
LINE
  5
168
100
AcDbEntity
  8
0
 62
3
100
AcDbLine
 10
290.401060
 20
65.500001
 30
0.0
 11
290.401060
 21
60.500001
 31
0.0
  0
LINE
  5
169
100
AcDbEntity
  8
0
 62
3
100
AcDbLine
 10
290.401060
 20
60.500001
 30
0.0
 11
295.401060
 21
60.500001
 31
0.0
  0
LINE
  5
16a
100
AcDbEntity
  8
0
 62
3
100
AcDbLine
 10
295.401060
 20
60.500001
 30
0.0
 11
295.401060
 21
65.500001
 31
0.0
  0
LINE
  5
16b
100
AcDbEntity
  8
0
 62
3
100
AcDbLine
 10
317.222232
 20
104.455276
 30
0.0
 11
314.222422
 21
104.455275
 31
0.0
  0
LINE
  5
16c
100
AcDbEntity
  8
0
 62
3
100
AcDbLine
 10
314.222422
 20
104.455275
 30
0.0
 11
314.222422
 21
99.905406
 31
0.0
  0
LINE
  5
16d
100
AcDbEntity
  8
0
 62
3
100
AcDbLine
 10
314.222422
 20
99.905406
 30
0.0
 11
317.222232
 21
99.905406
 31
0.0
  0
LINE
  5
16e
100
AcDbEntity
  8
0
 62
3
100
AcDbLine
 10
317.222232
 20
99.905406
 30
0.0
 11
317.222232
 21
104.455276
 31
0.0
  0
LINE
  5
16f
100
AcDbEntity
  8
0
 62
3
100
AcDbLine
 10
317.222232
 20
92.242406
 30
0.0
 11
314.222422
 21
92.242406
 31
0.0
  0
LINE
  5
170
100
AcDbEntity
  8
0
 62
3
100
AcDbLine
 10
314.222422
 20
92.242406
 30
0.0
 11
314.222422
 21
87.692406
 31
0.0
  0
LINE
  5
171
100
AcDbEntity
  8
0
 62
3
100
AcDbLine
 10
314.222422
 20
87.692406
 30
0.0
 11
317.222232
 21
87.692406
 31
0.0
  0
LINE
  5
172
100
AcDbEntity
  8
0
 62
3
100
AcDbLine
 10
317.222232
 20
87.692406
 30
0.0
 11
317.222232
 21
92.242406
 31
0.0
  0
LINE
  5
173
100
AcDbEntity
  8
0
 62
3
100
AcDbLine
 10
287.222002
 20
87.692406
 30
0.0
 11
290.221822
 21
87.692406
 31
0.0
  0
LINE
  5
174
100
AcDbEntity
  8
0
 62
3
100
AcDbLine
 10
290.221822
 20
87.692406
 30
0.0
 11
290.221822
 21
92.242406
 31
0.0
  0
LINE
  5
175
100
AcDbEntity
  8
0
 62
3
100
AcDbLine
 10
290.221822
 20
92.242406
 30
0.0
 11
287.222002
 21
92.242406
 31
0.0
  0
LINE
  5
176
100
AcDbEntity
  8
0
 62
3
100
AcDbLine
 10
287.222002
 20
92.242406
 30
0.0
 11
287.222002
 21
87.692406
 31
0.0
  0
LINE
  5
177
100
AcDbEntity
  8
0
 62
3
100
AcDbLine
 10
290.221822
 20
104.455275
 30
0.0
 11
290.221822
 21
99.905406
 31
0.0
  0
LINE
  5
178
100
AcDbEntity
  8
0
 62
3
100
AcDbLine
 10
290.221822
 20
99.905406
 30
0.0
 11
287.222002
 21
99.905406
 31
0.0
  0
LINE
  5
179
100
AcDbEntity
  8
0
 62
3
100
AcDbLine
 10
287.222002
 20
99.905406
 30
0.0
 11
287.222002
 21
104.455276
 31
0.0
  0
LINE
  5
17a
100
AcDbEntity
  8
0
 62
3
100
AcDbLine
 10
287.222002
 20
104.455276
 30
0.0
 11
290.221822
 21
104.455275
 31
0.0
  0
LINE
  5
17b
100
AcDbEntity
  8
0
 62
3
100
AcDbLine
 10
51.580060
 20
104.455276
 30
0.0
 11
48.580250
 21
104.455275
 31
0.0
  0
LINE
  5
17c
100
AcDbEntity
  8
0
 62
3
100
AcDbLine
 10
48.580250
 20
104.455275
 30
0.0
 11
48.580250
 21
99.905406
 31
0.0
  0
LINE
  5
17d
100
AcDbEntity
  8
0
 62
3
100
AcDbLine
 10
48.580250
 20
99.905406
 30
0.0
 11
51.580060
 21
99.905406
 31
0.0
  0
LINE
  5
17e
100
AcDbEntity
  8
0
 62
3
100
AcDbLine
 10
51.580060
 20
99.905406
 30
0.0
 11
51.580060
 21
104.455276
 31
0.0
  0
LINE
  5
17f
100
AcDbEntity
  8
0
 62
3
100
AcDbLine
 10
51.580060
 20
92.242406
 30
0.0
 11
48.580250
 21
92.242406
 31
0.0
  0
LINE
  5
180
100
AcDbEntity
  8
0
 62
3
100
AcDbLine
 10
48.580250
 20
92.242406
 30
0.0
 11
48.580250
 21
87.692406
 31
0.0
  0
LINE
  5
181
100
AcDbEntity
  8
0
 62
3
100
AcDbLine
 10
48.580250
 20
87.692406
 30
0.0
 11
51.580060
 21
87.692406
 31
0.0
  0
LINE
  5
182
100
AcDbEntity
  8
0
 62
3
100
AcDbLine
 10
51.580060
 20
87.692406
 30
0.0
 11
51.580060
 21
92.242406
 31
0.0
  0
LINE
  5
183
100
AcDbEntity
  8
0
 62
3
100
AcDbLine
 10
21.579830
 20
87.692406
 30
0.0
 11
24.579650
 21
87.692406
 31
0.0
  0
LINE
  5
184
100
AcDbEntity
  8
0
 62
3
100
AcDbLine
 10
24.579650
 20
87.692406
 30
0.0
 11
24.579650
 21
92.242406
 31
0.0
  0
LINE
  5
185
100
AcDbEntity
  8
0
 62
3
100
AcDbLine
 10
24.579650
 20
92.242406
 30
0.0
 11
21.579830
 21
92.242406
 31
0.0
  0
LINE
  5
186
100
AcDbEntity
  8
0
 62
3
100
AcDbLine
 10
21.579830
 20
92.242406
 30
0.0
 11
21.579830
 21
87.692406
 31
0.0
  0
LINE
  5
187
100
AcDbEntity
  8
0
 62
3
100
AcDbLine
 10
24.579650
 20
104.455275
 30
0.0
 11
24.579650
 21
99.905406
 31
0.0
  0
LINE
  5
188
100
AcDbEntity
  8
0
 62
3
100
AcDbLine
 10
24.579650
 20
99.905406
 30
0.0
 11
21.579830
 21
99.905406
 31
0.0
  0
LINE
  5
189
100
AcDbEntity
  8
0
 62
3
100
AcDbLine
 10
21.579830
 20
99.905406
 30
0.0
 11
21.579830
 21
104.455276
 31
0.0
  0
LINE
  5
18a
100
AcDbEntity
  8
0
 62
3
100
AcDbLine
 10
21.579830
 20
104.455276
 30
0.0
 11
24.579650
 21
104.455275
 31
0.0
  0
SPLINE
  5
18b
100
AcDbEntity
  8
0
 62
3
100
AcDbSpline
 70
8
 71
3
 72
8
 73
4
 74
0
 40
0
 40
0
 40
0
 40
0
 40
1
 40
1
 40
1
 40
1
 10
325.901560
 20
117.125497
 30
0.0
 10
325.901560
 20
116.076156
 30
0.0
 10
326.752219
 20
115.225498
 30
0.0
 10
327.801560
 20
115.225498
 30
0.0
  0
SPLINE
  5
18c
100
AcDbEntity
  8
0
 62
3
100
AcDbSpline
 70
8
 71
3
 72
8
 73
4
 74
0
 40
0
 40
0
 40
0
 40
0
 40
1
 40
1
 40
1
 40
1
 10
327.801560
 20
115.225498
 30
0.0
 10
328.850901
 20
115.225498
 30
0.0
 10
329.701560
 20
116.076156
 30
0.0
 10
329.701560
 20
117.125497
 30
0.0
  0
SPLINE
  5
18d
100
AcDbEntity
  8
0
 62
3
100
AcDbSpline
 70
8
 71
3
 72
8
 73
4
 74
0
 40
0
 40
0
 40
0
 40
0
 40
1
 40
1
 40
1
 40
1
 10
329.701560
 20
117.125497
 30
0.0
 10
329.701560
 20
117.629409
 30
0.0
 10
329.501382
 20
118.112681
 30
0.0
 10
329.145063
 20
118.469001
 30
0.0
  0
SPLINE
  5
18e
100
AcDbEntity
  8
0
 62
3
100
AcDbSpline
 70
8
 71
3
 72
8
 73
4
 74
0
 40
0
 40
0
 40
0
 40
0
 40
1
 40
1
 40
1
 40
1
 10
329.145063
 20
118.469001
 30
0.0
 10
328.788744
 20
118.825320
 30
0.0
 10
328.305472
 20
119.025498
 30
0.0
 10
327.801560
 20
119.025498
 30
0.0
  0
SPLINE
  5
18f
100
AcDbEntity
  8
0
 62
3
100
AcDbSpline
 70
8
 71
3
 72
8
 73
4
 74
0
 40
0
 40
0
 40
0
 40
0
 40
1
 40
1
 40
1
 40
1
 10
327.801560
 20
119.025498
 30
0.0
 10
327.297649
 20
119.025498
 30
0.0
 10
326.814376
 20
118.825320
 30
0.0
 10
326.458057
 20
118.469001
 30
0.0
  0
SPLINE
  5
190
100
AcDbEntity
  8
0
 62
3
100
AcDbSpline
 70
8
 71
3
 72
8
 73
4
 74
0
 40
0
 40
0
 40
0
 40
0
 40
1
 40
1
 40
1
 40
1
 10
326.458057
 20
118.469001
 30
0.0
 10
326.101738
 20
118.112681
 30
0.0
 10
325.901560
 20
117.629409
 30
0.0
 10
325.901560
 20
117.125497
 30
0.0
  0
LINE
  5
191
100
AcDbEntity
  8
0
 62
3
100
AcDbLine
 10
325.901560
 20
117.125497
 30
0.0
 11
325.901560
 21
117.125497
 31
0.0
  0
SPLINE
  5
192
100
AcDbEntity
  8
0
 62
3
100
AcDbSpline
 70
8
 71
3
 72
8
 73
4
 74
0
 40
0
 40
0
 40
0
 40
0
 40
1
 40
1
 40
1
 40
1
 10
325.901560
 20
63.499497
 30
0.0
 10
325.901560
 20
62.450156
 30
0.0
 10
326.752219
 20
61.599498
 30
0.0
 10
327.801560
 20
61.599498
 30
0.0
  0
SPLINE
  5
193
100
AcDbEntity
  8
0
 62
3
100
AcDbSpline
 70
8
 71
3
 72
8
 73
4
 74
0
 40
0
 40
0
 40
0
 40
0
 40
1
 40
1
 40
1
 40
1
 10
327.801560
 20
61.599498
 30
0.0
 10
328.850901
 20
61.599498
 30
0.0
 10
329.701560
 20
62.450156
 30
0.0
 10
329.701560
 20
63.499497
 30
0.0
  0
SPLINE
  5
194
100
AcDbEntity
  8
0
 62
3
100
AcDbSpline
 70
8
 71
3
 72
8
 73
4
 74
0
 40
0
 40
0
 40
0
 40
0
 40
1
 40
1
 40
1
 40
1
 10
329.701560
 20
63.499497
 30
0.0
 10
329.701560
 20
64.003409
 30
0.0
 10
329.501382
 20
64.486681
 30
0.0
 10
329.145063
 20
64.843001
 30
0.0
  0
SPLINE
  5
195
100
AcDbEntity
  8
0
 62
3
100
AcDbSpline
 70
8
 71
3
 72
8
 73
4
 74
0
 40
0
 40
0
 40
0
 40
0
 40
1
 40
1
 40
1
 40
1
 10
329.145063
 20
64.843001
 30
0.0
 10
328.788744
 20
65.199320
 30
0.0
 10
328.305472
 20
65.399498
 30
0.0
 10
327.801560
 20
65.399498
 30
0.0
  0
SPLINE
  5
196
100
AcDbEntity
  8
0
 62
3
100
AcDbSpline
 70
8
 71
3
 72
8
 73
4
 74
0
 40
0
 40
0
 40
0
 40
0
 40
1
 40
1
 40
1
 40
1
 10
327.801560
 20
65.399498
 30
0.0
 10
327.297649
 20
65.399498
 30
0.0
 10
326.814376
 20
65.199320
 30
0.0
 10
326.458057
 20
64.843001
 30
0.0
  0
SPLINE
  5
197
100
AcDbEntity
  8
0
 62
3
100
AcDbSpline
 70
8
 71
3
 72
8
 73
4
 74
0
 40
0
 40
0
 40
0
 40
0
 40
1
 40
1
 40
1
 40
1
 10
326.458057
 20
64.843001
 30
0.0
 10
326.101738
 20
64.486681
 30
0.0
 10
325.901560
 20
64.003409
 30
0.0
 10
325.901560
 20
63.499497
 30
0.0
  0
LINE
  5
198
100
AcDbEntity
  8
0
 62
3
100
AcDbLine
 10
325.901560
 20
63.499497
 30
0.0
 11
325.901560
 21
63.499497
 31
0.0
  0
SPLINE
  5
199
100
AcDbEntity
  8
0
 62
3
100
AcDbSpline
 70
8
 71
3
 72
8
 73
4
 74
0
 40
0
 40
0
 40
0
 40
0
 40
1
 40
1
 40
1
 40
1
 10
325.901560
 20
9.874500
 30
0.0
 10
325.901560
 20
9.370589
 30
0.0
 10
326.101738
 20
8.887316
 30
0.0
 10
326.458057
 20
8.530997
 30
0.0
  0
SPLINE
  5
19a
100
AcDbEntity
  8
0
 62
3
100
AcDbSpline
 70
8
 71
3
 72
8
 73
4
 74
0
 40
0
 40
0
 40
0
 40
0
 40
1
 40
1
 40
1
 40
1
 10
326.458057
 20
8.530997
 30
0.0
 10
326.814376
 20
8.174678
 30
0.0
 10
327.297649
 20
7.974500
 30
0.0
 10
327.801560
 20
7.974500
 30
0.0
  0
SPLINE
  5
19b
100
AcDbEntity
  8
0
 62
3
100
AcDbSpline
 70
8
 71
3
 72
8
 73
4
 74
0
 40
0
 40
0
 40
0
 40
0
 40
1
 40
1
 40
1
 40
1
 10
327.801560
 20
7.974500
 30
0.0
 10
328.305471
 20
7.974500
 30
0.0
 10
328.788744
 20
8.174678
 30
0.0
 10
329.145063
 20
8.530997
 30
0.0
  0
SPLINE
  5
19c
100
AcDbEntity
  8
0
 62
3
100
AcDbSpline
 70
8
 71
3
 72
8
 73
4
 74
0
 40
0
 40
0
 40
0
 40
0
 40
1
 40
1
 40
1
 40
1
 10
329.145063
 20
8.530997
 30
0.0
 10
329.501382
 20
8.887316
 30
0.0
 10
329.701560
 20
9.370589
 30
0.0
 10
329.701560
 20
9.874500
 30
0.0
  0
SPLINE
  5
19d
100
AcDbEntity
  8
0
 62
3
100
AcDbSpline
 70
8
 71
3
 72
8
 73
4
 74
0
 40
0
 40
0
 40
0
 40
0
 40
1
 40
1
 40
1
 40
1
 10
329.701560
 20
9.874500
 30
0.0
 10
329.701560
 20
10.378411
 30
0.0
 10
329.501382
 20
10.861684
 30
0.0
 10
329.145063
 20
11.218003
 30
0.0
  0
SPLINE
  5
19e
100
AcDbEntity
  8
0
 62
3
100
AcDbSpline
 70
8
 71
3
 72
8
 73
4
 74
0
 40
0
 40
0
 40
0
 40
0
 40
1
 40
1
 40
1
 40
1
 10
329.145063
 20
11.218003
 30
0.0
 10
328.788744
 20
11.574322
 30
0.0
 10
328.305471
 20
11.774500
 30
0.0
 10
327.801560
 20
11.774500
 30
0.0
  0
SPLINE
  5
19f
100
AcDbEntity
  8
0
 62
3
100
AcDbSpline
 70
8
 71
3
 72
8
 73
4
 74
0
 40
0
 40
0
 40
0
 40
0
 40
1
 40
1
 40
1
 40
1
 10
327.801560
 20
11.774500
 30
0.0
 10
327.297649
 20
11.774500
 30
0.0
 10
326.814376
 20
11.574322
 30
0.0
 10
326.458057
 20
11.218003
 30
0.0
  0
SPLINE
  5
1a0
100
AcDbEntity
  8
0
 62
3
100
AcDbSpline
 70
8
 71
3
 72
8
 73
4
 74
0
 40
0
 40
0
 40
0
 40
0
 40
1
 40
1
 40
1
 40
1
 10
326.458057
 20
11.218003
 30
0.0
 10
326.101738
 20
10.861684
 30
0.0
 10
325.901560
 20
10.378411
 30
0.0
 10
325.901560
 20
9.874500
 30
0.0
  0
LINE
  5
1a1
100
AcDbEntity
  8
0
 62
3
100
AcDbLine
 10
325.901560
 20
9.874500
 30
0.0
 11
325.901560
 21
9.874500
 31
0.0
  0
SPLINE
  5
1a2
100
AcDbEntity
  8
0
 62
3
100
AcDbSpline
 70
8
 71
3
 72
8
 73
4
 74
0
 40
0
 40
0
 40
0
 40
0
 40
1
 40
1
 40
1
 40
1
 10
220.301060
 20
9.874500
 30
0.0
 10
220.301060
 20
9.370589
 30
0.0
 10
220.501238
 20
8.887316
 30
0.0
 10
220.857557
 20
8.530997
 30
0.0
  0
SPLINE
  5
1a3
100
AcDbEntity
  8
0
 62
3
100
AcDbSpline
 70
8
 71
3
 72
8
 73
4
 74
0
 40
0
 40
0
 40
0
 40
0
 40
1
 40
1
 40
1
 40
1
 10
220.857557
 20
8.530997
 30
0.0
 10
221.213876
 20
8.174678
 30
0.0
 10
221.697149
 20
7.974500
 30
0.0
 10
222.201060
 20
7.974500
 30
0.0
  0
SPLINE
  5
1a4
100
AcDbEntity
  8
0
 62
3
100
AcDbSpline
 70
8
 71
3
 72
8
 73
4
 74
0
 40
0
 40
0
 40
0
 40
0
 40
1
 40
1
 40
1
 40
1
 10
222.201060
 20
7.974500
 30
0.0
 10
222.704971
 20
7.974500
 30
0.0
 10
223.188244
 20
8.174678
 30
0.0
 10
223.544563
 20
8.530997
 30
0.0
  0
SPLINE
  5
1a5
100
AcDbEntity
  8
0
 62
3
100
AcDbSpline
 70
8
 71
3
 72
8
 73
4
 74
0
 40
0
 40
0
 40
0
 40
0
 40
1
 40
1
 40
1
 40
1
 10
223.544563
 20
8.530997
 30
0.0
 10
223.900882
 20
8.887316
 30
0.0
 10
224.101060
 20
9.370589
 30
0.0
 10
224.101060
 20
9.874500
 30
0.0
  0
SPLINE
  5
1a6
100
AcDbEntity
  8
0
 62
3
100
AcDbSpline
 70
8
 71
3
 72
8
 73
4
 74
0
 40
0
 40
0
 40
0
 40
0
 40
1
 40
1
 40
1
 40
1
 10
224.101060
 20
9.874500
 30
0.0
 10
224.101060
 20
10.378411
 30
0.0
 10
223.900882
 20
10.861684
 30
0.0
 10
223.544563
 20
11.218003
 30
0.0
  0
SPLINE
  5
1a7
100
AcDbEntity
  8
0
 62
3
100
AcDbSpline
 70
8
 71
3
 72
8
 73
4
 74
0
 40
0
 40
0
 40
0
 40
0
 40
1
 40
1
 40
1
 40
1
 10
223.544563
 20
11.218003
 30
0.0
 10
223.188244
 20
11.574322
 30
0.0
 10
222.704971
 20
11.774500
 30
0.0
 10
222.201060
 20
11.774500
 30
0.0
  0
SPLINE
  5
1a8
100
AcDbEntity
  8
0
 62
3
100
AcDbSpline
 70
8
 71
3
 72
8
 73
4
 74
0
 40
0
 40
0
 40
0
 40
0
 40
1
 40
1
 40
1
 40
1
 10
222.201060
 20
11.774500
 30
0.0
 10
221.697149
 20
11.774500
 30
0.0
 10
221.213876
 20
11.574322
 30
0.0
 10
220.857557
 20
11.218003
 30
0.0
  0
SPLINE
  5
1a9
100
AcDbEntity
  8
0
 62
3
100
AcDbSpline
 70
8
 71
3
 72
8
 73
4
 74
0
 40
0
 40
0
 40
0
 40
0
 40
1
 40
1
 40
1
 40
1
 10
220.857557
 20
11.218003
 30
0.0
 10
220.501238
 20
10.861684
 30
0.0
 10
220.301060
 20
10.378411
 30
0.0
 10
220.301060
 20
9.874500
 30
0.0
  0
LINE
  5
1aa
100
AcDbEntity
  8
0
 62
3
100
AcDbLine
 10
220.301060
 20
9.874500
 30
0.0
 11
220.301060
 21
9.874500
 31
0.0
  0
SPLINE
  5
1ab
100
AcDbEntity
  8
0
 62
3
100
AcDbSpline
 70
8
 71
3
 72
8
 73
4
 74
0
 40
0
 40
0
 40
0
 40
0
 40
1
 40
1
 40
1
 40
1
 10
114.701060
 20
9.874500
 30
0.0
 10
114.701060
 20
9.370589
 30
0.0
 10
114.901238
 20
8.887316
 30
0.0
 10
115.257557
 20
8.530997
 30
0.0
  0
SPLINE
  5
1ac
100
AcDbEntity
  8
0
 62
3
100
AcDbSpline
 70
8
 71
3
 72
8
 73
4
 74
0
 40
0
 40
0
 40
0
 40
0
 40
1
 40
1
 40
1
 40
1
 10
115.257557
 20
8.530997
 30
0.0
 10
115.613876
 20
8.174678
 30
0.0
 10
116.097149
 20
7.974500
 30
0.0
 10
116.601060
 20
7.974500
 30
0.0
  0
SPLINE
  5
1ad
100
AcDbEntity
  8
0
 62
3
100
AcDbSpline
 70
8
 71
3
 72
8
 73
4
 74
0
 40
0
 40
0
 40
0
 40
0
 40
1
 40
1
 40
1
 40
1
 10
116.601060
 20
7.974500
 30
0.0
 10
117.104971
 20
7.974500
 30
0.0
 10
117.588244
 20
8.174678
 30
0.0
 10
117.944563
 20
8.530997
 30
0.0
  0
SPLINE
  5
1ae
100
AcDbEntity
  8
0
 62
3
100
AcDbSpline
 70
8
 71
3
 72
8
 73
4
 74
0
 40
0
 40
0
 40
0
 40
0
 40
1
 40
1
 40
1
 40
1
 10
117.944563
 20
8.530997
 30
0.0
 10
118.300882
 20
8.887316
 30
0.0
 10
118.501060
 20
9.370589
 30
0.0
 10
118.501060
 20
9.874500
 30
0.0
  0
SPLINE
  5
1af
100
AcDbEntity
  8
0
 62
3
100
AcDbSpline
 70
8
 71
3
 72
8
 73
4
 74
0
 40
0
 40
0
 40
0
 40
0
 40
1
 40
1
 40
1
 40
1
 10
118.501060
 20
9.874500
 30
0.0
 10
118.501060
 20
10.378411
 30
0.0
 10
118.300882
 20
10.861684
 30
0.0
 10
117.944563
 20
11.218003
 30
0.0
  0
SPLINE
  5
1b0
100
AcDbEntity
  8
0
 62
3
100
AcDbSpline
 70
8
 71
3
 72
8
 73
4
 74
0
 40
0
 40
0
 40
0
 40
0
 40
1
 40
1
 40
1
 40
1
 10
117.944563
 20
11.218003
 30
0.0
 10
117.588244
 20
11.574322
 30
0.0
 10
117.104971
 20
11.774500
 30
0.0
 10
116.601060
 20
11.774500
 30
0.0
  0
SPLINE
  5
1b1
100
AcDbEntity
  8
0
 62
3
100
AcDbSpline
 70
8
 71
3
 72
8
 73
4
 74
0
 40
0
 40
0
 40
0
 40
0
 40
1
 40
1
 40
1
 40
1
 10
116.601060
 20
11.774500
 30
0.0
 10
116.097149
 20
11.774500
 30
0.0
 10
115.613876
 20
11.574322
 30
0.0
 10
115.257557
 20
11.218003
 30
0.0
  0
SPLINE
  5
1b2
100
AcDbEntity
  8
0
 62
3
100
AcDbSpline
 70
8
 71
3
 72
8
 73
4
 74
0
 40
0
 40
0
 40
0
 40
0
 40
1
 40
1
 40
1
 40
1
 10
115.257557
 20
11.218003
 30
0.0
 10
114.901238
 20
10.861684
 30
0.0
 10
114.701060
 20
10.378411
 30
0.0
 10
114.701060
 20
9.874500
 30
0.0
  0
LINE
  5
1b3
100
AcDbEntity
  8
0
 62
3
100
AcDbLine
 10
114.701060
 20
9.874500
 30
0.0
 11
114.701060
 21
9.874500
 31
0.0
  0
SPLINE
  5
1b4
100
AcDbEntity
  8
0
 62
3
100
AcDbSpline
 70
8
 71
3
 72
8
 73
4
 74
0
 40
0
 40
0
 40
0
 40
0
 40
1
 40
1
 40
1
 40
1
 10
9.100060
 20
9.874500
 30
0.0
 10
9.100060
 20
9.370589
 30
0.0
 10
9.300238
 20
8.887316
 30
0.0
 10
9.656557
 20
8.530997
 30
0.0
  0
SPLINE
  5
1b5
100
AcDbEntity
  8
0
 62
3
100
AcDbSpline
 70
8
 71
3
 72
8
 73
4
 74
0
 40
0
 40
0
 40
0
 40
0
 40
1
 40
1
 40
1
 40
1
 10
9.656557
 20
8.530997
 30
0.0
 10
10.012876
 20
8.174678
 30
0.0
 10
10.496149
 20
7.974500
 30
0.0
 10
11.000060
 20
7.974500
 30
0.0
  0
SPLINE
  5
1b6
100
AcDbEntity
  8
0
 62
3
100
AcDbSpline
 70
8
 71
3
 72
8
 73
4
 74
0
 40
0
 40
0
 40
0
 40
0
 40
1
 40
1
 40
1
 40
1
 10
11.000060
 20
7.974500
 30
0.0
 10
11.503971
 20
7.974500
 30
0.0
 10
11.987244
 20
8.174678
 30
0.0
 10
12.343563
 20
8.530997
 30
0.0
  0
SPLINE
  5
1b7
100
AcDbEntity
  8
0
 62
3
100
AcDbSpline
 70
8
 71
3
 72
8
 73
4
 74
0
 40
0
 40
0
 40
0
 40
0
 40
1
 40
1
 40
1
 40
1
 10
12.343563
 20
8.530997
 30
0.0
 10
12.699882
 20
8.887316
 30
0.0
 10
12.900060
 20
9.370589
 30
0.0
 10
12.900060
 20
9.874500
 30
0.0
  0
SPLINE
  5
1b8
100
AcDbEntity
  8
0
 62
3
100
AcDbSpline
 70
8
 71
3
 72
8
 73
4
 74
0
 40
0
 40
0
 40
0
 40
0
 40
1
 40
1
 40
1
 40
1
 10
12.900060
 20
9.874500
 30
0.0
 10
12.900060
 20
10.378411
 30
0.0
 10
12.699882
 20
10.861684
 30
0.0
 10
12.343563
 20
11.218003
 30
0.0
  0
SPLINE
  5
1b9
100
AcDbEntity
  8
0
 62
3
100
AcDbSpline
 70
8
 71
3
 72
8
 73
4
 74
0
 40
0
 40
0
 40
0
 40
0
 40
1
 40
1
 40
1
 40
1
 10
12.343563
 20
11.218003
 30
0.0
 10
11.987244
 20
11.574322
 30
0.0
 10
11.503971
 20
11.774500
 30
0.0
 10
11.000060
 20
11.774500
 30
0.0
  0
SPLINE
  5
1ba
100
AcDbEntity
  8
0
 62
3
100
AcDbSpline
 70
8
 71
3
 72
8
 73
4
 74
0
 40
0
 40
0
 40
0
 40
0
 40
1
 40
1
 40
1
 40
1
 10
11.000060
 20
11.774500
 30
0.0
 10
10.496149
 20
11.774500
 30
0.0
 10
10.012876
 20
11.574322
 30
0.0
 10
9.656557
 20
11.218003
 30
0.0
  0
SPLINE
  5
1bb
100
AcDbEntity
  8
0
 62
3
100
AcDbSpline
 70
8
 71
3
 72
8
 73
4
 74
0
 40
0
 40
0
 40
0
 40
0
 40
1
 40
1
 40
1
 40
1
 10
9.656557
 20
11.218003
 30
0.0
 10
9.300238
 20
10.861684
 30
0.0
 10
9.100060
 20
10.378411
 30
0.0
 10
9.100060
 20
9.874500
 30
0.0
  0
LINE
  5
1bc
100
AcDbEntity
  8
0
 62
3
100
AcDbLine
 10
9.100060
 20
9.874500
 30
0.0
 11
9.100060
 21
9.874500
 31
0.0
  0
SPLINE
  5
1bd
100
AcDbEntity
  8
0
 62
3
100
AcDbSpline
 70
8
 71
3
 72
8
 73
4
 74
0
 40
0
 40
0
 40
0
 40
0
 40
1
 40
1
 40
1
 40
1
 10
9.100060
 20
63.499497
 30
0.0
 10
9.100060
 20
62.450156
 30
0.0
 10
9.950719
 20
61.599498
 30
0.0
 10
11.000060
 20
61.599498
 30
0.0
  0
SPLINE
  5
1be
100
AcDbEntity
  8
0
 62
3
100
AcDbSpline
 70
8
 71
3
 72
8
 73
4
 74
0
 40
0
 40
0
 40
0
 40
0
 40
1
 40
1
 40
1
 40
1
 10
11.000060
 20
61.599498
 30
0.0
 10
12.049401
 20
61.599498
 30
0.0
 10
12.900060
 20
62.450156
 30
0.0
 10
12.900060
 20
63.499497
 30
0.0
  0
SPLINE
  5
1bf
100
AcDbEntity
  8
0
 62
3
100
AcDbSpline
 70
8
 71
3
 72
8
 73
4
 74
0
 40
0
 40
0
 40
0
 40
0
 40
1
 40
1
 40
1
 40
1
 10
12.900060
 20
63.499497
 30
0.0
 10
12.900060
 20
64.003409
 30
0.0
 10
12.699882
 20
64.486681
 30
0.0
 10
12.343563
 20
64.843001
 30
0.0
  0
SPLINE
  5
1c0
100
AcDbEntity
  8
0
 62
3
100
AcDbSpline
 70
8
 71
3
 72
8
 73
4
 74
0
 40
0
 40
0
 40
0
 40
0
 40
1
 40
1
 40
1
 40
1
 10
12.343563
 20
64.843001
 30
0.0
 10
11.987244
 20
65.199320
 30
0.0
 10
11.503972
 20
65.399498
 30
0.0
 10
11.000060
 20
65.399498
 30
0.0
  0
SPLINE
  5
1c1
100
AcDbEntity
  8
0
 62
3
100
AcDbSpline
 70
8
 71
3
 72
8
 73
4
 74
0
 40
0
 40
0
 40
0
 40
0
 40
1
 40
1
 40
1
 40
1
 10
11.000060
 20
65.399498
 30
0.0
 10
10.496148
 20
65.399498
 30
0.0
 10
10.012876
 20
65.199320
 30
0.0
 10
9.656557
 20
64.843001
 30
0.0
  0
SPLINE
  5
1c2
100
AcDbEntity
  8
0
 62
3
100
AcDbSpline
 70
8
 71
3
 72
8
 73
4
 74
0
 40
0
 40
0
 40
0
 40
0
 40
1
 40
1
 40
1
 40
1
 10
9.656557
 20
64.843001
 30
0.0
 10
9.300238
 20
64.486681
 30
0.0
 10
9.100060
 20
64.003409
 30
0.0
 10
9.100060
 20
63.499497
 30
0.0
  0
LINE
  5
1c3
100
AcDbEntity
  8
0
 62
3
100
AcDbLine
 10
9.100060
 20
63.499497
 30
0.0
 11
9.100060
 21
63.499497
 31
0.0
  0
SPLINE
  5
1c4
100
AcDbEntity
  8
0
 62
3
100
AcDbSpline
 70
8
 71
3
 72
8
 73
4
 74
0
 40
0
 40
0
 40
0
 40
0
 40
1
 40
1
 40
1
 40
1
 10
9.100060
 20
117.124497
 30
0.0
 10
9.100060
 20
116.075156
 30
0.0
 10
9.950719
 20
115.224498
 30
0.0
 10
11.000060
 20
115.224498
 30
0.0
  0
SPLINE
  5
1c5
100
AcDbEntity
  8
0
 62
3
100
AcDbSpline
 70
8
 71
3
 72
8
 73
4
 74
0
 40
0
 40
0
 40
0
 40
0
 40
1
 40
1
 40
1
 40
1
 10
11.000060
 20
115.224498
 30
0.0
 10
12.049401
 20
115.224498
 30
0.0
 10
12.900060
 20
116.075156
 30
0.0
 10
12.900060
 20
117.124497
 30
0.0
  0
SPLINE
  5
1c6
100
AcDbEntity
  8
0
 62
3
100
AcDbSpline
 70
8
 71
3
 72
8
 73
4
 74
0
 40
0
 40
0
 40
0
 40
0
 40
1
 40
1
 40
1
 40
1
 10
12.900060
 20
117.124497
 30
0.0
 10
12.900060
 20
117.628409
 30
0.0
 10
12.699882
 20
118.111681
 30
0.0
 10
12.343563
 20
118.468001
 30
0.0
  0
SPLINE
  5
1c7
100
AcDbEntity
  8
0
 62
3
100
AcDbSpline
 70
8
 71
3
 72
8
 73
4
 74
0
 40
0
 40
0
 40
0
 40
0
 40
1
 40
1
 40
1
 40
1
 10
12.343563
 20
118.468001
 30
0.0
 10
11.987244
 20
118.824320
 30
0.0
 10
11.503972
 20
119.024498
 30
0.0
 10
11.000060
 20
119.024498
 30
0.0
  0
SPLINE
  5
1c8
100
AcDbEntity
  8
0
 62
3
100
AcDbSpline
 70
8
 71
3
 72
8
 73
4
 74
0
 40
0
 40
0
 40
0
 40
0
 40
1
 40
1
 40
1
 40
1
 10
11.000060
 20
119.024498
 30
0.0
 10
10.496148
 20
119.024498
 30
0.0
 10
10.012876
 20
118.824320
 30
0.0
 10
9.656557
 20
118.468001
 30
0.0
  0
SPLINE
  5
1c9
100
AcDbEntity
  8
0
 62
3
100
AcDbSpline
 70
8
 71
3
 72
8
 73
4
 74
0
 40
0
 40
0
 40
0
 40
0
 40
1
 40
1
 40
1
 40
1
 10
9.656557
 20
118.468001
 30
0.0
 10
9.300238
 20
118.111681
 30
0.0
 10
9.100060
 20
117.628409
 30
0.0
 10
9.100060
 20
117.124497
 30
0.0
  0
LINE
  5
1ca
100
AcDbEntity
  8
0
 62
3
100
AcDbLine
 10
9.100060
 20
117.124497
 30
0.0
 11
9.100060
 21
117.124497
 31
0.0
  0
SPLINE
  5
1cb
100
AcDbEntity
  8
0
 62
3
100
AcDbSpline
 70
8
 71
3
 72
8
 73
4
 74
0
 40
0
 40
0
 40
0
 40
0
 40
1
 40
1
 40
1
 40
1
 10
114.701060
 20
117.124497
 30
0.0
 10
114.701060
 20
116.075156
 30
0.0
 10
115.551719
 20
115.224498
 30
0.0
 10
116.601060
 20
115.224498
 30
0.0
  0
SPLINE
  5
1cc
100
AcDbEntity
  8
0
 62
3
100
AcDbSpline
 70
8
 71
3
 72
8
 73
4
 74
0
 40
0
 40
0
 40
0
 40
0
 40
1
 40
1
 40
1
 40
1
 10
116.601060
 20
115.224498
 30
0.0
 10
117.650401
 20
115.224498
 30
0.0
 10
118.501060
 20
116.075156
 30
0.0
 10
118.501060
 20
117.124497
 30
0.0
  0
SPLINE
  5
1cd
100
AcDbEntity
  8
0
 62
3
100
AcDbSpline
 70
8
 71
3
 72
8
 73
4
 74
0
 40
0
 40
0
 40
0
 40
0
 40
1
 40
1
 40
1
 40
1
 10
118.501060
 20
117.124497
 30
0.0
 10
118.501060
 20
117.628409
 30
0.0
 10
118.300882
 20
118.111681
 30
0.0
 10
117.944563
 20
118.468001
 30
0.0
  0
SPLINE
  5
1ce
100
AcDbEntity
  8
0
 62
3
100
AcDbSpline
 70
8
 71
3
 72
8
 73
4
 74
0
 40
0
 40
0
 40
0
 40
0
 40
1
 40
1
 40
1
 40
1
 10
117.944563
 20
118.468001
 30
0.0
 10
117.588244
 20
118.824320
 30
0.0
 10
117.104972
 20
119.024498
 30
0.0
 10
116.601060
 20
119.024498
 30
0.0
  0
SPLINE
  5
1cf
100
AcDbEntity
  8
0
 62
3
100
AcDbSpline
 70
8
 71
3
 72
8
 73
4
 74
0
 40
0
 40
0
 40
0
 40
0
 40
1
 40
1
 40
1
 40
1
 10
116.601060
 20
119.024498
 30
0.0
 10
116.097149
 20
119.024498
 30
0.0
 10
115.613876
 20
118.824320
 30
0.0
 10
115.257557
 20
118.468001
 30
0.0
  0
SPLINE
  5
1d0
100
AcDbEntity
  8
0
 62
3
100
AcDbSpline
 70
8
 71
3
 72
8
 73
4
 74
0
 40
0
 40
0
 40
0
 40
0
 40
1
 40
1
 40
1
 40
1
 10
115.257557
 20
118.468001
 30
0.0
 10
114.901238
 20
118.111681
 30
0.0
 10
114.701060
 20
117.628409
 30
0.0
 10
114.701060
 20
117.124497
 30
0.0
  0
LINE
  5
1d1
100
AcDbEntity
  8
0
 62
3
100
AcDbLine
 10
114.701060
 20
117.124497
 30
0.0
 11
114.701060
 21
117.124497
 31
0.0
  0
SPLINE
  5
1d2
100
AcDbEntity
  8
0
 62
3
100
AcDbSpline
 70
8
 71
3
 72
8
 73
4
 74
0
 40
0
 40
0
 40
0
 40
0
 40
1
 40
1
 40
1
 40
1
 10
220.301060
 20
117.124497
 30
0.0
 10
220.301060
 20
116.075156
 30
0.0
 10
221.151719
 20
115.224498
 30
0.0
 10
222.201060
 20
115.224498
 30
0.0
  0
SPLINE
  5
1d3
100
AcDbEntity
  8
0
 62
3
100
AcDbSpline
 70
8
 71
3
 72
8
 73
4
 74
0
 40
0
 40
0
 40
0
 40
0
 40
1
 40
1
 40
1
 40
1
 10
222.201060
 20
115.224498
 30
0.0
 10
223.250401
 20
115.224498
 30
0.0
 10
224.101060
 20
116.075156
 30
0.0
 10
224.101060
 20
117.124497
 30
0.0
  0
SPLINE
  5
1d4
100
AcDbEntity
  8
0
 62
3
100
AcDbSpline
 70
8
 71
3
 72
8
 73
4
 74
0
 40
0
 40
0
 40
0
 40
0
 40
1
 40
1
 40
1
 40
1
 10
224.101060
 20
117.124497
 30
0.0
 10
224.101060
 20
117.628409
 30
0.0
 10
223.900882
 20
118.111681
 30
0.0
 10
223.544563
 20
118.468001
 30
0.0
  0
SPLINE
  5
1d5
100
AcDbEntity
  8
0
 62
3
100
AcDbSpline
 70
8
 71
3
 72
8
 73
4
 74
0
 40
0
 40
0
 40
0
 40
0
 40
1
 40
1
 40
1
 40
1
 10
223.544563
 20
118.468001
 30
0.0
 10
223.188244
 20
118.824320
 30
0.0
 10
222.704972
 20
119.024498
 30
0.0
 10
222.201060
 20
119.024498
 30
0.0
  0
SPLINE
  5
1d6
100
AcDbEntity
  8
0
 62
3
100
AcDbSpline
 70
8
 71
3
 72
8
 73
4
 74
0
 40
0
 40
0
 40
0
 40
0
 40
1
 40
1
 40
1
 40
1
 10
222.201060
 20
119.024498
 30
0.0
 10
221.697149
 20
119.024498
 30
0.0
 10
221.213876
 20
118.824320
 30
0.0
 10
220.857557
 20
118.468001
 30
0.0
  0
SPLINE
  5
1d7
100
AcDbEntity
  8
0
 62
3
100
AcDbSpline
 70
8
 71
3
 72
8
 73
4
 74
0
 40
0
 40
0
 40
0
 40
0
 40
1
 40
1
 40
1
 40
1
 10
220.857557
 20
118.468001
 30
0.0
 10
220.501238
 20
118.111681
 30
0.0
 10
220.301060
 20
117.628409
 30
0.0
 10
220.301060
 20
117.124497
 30
0.0
  0
LINE
  5
1d8
100
AcDbEntity
  8
0
 62
3
100
AcDbLine
 10
220.301060
 20
117.124497
 30
0.0
 11
220.301060
 21
117.124497
 31
0.0
  0
SPLINE
  5
1d9
100
AcDbEntity
  8
0
 62
3
100
AcDbSpline
 70
8
 71
3
 72
8
 73
4
 74
0
 40
0
 40
0
 40
0
 40
0
 40
1
 40
1
 40
1
 40
1
 10
220.301060
 20
117.124497
 30
0.0
 10
220.301060
 20
116.075156
 30
0.0
 10
221.151719
 20
115.224498
 30
0.0
 10
222.201060
 20
115.224498
 30
0.0
  0
SPLINE
  5
1da
100
AcDbEntity
  8
0
 62
3
100
AcDbSpline
 70
8
 71
3
 72
8
 73
4
 74
0
 40
0
 40
0
 40
0
 40
0
 40
1
 40
1
 40
1
 40
1
 10
222.201060
 20
115.224498
 30
0.0
 10
223.250401
 20
115.224498
 30
0.0
 10
224.101060
 20
116.075156
 30
0.0
 10
224.101060
 20
117.124497
 30
0.0
  0
SPLINE
  5
1db
100
AcDbEntity
  8
0
 62
3
100
AcDbSpline
 70
8
 71
3
 72
8
 73
4
 74
0
 40
0
 40
0
 40
0
 40
0
 40
1
 40
1
 40
1
 40
1
 10
224.101060
 20
117.124497
 30
0.0
 10
224.101060
 20
117.628409
 30
0.0
 10
223.900882
 20
118.111681
 30
0.0
 10
223.544563
 20
118.468001
 30
0.0
  0
SPLINE
  5
1dc
100
AcDbEntity
  8
0
 62
3
100
AcDbSpline
 70
8
 71
3
 72
8
 73
4
 74
0
 40
0
 40
0
 40
0
 40
0
 40
1
 40
1
 40
1
 40
1
 10
223.544563
 20
118.468001
 30
0.0
 10
223.188244
 20
118.824320
 30
0.0
 10
222.704972
 20
119.024498
 30
0.0
 10
222.201060
 20
119.024498
 30
0.0
  0
SPLINE
  5
1dd
100
AcDbEntity
  8
0
 62
3
100
AcDbSpline
 70
8
 71
3
 72
8
 73
4
 74
0
 40
0
 40
0
 40
0
 40
0
 40
1
 40
1
 40
1
 40
1
 10
222.201060
 20
119.024498
 30
0.0
 10
221.697149
 20
119.024498
 30
0.0
 10
221.213876
 20
118.824320
 30
0.0
 10
220.857557
 20
118.468001
 30
0.0
  0
SPLINE
  5
1de
100
AcDbEntity
  8
0
 62
3
100
AcDbSpline
 70
8
 71
3
 72
8
 73
4
 74
0
 40
0
 40
0
 40
0
 40
0
 40
1
 40
1
 40
1
 40
1
 10
220.857557
 20
118.468001
 30
0.0
 10
220.501238
 20
118.111681
 30
0.0
 10
220.301060
 20
117.628409
 30
0.0
 10
220.301060
 20
117.124497
 30
0.0
  0
LINE
  5
1df
100
AcDbEntity
  8
0
 62
3
100
AcDbLine
 10
220.301060
 20
117.124497
 30
0.0
 11
220.301060
 21
117.124497
 31
0.0
  0
LINE
  5
1e0
100
AcDbEntity
  8
0
 62
5
100
AcDbLine
 10
297.701060
 20
83.398032
 30
0.0
 11
299.951050
 21
82.099403
 31
0.0
  0
LINE
  5
1e1
100
AcDbEntity
  8
0
 62
5
100
AcDbLine
 10
299.951050
 20
82.099403
 30
0.0
 11
299.951050
 21
79.501112
 31
0.0
  0
LINE
  5
1e2
100
AcDbEntity
  8
0
 62
5
100
AcDbLine
 10
299.951050
 20
79.501112
 30
0.0
 11
297.701060
 21
78.201967
 31
0.0
  0
LINE
  5
1e3
100
AcDbEntity
  8
0
 62
5
100
AcDbLine
 10
297.701060
 20
78.201967
 30
0.0
 11
295.451070
 21
79.501112
 31
0.0
  0
LINE
  5
1e4
100
AcDbEntity
  8
0
 62
5
100
AcDbLine
 10
295.451070
 20
79.501112
 30
0.0
 11
295.451070
 21
82.099403
 31
0.0
  0
LINE
  5
1e5
100
AcDbEntity
  8
0
 62
5
100
AcDbLine
 10
295.451070
 20
82.099403
 30
0.0
 11
297.701060
 21
83.398032
 31
0.0
  0
SPLINE
  5
1e6
100
AcDbEntity
  8
0
 62
5
100
AcDbSpline
 70
8
 71
3
 72
8
 73
4
 74
0
 40
0
 40
0
 40
0
 40
0
 40
1
 40
1
 40
1
 40
1
 10
297.701060
 20
81.800196
 30
0.0
 10
297.435775
 20
81.800318
 30
0.0
 10
297.181312
 20
81.695024
 30
0.0
 10
296.993678
 20
81.507487
 30
0.0
  0
SPLINE
  5
1e7
100
AcDbEntity
  8
0
 62
5
100
AcDbSpline
 70
8
 71
3
 72
8
 73
4
 74
0
 40
0
 40
0
 40
0
 40
0
 40
1
 40
1
 40
1
 40
1
 10
296.993678
 20
81.507487
 30
0.0
 10
296.806044
 20
81.319951
 30
0.0
 10
296.700616
 20
81.065543
 30
0.0
 10
296.700600
 20
80.800258
 30
0.0
  0
SPLINE
  5
1e8
100
AcDbEntity
  8
0
 62
5
100
AcDbSpline
 70
8
 71
3
 72
8
 73
4
 74
0
 40
0
 40
0
 40
0
 40
0
 40
1
 40
1
 40
1
 40
1
 10
296.700600
 20
80.800258
 30
0.0
 10
296.700616
 20
80.534972
 30
0.0
 10
296.806043
 20
80.280564
 30
0.0
 10
296.993677
 20
80.093028
 30
0.0
  0
SPLINE
  5
1e9
100
AcDbEntity
  8
0
 62
5
100
AcDbSpline
 70
8
 71
3
 72
8
 73
4
 74
0
 40
0
 40
0
 40
0
 40
0
 40
1
 40
1
 40
1
 40
1
 10
296.993677
 20
80.093028
 30
0.0
 10
297.181312
 20
79.905492
 30
0.0
 10
297.435774
 20
79.800197
 30
0.0
 10
297.701060
 20
79.800319
 30
0.0
  0
SPLINE
  5
1ea
100
AcDbEntity
  8
0
 62
5
100
AcDbSpline
 70
8
 71
3
 72
8
 73
4
 74
0
 40
0
 40
0
 40
0
 40
0
 40
1
 40
1
 40
1
 40
1
 10
297.701060
 20
79.800319
 30
0.0
 10
298.253297
 20
79.800352
 30
0.0
 10
298.700966
 20
80.248020
 30
0.0
 10
298.701000
 20
80.800258
 30
0.0
  0
SPLINE
  5
1eb
100
AcDbEntity
  8
0
 62
5
100
AcDbSpline
 70
8
 71
3
 72
8
 73
4
 74
0
 40
0
 40
0
 40
0
 40
0
 40
1
 40
1
 40
1
 40
1
 10
298.701000
 20
80.800258
 30
0.0
 10
298.700966
 20
81.352495
 30
0.0
 10
298.253297
 20
81.800163
 30
0.0
 10
297.701060
 20
81.800196
 30
0.0
  0
LINE
  5
1ec
100
AcDbEntity
  8
0
 62
5
100
AcDbLine
 10
297.701060
 20
81.800196
 30
0.0
 11
297.701060
 21
81.800196
 31
0.0
  0
SPLINE
  5
1ed
100
AcDbEntity
  8
0
 62
3
100
AcDbSpline
 70
8
 71
3
 72
8
 73
4
 74
0
 40
0
 40
0
 40
0
 40
0
 40
1
 40
1
 40
1
 40
1
 10
296.700850
 20
80.800151
 30
0.0
 10
296.700850
 20
80.442885
 30
0.0
 10
296.891449
 20
80.112758
 30
0.0
 10
297.200850
 20
79.934126
 30
0.0
  0
SPLINE
  5
1ee
100
AcDbEntity
  8
0
 62
3
100
AcDbSpline
 70
8
 71
3
 72
8
 73
4
 74
0
 40
0
 40
0
 40
0
 40
0
 40
1
 40
1
 40
1
 40
1
 10
297.200850
 20
79.934126
 30
0.0
 10
297.510251
 20
79.755493
 30
0.0
 10
297.891449
 20
79.755493
 30
0.0
 10
298.200850
 20
79.934126
 30
0.0
  0
SPLINE
  5
1ef
100
AcDbEntity
  8
0
 62
3
100
AcDbSpline
 70
8
 71
3
 72
8
 73
4
 74
0
 40
0
 40
0
 40
0
 40
0
 40
1
 40
1
 40
1
 40
1
 10
298.200850
 20
79.934126
 30
0.0
 10
298.510251
 20
80.112758
 30
0.0
 10
298.700850
 20
80.442885
 30
0.0
 10
298.700850
 20
80.800151
 30
0.0
  0
SPLINE
  5
1f0
100
AcDbEntity
  8
0
 62
3
100
AcDbSpline
 70
8
 71
3
 72
8
 73
4
 74
0
 40
0
 40
0
 40
0
 40
0
 40
1
 40
1
 40
1
 40
1
 10
298.700850
 20
80.800151
 30
0.0
 10
298.700850
 20
81.157417
 30
0.0
 10
298.510251
 20
81.487544
 30
0.0
 10
298.200850
 20
81.666176
 30
0.0
  0
SPLINE
  5
1f1
100
AcDbEntity
  8
0
 62
3
100
AcDbSpline
 70
8
 71
3
 72
8
 73
4
 74
0
 40
0
 40
0
 40
0
 40
0
 40
1
 40
1
 40
1
 40
1
 10
298.200850
 20
81.666176
 30
0.0
 10
297.891449
 20
81.844809
 30
0.0
 10
297.510251
 20
81.844809
 30
0.0
 10
297.200850
 20
81.666176
 30
0.0
  0
SPLINE
  5
1f2
100
AcDbEntity
  8
0
 62
3
100
AcDbSpline
 70
8
 71
3
 72
8
 73
4
 74
0
 40
0
 40
0
 40
0
 40
0
 40
1
 40
1
 40
1
 40
1
 10
297.200850
 20
81.666176
 30
0.0
 10
296.891449
 20
81.487544
 30
0.0
 10
296.700850
 20
81.157417
 30
0.0
 10
296.700850
 20
80.800151
 30
0.0
  0
LINE
  5
1f3
100
AcDbEntity
  8
0
 62
3
100
AcDbLine
 10
296.700850
 20
80.800151
 30
0.0
 11
296.700850
 21
80.800151
 31
0.0
  0
LINE
  5
1f4
100
AcDbEntity
  8
0
 62
5
100
AcDbLine
 10
297.701060
 20
26.798030
 30
0.0
 11
299.951050
 21
25.499401
 31
0.0
  0
LINE
  5
1f5
100
AcDbEntity
  8
0
 62
5
100
AcDbLine
 10
299.951050
 20
25.499401
 30
0.0
 11
299.951050
 21
22.901110
 31
0.0
  0
LINE
  5
1f6
100
AcDbEntity
  8
0
 62
5
100
AcDbLine
 10
299.951050
 20
22.901110
 30
0.0
 11
297.701060
 21
21.601965
 31
0.0
  0
LINE
  5
1f7
100
AcDbEntity
  8
0
 62
5
100
AcDbLine
 10
297.701060
 20
21.601965
 30
0.0
 11
295.451070
 21
22.901110
 31
0.0
  0
LINE
  5
1f8
100
AcDbEntity
  8
0
 62
5
100
AcDbLine
 10
295.451070
 20
22.901110
 30
0.0
 11
295.451070
 21
25.499401
 31
0.0
  0
LINE
  5
1f9
100
AcDbEntity
  8
0
 62
5
100
AcDbLine
 10
295.451070
 20
25.499401
 30
0.0
 11
297.701060
 21
26.798030
 31
0.0
  0
SPLINE
  5
1fa
100
AcDbEntity
  8
0
 62
5
100
AcDbSpline
 70
8
 71
3
 72
8
 73
4
 74
0
 40
0
 40
0
 40
0
 40
0
 40
1
 40
1
 40
1
 40
1
 10
297.701060
 20
25.200194
 30
0.0
 10
297.435775
 20
25.200316
 30
0.0
 10
297.181312
 20
25.095022
 30
0.0
 10
296.993678
 20
24.907485
 30
0.0
  0
SPLINE
  5
1fb
100
AcDbEntity
  8
0
 62
5
100
AcDbSpline
 70
8
 71
3
 72
8
 73
4
 74
0
 40
0
 40
0
 40
0
 40
0
 40
1
 40
1
 40
1
 40
1
 10
296.993678
 20
24.907485
 30
0.0
 10
296.806044
 20
24.719949
 30
0.0
 10
296.700616
 20
24.465541
 30
0.0
 10
296.700600
 20
24.200256
 30
0.0
  0
SPLINE
  5
1fc
100
AcDbEntity
  8
0
 62
5
100
AcDbSpline
 70
8
 71
3
 72
8
 73
4
 74
0
 40
0
 40
0
 40
0
 40
0
 40
1
 40
1
 40
1
 40
1
 10
296.700600
 20
24.200256
 30
0.0
 10
296.700616
 20
23.934970
 30
0.0
 10
296.806043
 20
23.680562
 30
0.0
 10
296.993677
 20
23.493026
 30
0.0
  0
SPLINE
  5
1fd
100
AcDbEntity
  8
0
 62
5
100
AcDbSpline
 70
8
 71
3
 72
8
 73
4
 74
0
 40
0
 40
0
 40
0
 40
0
 40
1
 40
1
 40
1
 40
1
 10
296.993677
 20
23.493026
 30
0.0
 10
297.181312
 20
23.305490
 30
0.0
 10
297.435774
 20
23.200195
 30
0.0
 10
297.701060
 20
23.200317
 30
0.0
  0
SPLINE
  5
1fe
100
AcDbEntity
  8
0
 62
5
100
AcDbSpline
 70
8
 71
3
 72
8
 73
4
 74
0
 40
0
 40
0
 40
0
 40
0
 40
1
 40
1
 40
1
 40
1
 10
297.701060
 20
23.200317
 30
0.0
 10
298.253297
 20
23.200350
 30
0.0
 10
298.700966
 20
23.648018
 30
0.0
 10
298.701000
 20
24.200256
 30
0.0
  0
SPLINE
  5
1ff
100
AcDbEntity
  8
0
 62
5
100
AcDbSpline
 70
8
 71
3
 72
8
 73
4
 74
0
 40
0
 40
0
 40
0
 40
0
 40
1
 40
1
 40
1
 40
1
 10
298.701000
 20
24.200256
 30
0.0
 10
298.700966
 20
24.752493
 30
0.0
 10
298.253297
 20
25.200161
 30
0.0
 10
297.701060
 20
25.200194
 30
0.0
  0
LINE
  5
200
100
AcDbEntity
  8
0
 62
5
100
AcDbLine
 10
297.701060
 20
25.200194
 30
0.0
 11
297.701060
 21
25.200194
 31
0.0
  0
SPLINE
  5
201
100
AcDbEntity
  8
0
 62
3
100
AcDbSpline
 70
8
 71
3
 72
8
 73
4
 74
0
 40
0
 40
0
 40
0
 40
0
 40
1
 40
1
 40
1
 40
1
 10
296.700850
 20
24.200149
 30
0.0
 10
296.700850
 20
23.842883
 30
0.0
 10
296.891449
 20
23.512756
 30
0.0
 10
297.200850
 20
23.334124
 30
0.0
  0
SPLINE
  5
202
100
AcDbEntity
  8
0
 62
3
100
AcDbSpline
 70
8
 71
3
 72
8
 73
4
 74
0
 40
0
 40
0
 40
0
 40
0
 40
1
 40
1
 40
1
 40
1
 10
297.200850
 20
23.334124
 30
0.0
 10
297.510251
 20
23.155491
 30
0.0
 10
297.891449
 20
23.155491
 30
0.0
 10
298.200850
 20
23.334124
 30
0.0
  0
SPLINE
  5
203
100
AcDbEntity
  8
0
 62
3
100
AcDbSpline
 70
8
 71
3
 72
8
 73
4
 74
0
 40
0
 40
0
 40
0
 40
0
 40
1
 40
1
 40
1
 40
1
 10
298.200850
 20
23.334124
 30
0.0
 10
298.510251
 20
23.512756
 30
0.0
 10
298.700850
 20
23.842883
 30
0.0
 10
298.700850
 20
24.200149
 30
0.0
  0
SPLINE
  5
204
100
AcDbEntity
  8
0
 62
3
100
AcDbSpline
 70
8
 71
3
 72
8
 73
4
 74
0
 40
0
 40
0
 40
0
 40
0
 40
1
 40
1
 40
1
 40
1
 10
298.700850
 20
24.200149
 30
0.0
 10
298.700850
 20
24.557415
 30
0.0
 10
298.510251
 20
24.887542
 30
0.0
 10
298.200850
 20
25.066174
 30
0.0
  0
SPLINE
  5
205
100
AcDbEntity
  8
0
 62
3
100
AcDbSpline
 70
8
 71
3
 72
8
 73
4
 74
0
 40
0
 40
0
 40
0
 40
0
 40
1
 40
1
 40
1
 40
1
 10
298.200850
 20
25.066174
 30
0.0
 10
297.891449
 20
25.244807
 30
0.0
 10
297.510251
 20
25.244807
 30
0.0
 10
297.200850
 20
25.066174
 30
0.0
  0
SPLINE
  5
206
100
AcDbEntity
  8
0
 62
3
100
AcDbSpline
 70
8
 71
3
 72
8
 73
4
 74
0
 40
0
 40
0
 40
0
 40
0
 40
1
 40
1
 40
1
 40
1
 10
297.200850
 20
25.066174
 30
0.0
 10
296.891449
 20
24.887542
 30
0.0
 10
296.700850
 20
24.557415
 30
0.0
 10
296.700850
 20
24.200149
 30
0.0
  0
LINE
  5
207
100
AcDbEntity
  8
0
 62
3
100
AcDbLine
 10
296.700850
 20
24.200149
 30
0.0
 11
296.700850
 21
24.200149
 31
0.0
  0
LINE
  5
208
100
AcDbEntity
  8
0
 62
5
100
AcDbLine
 10
61.601070
 20
85.398032
 30
0.0
 11
63.851060
 21
84.099403
 31
0.0
  0
LINE
  5
209
100
AcDbEntity
  8
0
 62
5
100
AcDbLine
 10
63.851060
 20
84.099403
 30
0.0
 11
63.851060
 21
81.501112
 31
0.0
  0
LINE
  5
20a
100
AcDbEntity
  8
0
 62
5
100
AcDbLine
 10
63.851060
 20
81.501112
 30
0.0
 11
61.601070
 21
80.201967
 31
0.0
  0
LINE
  5
20b
100
AcDbEntity
  8
0
 62
5
100
AcDbLine
 10
61.601070
 20
80.201967
 30
0.0
 11
59.351080
 21
81.501112
 31
0.0
  0
LINE
  5
20c
100
AcDbEntity
  8
0
 62
5
100
AcDbLine
 10
59.351080
 20
81.501112
 30
0.0
 11
59.351080
 21
84.099403
 31
0.0
  0
LINE
  5
20d
100
AcDbEntity
  8
0
 62
5
100
AcDbLine
 10
59.351080
 20
84.099403
 30
0.0
 11
61.601070
 21
85.398032
 31
0.0
  0
SPLINE
  5
20e
100
AcDbEntity
  8
0
 62
5
100
AcDbSpline
 70
8
 71
3
 72
8
 73
4
 74
0
 40
0
 40
0
 40
0
 40
0
 40
1
 40
1
 40
1
 40
1
 10
61.601070
 20
83.800196
 30
0.0
 10
61.335785
 20
83.800318
 30
0.0
 10
61.081322
 20
83.695024
 30
0.0
 10
60.893688
 20
83.507487
 30
0.0
  0
SPLINE
  5
20f
100
AcDbEntity
  8
0
 62
5
100
AcDbSpline
 70
8
 71
3
 72
8
 73
4
 74
0
 40
0
 40
0
 40
0
 40
0
 40
1
 40
1
 40
1
 40
1
 10
60.893688
 20
83.507487
 30
0.0
 10
60.706054
 20
83.319951
 30
0.0
 10
60.600626
 20
83.065543
 30
0.0
 10
60.600610
 20
82.800258
 30
0.0
  0
SPLINE
  5
210
100
AcDbEntity
  8
0
 62
5
100
AcDbSpline
 70
8
 71
3
 72
8
 73
4
 74
0
 40
0
 40
0
 40
0
 40
0
 40
1
 40
1
 40
1
 40
1
 10
60.600610
 20
82.800258
 30
0.0
 10
60.600626
 20
82.534972
 30
0.0
 10
60.706053
 20
82.280564
 30
0.0
 10
60.893687
 20
82.093028
 30
0.0
  0
SPLINE
  5
211
100
AcDbEntity
  8
0
 62
5
100
AcDbSpline
 70
8
 71
3
 72
8
 73
4
 74
0
 40
0
 40
0
 40
0
 40
0
 40
1
 40
1
 40
1
 40
1
 10
60.893687
 20
82.093028
 30
0.0
 10
61.081322
 20
81.905492
 30
0.0
 10
61.335784
 20
81.800197
 30
0.0
 10
61.601070
 20
81.800319
 30
0.0
  0
SPLINE
  5
212
100
AcDbEntity
  8
0
 62
5
100
AcDbSpline
 70
8
 71
3
 72
8
 73
4
 74
0
 40
0
 40
0
 40
0
 40
0
 40
1
 40
1
 40
1
 40
1
 10
61.601070
 20
81.800319
 30
0.0
 10
62.153307
 20
81.800352
 30
0.0
 10
62.600976
 20
82.248020
 30
0.0
 10
62.601010
 20
82.800258
 30
0.0
  0
SPLINE
  5
213
100
AcDbEntity
  8
0
 62
5
100
AcDbSpline
 70
8
 71
3
 72
8
 73
4
 74
0
 40
0
 40
0
 40
0
 40
0
 40
1
 40
1
 40
1
 40
1
 10
62.601010
 20
82.800258
 30
0.0
 10
62.600976
 20
83.352495
 30
0.0
 10
62.153307
 20
83.800163
 30
0.0
 10
61.601070
 20
83.800196
 30
0.0
  0
LINE
  5
214
100
AcDbEntity
  8
0
 62
5
100
AcDbLine
 10
61.601070
 20
83.800196
 30
0.0
 11
61.601070
 21
83.800196
 31
0.0
  0
SPLINE
  5
215
100
AcDbEntity
  8
0
 62
3
100
AcDbSpline
 70
8
 71
3
 72
8
 73
4
 74
0
 40
0
 40
0
 40
0
 40
0
 40
1
 40
1
 40
1
 40
1
 10
60.600860
 20
82.800151
 30
0.0
 10
60.600860
 20
82.442885
 30
0.0
 10
60.791459
 20
82.112758
 30
0.0
 10
61.100860
 20
81.934126
 30
0.0
  0
SPLINE
  5
216
100
AcDbEntity
  8
0
 62
3
100
AcDbSpline
 70
8
 71
3
 72
8
 73
4
 74
0
 40
0
 40
0
 40
0
 40
0
 40
1
 40
1
 40
1
 40
1
 10
61.100860
 20
81.934126
 30
0.0
 10
61.410261
 20
81.755493
 30
0.0
 10
61.791459
 20
81.755493
 30
0.0
 10
62.100860
 20
81.934126
 30
0.0
  0
SPLINE
  5
217
100
AcDbEntity
  8
0
 62
3
100
AcDbSpline
 70
8
 71
3
 72
8
 73
4
 74
0
 40
0
 40
0
 40
0
 40
0
 40
1
 40
1
 40
1
 40
1
 10
62.100860
 20
81.934126
 30
0.0
 10
62.410261
 20
82.112758
 30
0.0
 10
62.600860
 20
82.442885
 30
0.0
 10
62.600860
 20
82.800151
 30
0.0
  0
SPLINE
  5
218
100
AcDbEntity
  8
0
 62
3
100
AcDbSpline
 70
8
 71
3
 72
8
 73
4
 74
0
 40
0
 40
0
 40
0
 40
0
 40
1
 40
1
 40
1
 40
1
 10
62.600860
 20
82.800151
 30
0.0
 10
62.600860
 20
83.157417
 30
0.0
 10
62.410261
 20
83.487544
 30
0.0
 10
62.100860
 20
83.666176
 30
0.0
  0
SPLINE
  5
219
100
AcDbEntity
  8
0
 62
3
100
AcDbSpline
 70
8
 71
3
 72
8
 73
4
 74
0
 40
0
 40
0
 40
0
 40
0
 40
1
 40
1
 40
1
 40
1
 10
62.100860
 20
83.666176
 30
0.0
 10
61.791459
 20
83.844809
 30
0.0
 10
61.410261
 20
83.844809
 30
0.0
 10
61.100860
 20
83.666176
 30
0.0
  0
SPLINE
  5
21a
100
AcDbEntity
  8
0
 62
3
100
AcDbSpline
 70
8
 71
3
 72
8
 73
4
 74
0
 40
0
 40
0
 40
0
 40
0
 40
1
 40
1
 40
1
 40
1
 10
61.100860
 20
83.666176
 30
0.0
 10
60.791459
 20
83.487544
 30
0.0
 10
60.600860
 20
83.157417
 30
0.0
 10
60.600860
 20
82.800151
 30
0.0
  0
LINE
  5
21b
100
AcDbEntity
  8
0
 62
3
100
AcDbLine
 10
60.600860
 20
82.800151
 30
0.0
 11
60.600860
 21
82.800151
 31
0.0
  0
LINE
  5
21c
100
AcDbEntity
  8
0
 62
5
100
AcDbLine
 10
55.601070
 20
27.798030
 30
0.0
 11
57.851060
 21
26.499401
 31
0.0
  0
LINE
  5
21d
100
AcDbEntity
  8
0
 62
5
100
AcDbLine
 10
57.851060
 20
26.499401
 30
0.0
 11
57.851060
 21
23.901110
 31
0.0
  0
LINE
  5
21e
100
AcDbEntity
  8
0
 62
5
100
AcDbLine
 10
57.851060
 20
23.901110
 30
0.0
 11
55.601070
 21
22.601965
 31
0.0
  0
LINE
  5
21f
100
AcDbEntity
  8
0
 62
5
100
AcDbLine
 10
55.601070
 20
22.601965
 30
0.0
 11
53.351080
 21
23.901110
 31
0.0
  0
LINE
  5
220
100
AcDbEntity
  8
0
 62
5
100
AcDbLine
 10
53.351080
 20
23.901110
 30
0.0
 11
53.351080
 21
26.499401
 31
0.0
  0
LINE
  5
221
100
AcDbEntity
  8
0
 62
5
100
AcDbLine
 10
53.351080
 20
26.499401
 30
0.0
 11
55.601070
 21
27.798030
 31
0.0
  0
SPLINE
  5
222
100
AcDbEntity
  8
0
 62
5
100
AcDbSpline
 70
8
 71
3
 72
8
 73
4
 74
0
 40
0
 40
0
 40
0
 40
0
 40
1
 40
1
 40
1
 40
1
 10
55.601070
 20
26.200194
 30
0.0
 10
55.335785
 20
26.200316
 30
0.0
 10
55.081322
 20
26.095022
 30
0.0
 10
54.893688
 20
25.907485
 30
0.0
  0
SPLINE
  5
223
100
AcDbEntity
  8
0
 62
5
100
AcDbSpline
 70
8
 71
3
 72
8
 73
4
 74
0
 40
0
 40
0
 40
0
 40
0
 40
1
 40
1
 40
1
 40
1
 10
54.893688
 20
25.907485
 30
0.0
 10
54.706054
 20
25.719949
 30
0.0
 10
54.600626
 20
25.465541
 30
0.0
 10
54.600610
 20
25.200256
 30
0.0
  0
SPLINE
  5
224
100
AcDbEntity
  8
0
 62
5
100
AcDbSpline
 70
8
 71
3
 72
8
 73
4
 74
0
 40
0
 40
0
 40
0
 40
0
 40
1
 40
1
 40
1
 40
1
 10
54.600610
 20
25.200256
 30
0.0
 10
54.600626
 20
24.934970
 30
0.0
 10
54.706053
 20
24.680562
 30
0.0
 10
54.893687
 20
24.493026
 30
0.0
  0
SPLINE
  5
225
100
AcDbEntity
  8
0
 62
5
100
AcDbSpline
 70
8
 71
3
 72
8
 73
4
 74
0
 40
0
 40
0
 40
0
 40
0
 40
1
 40
1
 40
1
 40
1
 10
54.893687
 20
24.493026
 30
0.0
 10
55.081322
 20
24.305490
 30
0.0
 10
55.335784
 20
24.200195
 30
0.0
 10
55.601070
 20
24.200317
 30
0.0
  0
SPLINE
  5
226
100
AcDbEntity
  8
0
 62
5
100
AcDbSpline
 70
8
 71
3
 72
8
 73
4
 74
0
 40
0
 40
0
 40
0
 40
0
 40
1
 40
1
 40
1
 40
1
 10
55.601070
 20
24.200317
 30
0.0
 10
56.153307
 20
24.200350
 30
0.0
 10
56.600976
 20
24.648018
 30
0.0
 10
56.601010
 20
25.200256
 30
0.0
  0
SPLINE
  5
227
100
AcDbEntity
  8
0
 62
5
100
AcDbSpline
 70
8
 71
3
 72
8
 73
4
 74
0
 40
0
 40
0
 40
0
 40
0
 40
1
 40
1
 40
1
 40
1
 10
56.601010
 20
25.200256
 30
0.0
 10
56.600976
 20
25.752493
 30
0.0
 10
56.153307
 20
26.200161
 30
0.0
 10
55.601070
 20
26.200194
 30
0.0
  0
LINE
  5
228
100
AcDbEntity
  8
0
 62
5
100
AcDbLine
 10
55.601070
 20
26.200194
 30
0.0
 11
55.601070
 21
26.200194
 31
0.0
  0
SPLINE
  5
229
100
AcDbEntity
  8
0
 62
3
100
AcDbSpline
 70
8
 71
3
 72
8
 73
4
 74
0
 40
0
 40
0
 40
0
 40
0
 40
1
 40
1
 40
1
 40
1
 10
54.600860
 20
25.200149
 30
0.0
 10
54.600860
 20
24.842883
 30
0.0
 10
54.791459
 20
24.512756
 30
0.0
 10
55.100860
 20
24.334124
 30
0.0
  0
SPLINE
  5
22a
100
AcDbEntity
  8
0
 62
3
100
AcDbSpline
 70
8
 71
3
 72
8
 73
4
 74
0
 40
0
 40
0
 40
0
 40
0
 40
1
 40
1
 40
1
 40
1
 10
55.100860
 20
24.334124
 30
0.0
 10
55.410261
 20
24.155491
 30
0.0
 10
55.791459
 20
24.155491
 30
0.0
 10
56.100860
 20
24.334124
 30
0.0
  0
SPLINE
  5
22b
100
AcDbEntity
  8
0
 62
3
100
AcDbSpline
 70
8
 71
3
 72
8
 73
4
 74
0
 40
0
 40
0
 40
0
 40
0
 40
1
 40
1
 40
1
 40
1
 10
56.100860
 20
24.334124
 30
0.0
 10
56.410261
 20
24.512756
 30
0.0
 10
56.600860
 20
24.842883
 30
0.0
 10
56.600860
 20
25.200149
 30
0.0
  0
SPLINE
  5
22c
100
AcDbEntity
  8
0
 62
3
100
AcDbSpline
 70
8
 71
3
 72
8
 73
4
 74
0
 40
0
 40
0
 40
0
 40
0
 40
1
 40
1
 40
1
 40
1
 10
56.600860
 20
25.200149
 30
0.0
 10
56.600860
 20
25.557415
 30
0.0
 10
56.410261
 20
25.887542
 30
0.0
 10
56.100860
 20
26.066174
 30
0.0
  0
SPLINE
  5
22d
100
AcDbEntity
  8
0
 62
3
100
AcDbSpline
 70
8
 71
3
 72
8
 73
4
 74
0
 40
0
 40
0
 40
0
 40
0
 40
1
 40
1
 40
1
 40
1
 10
56.100860
 20
26.066174
 30
0.0
 10
55.791459
 20
26.244807
 30
0.0
 10
55.410261
 20
26.244807
 30
0.0
 10
55.100860
 20
26.066174
 30
0.0
  0
SPLINE
  5
22e
100
AcDbEntity
  8
0
 62
3
100
AcDbSpline
 70
8
 71
3
 72
8
 73
4
 74
0
 40
0
 40
0
 40
0
 40
0
 40
1
 40
1
 40
1
 40
1
 10
55.100860
 20
26.066174
 30
0.0
 10
54.791459
 20
25.887542
 30
0.0
 10
54.600860
 20
25.557415
 30
0.0
 10
54.600860
 20
25.200149
 30
0.0
  0
LINE
  5
22f
100
AcDbEntity
  8
0
 62
3
100
AcDbLine
 10
54.600860
 20
25.200149
 30
0.0
 11
54.600860
 21
25.200149
 31
0.0
  0
ENDSEC
  0
SECTION
  2
OBJECTS
  0
DICTIONARY
  5
C
330
0
100
AcDbDictionary
  3
ACAD_GROUP
350
D
  3
ACAD_MLINESTYLE
350
17
  0
DICTIONARY
  5
D
330
C
100
AcDbDictionary
  0
DICTIONARY
  5
1A
330
C
100
AcDbDictionary
  0
DICTIONARY
  5
17
330
C
100
AcDbDictionary
  3
STANDARD
350
18
  0
DICTIONARY
  5
19
330
C
100
AcDbDictionary
  0
ENDSEC
  0
EOF
