<?xml version="1.0" encoding="UTF-8" standalone="no"?>
<!-- Generated by SVGo -->

<svg
   xmlns:dc="http://purl.org/dc/elements/1.1/"
   xmlns:cc="http://creativecommons.org/ns#"
   xmlns:rdf="http://www.w3.org/1999/02/22-rdf-syntax-ns#"
   xmlns:svg="http://www.w3.org/2000/svg"
   xmlns="http://www.w3.org/2000/svg"
   xmlns:sodipodi="http://sodipodi.sourceforge.net/DTD/sodipodi-0.dtd"
   xmlns:inkscape="http://www.inkscape.org/namespaces/inkscape"
   width="338.802mm"
   height="129.251mm"
   viewBox="0.000 0.000 338.802 129.251"
   version="1.1"
   id="svg421"
   sodipodi:docname="Closed_Layer_x1.svg"
   inkscape:version="0.92.4 (5da689c313, 2019-01-14)">
  <metadata
     id="metadata427">
    <rdf:RDF>
      <cc:Work
         rdf:about="">
        <dc:format>image/svg+xml</dc:format>
        <dc:type
           rdf:resource="http://purl.org/dc/dcmitype/StillImage" />
      </cc:Work>
    </rdf:RDF>
  </metadata>
  <defs
     id="defs425" />
  <sodipodi:namedview
     pagecolor="#ffffff"
     bordercolor="#666666"
     borderopacity="1"
     objecttolerance="10"
     gridtolerance="10"
     guidetolerance="10"
     inkscape:pageopacity="0"
     inkscape:pageshadow="2"
     inkscape:window-width="1920"
     inkscape:window-height="1137"
     id="namedview423"
     showgrid="false"
     inkscape:zoom="0.84826685"
     inkscape:cx="839.52709"
     inkscape:cy="301.69171"
     inkscape:window-x="1672"
     inkscape:window-y="-8"
     inkscape:window-maximized="1"
     inkscape:current-layer="svg421"
     inkscape:snap-bbox="true"
     inkscape:snap-bbox-midpoints="true"
     inkscape:snap-nodes="true"
     inkscape:snap-others="false" />
  <path
     id="path487"
     style="fill:none;fill-rule:evenodd;stroke:#000000;stroke-width:0.26458332px;stroke-linecap:butt;stroke-linejoin:miter;stroke-opacity:1"
     d="m 5.000944,-15.864732 5.996995,5.81147 5.997,-5.81147 m 304.807081,95.25087 5.997,-5.81147 5.997,5.81147 m -328.795076,-95.25087 5.61e-5,-6.00013 0.018,-0.47 0.055,-0.468 0.092,-0.462 0.1279999,-0.454 0.163,-0.442 0.197,-0.427 0.231,-0.411 0.2610001,-0.392 0.292,-0.37 0.3199998,-0.346 0.3460001,-0.32 0.3699999,-0.292 0.3920001,-0.261 0.4109997,-0.231 0.4270002,-0.197 0.442,-0.163 0.4540001,-0.128 0.462,-0.092 0.468,-0.055 0.471,-0.019 h 316.801 l 0.47,0.019 0.468,0.055 0.46201,0.092 0.454,0.128 0.44199,0.163 0.42701,0.197 0.411,0.231 0.39198,0.261 0.37002,0.292 0.346,0.32 0.31999,0.346 0.29202,0.37 0.26098,0.392 0.23101,0.411 0.19698,0.427 0.16301,0.442 0.12801,0.454 0.092,0.462 0.055,0.468 0.019,0.471 v 101.24987 m -11.99999,1.3e-4 v -95.251 H 17.001 v 0 0"
     inkscape:connector-curvature="0" />
  <path
     style="fill:none;stroke:#000000;stroke-width:0.18897638mm"
     d="m 1216.2596,424.25576 v 0"
     id="path484"
     transform="scale(0.26458333)" />
  <path
     id="path489"
     style="fill:none;fill-rule:evenodd;stroke:#000000;stroke-width:0.26458332px;stroke-linecap:butt;stroke-linejoin:miter;stroke-opacity:1"
     d="m 333.80201,118.251 -0.019,0.471 -0.055,0.468 -0.092,0.462 -0.12801,0.454 -0.16301,0.442 -0.19698,0.427 -0.23101,0.411 -0.26098,0.392 -0.29202,0.37 -0.31999,0.346 -0.346,0.32 -0.37002,0.292 -0.39198,0.261 -0.411,0.231 -0.42701,0.197 -0.44199,0.163 -0.454,0.128 -0.46201,0.092 -0.468,0.055 -0.47,0.018 H 11.001 L 10.53,124.233 10.062,124.178 9.6000003,124.086 9.1460001,123.958 8.7040002,123.795 8.277,123.598 l -0.4109998,-0.231 -0.392,-0.261 -0.37,-0.292 -0.3460001,-0.32 -0.32,-0.346 -0.292,-0.37 L 5.885,121.386 5.654,120.975 5.457,120.548 5.294,120.106 5.1660001,119.652 5.074,119.19 5.019,118.722 5,118.251 5.000944,17.00013 10.997939,22.8116 16.99797,17.000065 17.001,112.251 h 304.80102 l 5.997,-5.81147 5.99999,5.8114 z"
     inkscape:connector-curvature="0"
     sodipodi:nodetypes="cccccccccccccccccccccccccccccccccccccccccccccccccc" />
  <path
     style="color:#000000;overflow:visible;opacity:1;vector-effect:none;fill:none;fill-opacity:1;stroke:#008000;stroke-width:0.05mm;stroke-linecap:butt;stroke-linejoin:miter;stroke-miterlimit:4;stroke-dasharray:none;stroke-dashoffset:0;stroke-opacity:1"
     d="m 9.1005,-21.864861 a 1.8999996,1.8999998 0 0 0 1.9,1.899999 1.8999996,1.8999998 0 0 0 1.9,-1.899999 1.8999996,1.8999998 0 0 0 -1.9,-1.900001 1.8999996,1.8999998 0 0 0 -1.9,1.900001 z"
     id="path629"
     inkscape:connector-curvature="0" />
  <path
     style="color:#000000;overflow:visible;opacity:1;vector-effect:none;fill:none;fill-opacity:1;stroke:#008000;stroke-width:0.05mm;stroke-linecap:butt;stroke-linejoin:miter;stroke-miterlimit:4;stroke-dasharray:none;stroke-dashoffset:0;stroke-opacity:1"
     d="m 114.701,-21.863861 a 1.8999996,1.8999998 0 0 0 1.9,1.899999 1.8999996,1.8999998 0 0 0 1.9,-1.899999 1.8999996,1.8999998 0 0 0 -1.9,-1.900001 1.8999996,1.8999998 0 0 0 -1.9,1.900001 z"
     id="path631"
     inkscape:connector-curvature="0" />
  <path
     style="color:#000000;overflow:visible;opacity:1;vector-effect:none;fill:none;fill-opacity:1;stroke:#008000;stroke-width:0.05mm;stroke-linecap:butt;stroke-linejoin:miter;stroke-miterlimit:4;stroke-dasharray:none;stroke-dashoffset:0;stroke-opacity:1"
     d="m 220.301,-21.863861 a 1.8999996,1.8999998 0 0 0 1.9,1.899999 1.8999996,1.8999998 0 0 0 1.9,-1.899999 1.8999996,1.8999998 0 0 0 -1.9,-1.900001 1.8999996,1.8999998 0 0 0 -1.9,1.900001 z"
     id="path633"
     inkscape:connector-curvature="0" />
  <path
     style="color:#000000;overflow:visible;opacity:1;vector-effect:none;fill:none;fill-opacity:1;stroke:#008000;stroke-width:0.05mm;stroke-linecap:butt;stroke-linejoin:miter;stroke-miterlimit:4;stroke-dasharray:none;stroke-dashoffset:0;stroke-opacity:1"
     d="m 9.1005,64.626001 a 1.8999996,1.8999998 0 0 0 1.9,1.899999 1.8999996,1.8999998 0 0 0 1.9,-1.899999 1.8999996,1.8999998 0 0 0 -1.9,-1.900001 1.8999996,1.8999998 0 0 0 -1.9,1.900001 z"
     id="path635"
     inkscape:connector-curvature="0" />
  <path
     style="color:#000000;overflow:visible;opacity:1;vector-effect:none;fill:none;fill-opacity:1;stroke:#008000;stroke-width:0.05mm;stroke-linecap:butt;stroke-linejoin:miter;stroke-miterlimit:4;stroke-dasharray:none;stroke-dashoffset:0;stroke-opacity:1"
     d="m 9.1005,118.251 a 1.8999996,1.8999998 0 0 0 1.9,1.9 1.8999996,1.8999998 0 0 0 1.9,-1.9 1.8999996,1.8999998 0 0 0 -1.9,-1.9 1.8999996,1.8999998 0 0 0 -1.9,1.9 z"
     id="path637"
     inkscape:connector-curvature="0" />
  <path
     style="color:#000000;overflow:visible;opacity:1;vector-effect:none;fill:none;fill-opacity:1;stroke:#008000;stroke-width:0.05mm;stroke-linecap:butt;stroke-linejoin:miter;stroke-miterlimit:4;stroke-dasharray:none;stroke-dashoffset:0;stroke-opacity:1"
     d="m 114.701,118.251 a 1.8999996,1.8999998 0 0 0 1.9,1.9 1.8999996,1.8999998 0 0 0 1.9,-1.9 1.8999996,1.8999998 0 0 0 -1.9,-1.9 1.8999996,1.8999998 0 0 0 -1.9,1.9 z"
     id="path639"
     inkscape:connector-curvature="0" />
  <path
     style="color:#000000;overflow:visible;opacity:1;vector-effect:none;fill:none;fill-opacity:1;stroke:#008000;stroke-width:0.05mm;stroke-linecap:butt;stroke-linejoin:miter;stroke-miterlimit:4;stroke-dasharray:none;stroke-dashoffset:0;stroke-opacity:1"
     d="m 220.301,118.251 a 1.8999996,1.8999998 0 0 0 1.9,1.9 1.8999996,1.8999998 0 0 0 1.9,-1.9 1.8999996,1.8999998 0 0 0 -1.9,-1.9 1.8999996,1.8999998 0 0 0 -1.9,1.9 z"
     id="path641"
     inkscape:connector-curvature="0" />
  <path
     style="color:#000000;overflow:visible;opacity:1;vector-effect:none;fill:none;fill-opacity:1;stroke:#008000;stroke-width:0.05mm;stroke-linecap:butt;stroke-linejoin:miter;stroke-miterlimit:4;stroke-dasharray:none;stroke-dashoffset:0;stroke-opacity:1"
     d="m 325.902,118.251 a 1.8999996,1.8999998 0 0 0 1.9,1.9 1.8999996,1.8999998 0 0 0 1.9,-1.9 1.8999996,1.8999998 0 0 0 -1.9,-1.9 1.8999996,1.8999998 0 0 0 -1.9,1.9 z"
     id="path643"
     inkscape:connector-curvature="0" />
  <path
     style="color:#000000;overflow:visible;opacity:1;vector-effect:none;fill:none;fill-opacity:1;stroke:#008000;stroke-width:0.05mm;stroke-linecap:butt;stroke-linejoin:miter;stroke-miterlimit:4;stroke-dasharray:none;stroke-dashoffset:0;stroke-opacity:1"
     d="m 325.902,31.761139 a 1.8999996,1.8999998 0 0 0 1.9,1.899999 1.8999996,1.8999998 0 0 0 1.9,-1.899999 1.8999996,1.8999998 0 0 0 -1.9,-1.900001 1.8999996,1.8999998 0 0 0 -1.9,1.900001 z"
     id="path645"
     inkscape:connector-curvature="0" />
  <path
     style="color:#000000;overflow:visible;opacity:1;vector-effect:none;fill:none;fill-opacity:1;stroke:#008000;stroke-width:0.05mm;stroke-linecap:butt;stroke-linejoin:miter;stroke-miterlimit:4;stroke-dasharray:none;stroke-dashoffset:0;stroke-opacity:1"
     d="m 325.902,-21.863861 a 1.8999996,1.8999998 0 0 0 1.9,1.899999 1.8999996,1.8999998 0 0 0 1.9,-1.899999 1.8999996,1.8999998 0 0 0 -1.9,-1.900001 1.8999996,1.8999998 0 0 0 -1.9,1.900001 z"
     id="path647"
     inkscape:connector-curvature="0" />
</svg>
