<?xml version="1.0" encoding="UTF-8" standalone="no"?>
<!-- Created with Inkscape (http://www.inkscape.org/) -->

<svg
   xmlns:dc="http://purl.org/dc/elements/1.1/"
   xmlns:cc="http://creativecommons.org/ns#"
   xmlns:rdf="http://www.w3.org/1999/02/22-rdf-syntax-ns#"
   xmlns:svg="http://www.w3.org/2000/svg"
   xmlns="http://www.w3.org/2000/svg"
   xmlns:sodipodi="http://sodipodi.sourceforge.net/DTD/sodipodi-0.dtd"
   xmlns:inkscape="http://www.inkscape.org/namespaces/inkscape"
   width="84.211906mm"
   height="35.296341mm"
   viewBox="0 0 84.211906 35.296341"
   version="1.1"
   id="svg614"
   inkscape:version="0.92.4 (5da689c313, 2019-01-14)"
   sodipodi:docname="engraving.svg">
  <defs
     id="defs608" />
  <sodipodi:namedview
     id="base"
     pagecolor="#ffffff"
     bordercolor="#666666"
     borderopacity="1.0"
     inkscape:pageopacity="0.0"
     inkscape:pageshadow="2"
     inkscape:zoom="1.979899"
     inkscape:cx="53.402712"
     inkscape:cy="42.003082"
     inkscape:document-units="mm"
     inkscape:current-layer="layer1"
     showgrid="false"
     fit-margin-top="0"
     fit-margin-left="0"
     fit-margin-right="0"
     fit-margin-bottom="0"
     inkscape:window-width="2560"
     inkscape:window-height="1330"
     inkscape:window-x="-12"
     inkscape:window-y="-12"
     inkscape:window-maximized="1" />
  <metadata
     id="metadata611">
    <rdf:RDF>
      <cc:Work
         rdf:about="">
        <dc:format>image/svg+xml</dc:format>
        <dc:type
           rdf:resource="http://purl.org/dc/dcmitype/StillImage" />
        <dc:title></dc:title>
      </cc:Work>
    </rdf:RDF>
  </metadata>
  <g
     inkscape:label="Layer 1"
     inkscape:groupmode="layer"
     id="layer1"
     transform="translate(-72.042856,-92.631593)">
    <text
       xml:space="preserve"
       style="font-style:normal;font-variant:normal;font-weight:bold;font-stretch:normal;font-size:8.46666622px;line-height:125%;font-family:'Times New Roman';-inkscape-font-specification:'Times New Roman, Bold';font-variant-ligatures:normal;font-variant-caps:normal;font-variant-numeric:normal;font-feature-settings:normal;text-align:start;letter-spacing:0px;word-spacing:0px;writing-mode:lr-tb;text-anchor:start;fill:#000000;fill-opacity:1;stroke:none;stroke-width:0.26458332px;stroke-linecap:butt;stroke-linejoin:miter;stroke-opacity:1"
       x="71.707993"
       y="98.369743"
       id="text566"><tspan
         sodipodi:role="line"
         id="tspan564"
         x="71.707993"
         y="98.369743"
         style="font-style:normal;font-variant:normal;font-weight:bold;font-stretch:normal;font-size:8.46666622px;font-family:'Times New Roman';-inkscape-font-specification:'Times New Roman, Bold';font-variant-ligatures:normal;font-variant-caps:normal;font-variant-numeric:normal;font-feature-settings:normal;text-align:start;writing-mode:lr-tb;text-anchor:start;stroke-width:0.26458332px">Clarity is my mama. </tspan><tspan
         sodipodi:role="line"
         x="71.707993"
         y="108.95308"
         style="font-style:normal;font-variant:normal;font-weight:bold;font-stretch:normal;font-size:8.46666622px;font-family:'Times New Roman';-inkscape-font-specification:'Times New Roman, Bold';font-variant-ligatures:normal;font-variant-caps:normal;font-variant-numeric:normal;font-feature-settings:normal;text-align:start;writing-mode:lr-tb;text-anchor:start;stroke-width:0.26458332px"
         id="tspan568">Clarity is my honey. </tspan><tspan
         sodipodi:role="line"
         x="71.707993"
         y="119.53641"
         style="font-style:normal;font-variant:normal;font-weight:bold;font-stretch:normal;font-size:8.46666622px;font-family:'Times New Roman';-inkscape-font-specification:'Times New Roman, Bold';font-variant-ligatures:normal;font-variant-caps:normal;font-variant-numeric:normal;font-feature-settings:normal;text-align:start;writing-mode:lr-tb;text-anchor:start;stroke-width:0.26458332px"
         id="tspan570">Clarity is my baby doll.</tspan></text>
    <text
       xml:space="preserve"
       style="font-style:normal;font-variant:normal;font-weight:bold;font-stretch:normal;font-size:4.23333311px;line-height:125%;font-family:'Times New Roman';-inkscape-font-specification:'Times New Roman, Bold';font-variant-ligatures:normal;font-variant-caps:normal;font-variant-numeric:normal;font-feature-settings:normal;text-align:center;letter-spacing:0px;word-spacing:0px;writing-mode:lr-tb;text-anchor:middle;fill:#000000;fill-opacity:1;stroke:none;stroke-width:0.26458332px;stroke-linecap:butt;stroke-linejoin:miter;stroke-opacity:1"
       x="138.56696"
       y="127.18586"
       id="text574"><tspan
         style="stroke-width:0.26458332px"
         sodipodi:role="line"
         id="tspan576"
         x="138.56696"
         y="127.18586">–For Allison, 7/2021</tspan></text>
    <g
       aria-label="Clarity is my mama. 
Clarity is my honey. 
Clarity is my baby doll."
       style="font-style:normal;font-variant:normal;font-weight:bold;font-stretch:normal;font-size:8.46666622px;line-height:125%;font-family:'Times New Roman';-inkscape-font-specification:'Times New Roman, Bold';font-variant-ligatures:normal;font-variant-caps:normal;font-variant-numeric:normal;font-feature-settings:normal;text-align:start;letter-spacing:0px;word-spacing:0px;writing-mode:lr-tb;text-anchor:start;fill:#000000;fill-opacity:1;stroke:#00ffff;stroke-width:0.26458332px;stroke-linecap:butt;stroke-linejoin:miter;stroke-opacity:1"
       id="text652"
       transform="matrix(-1,0,0,1,227.49581,0)">
      <path
         inkscape:connector-curvature="0"
         d="m 76.958425,134.19614 v 1.94304 h -0.16123 q -0.181901,-0.76068 -0.677995,-1.16582 -0.496094,-0.40515 -1.124479,-0.40515 -0.525033,0 -0.963249,0.30179 -0.438216,0.30179 -0.640788,0.78962 -0.260449,0.62425 -0.260449,1.38906 0,0.75241 0.190169,1.37253 0.19017,0.61598 0.595313,0.93431 0.405143,0.31419 1.050065,0.31419 0.529167,0 0.967383,-0.23151 0.44235,-0.23151 0.930175,-0.79788 v 0.48369 q -0.471289,0.49196 -0.983919,0.7152 -0.508496,0.21911 -1.190625,0.21911 -0.897103,0 -1.595768,-0.35967 -0.694531,-0.35967 -1.07487,-1.03353 -0.376204,-0.67386 -0.376204,-1.43454 0,-0.80201 0.417546,-1.52135 0.421679,-0.71934 1.132747,-1.11621 0.715202,-0.39688 1.51722,-0.39688 0.591178,0 1.248502,0.25632 0.380339,0.14883 0.483692,0.14883 0.132291,0 0.227376,-0.0951 0.09922,-0.0992 0.128158,-0.31006 z"
         style="font-style:normal;font-variant:normal;font-weight:bold;font-stretch:normal;font-size:8.46666622px;font-family:'Times New Roman';-inkscape-font-specification:'Times New Roman, Bold';font-variant-ligatures:normal;font-variant-caps:normal;font-variant-numeric:normal;font-feature-settings:normal;text-align:start;writing-mode:lr-tb;text-anchor:start;stroke:#00ffff;stroke-width:0.26458332px"
         id="path658" />
      <path
         inkscape:connector-curvature="0"
         d="m 79.22392,134.3243 v 4.80384 q 0,0.40928 0.09508,0.52503 0.09508,0.11163 0.372071,0.12816 v 0.14883 h -2.087728 v -0.14883 q 0.256315,-0.008 0.380338,-0.14883 0.08268,-0.0951 0.08268,-0.50436 v -4.00182 q 0,-0.40514 -0.09508,-0.51676 -0.09508,-0.11576 -0.367936,-0.1323 v -0.15296 z"
         style="font-style:normal;font-variant:normal;font-weight:bold;font-stretch:normal;font-size:8.46666622px;font-family:'Times New Roman';-inkscape-font-specification:'Times New Roman, Bold';font-variant-ligatures:normal;font-variant-caps:normal;font-variant-numeric:normal;font-feature-settings:normal;text-align:start;writing-mode:lr-tb;text-anchor:start;stroke:#00ffff;stroke-width:0.26458332px"
         id="path660" />
      <path
         inkscape:connector-curvature="0"
         d="m 82.192214,139.35965 q -0.706934,0.62425 -1.269173,0.62425 -0.330729,0 -0.549837,-0.21497 -0.219108,-0.21911 -0.219108,-0.5457 0,-0.44235 0.380338,-0.79375 0.380339,-0.35554 1.65778,-0.94258 v -0.38861 q 0,-0.43821 -0.04961,-0.54984 -0.04548,-0.11575 -0.177767,-0.19843 -0.132292,-0.0868 -0.297657,-0.0868 -0.268717,0 -0.44235,0.11989 -0.107487,0.0744 -0.107487,0.17363 0,0.0868 0.115755,0.21498 0.157097,0.17776 0.157097,0.34313 0,0.20257 -0.152963,0.34726 -0.148828,0.14056 -0.39274,0.14056 -0.26045,0 -0.438217,-0.15709 -0.173632,-0.1571 -0.173632,-0.36794 0,-0.29765 0.235644,-0.56637 0.235645,-0.27285 0.657324,-0.41755 0.42168,-0.14469 0.876433,-0.14469 0.549837,0 0.868164,0.23564 0.322461,0.23151 0.417545,0.50436 0.05788,0.17364 0.05788,0.79789 v 1.50068 q 0,0.26459 0.02067,0.33487 0.02067,0.0661 0.06201,0.0992 0.04134,0.0331 0.09508,0.0331 0.107487,0 0.219108,-0.15296 l 0.124023,0.0992 q -0.206706,0.30593 -0.429948,0.44649 -0.219108,0.13642 -0.500228,0.13642 -0.330729,0 -0.516764,-0.15296 -0.186035,-0.15709 -0.227376,-0.47129 z m 0,-0.30179 v -1.29398 q -0.500228,0.29353 -0.744141,0.62839 -0.16123,0.22324 -0.16123,0.45062 0,0.19017 0.136426,0.33486 0.103352,0.11162 0.289388,0.11162 0.206705,0 0.479557,-0.23151 z"
         style="font-style:normal;font-variant:normal;font-weight:bold;font-stretch:normal;font-size:8.46666622px;font-family:'Times New Roman';-inkscape-font-specification:'Times New Roman, Bold';font-variant-ligatures:normal;font-variant-caps:normal;font-variant-numeric:normal;font-feature-settings:normal;text-align:start;writing-mode:lr-tb;text-anchor:start;stroke:#00ffff;stroke-width:0.26458332px"
         id="path662" />
      <path
         inkscape:connector-curvature="0"
         d="m 85.89638,136.06476 v 0.87644 q 0.384473,-0.59945 0.673861,-0.79375 0.289388,-0.19844 0.558105,-0.19844 0.23151,0 0.367936,0.14469 0.14056,0.14056 0.14056,0.40101 0,0.27699 -0.136426,0.42995 -0.132291,0.15296 -0.322461,0.15296 -0.219108,0 -0.380338,-0.14056 -0.161231,-0.14056 -0.190169,-0.15709 -0.04134,-0.0248 -0.09509,-0.0248 -0.119889,0 -0.227376,0.091 -0.169499,0.14056 -0.256315,0.40101 -0.132292,0.40101 -0.132292,0.8847 v 0.88884 l 0.0041,0.23151 q 0,0.23564 0.02894,0.30179 0.04961,0.11162 0.144694,0.16536 0.09922,0.0496 0.330729,0.062 v 0.14883 H 84.31711 v -0.14883 q 0.252181,-0.0207 0.338998,-0.13642 0.09095,-0.11989 0.09095,-0.62425 v -2.13734 q 0,-0.33073 -0.03307,-0.42168 -0.04134,-0.11576 -0.119889,-0.1695 -0.07855,-0.0537 -0.276986,-0.0744 v -0.15297 z"
         style="font-style:normal;font-variant:normal;font-weight:bold;font-stretch:normal;font-size:8.46666622px;font-family:'Times New Roman';-inkscape-font-specification:'Times New Roman, Bold';font-variant-ligatures:normal;font-variant-caps:normal;font-variant-numeric:normal;font-feature-settings:normal;text-align:start;writing-mode:lr-tb;text-anchor:start;stroke:#00ffff;stroke-width:0.26458332px"
         id="path664" />
      <path
         inkscape:connector-curvature="0"
         d="m 88.976296,134.19201 q 0.268717,0 0.454752,0.19017 0.186036,0.18603 0.186036,0.45062 0,0.26458 -0.19017,0.45062 -0.186035,0.18603 -0.450618,0.18603 -0.264584,0 -0.450619,-0.18603 -0.186035,-0.18604 -0.186035,-0.45062 0,-0.26459 0.186035,-0.45062 0.186035,-0.19017 0.450619,-0.19017 z m 0.578776,1.87275 v 3.06338 q 0,0.40928 0.09508,0.52503 0.09508,0.11163 0.372071,0.12816 v 0.14883 h -2.087728 v -0.14883 q 0.256315,-0.008 0.380338,-0.14883 0.08268,-0.0951 0.08268,-0.50436 v -2.25722 q 0,-0.40928 -0.09508,-0.5209 -0.09508,-0.11576 -0.367936,-0.13229 v -0.15297 z"
         style="font-style:normal;font-variant:normal;font-weight:bold;font-stretch:normal;font-size:8.46666622px;font-family:'Times New Roman';-inkscape-font-specification:'Times New Roman, Bold';font-variant-ligatures:normal;font-variant-caps:normal;font-variant-numeric:normal;font-feature-settings:normal;text-align:start;writing-mode:lr-tb;text-anchor:start;stroke:#00ffff;stroke-width:0.26458332px"
         id="path666" />
      <path
         inkscape:connector-curvature="0"
         d="m 91.928053,134.6509 v 1.41386 h 0.917774 v 0.40928 h -0.917774 v 2.38538 q 0,0.33487 0.02894,0.43409 0.03307,0.0951 0.111621,0.15709 0.07855,0.0579 0.144694,0.0579 0.268718,0 0.508496,-0.40928 l 0.124024,0.0909 q -0.334863,0.79375 -1.087272,0.79375 -0.367936,0 -0.624252,-0.20257 -0.25218,-0.2067 -0.32246,-0.45888 -0.04134,-0.14056 -0.04134,-0.76068 v -2.08773 h -0.504362 v -0.14469 q 0.520899,-0.36794 0.884701,-0.77308 0.367936,-0.40515 0.640788,-0.90537 z"
         style="font-style:normal;font-variant:normal;font-weight:bold;font-stretch:normal;font-size:8.46666622px;font-family:'Times New Roman';-inkscape-font-specification:'Times New Roman, Bold';font-variant-ligatures:normal;font-variant-caps:normal;font-variant-numeric:normal;font-feature-settings:normal;text-align:start;writing-mode:lr-tb;text-anchor:start;stroke:#00ffff;stroke-width:0.26458332px"
         id="path668" />
      <path
         inkscape:connector-curvature="0"
         d="m 94.995566,140.08726 -1.248502,-2.86494 q -0.28112,-0.64906 -0.417546,-0.79789 -0.132292,-0.14883 -0.322461,-0.2067 v -0.15297 h 2.054655 v 0.15297 q -0.202572,0.008 -0.285254,0.0785 -0.08268,0.0703 -0.08268,0.1695 0,0.1571 0.206705,0.62012 l 0.661459,1.51309 0.450618,-1.16996 q 0.243913,-0.62425 0.243913,-0.86816 0,-0.15296 -0.103353,-0.24392 -0.09922,-0.0909 -0.355534,-0.0992 v -0.15297 h 1.293978 v 0.15297 q -0.190169,0.0207 -0.310059,0.14882 -0.119889,0.12403 -0.401009,0.85577 l -1.103808,2.86494 q -0.417546,1.07487 -0.620117,1.32291 -0.285254,0.34727 -0.715202,0.34727 -0.343132,0 -0.558106,-0.19844 -0.210839,-0.1943 -0.210839,-0.47129 0,-0.23978 0.144694,-0.39687 0.148828,-0.1571 0.363802,-0.1571 0.206705,0 0.330729,0.13229 0.128157,0.13229 0.132292,0.40928 0.0041,0.1571 0.03721,0.20257 0.03307,0.0455 0.09508,0.0455 0.09922,0 0.21084,-0.11989 0.165365,-0.17364 0.388607,-0.79375 z"
         style="font-style:normal;font-variant:normal;font-weight:bold;font-stretch:normal;font-size:8.46666622px;font-family:'Times New Roman';-inkscape-font-specification:'Times New Roman, Bold';font-variant-ligatures:normal;font-variant-caps:normal;font-variant-numeric:normal;font-feature-settings:normal;text-align:start;writing-mode:lr-tb;text-anchor:start;stroke:#00ffff;stroke-width:0.26458332px"
         id="path670" />
      <path
         inkscape:connector-curvature="0"
         d="m 100.50221,134.19201 q 0.26871,0 0.45475,0.19017 0.18603,0.18603 0.18603,0.45062 0,0.26458 -0.19016,0.45062 -0.18604,0.18603 -0.45062,0.18603 -0.26459,0 -0.45062,-0.18603 -0.186036,-0.18604 -0.186036,-0.45062 0,-0.26459 0.186036,-0.45062 0.18603,-0.19017 0.45062,-0.19017 z m 0.57877,1.87275 v 3.06338 q 0,0.40928 0.0951,0.52503 0.0951,0.11163 0.37207,0.12816 v 0.14883 h -2.08773 v -0.14883 q 0.256315,-0.008 0.380339,-0.14883 0.08268,-0.0951 0.08268,-0.50436 v -2.25722 q 0,-0.40928 -0.09508,-0.5209 -0.09508,-0.11576 -0.367936,-0.13229 v -0.15297 z"
         style="font-style:normal;font-variant:normal;font-weight:bold;font-stretch:normal;font-size:8.46666622px;font-family:'Times New Roman';-inkscape-font-specification:'Times New Roman, Bold';font-variant-ligatures:normal;font-variant-caps:normal;font-variant-numeric:normal;font-feature-settings:normal;text-align:start;writing-mode:lr-tb;text-anchor:start;stroke:#00ffff;stroke-width:0.26458332px"
         id="path672" />
      <path
         inkscape:connector-curvature="0"
         d="m 104.36347,135.95728 0.062,1.31878 h -0.14056 q -0.25218,-0.58705 -0.52503,-0.80202 -0.26872,-0.21497 -0.53744,-0.21497 -0.16949,0 -0.28938,0.11575 -0.11989,0.11162 -0.11989,0.26045 0,0.11162 0.0827,0.21498 0.13229,0.16949 0.74001,0.58291 0.60771,0.40927 0.79788,0.69866 0.1943,0.28525 0.1943,0.64079 0,0.32246 -0.16123,0.63252 -0.16123,0.31006 -0.45475,0.47542 -0.29352,0.16537 -0.64906,0.16537 -0.27698,0 -0.74,-0.17364 -0.12403,-0.0455 -0.1695,-0.0455 -0.13643,0 -0.22738,0.2067 h -0.13642 l -0.0661,-1.38906 h 0.14056 q 0.18604,0.5457 0.5085,0.81856 0.32659,0.27285 0.61598,0.27285 0.19844,0 0.32246,-0.11989 0.12816,-0.12403 0.12816,-0.29766 0,-0.19844 -0.12402,-0.34313 -0.12403,-0.14469 -0.55398,-0.43822 -0.63252,-0.43821 -0.81855,-0.66972 -0.27285,-0.339 -0.27285,-0.74828 0,-0.44648 0.30592,-0.80615 0.31006,-0.3638 0.89297,-0.3638 0.31419,0 0.60772,0.15296 0.11162,0.062 0.1819,0.062 0.0744,0 0.11989,-0.0289 0.0455,-0.0331 0.14469,-0.17776 z"
         style="font-style:normal;font-variant:normal;font-weight:bold;font-stretch:normal;font-size:8.46666622px;font-family:'Times New Roman';-inkscape-font-specification:'Times New Roman, Bold';font-variant-ligatures:normal;font-variant-caps:normal;font-variant-numeric:normal;font-feature-settings:normal;text-align:start;writing-mode:lr-tb;text-anchor:start;stroke:#00ffff;stroke-width:0.26458332px"
         id="path674" />
      <path
         inkscape:connector-curvature="0"
         d="m 108.93166,136.06476 v 0.5085 q 0.31833,-0.34727 0.58705,-0.48369 0.27285,-0.14056 0.59531,-0.14056 0.37207,0 0.62425,0.17363 0.25218,0.17363 0.38861,0.52917 0.33073,-0.37207 0.63252,-0.53744 0.30592,-0.16536 0.63665,-0.16536 0.40101,0 0.63666,0.18603 0.23977,0.1819 0.33072,0.46716 0.0951,0.28112 0.0951,0.90124 v 1.58336 q 0,0.44649 0.0786,0.55397 0.0827,0.10749 0.33899,0.14056 v 0.14883 h -1.99677 v -0.14883 q 0.23564,-0.0207 0.34726,-0.1819 0.0744,-0.11162 0.0744,-0.51263 v -1.66191 q 0,-0.51677 -0.0413,-0.65733 -0.0414,-0.14056 -0.1323,-0.2067 -0.0868,-0.0703 -0.2067,-0.0703 -0.17777,0 -0.35967,0.13229 -0.1819,0.12816 -0.36794,0.38861 v 2.07532 q 0,0.41755 0.0703,0.52503 0.0951,0.15297 0.36381,0.1695 v 0.14883 h -2.00091 v -0.14883 q 0.16123,-0.008 0.25218,-0.0786 0.0951,-0.0744 0.12402,-0.17363 0.0331,-0.10335 0.0331,-0.44235 v -1.66191 q 0,-0.52504 -0.0413,-0.65733 -0.0413,-0.13229 -0.14056,-0.2067 -0.0951,-0.0744 -0.2067,-0.0744 -0.16537,0 -0.30179,0.0868 -0.19431,0.12816 -0.41342,0.43822 v 2.07532 q 0,0.40928 0.0786,0.54157 0.0827,0.12816 0.339,0.15296 v 0.14883 h -1.99264 v -0.14883 q 0.24391,-0.0248 0.34726,-0.15709 0.0703,-0.0909 0.0703,-0.53744 v -2.18281 q 0,-0.43822 -0.0827,-0.5457 -0.0785,-0.10749 -0.33486,-0.14056 v -0.15297 z"
         style="font-style:normal;font-variant:normal;font-weight:bold;font-stretch:normal;font-size:8.46666622px;font-family:'Times New Roman';-inkscape-font-specification:'Times New Roman, Bold';font-variant-ligatures:normal;font-variant-caps:normal;font-variant-numeric:normal;font-feature-settings:normal;text-align:start;writing-mode:lr-tb;text-anchor:start;stroke:#00ffff;stroke-width:0.26458332px"
         id="path676" />
      <path
         inkscape:connector-curvature="0"
         d="m 116.16223,140.08726 -1.2485,-2.86494 q -0.28112,-0.64906 -0.41755,-0.79789 -0.13229,-0.14883 -0.32246,-0.2067 v -0.15297 h 2.05466 v 0.15297 q -0.20257,0.008 -0.28526,0.0785 -0.0827,0.0703 -0.0827,0.1695 0,0.1571 0.20671,0.62012 l 0.66146,1.51309 0.45061,-1.16996 q 0.24392,-0.62425 0.24392,-0.86816 0,-0.15296 -0.10336,-0.24392 -0.0992,-0.0909 -0.35553,-0.0992 v -0.15297 h 1.29398 v 0.15297 q -0.19017,0.0207 -0.31006,0.14882 -0.11989,0.12403 -0.40101,0.85577 l -1.10381,2.86494 q -0.41754,1.07487 -0.62012,1.32291 -0.28525,0.34727 -0.7152,0.34727 -0.34313,0 -0.5581,-0.19844 -0.21084,-0.1943 -0.21084,-0.47129 0,-0.23978 0.14469,-0.39687 0.14883,-0.1571 0.3638,-0.1571 0.20671,0 0.33073,0.13229 0.12816,0.13229 0.13229,0.40928 0.004,0.1571 0.0372,0.20257 0.0331,0.0455 0.0951,0.0455 0.0992,0 0.21084,-0.11989 0.16536,-0.17364 0.3886,-0.79375 z"
         style="font-style:normal;font-variant:normal;font-weight:bold;font-stretch:normal;font-size:8.46666622px;font-family:'Times New Roman';-inkscape-font-specification:'Times New Roman, Bold';font-variant-ligatures:normal;font-variant-caps:normal;font-variant-numeric:normal;font-feature-settings:normal;text-align:start;writing-mode:lr-tb;text-anchor:start;stroke:#00ffff;stroke-width:0.26458332px"
         id="path678" />
      <path
         inkscape:connector-curvature="0"
         d="m 122.34273,136.06476 v 0.5085 q 0.31833,-0.34727 0.58705,-0.48369 0.27285,-0.14056 0.59531,-0.14056 0.37207,0 0.62425,0.17363 0.25218,0.17363 0.38861,0.52917 0.33073,-0.37207 0.63252,-0.53744 0.30592,-0.16536 0.63665,-0.16536 0.40101,0 0.63665,0.18603 0.23978,0.1819 0.33073,0.46716 0.0951,0.28112 0.0951,0.90124 v 1.58336 q 0,0.44649 0.0785,0.55397 0.0827,0.10749 0.33899,0.14056 v 0.14883 h -1.99677 v -0.14883 q 0.23564,-0.0207 0.34726,-0.1819 0.0744,-0.11162 0.0744,-0.51263 v -1.66191 q 0,-0.51677 -0.0414,-0.65733 -0.0413,-0.14056 -0.13229,-0.2067 -0.0868,-0.0703 -0.2067,-0.0703 -0.17777,0 -0.35967,0.13229 -0.1819,0.12816 -0.36794,0.38861 v 2.07532 q 0,0.41755 0.0703,0.52503 0.0951,0.15297 0.3638,0.1695 v 0.14883 h -2.00091 v -0.14883 q 0.16123,-0.008 0.25218,-0.0786 0.0951,-0.0744 0.12403,-0.17363 0.0331,-0.10335 0.0331,-0.44235 v -1.66191 q 0,-0.52504 -0.0413,-0.65733 -0.0413,-0.13229 -0.14056,-0.2067 -0.0951,-0.0744 -0.20671,-0.0744 -0.16536,0 -0.30179,0.0868 -0.1943,0.12816 -0.41341,0.43822 v 2.07532 q 0,0.40928 0.0785,0.54157 0.0827,0.12816 0.339,0.15296 v 0.14883 h -1.99265 v -0.14883 q 0.24392,-0.0248 0.34727,-0.15709 0.0703,-0.0909 0.0703,-0.53744 v -2.18281 q 0,-0.43822 -0.0827,-0.5457 -0.0786,-0.10749 -0.33487,-0.14056 v -0.15297 z"
         style="font-style:normal;font-variant:normal;font-weight:bold;font-stretch:normal;font-size:8.46666622px;font-family:'Times New Roman';-inkscape-font-specification:'Times New Roman, Bold';font-variant-ligatures:normal;font-variant-caps:normal;font-variant-numeric:normal;font-feature-settings:normal;text-align:start;writing-mode:lr-tb;text-anchor:start;stroke:#00ffff;stroke-width:0.26458332px"
         id="path680" />
      <path
         inkscape:connector-curvature="0"
         d="m 129.93297,139.35965 q -0.70694,0.62425 -1.26918,0.62425 -0.33072,0 -0.54983,-0.21497 -0.21911,-0.21911 -0.21911,-0.5457 0,-0.44235 0.38034,-0.79375 0.38034,-0.35554 1.65778,-0.94258 v -0.38861 q 0,-0.43821 -0.0496,-0.54984 -0.0455,-0.11575 -0.17777,-0.19843 -0.13229,-0.0868 -0.29765,-0.0868 -0.26872,0 -0.44235,0.11989 -0.10749,0.0744 -0.10749,0.17363 0,0.0868 0.11575,0.21498 0.1571,0.17776 0.1571,0.34313 0,0.20257 -0.15296,0.34726 -0.14883,0.14056 -0.39274,0.14056 -0.26045,0 -0.43822,-0.15709 -0.17363,-0.1571 -0.17363,-0.36794 0,-0.29765 0.23564,-0.56637 0.23565,-0.27285 0.65733,-0.41755 0.42168,-0.14469 0.87643,-0.14469 0.54984,0 0.86816,0.23564 0.32246,0.23151 0.41755,0.50436 0.0579,0.17364 0.0579,0.79789 v 1.50068 q 0,0.26459 0.0207,0.33487 0.0207,0.0661 0.062,0.0992 0.0413,0.0331 0.0951,0.0331 0.10749,0 0.21911,-0.15296 l 0.12402,0.0992 q -0.2067,0.30593 -0.42994,0.44649 -0.21911,0.13642 -0.50023,0.13642 -0.33073,0 -0.51677,-0.15296 -0.18603,-0.15709 -0.22737,-0.47129 z m 0,-0.30179 v -1.29398 q -0.50023,0.29353 -0.74414,0.62839 -0.16123,0.22324 -0.16123,0.45062 0,0.19017 0.13642,0.33486 0.10336,0.11162 0.28939,0.11162 0.20671,0 0.47956,-0.23151 z"
         style="font-style:normal;font-variant:normal;font-weight:bold;font-stretch:normal;font-size:8.46666622px;font-family:'Times New Roman';-inkscape-font-specification:'Times New Roman, Bold';font-variant-ligatures:normal;font-variant-caps:normal;font-variant-numeric:normal;font-feature-settings:normal;text-align:start;writing-mode:lr-tb;text-anchor:start;stroke:#00ffff;stroke-width:0.26458332px"
         id="path682" />
      <path
         inkscape:connector-curvature="0"
         d="m 133.63713,136.06476 v 0.5085 q 0.31833,-0.34727 0.58705,-0.48369 0.27285,-0.14056 0.59531,-0.14056 0.37207,0 0.62425,0.17363 0.25218,0.17363 0.38861,0.52917 0.33073,-0.37207 0.63252,-0.53744 0.30592,-0.16536 0.63665,-0.16536 0.40101,0 0.63665,0.18603 0.23978,0.1819 0.33073,0.46716 0.0951,0.28112 0.0951,0.90124 v 1.58336 q 0,0.44649 0.0785,0.55397 0.0827,0.10749 0.339,0.14056 v 0.14883 h -1.99678 v -0.14883 q 0.23565,-0.0207 0.34727,-0.1819 0.0744,-0.11162 0.0744,-0.51263 v -1.66191 q 0,-0.51677 -0.0413,-0.65733 -0.0413,-0.14056 -0.13229,-0.2067 -0.0868,-0.0703 -0.2067,-0.0703 -0.17777,0 -0.35967,0.13229 -0.1819,0.12816 -0.36794,0.38861 v 2.07532 q 0,0.41755 0.0703,0.52503 0.0951,0.15297 0.3638,0.1695 v 0.14883 h -2.00091 v -0.14883 q 0.16123,-0.008 0.25218,-0.0786 0.0951,-0.0744 0.12403,-0.17363 0.0331,-0.10335 0.0331,-0.44235 v -1.66191 q 0,-0.52504 -0.0413,-0.65733 -0.0413,-0.13229 -0.14056,-0.2067 -0.0951,-0.0744 -0.20671,-0.0744 -0.16536,0 -0.30179,0.0868 -0.1943,0.12816 -0.41341,0.43822 v 2.07532 q 0,0.40928 0.0785,0.54157 0.0827,0.12816 0.339,0.15296 v 0.14883 h -1.99265 v -0.14883 q 0.24392,-0.0248 0.34727,-0.15709 0.0703,-0.0909 0.0703,-0.53744 v -2.18281 q 0,-0.43822 -0.0827,-0.5457 -0.0785,-0.10749 -0.33487,-0.14056 v -0.15297 z"
         style="font-style:normal;font-variant:normal;font-weight:bold;font-stretch:normal;font-size:8.46666622px;font-family:'Times New Roman';-inkscape-font-specification:'Times New Roman, Bold';font-variant-ligatures:normal;font-variant-caps:normal;font-variant-numeric:normal;font-feature-settings:normal;text-align:start;writing-mode:lr-tb;text-anchor:start;stroke:#00ffff;stroke-width:0.26458332px"
         id="path684" />
      <path
         inkscape:connector-curvature="0"
         d="m 141.22736,139.35965 q -0.70693,0.62425 -1.26917,0.62425 -0.33073,0 -0.54984,-0.21497 -0.2191,-0.21911 -0.2191,-0.5457 0,-0.44235 0.38033,-0.79375 0.38034,-0.35554 1.65778,-0.94258 v -0.38861 q 0,-0.43821 -0.0496,-0.54984 -0.0455,-0.11575 -0.17776,-0.19843 -0.13229,-0.0868 -0.29766,-0.0868 -0.26872,0 -0.44235,0.11989 -0.10749,0.0744 -0.10749,0.17363 0,0.0868 0.11576,0.21498 0.1571,0.17776 0.1571,0.34313 0,0.20257 -0.15297,0.34726 -0.14883,0.14056 -0.39274,0.14056 -0.26045,0 -0.43821,-0.15709 -0.17364,-0.1571 -0.17364,-0.36794 0,-0.29765 0.23565,-0.56637 0.23564,-0.27285 0.65732,-0.41755 0.42168,-0.14469 0.87643,-0.14469 0.54984,0 0.86817,0.23564 0.32246,0.23151 0.41754,0.50436 0.0579,0.17364 0.0579,0.79789 v 1.50068 q 0,0.26459 0.0207,0.33487 0.0207,0.0661 0.062,0.0992 0.0413,0.0331 0.0951,0.0331 0.10749,0 0.21911,-0.15296 l 0.12402,0.0992 q -0.20671,0.30593 -0.42995,0.44649 -0.21911,0.13642 -0.50023,0.13642 -0.33073,0 -0.51676,-0.15296 -0.18604,-0.15709 -0.22738,-0.47129 z m 0,-0.30179 v -1.29398 q -0.50022,0.29353 -0.74414,0.62839 -0.16123,0.22324 -0.16123,0.45062 0,0.19017 0.13643,0.33486 0.10335,0.11162 0.28939,0.11162 0.2067,0 0.47955,-0.23151 z"
         style="font-style:normal;font-variant:normal;font-weight:bold;font-stretch:normal;font-size:8.46666622px;font-family:'Times New Roman';-inkscape-font-specification:'Times New Roman, Bold';font-variant-ligatures:normal;font-variant-caps:normal;font-variant-numeric:normal;font-feature-settings:normal;text-align:start;writing-mode:lr-tb;text-anchor:start;stroke:#00ffff;stroke-width:0.26458332px"
         id="path686" />
      <path
         inkscape:connector-curvature="0"
         d="m 144.10058,138.65685 q 0.28939,0 0.48782,0.20257 0.20257,0.20258 0.20257,0.48783 0,0.28525 -0.20257,0.48783 -0.20257,0.19843 -0.48782,0.19843 -0.28526,0 -0.48783,-0.19843 -0.19844,-0.20258 -0.19844,-0.48783 0,-0.28525 0.19844,-0.48783 0.20257,-0.20257 0.48783,-0.20257 z"
         style="font-style:normal;font-variant:normal;font-weight:bold;font-stretch:normal;font-size:8.46666622px;font-family:'Times New Roman';-inkscape-font-specification:'Times New Roman, Bold';font-variant-ligatures:normal;font-variant-caps:normal;font-variant-numeric:normal;font-feature-settings:normal;text-align:start;writing-mode:lr-tb;text-anchor:start;stroke:#00ffff;stroke-width:0.26458332px"
         id="path688" />
      <path
         inkscape:connector-curvature="0"
         d="m 76.958425,144.77948 v 1.94303 h -0.16123 q -0.181901,-0.76068 -0.677995,-1.16582 -0.496094,-0.40514 -1.124479,-0.40514 -0.525033,0 -0.963249,0.30179 -0.438216,0.30179 -0.640788,0.78961 -0.260449,0.62425 -0.260449,1.38907 0,0.7524 0.190169,1.37252 0.19017,0.61598 0.595313,0.93431 0.405143,0.31419 1.050065,0.31419 0.529167,0 0.967383,-0.23151 0.44235,-0.23151 0.930175,-0.79788 v 0.48369 q -0.471289,0.49196 -0.983919,0.7152 -0.508496,0.21911 -1.190625,0.21911 -0.897103,0 -1.595768,-0.35967 -0.694531,-0.35967 -1.07487,-1.03353 -0.376204,-0.67386 -0.376204,-1.43453 0,-0.80202 0.417546,-1.52136 0.421679,-0.71933 1.132747,-1.11621 0.715202,-0.39687 1.51722,-0.39687 0.591178,0 1.248502,0.25631 0.380339,0.14883 0.483692,0.14883 0.132291,0 0.227376,-0.0951 0.09922,-0.0992 0.128158,-0.31006 z"
         style="font-style:normal;font-variant:normal;font-weight:bold;font-stretch:normal;font-size:8.46666622px;font-family:'Times New Roman';-inkscape-font-specification:'Times New Roman, Bold';font-variant-ligatures:normal;font-variant-caps:normal;font-variant-numeric:normal;font-feature-settings:normal;text-align:start;writing-mode:lr-tb;text-anchor:start;stroke:#00ffff;stroke-width:0.26458332px"
         id="path690" />
      <path
         inkscape:connector-curvature="0"
         d="m 79.22392,144.90763 v 4.80385 q 0,0.40927 0.09508,0.52503 0.09508,0.11162 0.372071,0.12816 v 0.14882 h -2.087728 v -0.14882 q 0.256315,-0.008 0.380338,-0.14883 0.08268,-0.0951 0.08268,-0.50436 v -4.00183 q 0,-0.40514 -0.09508,-0.51676 -0.09508,-0.11576 -0.367936,-0.13229 v -0.15297 z"
         style="font-style:normal;font-variant:normal;font-weight:bold;font-stretch:normal;font-size:8.46666622px;font-family:'Times New Roman';-inkscape-font-specification:'Times New Roman, Bold';font-variant-ligatures:normal;font-variant-caps:normal;font-variant-numeric:normal;font-feature-settings:normal;text-align:start;writing-mode:lr-tb;text-anchor:start;stroke:#00ffff;stroke-width:0.26458332px"
         id="path692" />
      <path
         inkscape:connector-curvature="0"
         d="m 82.192214,149.94299 q -0.706934,0.62425 -1.269173,0.62425 -0.330729,0 -0.549837,-0.21498 -0.219108,-0.21911 -0.219108,-0.5457 0,-0.44235 0.380338,-0.79375 0.380339,-0.35553 1.65778,-0.94258 v -0.38861 q 0,-0.43821 -0.04961,-0.54983 -0.04548,-0.11576 -0.177767,-0.19844 -0.132292,-0.0868 -0.297657,-0.0868 -0.268717,0 -0.44235,0.11989 -0.107487,0.0744 -0.107487,0.17364 0,0.0868 0.115755,0.21497 0.157097,0.17777 0.157097,0.34313 0,0.20257 -0.152963,0.34727 -0.148828,0.14056 -0.39274,0.14056 -0.26045,0 -0.438217,-0.1571 -0.173632,-0.1571 -0.173632,-0.36794 0,-0.29765 0.235644,-0.56637 0.235645,-0.27285 0.657324,-0.41754 0.42168,-0.1447 0.876433,-0.1447 0.549837,0 0.868164,0.23565 0.322461,0.23151 0.417545,0.50436 0.05788,0.17363 0.05788,0.79788 v 1.50069 q 0,0.26458 0.02067,0.33486 0.02067,0.0661 0.06201,0.0992 0.04134,0.0331 0.09508,0.0331 0.107487,0 0.219108,-0.15296 l 0.124023,0.0992 q -0.206706,0.30592 -0.429948,0.44648 -0.219108,0.13643 -0.500228,0.13643 -0.330729,0 -0.516764,-0.15297 -0.186035,-0.15709 -0.227376,-0.47128 z m 0,-0.30179 v -1.29398 q -0.500228,0.29352 -0.744141,0.62838 -0.16123,0.22324 -0.16123,0.45062 0,0.19017 0.136426,0.33486 0.103352,0.11163 0.289388,0.11163 0.206705,0 0.479557,-0.23151 z"
         style="font-style:normal;font-variant:normal;font-weight:bold;font-stretch:normal;font-size:8.46666622px;font-family:'Times New Roman';-inkscape-font-specification:'Times New Roman, Bold';font-variant-ligatures:normal;font-variant-caps:normal;font-variant-numeric:normal;font-feature-settings:normal;text-align:start;writing-mode:lr-tb;text-anchor:start;stroke:#00ffff;stroke-width:0.26458332px"
         id="path694" />
      <path
         inkscape:connector-curvature="0"
         d="m 85.89638,146.6481 v 0.87643 q 0.384473,-0.59945 0.673861,-0.79375 0.289388,-0.19844 0.558105,-0.19844 0.23151,0 0.367936,0.1447 0.14056,0.14056 0.14056,0.401 0,0.27699 -0.136426,0.42995 -0.132291,0.15296 -0.322461,0.15296 -0.219108,0 -0.380338,-0.14056 -0.161231,-0.14056 -0.190169,-0.15709 -0.04134,-0.0248 -0.09509,-0.0248 -0.119889,0 -0.227376,0.0909 -0.169499,0.14056 -0.256315,0.40101 -0.132292,0.40101 -0.132292,0.8847 v 0.88884 l 0.0041,0.23151 q 0,0.23564 0.02894,0.30179 0.04961,0.11162 0.144694,0.16536 0.09922,0.0496 0.330729,0.062 v 0.14882 H 84.31711 v -0.14882 q 0.252181,-0.0207 0.338998,-0.13643 0.09095,-0.11989 0.09095,-0.62425 v -2.13734 q 0,-0.33073 -0.03307,-0.42168 -0.04134,-0.11575 -0.119889,-0.1695 -0.07855,-0.0537 -0.276986,-0.0744 v -0.15296 z"
         style="font-style:normal;font-variant:normal;font-weight:bold;font-stretch:normal;font-size:8.46666622px;font-family:'Times New Roman';-inkscape-font-specification:'Times New Roman, Bold';font-variant-ligatures:normal;font-variant-caps:normal;font-variant-numeric:normal;font-feature-settings:normal;text-align:start;writing-mode:lr-tb;text-anchor:start;stroke:#00ffff;stroke-width:0.26458332px"
         id="path696" />
      <path
         inkscape:connector-curvature="0"
         d="m 88.976296,144.77534 q 0.268717,0 0.454752,0.19017 0.186036,0.18604 0.186036,0.45062 0,0.26458 -0.19017,0.45062 -0.186035,0.18603 -0.450618,0.18603 -0.264584,0 -0.450619,-0.18603 -0.186035,-0.18604 -0.186035,-0.45062 0,-0.26458 0.186035,-0.45062 0.186035,-0.19017 0.450619,-0.19017 z m 0.578776,1.87276 v 3.06338 q 0,0.40927 0.09508,0.52503 0.09508,0.11162 0.372071,0.12816 v 0.14882 h -2.087728 v -0.14882 q 0.256315,-0.008 0.380338,-0.14883 0.08268,-0.0951 0.08268,-0.50436 v -2.25723 q 0,-0.40928 -0.09508,-0.5209 -0.09508,-0.11575 -0.367936,-0.13229 v -0.15296 z"
         style="font-style:normal;font-variant:normal;font-weight:bold;font-stretch:normal;font-size:8.46666622px;font-family:'Times New Roman';-inkscape-font-specification:'Times New Roman, Bold';font-variant-ligatures:normal;font-variant-caps:normal;font-variant-numeric:normal;font-feature-settings:normal;text-align:start;writing-mode:lr-tb;text-anchor:start;stroke:#00ffff;stroke-width:0.26458332px"
         id="path698" />
      <path
         inkscape:connector-curvature="0"
         d="m 91.928053,145.23423 v 1.41387 h 0.917774 v 0.40927 h -0.917774 v 2.38539 q 0,0.33486 0.02894,0.43408 0.03307,0.0951 0.111621,0.1571 0.07855,0.0579 0.144694,0.0579 0.268718,0 0.508496,-0.40927 l 0.124024,0.091 q -0.334863,0.79375 -1.087272,0.79375 -0.367936,0 -0.624252,-0.20257 -0.25218,-0.20671 -0.32246,-0.45889 -0.04134,-0.14056 -0.04134,-0.76068 v -2.08773 h -0.504362 v -0.14469 q 0.520899,-0.36794 0.884701,-0.77308 0.367936,-0.40514 0.640788,-0.90537 z"
         style="font-style:normal;font-variant:normal;font-weight:bold;font-stretch:normal;font-size:8.46666622px;font-family:'Times New Roman';-inkscape-font-specification:'Times New Roman, Bold';font-variant-ligatures:normal;font-variant-caps:normal;font-variant-numeric:normal;font-feature-settings:normal;text-align:start;writing-mode:lr-tb;text-anchor:start;stroke:#00ffff;stroke-width:0.26458332px"
         id="path700" />
      <path
         inkscape:connector-curvature="0"
         d="m 94.995566,150.67059 -1.248502,-2.86494 q -0.28112,-0.64906 -0.417546,-0.79789 -0.132292,-0.14882 -0.322461,-0.2067 v -0.15296 h 2.054655 v 0.15296 q -0.202572,0.008 -0.285254,0.0786 -0.08268,0.0703 -0.08268,0.1695 0,0.15709 0.206705,0.62011 l 0.661459,1.51309 0.450618,-1.16996 q 0.243913,-0.62425 0.243913,-0.86816 0,-0.15296 -0.103353,-0.24391 -0.09922,-0.091 -0.355534,-0.0992 v -0.15296 h 1.293978 v 0.15296 q -0.190169,0.0207 -0.310059,0.14883 -0.119889,0.12402 -0.401009,0.85576 l -1.103808,2.86494 q -0.417546,1.07487 -0.620117,1.32292 -0.285254,0.34726 -0.715202,0.34726 -0.343132,0 -0.558106,-0.19844 -0.210839,-0.1943 -0.210839,-0.47128 0,-0.23978 0.144694,-0.39688 0.148828,-0.1571 0.363802,-0.1571 0.206705,0 0.330729,0.1323 0.128157,0.13229 0.132292,0.40927 0.0041,0.1571 0.03721,0.20257 0.03307,0.0455 0.09508,0.0455 0.09922,0 0.21084,-0.11989 0.165365,-0.17363 0.388607,-0.79375 z"
         style="font-style:normal;font-variant:normal;font-weight:bold;font-stretch:normal;font-size:8.46666622px;font-family:'Times New Roman';-inkscape-font-specification:'Times New Roman, Bold';font-variant-ligatures:normal;font-variant-caps:normal;font-variant-numeric:normal;font-feature-settings:normal;text-align:start;writing-mode:lr-tb;text-anchor:start;stroke:#00ffff;stroke-width:0.26458332px"
         id="path702" />
      <path
         inkscape:connector-curvature="0"
         d="m 100.50221,144.77534 q 0.26871,0 0.45475,0.19017 0.18603,0.18604 0.18603,0.45062 0,0.26458 -0.19016,0.45062 -0.18604,0.18603 -0.45062,0.18603 -0.26459,0 -0.45062,-0.18603 -0.186036,-0.18604 -0.186036,-0.45062 0,-0.26458 0.186036,-0.45062 0.18603,-0.19017 0.45062,-0.19017 z m 0.57877,1.87276 v 3.06338 q 0,0.40927 0.0951,0.52503 0.0951,0.11162 0.37207,0.12816 v 0.14882 h -2.08773 v -0.14882 q 0.256315,-0.008 0.380339,-0.14883 0.08268,-0.0951 0.08268,-0.50436 v -2.25723 q 0,-0.40928 -0.09508,-0.5209 -0.09508,-0.11575 -0.367936,-0.13229 v -0.15296 z"
         style="font-style:normal;font-variant:normal;font-weight:bold;font-stretch:normal;font-size:8.46666622px;font-family:'Times New Roman';-inkscape-font-specification:'Times New Roman, Bold';font-variant-ligatures:normal;font-variant-caps:normal;font-variant-numeric:normal;font-feature-settings:normal;text-align:start;writing-mode:lr-tb;text-anchor:start;stroke:#00ffff;stroke-width:0.26458332px"
         id="path704" />
      <path
         inkscape:connector-curvature="0"
         d="m 104.36347,146.54061 0.062,1.31878 h -0.14056 q -0.25218,-0.58704 -0.52503,-0.80202 -0.26872,-0.21497 -0.53744,-0.21497 -0.16949,0 -0.28938,0.11575 -0.11989,0.11163 -0.11989,0.26045 0,0.11163 0.0827,0.21498 0.13229,0.1695 0.74001,0.58291 0.60771,0.40928 0.79788,0.69866 0.1943,0.28526 0.1943,0.64079 0,0.32246 -0.16123,0.63252 -0.16123,0.31006 -0.45475,0.47542 -0.29352,0.16537 -0.64906,0.16537 -0.27698,0 -0.74,-0.17363 -0.12403,-0.0455 -0.1695,-0.0455 -0.13643,0 -0.22738,0.20671 h -0.13642 l -0.0661,-1.38907 h 0.14056 q 0.18604,0.54571 0.5085,0.81856 0.32659,0.27285 0.61598,0.27285 0.19844,0 0.32246,-0.11989 0.12816,-0.12402 0.12816,-0.29766 0,-0.19843 -0.12402,-0.34313 -0.12403,-0.14469 -0.55398,-0.43821 -0.63252,-0.43822 -0.81855,-0.66973 -0.27285,-0.339 -0.27285,-0.74827 0,-0.44649 0.30592,-0.80616 0.31006,-0.3638 0.89297,-0.3638 0.31419,0 0.60772,0.15296 0.11162,0.062 0.1819,0.062 0.0744,0 0.11989,-0.0289 0.0455,-0.0331 0.14469,-0.17777 z"
         style="font-style:normal;font-variant:normal;font-weight:bold;font-stretch:normal;font-size:8.46666622px;font-family:'Times New Roman';-inkscape-font-specification:'Times New Roman, Bold';font-variant-ligatures:normal;font-variant-caps:normal;font-variant-numeric:normal;font-feature-settings:normal;text-align:start;writing-mode:lr-tb;text-anchor:start;stroke:#00ffff;stroke-width:0.26458332px"
         id="path706" />
      <path
         inkscape:connector-curvature="0"
         d="m 108.93166,146.6481 v 0.50849 q 0.31833,-0.34726 0.58705,-0.48369 0.27285,-0.14056 0.59531,-0.14056 0.37207,0 0.62425,0.17363 0.25218,0.17364 0.38861,0.52917 0.33073,-0.37207 0.63252,-0.53743 0.30592,-0.16537 0.63665,-0.16537 0.40101,0 0.63666,0.18604 0.23977,0.1819 0.33072,0.46715 0.0951,0.28112 0.0951,0.90124 v 1.58336 q 0,0.44649 0.0786,0.55398 0.0827,0.10748 0.33899,0.14056 v 0.14882 h -1.99677 v -0.14882 q 0.23564,-0.0207 0.34726,-0.18191 0.0744,-0.11162 0.0744,-0.51263 v -1.66191 q 0,-0.51676 -0.0413,-0.65732 -0.0414,-0.14056 -0.1323,-0.20671 -0.0868,-0.0703 -0.2067,-0.0703 -0.17777,0 -0.35967,0.13229 -0.1819,0.12816 -0.36794,0.38861 v 2.07532 q 0,0.41755 0.0703,0.52504 0.0951,0.15296 0.36381,0.1695 v 0.14882 h -2.00091 v -0.14882 q 0.16123,-0.008 0.25218,-0.0785 0.0951,-0.0744 0.12402,-0.17364 0.0331,-0.10335 0.0331,-0.44235 v -1.66191 q 0,-0.52503 -0.0413,-0.65732 -0.0413,-0.1323 -0.14056,-0.20671 -0.0951,-0.0744 -0.2067,-0.0744 -0.16537,0 -0.30179,0.0868 -0.19431,0.12816 -0.41342,0.43822 v 2.07532 q 0,0.40928 0.0786,0.54157 0.0827,0.12816 0.339,0.15297 v 0.14882 h -1.99264 v -0.14882 q 0.24391,-0.0248 0.34726,-0.1571 0.0703,-0.0909 0.0703,-0.53744 v -2.18281 q 0,-0.43821 -0.0827,-0.5457 -0.0785,-0.10749 -0.33486,-0.14056 v -0.15296 z"
         style="font-style:normal;font-variant:normal;font-weight:bold;font-stretch:normal;font-size:8.46666622px;font-family:'Times New Roman';-inkscape-font-specification:'Times New Roman, Bold';font-variant-ligatures:normal;font-variant-caps:normal;font-variant-numeric:normal;font-feature-settings:normal;text-align:start;writing-mode:lr-tb;text-anchor:start;stroke:#00ffff;stroke-width:0.26458332px"
         id="path708" />
      <path
         inkscape:connector-curvature="0"
         d="m 116.16223,150.67059 -1.2485,-2.86494 q -0.28112,-0.64906 -0.41755,-0.79789 -0.13229,-0.14882 -0.32246,-0.2067 v -0.15296 h 2.05466 v 0.15296 q -0.20257,0.008 -0.28526,0.0786 -0.0827,0.0703 -0.0827,0.1695 0,0.15709 0.20671,0.62011 l 0.66146,1.51309 0.45061,-1.16996 q 0.24392,-0.62425 0.24392,-0.86816 0,-0.15296 -0.10336,-0.24391 -0.0992,-0.091 -0.35553,-0.0992 v -0.15296 h 1.29398 v 0.15296 q -0.19017,0.0207 -0.31006,0.14883 -0.11989,0.12402 -0.40101,0.85576 l -1.10381,2.86494 q -0.41754,1.07487 -0.62012,1.32292 -0.28525,0.34726 -0.7152,0.34726 -0.34313,0 -0.5581,-0.19844 -0.21084,-0.1943 -0.21084,-0.47128 0,-0.23978 0.14469,-0.39688 0.14883,-0.1571 0.3638,-0.1571 0.20671,0 0.33073,0.1323 0.12816,0.13229 0.13229,0.40927 0.004,0.1571 0.0372,0.20257 0.0331,0.0455 0.0951,0.0455 0.0992,0 0.21084,-0.11989 0.16536,-0.17363 0.3886,-0.79375 z"
         style="font-style:normal;font-variant:normal;font-weight:bold;font-stretch:normal;font-size:8.46666622px;font-family:'Times New Roman';-inkscape-font-specification:'Times New Roman, Bold';font-variant-ligatures:normal;font-variant-caps:normal;font-variant-numeric:normal;font-feature-settings:normal;text-align:start;writing-mode:lr-tb;text-anchor:start;stroke:#00ffff;stroke-width:0.26458332px"
         id="path710" />
      <path
         inkscape:connector-curvature="0"
         d="m 122.31793,144.90763 v 2.23656 q 0.31832,-0.33486 0.58291,-0.47129 0.26458,-0.14056 0.54983,-0.14056 0.36381,0 0.62012,0.20671 0.26045,0.2067 0.34313,0.48782 0.0868,0.27699 0.0868,0.93845 v 1.50895 q 0,0.44235 0.0827,0.55397 0.0827,0.10749 0.33487,0.13643 v 0.14882 h -1.95958 v -0.14882 q 0.20671,-0.0289 0.31006,-0.16537 0.0744,-0.10749 0.0744,-0.52503 v -1.72393 q 0,-0.47955 -0.0372,-0.59944 -0.0372,-0.12403 -0.12816,-0.19017 -0.0868,-0.0703 -0.19843,-0.0703 -0.16537,0 -0.32247,0.11575 -0.15709,0.11162 -0.33899,0.39688 v 2.07119 q 0,0.41341 0.062,0.51676 0.0785,0.14056 0.32246,0.17364 v 0.14882 h -1.95957 v -0.14882 q 0.24391,-0.0248 0.34727,-0.1571 0.0703,-0.0909 0.0703,-0.5333 v -3.92741 q 0,-0.43822 -0.0827,-0.5457 -0.0786,-0.10749 -0.33486,-0.14056 v -0.15297 z"
         style="font-style:normal;font-variant:normal;font-weight:bold;font-stretch:normal;font-size:8.46666622px;font-family:'Times New Roman';-inkscape-font-specification:'Times New Roman, Bold';font-variant-ligatures:normal;font-variant-caps:normal;font-variant-numeric:normal;font-feature-settings:normal;text-align:start;writing-mode:lr-tb;text-anchor:start;stroke:#00ffff;stroke-width:0.26458332px"
         id="path712" />
      <path
         inkscape:connector-curvature="0"
         d="m 127.27473,146.53234 q 0.50436,0 0.93844,0.26045 0.43409,0.26045 0.65733,0.74001 0.22738,0.47955 0.22738,1.05006 0,0.82269 -0.41755,1.37666 -0.50436,0.66973 -1.3932,0.66973 -0.8723,0 -1.34358,-0.61185 -0.47129,-0.61185 -0.47129,-1.418 0,-0.83096 0.47955,-1.44694 0.4837,-0.62012 1.32292,-0.62012 z m 0.0165,0.29352 q -0.21084,0 -0.36381,0.16123 -0.14882,0.1571 -0.19843,0.62839 -0.0455,0.46715 -0.0455,1.30225 0,0.44235 0.0579,0.82682 0.0455,0.29352 0.1943,0.44648 0.14883,0.15296 0.339,0.15296 0.18604,0 0.31006,-0.10335 0.16123,-0.14056 0.21497,-0.39274 0.0827,-0.39274 0.0827,-1.5875 0,-0.7028 -0.0786,-0.96325 -0.0785,-0.26458 -0.23151,-0.38447 -0.10749,-0.0868 -0.28112,-0.0868 z"
         style="font-style:normal;font-variant:normal;font-weight:bold;font-stretch:normal;font-size:8.46666622px;font-family:'Times New Roman';-inkscape-font-specification:'Times New Roman, Bold';font-variant-ligatures:normal;font-variant-caps:normal;font-variant-numeric:normal;font-feature-settings:normal;text-align:start;writing-mode:lr-tb;text-anchor:start;stroke:#00ffff;stroke-width:0.26458332px"
         id="path714" />
      <path
         inkscape:connector-curvature="0"
         d="m 131.26415,146.6481 v 0.50022 q 0.29766,-0.32246 0.57051,-0.46715 0.27285,-0.14883 0.58704,-0.14883 0.37621,0 0.62425,0.21084 0.24805,0.20671 0.33073,0.51677 0.0661,0.23564 0.0661,0.90537 v 1.50481 q 0,0.44649 0.0786,0.55811 0.0827,0.10749 0.339,0.13643 v 0.14882 h -1.95544 v -0.14882 q 0.21911,-0.0289 0.31419,-0.18191 0.0661,-0.10335 0.0661,-0.51263 v -1.71979 q 0,-0.47542 -0.0372,-0.59944 -0.0372,-0.12403 -0.12816,-0.19017 -0.0868,-0.0703 -0.1943,-0.0703 -0.35553,0 -0.66146,0.50849 v 2.07119 q 0,0.43409 0.0786,0.54984 0.0827,0.11576 0.30179,0.1447 v 0.14882 h -1.95544 v -0.14882 q 0.24392,-0.0248 0.34727,-0.1571 0.0703,-0.0909 0.0703,-0.53744 v -2.18281 q 0,-0.43821 -0.0827,-0.5457 -0.0786,-0.10749 -0.33487,-0.14056 v -0.15296 z"
         style="font-style:normal;font-variant:normal;font-weight:bold;font-stretch:normal;font-size:8.46666622px;font-family:'Times New Roman';-inkscape-font-specification:'Times New Roman, Bold';font-variant-ligatures:normal;font-variant-caps:normal;font-variant-numeric:normal;font-feature-settings:normal;text-align:start;writing-mode:lr-tb;text-anchor:start;stroke:#00ffff;stroke-width:0.26458332px"
         id="path716" />
      <path
         inkscape:connector-curvature="0"
         d="m 137.67203,148.4423 h -2.1208 q 0.0372,0.76895 0.40928,1.21543 0.28525,0.34313 0.68626,0.34313 0.24805,0 0.45062,-0.13642 0.20257,-0.14056 0.43408,-0.50023 l 0.14056,0.0909 q -0.31419,0.64079 -0.69453,0.90951 -0.38034,0.26458 -0.88057,0.26458 -0.85989,0 -1.30224,-0.66146 -0.35554,-0.5333 -0.35554,-1.32292 0,-0.96738 0.5209,-1.53789 0.52503,-0.57464 1.22783,-0.57464 0.58705,0 1.01699,0.48369 0.43409,0.47956 0.46716,1.42627 z m -1.01699,-0.27698 q 0,-0.6656 -0.0744,-0.91364 -0.0703,-0.24805 -0.22324,-0.37621 -0.0868,-0.0744 -0.23151,-0.0744 -0.21497,0 -0.3514,0.21084 -0.24391,0.36793 -0.24391,1.00872 v 0.1447 z"
         style="font-style:normal;font-variant:normal;font-weight:bold;font-stretch:normal;font-size:8.46666622px;font-family:'Times New Roman';-inkscape-font-specification:'Times New Roman, Bold';font-variant-ligatures:normal;font-variant-caps:normal;font-variant-numeric:normal;font-feature-settings:normal;text-align:start;writing-mode:lr-tb;text-anchor:start;stroke:#00ffff;stroke-width:0.26458332px"
         id="path718" />
      <path
         inkscape:connector-curvature="0"
         d="m 139.92512,150.67059 -1.2485,-2.86494 q -0.28112,-0.64906 -0.41755,-0.79789 -0.13229,-0.14882 -0.32246,-0.2067 v -0.15296 h 2.05466 v 0.15296 q -0.20257,0.008 -0.28526,0.0786 -0.0827,0.0703 -0.0827,0.1695 0,0.15709 0.20671,0.62011 l 0.66146,1.51309 0.45061,-1.16996 q 0.24392,-0.62425 0.24392,-0.86816 0,-0.15296 -0.10336,-0.24391 -0.0992,-0.091 -0.35553,-0.0992 v -0.15296 h 1.29398 v 0.15296 q -0.19017,0.0207 -0.31006,0.14883 -0.11989,0.12402 -0.40101,0.85576 l -1.10381,2.86494 q -0.41754,1.07487 -0.62012,1.32292 -0.28525,0.34726 -0.7152,0.34726 -0.34313,0 -0.5581,-0.19844 -0.21084,-0.1943 -0.21084,-0.47128 0,-0.23978 0.14469,-0.39688 0.14883,-0.1571 0.3638,-0.1571 0.20671,0 0.33073,0.1323 0.12816,0.13229 0.13229,0.40927 0.004,0.1571 0.0372,0.20257 0.0331,0.0455 0.0951,0.0455 0.0992,0 0.21084,-0.11989 0.16536,-0.17363 0.3886,-0.79375 z"
         style="font-style:normal;font-variant:normal;font-weight:bold;font-stretch:normal;font-size:8.46666622px;font-family:'Times New Roman';-inkscape-font-specification:'Times New Roman, Bold';font-variant-ligatures:normal;font-variant-caps:normal;font-variant-numeric:normal;font-feature-settings:normal;text-align:start;writing-mode:lr-tb;text-anchor:start;stroke:#00ffff;stroke-width:0.26458332px"
         id="path720" />
      <path
         inkscape:connector-curvature="0"
         d="m 142.69498,149.24019 q 0.28938,0 0.48782,0.20257 0.20257,0.20257 0.20257,0.48782 0,0.28526 -0.20257,0.48783 -0.20257,0.19844 -0.48782,0.19844 -0.28526,0 -0.48783,-0.19844 -0.19844,-0.20257 -0.19844,-0.48783 0,-0.28525 0.19844,-0.48782 0.20257,-0.20257 0.48783,-0.20257 z"
         style="font-style:normal;font-variant:normal;font-weight:bold;font-stretch:normal;font-size:8.46666622px;font-family:'Times New Roman';-inkscape-font-specification:'Times New Roman, Bold';font-variant-ligatures:normal;font-variant-caps:normal;font-variant-numeric:normal;font-feature-settings:normal;text-align:start;writing-mode:lr-tb;text-anchor:start;stroke:#00ffff;stroke-width:0.26458332px"
         id="path722" />
      <path
         inkscape:connector-curvature="0"
         d="m 76.958425,155.36281 v 1.94303 h -0.16123 q -0.181901,-0.76067 -0.677995,-1.16582 -0.496094,-0.40514 -1.124479,-0.40514 -0.525033,0 -0.963249,0.30179 -0.438216,0.30179 -0.640788,0.78962 -0.260449,0.62425 -0.260449,1.38906 0,0.75241 0.190169,1.37252 0.19017,0.61599 0.595313,0.93431 0.405143,0.3142 1.050065,0.3142 0.529167,0 0.967383,-0.23151 0.44235,-0.23151 0.930175,-0.79789 v 0.48369 q -0.471289,0.49196 -0.983919,0.71521 -0.508496,0.2191 -1.190625,0.2191 -0.897103,0 -1.595768,-0.35966 -0.694531,-0.35967 -1.07487,-1.03353 -0.376204,-0.67386 -0.376204,-1.43454 0,-0.80202 0.417546,-1.52135 0.421679,-0.71934 1.132747,-1.11622 0.715202,-0.39687 1.51722,-0.39687 0.591178,0 1.248502,0.25631 0.380339,0.14883 0.483692,0.14883 0.132291,0 0.227376,-0.0951 0.09922,-0.0992 0.128158,-0.31006 z"
         style="font-style:normal;font-variant:normal;font-weight:bold;font-stretch:normal;font-size:8.46666622px;font-family:'Times New Roman';-inkscape-font-specification:'Times New Roman, Bold';font-variant-ligatures:normal;font-variant-caps:normal;font-variant-numeric:normal;font-feature-settings:normal;text-align:start;writing-mode:lr-tb;text-anchor:start;stroke:#00ffff;stroke-width:0.26458332px"
         id="path724" />
      <path
         inkscape:connector-curvature="0"
         d="m 79.22392,155.49097 v 4.80384 q 0,0.40928 0.09508,0.52503 0.09508,0.11162 0.372071,0.12816 v 0.14883 H 77.603347 V 160.948 q 0.256315,-0.008 0.380338,-0.14883 0.08268,-0.0951 0.08268,-0.50436 v -4.00182 q 0,-0.40515 -0.09508,-0.51677 -0.09508,-0.11575 -0.367936,-0.13229 v -0.15296 z"
         style="font-style:normal;font-variant:normal;font-weight:bold;font-stretch:normal;font-size:8.46666622px;font-family:'Times New Roman';-inkscape-font-specification:'Times New Roman, Bold';font-variant-ligatures:normal;font-variant-caps:normal;font-variant-numeric:normal;font-feature-settings:normal;text-align:start;writing-mode:lr-tb;text-anchor:start;stroke:#00ffff;stroke-width:0.26458332px"
         id="path726" />
      <path
         inkscape:connector-curvature="0"
         d="m 82.192214,160.52632 q -0.706934,0.62425 -1.269173,0.62425 -0.330729,0 -0.549837,-0.21497 -0.219108,-0.21911 -0.219108,-0.54571 0,-0.44235 0.380338,-0.79375 0.380339,-0.35553 1.65778,-0.94258 v -0.3886 q 0,-0.43822 -0.04961,-0.54984 -0.04548,-0.11575 -0.177767,-0.19844 -0.132292,-0.0868 -0.297657,-0.0868 -0.268717,0 -0.44235,0.11989 -0.107487,0.0744 -0.107487,0.17363 0,0.0868 0.115755,0.21497 0.157097,0.17777 0.157097,0.34313 0,0.20258 -0.152963,0.34727 -0.148828,0.14056 -0.39274,0.14056 -0.26045,0 -0.438217,-0.1571 -0.173632,-0.15709 -0.173632,-0.36793 0,-0.29766 0.235644,-0.56638 0.235645,-0.27285 0.657324,-0.41754 0.42168,-0.1447 0.876433,-0.1447 0.549837,0 0.868164,0.23565 0.322461,0.23151 0.417545,0.50436 0.05788,0.17363 0.05788,0.79788 v 1.50069 q 0,0.26458 0.02067,0.33486 0.02067,0.0661 0.06201,0.0992 0.04134,0.0331 0.09508,0.0331 0.107487,0 0.219108,-0.15296 l 0.124023,0.0992 q -0.206706,0.30592 -0.429948,0.44648 -0.219108,0.13643 -0.500228,0.13643 -0.330729,0 -0.516764,-0.15296 -0.186035,-0.1571 -0.227376,-0.47129 z m 0,-0.30179 v -1.29398 q -0.500228,0.29352 -0.744141,0.62839 -0.16123,0.22324 -0.16123,0.45061 0,0.19017 0.136426,0.33487 0.103352,0.11162 0.289388,0.11162 0.206705,0 0.479557,-0.23151 z"
         style="font-style:normal;font-variant:normal;font-weight:bold;font-stretch:normal;font-size:8.46666622px;font-family:'Times New Roman';-inkscape-font-specification:'Times New Roman, Bold';font-variant-ligatures:normal;font-variant-caps:normal;font-variant-numeric:normal;font-feature-settings:normal;text-align:start;writing-mode:lr-tb;text-anchor:start;stroke:#00ffff;stroke-width:0.26458332px"
         id="path728" />
      <path
         inkscape:connector-curvature="0"
         d="m 85.89638,157.23143 v 0.87643 q 0.384473,-0.59945 0.673861,-0.79375 0.289388,-0.19844 0.558105,-0.19844 0.23151,0 0.367936,0.1447 0.14056,0.14056 0.14056,0.40101 0,0.27698 -0.136426,0.42994 -0.132291,0.15297 -0.322461,0.15297 -0.219108,0 -0.380338,-0.14056 -0.161231,-0.14056 -0.190169,-0.1571 -0.04134,-0.0248 -0.09509,-0.0248 -0.119889,0 -0.227376,0.0909 -0.169499,0.14056 -0.256315,0.40101 -0.132292,0.401 -0.132292,0.8847 v 0.88883 l 0.0041,0.23151 q 0,0.23565 0.02894,0.30179 0.04961,0.11162 0.144694,0.16537 0.09922,0.0496 0.330729,0.062 v 0.14883 h -2.08769 V 160.948 q 0.252181,-0.0207 0.338998,-0.13643 0.09095,-0.11989 0.09095,-0.62425 v -2.13734 q 0,-0.33073 -0.03307,-0.42168 -0.04134,-0.11575 -0.119889,-0.16949 -0.07855,-0.0538 -0.276986,-0.0744 v -0.15296 z"
         style="font-style:normal;font-variant:normal;font-weight:bold;font-stretch:normal;font-size:8.46666622px;font-family:'Times New Roman';-inkscape-font-specification:'Times New Roman, Bold';font-variant-ligatures:normal;font-variant-caps:normal;font-variant-numeric:normal;font-feature-settings:normal;text-align:start;writing-mode:lr-tb;text-anchor:start;stroke:#00ffff;stroke-width:0.26458332px"
         id="path730" />
      <path
         inkscape:connector-curvature="0"
         d="m 88.976296,155.35868 q 0.268717,0 0.454752,0.19016 0.186036,0.18604 0.186036,0.45062 0,0.26459 -0.19017,0.45062 -0.186035,0.18604 -0.450618,0.18604 -0.264584,0 -0.450619,-0.18604 -0.186035,-0.18603 -0.186035,-0.45062 0,-0.26458 0.186035,-0.45062 0.186035,-0.19016 0.450619,-0.19016 z m 0.578776,1.87275 v 3.06338 q 0,0.40928 0.09508,0.52503 0.09508,0.11162 0.372071,0.12816 v 0.14883 H 87.934499 V 160.948 q 0.256315,-0.008 0.380338,-0.14883 0.08268,-0.0951 0.08268,-0.50436 v -2.25723 q 0,-0.40928 -0.09508,-0.5209 -0.09508,-0.11575 -0.367936,-0.13229 v -0.15296 z"
         style="font-style:normal;font-variant:normal;font-weight:bold;font-stretch:normal;font-size:8.46666622px;font-family:'Times New Roman';-inkscape-font-specification:'Times New Roman, Bold';font-variant-ligatures:normal;font-variant-caps:normal;font-variant-numeric:normal;font-feature-settings:normal;text-align:start;writing-mode:lr-tb;text-anchor:start;stroke:#00ffff;stroke-width:0.26458332px"
         id="path732" />
      <path
         inkscape:connector-curvature="0"
         d="m 91.928053,155.81756 v 1.41387 h 0.917774 v 0.40928 h -0.917774 v 2.38538 q 0,0.33486 0.02894,0.43408 0.03307,0.0951 0.111621,0.1571 0.07855,0.0579 0.144694,0.0579 0.268718,0 0.508496,-0.40928 l 0.124024,0.0909 q -0.334863,0.79375 -1.087272,0.79375 -0.367936,0 -0.624252,-0.20257 -0.25218,-0.20671 -0.32246,-0.45889 -0.04134,-0.14056 -0.04134,-0.76068 v -2.08772 h -0.504362 v -0.1447 q 0.520899,-0.36793 0.884701,-0.77308 0.367936,-0.40514 0.640788,-0.90537 z"
         style="font-style:normal;font-variant:normal;font-weight:bold;font-stretch:normal;font-size:8.46666622px;font-family:'Times New Roman';-inkscape-font-specification:'Times New Roman, Bold';font-variant-ligatures:normal;font-variant-caps:normal;font-variant-numeric:normal;font-feature-settings:normal;text-align:start;writing-mode:lr-tb;text-anchor:start;stroke:#00ffff;stroke-width:0.26458332px"
         id="path734" />
      <path
         inkscape:connector-curvature="0"
         d="m 94.995566,161.25392 -1.248502,-2.86494 q -0.28112,-0.64905 -0.417546,-0.79788 -0.132292,-0.14883 -0.322461,-0.20671 v -0.15296 h 2.054655 v 0.15296 q -0.202572,0.008 -0.285254,0.0786 -0.08268,0.0703 -0.08268,0.1695 0,0.15709 0.206705,0.62012 l 0.661459,1.51308 0.450618,-1.16995 q 0.243913,-0.62425 0.243913,-0.86817 0,-0.15296 -0.103353,-0.24391 -0.09922,-0.0909 -0.355534,-0.0992 v -0.15296 h 1.293978 v 0.15296 q -0.190169,0.0207 -0.310059,0.14883 -0.119889,0.12402 -0.401009,0.85576 l -1.103808,2.86494 q -0.417546,1.07487 -0.620117,1.32292 -0.285254,0.34726 -0.715202,0.34726 -0.343132,0 -0.558106,-0.19843 -0.210839,-0.19431 -0.210839,-0.47129 0,-0.23978 0.144694,-0.39688 0.148828,-0.15709 0.363802,-0.15709 0.206705,0 0.330729,0.13229 0.128157,0.13229 0.132292,0.40928 0.0041,0.15709 0.03721,0.20257 0.03307,0.0455 0.09508,0.0455 0.09922,0 0.21084,-0.11989 0.165365,-0.17363 0.388607,-0.79375 z"
         style="font-style:normal;font-variant:normal;font-weight:bold;font-stretch:normal;font-size:8.46666622px;font-family:'Times New Roman';-inkscape-font-specification:'Times New Roman, Bold';font-variant-ligatures:normal;font-variant-caps:normal;font-variant-numeric:normal;font-feature-settings:normal;text-align:start;writing-mode:lr-tb;text-anchor:start;stroke:#00ffff;stroke-width:0.26458332px"
         id="path736" />
      <path
         inkscape:connector-curvature="0"
         d="m 100.50221,155.35868 q 0.26871,0 0.45475,0.19016 0.18603,0.18604 0.18603,0.45062 0,0.26459 -0.19016,0.45062 -0.18604,0.18604 -0.45062,0.18604 -0.26459,0 -0.45062,-0.18604 -0.186036,-0.18603 -0.186036,-0.45062 0,-0.26458 0.186036,-0.45062 0.18603,-0.19016 0.45062,-0.19016 z m 0.57877,1.87275 v 3.06338 q 0,0.40928 0.0951,0.52503 0.0951,0.11162 0.37207,0.12816 v 0.14883 H 99.46041 V 160.948 q 0.256315,-0.008 0.380339,-0.14883 0.08268,-0.0951 0.08268,-0.50436 v -2.25723 q 0,-0.40928 -0.09508,-0.5209 -0.09508,-0.11575 -0.367936,-0.13229 v -0.15296 z"
         style="font-style:normal;font-variant:normal;font-weight:bold;font-stretch:normal;font-size:8.46666622px;font-family:'Times New Roman';-inkscape-font-specification:'Times New Roman, Bold';font-variant-ligatures:normal;font-variant-caps:normal;font-variant-numeric:normal;font-feature-settings:normal;text-align:start;writing-mode:lr-tb;text-anchor:start;stroke:#00ffff;stroke-width:0.26458332px"
         id="path738" />
      <path
         inkscape:connector-curvature="0"
         d="m 104.36347,157.12394 0.062,1.31878 h -0.14056 q -0.25218,-0.58704 -0.52503,-0.80201 -0.26872,-0.21498 -0.53744,-0.21498 -0.16949,0 -0.28938,0.11576 -0.11989,0.11162 -0.11989,0.26045 0,0.11162 0.0827,0.21497 0.13229,0.1695 0.74001,0.58291 0.60771,0.40928 0.79788,0.69867 0.1943,0.28525 0.1943,0.64078 0,0.32246 -0.16123,0.63252 -0.16123,0.31006 -0.45475,0.47543 -0.29352,0.16536 -0.64906,0.16536 -0.27698,0 -0.74,-0.17363 -0.12403,-0.0455 -0.1695,-0.0455 -0.13643,0 -0.22738,0.20671 h -0.13642 l -0.0661,-1.38906 h 0.14056 q 0.18604,0.5457 0.5085,0.81855 0.32659,0.27285 0.61598,0.27285 0.19844,0 0.32246,-0.11989 0.12816,-0.12402 0.12816,-0.29765 0,-0.19844 -0.12402,-0.34313 -0.12403,-0.1447 -0.55398,-0.43822 -0.63252,-0.43822 -0.81855,-0.66973 -0.27285,-0.33899 -0.27285,-0.74827 0,-0.44649 0.30592,-0.80615 0.31006,-0.36381 0.89297,-0.36381 0.31419,0 0.60772,0.15297 0.11162,0.062 0.1819,0.062 0.0744,0 0.11989,-0.0289 0.0455,-0.0331 0.14469,-0.17777 z"
         style="font-style:normal;font-variant:normal;font-weight:bold;font-stretch:normal;font-size:8.46666622px;font-family:'Times New Roman';-inkscape-font-specification:'Times New Roman, Bold';font-variant-ligatures:normal;font-variant-caps:normal;font-variant-numeric:normal;font-feature-settings:normal;text-align:start;writing-mode:lr-tb;text-anchor:start;stroke:#00ffff;stroke-width:0.26458332px"
         id="path740" />
      <path
         inkscape:connector-curvature="0"
         d="m 108.93166,157.23143 v 0.5085 q 0.31833,-0.34727 0.58705,-0.4837 0.27285,-0.14056 0.59531,-0.14056 0.37207,0 0.62425,0.17364 0.25218,0.17363 0.38861,0.52916 0.33073,-0.37207 0.63252,-0.53743 0.30592,-0.16537 0.63665,-0.16537 0.40101,0 0.63666,0.18604 0.23977,0.1819 0.33072,0.46715 0.0951,0.28112 0.0951,0.90124 v 1.58337 q 0,0.44648 0.0786,0.55397 0.0827,0.10749 0.33899,0.14056 v 0.14883 h -1.99677 V 160.948 q 0.23564,-0.0207 0.34726,-0.1819 0.0744,-0.11162 0.0744,-0.51263 v -1.66192 q 0,-0.51676 -0.0413,-0.65732 -0.0414,-0.14056 -0.1323,-0.20671 -0.0868,-0.0703 -0.2067,-0.0703 -0.17777,0 -0.35967,0.13229 -0.1819,0.12816 -0.36794,0.38861 v 2.07533 q 0,0.41754 0.0703,0.52503 0.0951,0.15296 0.36381,0.1695 v 0.14883 H 109.6262 V 160.948 q 0.16123,-0.008 0.25218,-0.0786 0.0951,-0.0744 0.12402,-0.17363 0.0331,-0.10336 0.0331,-0.44235 v -1.66192 q 0,-0.52503 -0.0413,-0.65732 -0.0413,-0.13229 -0.14056,-0.20671 -0.0951,-0.0744 -0.2067,-0.0744 -0.16537,0 -0.30179,0.0868 -0.19431,0.12815 -0.41342,0.43821 v 2.07533 q 0,0.40927 0.0786,0.54157 0.0827,0.12815 0.339,0.15296 v 0.14883 h -1.99264 V 160.948 q 0.24391,-0.0248 0.34726,-0.1571 0.0703,-0.0909 0.0703,-0.53743 v -2.18282 q 0,-0.43821 -0.0827,-0.5457 -0.0785,-0.10749 -0.33486,-0.14056 v -0.15296 z"
         style="font-style:normal;font-variant:normal;font-weight:bold;font-stretch:normal;font-size:8.46666622px;font-family:'Times New Roman';-inkscape-font-specification:'Times New Roman, Bold';font-variant-ligatures:normal;font-variant-caps:normal;font-variant-numeric:normal;font-feature-settings:normal;text-align:start;writing-mode:lr-tb;text-anchor:start;stroke:#00ffff;stroke-width:0.26458332px"
         id="path742" />
      <path
         inkscape:connector-curvature="0"
         d="m 116.16223,161.25392 -1.2485,-2.86494 q -0.28112,-0.64905 -0.41755,-0.79788 -0.13229,-0.14883 -0.32246,-0.20671 v -0.15296 h 2.05466 v 0.15296 q -0.20257,0.008 -0.28526,0.0786 -0.0827,0.0703 -0.0827,0.1695 0,0.15709 0.20671,0.62012 l 0.66146,1.51308 0.45061,-1.16995 q 0.24392,-0.62425 0.24392,-0.86817 0,-0.15296 -0.10336,-0.24391 -0.0992,-0.0909 -0.35553,-0.0992 v -0.15296 h 1.29398 v 0.15296 q -0.19017,0.0207 -0.31006,0.14883 -0.11989,0.12402 -0.40101,0.85576 l -1.10381,2.86494 q -0.41754,1.07487 -0.62012,1.32292 -0.28525,0.34726 -0.7152,0.34726 -0.34313,0 -0.5581,-0.19843 -0.21084,-0.19431 -0.21084,-0.47129 0,-0.23978 0.14469,-0.39688 0.14883,-0.15709 0.3638,-0.15709 0.20671,0 0.33073,0.13229 0.12816,0.13229 0.13229,0.40928 0.004,0.15709 0.0372,0.20257 0.0331,0.0455 0.0951,0.0455 0.0992,0 0.21084,-0.11989 0.16536,-0.17363 0.3886,-0.79375 z"
         style="font-style:normal;font-variant:normal;font-weight:bold;font-stretch:normal;font-size:8.46666622px;font-family:'Times New Roman';-inkscape-font-specification:'Times New Roman, Bold';font-variant-ligatures:normal;font-variant-caps:normal;font-variant-numeric:normal;font-feature-settings:normal;text-align:start;writing-mode:lr-tb;text-anchor:start;stroke:#00ffff;stroke-width:0.26458332px"
         id="path744" />
      <path
         inkscape:connector-curvature="0"
         d="m 122.23524,155.49097 v 2.12907 q 0.48783,-0.50437 1.06661,-0.50437 0.39687,0 0.74827,0.23565 0.3514,0.23151 0.54984,0.66146 0.19844,0.42994 0.19844,0.99218 0,0.63252 -0.25219,1.14929 -0.25218,0.51676 -0.67386,0.78961 -0.42168,0.26872 -0.96324,0.26872 -0.3142,0 -0.55811,-0.0992 -0.24391,-0.0992 -0.47956,-0.32246 l -0.64078,0.41755 h -0.14056 v -4.91546 q 0,-0.33487 -0.0289,-0.41342 -0.0413,-0.11575 -0.1323,-0.16949 -0.0868,-0.0579 -0.29765,-0.0661 v -0.15296 z m 0,2.497 v 1.71979 q 0,0.52504 0.0248,0.66973 0.0413,0.24391 0.19844,0.39688 0.15709,0.14882 0.40101,0.14882 0.21084,0 0.35966,-0.11989 0.15297,-0.11989 0.25219,-0.47542 0.10335,-0.35553 0.10335,-1.28157 0,-0.88884 -0.22324,-1.21957 -0.16123,-0.23978 -0.43409,-0.23978 -0.35553,0 -0.68213,0.40101 z"
         style="font-style:normal;font-variant:normal;font-weight:bold;font-stretch:normal;font-size:8.46666622px;font-family:'Times New Roman';-inkscape-font-specification:'Times New Roman, Bold';font-variant-ligatures:normal;font-variant-caps:normal;font-variant-numeric:normal;font-feature-settings:normal;text-align:start;writing-mode:lr-tb;text-anchor:start;stroke:#00ffff;stroke-width:0.26458332px"
         id="path746" />
      <path
         inkscape:connector-curvature="0"
         d="m 127.58479,160.52632 q -0.70693,0.62425 -1.26917,0.62425 -0.33073,0 -0.54984,-0.21497 -0.21911,-0.21911 -0.21911,-0.54571 0,-0.44235 0.38034,-0.79375 0.38034,-0.35553 1.65778,-0.94258 v -0.3886 q 0,-0.43822 -0.0496,-0.54984 -0.0455,-0.11575 -0.17777,-0.19844 -0.13229,-0.0868 -0.29765,-0.0868 -0.26872,0 -0.44235,0.11989 -0.10749,0.0744 -0.10749,0.17363 0,0.0868 0.11575,0.21497 0.1571,0.17777 0.1571,0.34313 0,0.20258 -0.15296,0.34727 -0.14883,0.14056 -0.39274,0.14056 -0.26045,0 -0.43822,-0.1571 -0.17363,-0.15709 -0.17363,-0.36793 0,-0.29766 0.23564,-0.56638 0.23565,-0.27285 0.65733,-0.41754 0.42168,-0.1447 0.87643,-0.1447 0.54984,0 0.86816,0.23565 0.32246,0.23151 0.41755,0.50436 0.0579,0.17363 0.0579,0.79788 v 1.50069 q 0,0.26458 0.0207,0.33486 0.0207,0.0661 0.062,0.0992 0.0413,0.0331 0.0951,0.0331 0.10749,0 0.21911,-0.15296 l 0.12403,0.0992 q -0.20671,0.30592 -0.42995,0.44648 -0.21911,0.13643 -0.50023,0.13643 -0.33073,0 -0.51676,-0.15296 -0.18604,-0.1571 -0.22738,-0.47129 z m 0,-0.30179 v -1.29398 q -0.50023,0.29352 -0.74414,0.62839 -0.16123,0.22324 -0.16123,0.45061 0,0.19017 0.13642,0.33487 0.10336,0.11162 0.28939,0.11162 0.20671,0 0.47956,-0.23151 z"
         style="font-style:normal;font-variant:normal;font-weight:bold;font-stretch:normal;font-size:8.46666622px;font-family:'Times New Roman';-inkscape-font-specification:'Times New Roman, Bold';font-variant-ligatures:normal;font-variant-caps:normal;font-variant-numeric:normal;font-feature-settings:normal;text-align:start;writing-mode:lr-tb;text-anchor:start;stroke:#00ffff;stroke-width:0.26458332px"
         id="path748" />
      <path
         inkscape:connector-curvature="0"
         d="m 131.18147,155.49097 v 2.12907 q 0.48782,-0.50437 1.0666,-0.50437 0.39688,0 0.74828,0.23565 0.3514,0.23151 0.54983,0.66146 0.19844,0.42994 0.19844,0.99218 0,0.63252 -0.25218,1.14929 -0.25218,0.51676 -0.67386,0.78961 -0.42168,0.26872 -0.96325,0.26872 -0.31419,0 -0.55811,-0.0992 -0.24391,-0.0992 -0.47955,-0.32246 l -0.64079,0.41755 h -0.14056 v -4.91546 q 0,-0.33487 -0.0289,-0.41342 -0.0413,-0.11575 -0.13229,-0.16949 -0.0868,-0.0579 -0.29766,-0.0661 v -0.15296 z m 0,2.497 v 1.71979 q 0,0.52504 0.0248,0.66973 0.0413,0.24391 0.19844,0.39688 0.1571,0.14882 0.40101,0.14882 0.21084,0 0.35967,-0.11989 0.15296,-0.11989 0.25218,-0.47542 0.10335,-0.35553 0.10335,-1.28157 0,-0.88884 -0.22324,-1.21957 -0.16123,-0.23978 -0.43408,-0.23978 -0.35554,0 -0.68213,0.40101 z"
         style="font-style:normal;font-variant:normal;font-weight:bold;font-stretch:normal;font-size:8.46666622px;font-family:'Times New Roman';-inkscape-font-specification:'Times New Roman, Bold';font-variant-ligatures:normal;font-variant-caps:normal;font-variant-numeric:normal;font-feature-settings:normal;text-align:start;writing-mode:lr-tb;text-anchor:start;stroke:#00ffff;stroke-width:0.26458332px"
         id="path750" />
      <path
         inkscape:connector-curvature="0"
         d="m 136.17135,161.25392 -1.24851,-2.86494 q -0.28112,-0.64905 -0.41754,-0.79788 -0.13229,-0.14883 -0.32246,-0.20671 v -0.15296 h 2.05465 v 0.15296 q -0.20257,0.008 -0.28525,0.0786 -0.0827,0.0703 -0.0827,0.1695 0,0.15709 0.2067,0.62012 l 0.66146,1.51308 0.45062,-1.16995 q 0.24391,-0.62425 0.24391,-0.86817 0,-0.15296 -0.10335,-0.24391 -0.0992,-0.0909 -0.35554,-0.0992 v -0.15296 h 1.29398 v 0.15296 q -0.19017,0.0207 -0.31006,0.14883 -0.11989,0.12402 -0.40101,0.85576 l -1.1038,2.86494 q -0.41755,1.07487 -0.62012,1.32292 -0.28526,0.34726 -0.7152,0.34726 -0.34314,0 -0.55811,-0.19843 -0.21084,-0.19431 -0.21084,-0.47129 0,-0.23978 0.14469,-0.39688 0.14883,-0.15709 0.36381,-0.15709 0.2067,0 0.33073,0.13229 0.12815,0.13229 0.13229,0.40928 0.004,0.15709 0.0372,0.20257 0.0331,0.0455 0.0951,0.0455 0.0992,0 0.21084,-0.11989 0.16536,-0.17363 0.38861,-0.79375 z"
         style="font-style:normal;font-variant:normal;font-weight:bold;font-stretch:normal;font-size:8.46666622px;font-family:'Times New Roman';-inkscape-font-specification:'Times New Roman, Bold';font-variant-ligatures:normal;font-variant-caps:normal;font-variant-numeric:normal;font-feature-settings:normal;text-align:start;writing-mode:lr-tb;text-anchor:start;stroke:#00ffff;stroke-width:0.26458332px"
         id="path752" />
      <path
         inkscape:connector-curvature="0"
         d="m 144.50572,155.49097 v 4.4483 q 0,0.45062 0.0248,0.5333 0.0331,0.13643 0.12403,0.20258 0.0951,0.0661 0.32659,0.0827 v 0.13642 l -1.63297,0.31833 v -0.61185 q -0.29353,0.35554 -0.52504,0.48369 -0.22737,0.12816 -0.51676,0.12816 -0.74001,0 -1.16995,-0.66146 -0.34727,-0.53743 -0.34727,-1.31878 0,-0.62425 0.21497,-1.11621 0.21498,-0.49609 0.58705,-0.74828 0.3762,-0.25218 0.80615,-0.25218 0.27699,0 0.49196,0.10749 0.21497,0.10749 0.45889,0.37621 v -1.16582 q 0,-0.44236 -0.0372,-0.53331 -0.0496,-0.11988 -0.14883,-0.17776 -0.0992,-0.0579 -0.37207,-0.0579 v -0.17363 z m -1.15755,2.62103 q -0.30593,-0.58705 -0.74828,-0.58705 -0.15296,0 -0.25218,0.0827 -0.15296,0.12816 -0.25218,0.45062 -0.0951,0.32246 -0.0951,0.98806 0,0.73173 0.10748,1.08313 0.10749,0.3514 0.29352,0.5085 0.0951,0.0786 0.26045,0.0786 0.36381,0 0.68627,-0.57051 z"
         style="font-style:normal;font-variant:normal;font-weight:bold;font-stretch:normal;font-size:8.46666622px;font-family:'Times New Roman';-inkscape-font-specification:'Times New Roman, Bold';font-variant-ligatures:normal;font-variant-caps:normal;font-variant-numeric:normal;font-feature-settings:normal;text-align:start;writing-mode:lr-tb;text-anchor:start;stroke:#00ffff;stroke-width:0.26458332px"
         id="path754" />
      <path
         inkscape:connector-curvature="0"
         d="m 147.28384,157.11567 q 0.50437,0 0.93845,0.26045 0.43408,0.26045 0.65732,0.74001 0.22738,0.47956 0.22738,1.05006 0,0.82269 -0.41755,1.37666 -0.50436,0.66973 -1.39319,0.66973 -0.8723,0 -1.34359,-0.61185 -0.47129,-0.61185 -0.47129,-1.418 0,-0.83096 0.47956,-1.44694 0.48369,-0.62012 1.32291,-0.62012 z m 0.0165,0.29353 q -0.21084,0 -0.3638,0.16123 -0.14883,0.15709 -0.19844,0.62838 -0.0455,0.46716 -0.0455,1.30225 0,0.44235 0.0579,0.82682 0.0455,0.29352 0.19431,0.44649 0.14882,0.15296 0.33899,0.15296 0.18604,0 0.31006,-0.10336 0.16123,-0.14056 0.21498,-0.39274 0.0827,-0.39274 0.0827,-1.5875 0,-0.7028 -0.0786,-0.96324 -0.0785,-0.26459 -0.23151,-0.38448 -0.10749,-0.0868 -0.28112,-0.0868 z"
         style="font-style:normal;font-variant:normal;font-weight:bold;font-stretch:normal;font-size:8.46666622px;font-family:'Times New Roman';-inkscape-font-specification:'Times New Roman, Bold';font-variant-ligatures:normal;font-variant-caps:normal;font-variant-numeric:normal;font-feature-settings:normal;text-align:start;writing-mode:lr-tb;text-anchor:start;stroke:#00ffff;stroke-width:0.26458332px"
         id="path756" />
      <path
         inkscape:connector-curvature="0"
         d="m 151.20712,155.49097 v 4.80384 q 0,0.40928 0.0951,0.52503 0.0951,0.11162 0.37207,0.12816 v 0.14883 h -2.08773 V 160.948 q 0.25632,-0.008 0.38034,-0.14883 0.0827,-0.0951 0.0827,-0.50436 v -4.00182 q 0,-0.40515 -0.0951,-0.51677 -0.0951,-0.11575 -0.36794,-0.13229 v -0.15296 z"
         style="font-style:normal;font-variant:normal;font-weight:bold;font-stretch:normal;font-size:8.46666622px;font-family:'Times New Roman';-inkscape-font-specification:'Times New Roman, Bold';font-variant-ligatures:normal;font-variant-caps:normal;font-variant-numeric:normal;font-feature-settings:normal;text-align:start;writing-mode:lr-tb;text-anchor:start;stroke:#00ffff;stroke-width:0.26458332px"
         id="path758" />
      <path
         inkscape:connector-curvature="0"
         d="m 153.5553,155.49097 v 4.80384 q 0,0.40928 0.0951,0.52503 0.0951,0.11162 0.37207,0.12816 v 0.14883 h -2.08773 V 160.948 q 0.25632,-0.008 0.38034,-0.14883 0.0827,-0.0951 0.0827,-0.50436 v -4.00182 q 0,-0.40515 -0.0951,-0.51677 -0.0951,-0.11575 -0.36794,-0.13229 v -0.15296 z"
         style="font-style:normal;font-variant:normal;font-weight:bold;font-stretch:normal;font-size:8.46666622px;font-family:'Times New Roman';-inkscape-font-specification:'Times New Roman, Bold';font-variant-ligatures:normal;font-variant-caps:normal;font-variant-numeric:normal;font-feature-settings:normal;text-align:start;writing-mode:lr-tb;text-anchor:start;stroke:#00ffff;stroke-width:0.26458332px"
         id="path760" />
      <path
         inkscape:connector-curvature="0"
         d="m 155.16347,159.82352 q 0.28938,0 0.48782,0.20257 0.20257,0.20257 0.20257,0.48783 0,0.28525 -0.20257,0.48782 -0.20257,0.19844 -0.48782,0.19844 -0.28526,0 -0.48783,-0.19844 -0.19844,-0.20257 -0.19844,-0.48782 0,-0.28526 0.19844,-0.48783 0.20257,-0.20257 0.48783,-0.20257 z"
         style="font-style:normal;font-variant:normal;font-weight:bold;font-stretch:normal;font-size:8.46666622px;font-family:'Times New Roman';-inkscape-font-specification:'Times New Roman, Bold';font-variant-ligatures:normal;font-variant-caps:normal;font-variant-numeric:normal;font-feature-settings:normal;text-align:start;writing-mode:lr-tb;text-anchor:start;stroke:#00ffff;stroke-width:0.26458332px"
         id="path762" />
    </g>
    <g
       aria-label="–For Allison, 7/2021"
       style="font-style:normal;font-variant:normal;font-weight:bold;font-stretch:normal;font-size:4.23333311px;line-height:125%;font-family:'Times New Roman';-inkscape-font-specification:'Times New Roman, Bold';font-variant-ligatures:normal;font-variant-caps:normal;font-variant-numeric:normal;font-feature-settings:normal;text-align:center;letter-spacing:0px;word-spacing:0px;writing-mode:lr-tb;text-anchor:middle;fill:#000000;fill-opacity:1;stroke:#00ffff;stroke-width:0.26458332px;stroke-linecap:butt;stroke-linejoin:miter;stroke-opacity:1"
       id="text656"
       transform="matrix(-1,0,0,1,227.49581,0)">
      <path
         inkscape:connector-curvature="0"
         d="m 122.30345,167.89258 h -2.18488 v -0.25011 h 2.18488 z"
         style="stroke:#00ffff;stroke-width:0.26458332px"
         id="path765" />
      <path
         inkscape:connector-curvature="0"
         d="m 123.43413,166.10458 v 1.15135 h 0.0806 q 0.18604,0 0.30386,-0.0558 0.11782,-0.0558 0.19844,-0.1881 0.0827,-0.1323 0.10749,-0.35761 h 0.0723 v 1.40767 h -0.0723 q -0.0393,-0.39894 -0.21498,-0.52503 -0.17363,-0.12816 -0.39481,-0.12816 h -0.0806 v 0.85783 q 0,0.21497 0.0227,0.26872 0.0248,0.0537 0.093,0.0951 0.0703,0.0393 0.18811,0.0393 h 0.093 v 0.0765 h -1.46554 v -0.0765 h 0.093 q 0.12195,0 0.19637,-0.0434 0.0537,-0.0289 0.0827,-0.0992 0.0227,-0.0496 0.0227,-0.26045 v -1.84382 q 0,-0.21497 -0.0227,-0.26871 -0.0227,-0.0538 -0.093,-0.093 -0.0682,-0.0413 -0.18603,-0.0413 h -0.093 v -0.0765 h 2.36471 v 0.80408 h -0.0847 q -0.0289,-0.28318 -0.14883,-0.41961 -0.11783,-0.13643 -0.34313,-0.19224 -0.12403,-0.031 -0.45889,-0.031 z"
         style="stroke:#00ffff;stroke-width:0.26458332px"
         id="path767" />
      <path
         inkscape:connector-curvature="0"
         d="m 125.91253,166.7557 q 0.25218,0 0.46922,0.13023 0.21704,0.13022 0.32867,0.37 0.11368,0.23978 0.11368,0.52503 0,0.41135 -0.20877,0.68833 -0.25218,0.33486 -0.6966,0.33486 -0.43615,0 -0.67179,-0.30592 -0.23565,-0.30592 -0.23565,-0.709 0,-0.41548 0.23978,-0.72347 0.24185,-0.31006 0.66146,-0.31006 z m 0.008,0.14676 q -0.10542,0 -0.1819,0.0806 -0.0744,0.0786 -0.0992,0.31419 -0.0227,0.23358 -0.0227,0.65112 0,0.22118 0.0289,0.41341 0.0227,0.14677 0.0971,0.22325 0.0744,0.0765 0.1695,0.0765 0.093,0 0.15503,-0.0517 0.0806,-0.0703 0.10749,-0.19637 0.0413,-0.19637 0.0413,-0.79375 0,-0.3514 -0.0393,-0.48162 -0.0393,-0.1323 -0.11575,-0.19224 -0.0537,-0.0434 -0.14056,-0.0434 z"
         style="stroke:#00ffff;stroke-width:0.26458332px"
         id="path769" />
      <path
         inkscape:connector-curvature="0"
         d="m 127.91964,166.81358 v 0.43821 q 0.19224,-0.29972 0.33693,-0.39687 0.1447,-0.0992 0.27906,-0.0992 0.11575,0 0.18396,0.0724 0.0703,0.0703 0.0703,0.2005 0,0.1385 -0.0682,0.21498 -0.0661,0.0765 -0.16123,0.0765 -0.10955,0 -0.19017,-0.0703 -0.0806,-0.0703 -0.0951,-0.0786 -0.0207,-0.0124 -0.0475,-0.0124 -0.06,0 -0.11369,0.0455 -0.0847,0.0703 -0.12816,0.20051 -0.0661,0.2005 -0.0661,0.44235 v 0.44441 l 0.002,0.11576 q 0,0.11782 0.0145,0.15089 0.0248,0.0558 0.0724,0.0827 0.0496,0.0248 0.16536,0.031 v 0.0744 h -1.04386 v -0.0744 q 0.12609,-0.0103 0.1695,-0.0682 0.0455,-0.0599 0.0455,-0.31213 v -1.06866 q 0,-0.16537 -0.0165,-0.21084 -0.0207,-0.0579 -0.06,-0.0848 -0.0393,-0.0269 -0.13849,-0.0372 v -0.0765 z"
         style="stroke:#00ffff;stroke-width:0.26458332px"
         id="path771" />
      <path
         inkscape:connector-curvature="0"
         d="m 131.36543,167.94839 h -0.99012 l -0.11782,0.27285 q -0.0579,0.13643 -0.0579,0.22531 0,0.11783 0.0951,0.17364 0.0558,0.0331 0.27492,0.0496 v 0.0765 h -0.93224 v -0.0765 q 0.15089,-0.0227 0.24804,-0.12403 0.0972,-0.10335 0.23978,-0.42374 l 1.00253,-2.23656 h 0.0393 l 1.01079,2.29857 q 0.1447,0.32659 0.23771,0.41134 0.0703,0.0641 0.19844,0.0744 v 0.0765 h -1.35599 v -0.0765 h 0.0558 q 0.1633,0 0.22944,-0.0455 0.0455,-0.0331 0.0455,-0.0951 0,-0.0372 -0.0124,-0.0765 -0.004,-0.0186 -0.062,-0.15502 z m -0.0703,-0.15296 -0.41755,-0.96532 -0.42995,0.96532 z"
         style="stroke:#00ffff;stroke-width:0.26458332px"
         id="path773" />
      <path
         inkscape:connector-curvature="0"
         d="m 133.56271,165.94335 v 2.40192 q 0,0.20464 0.0475,0.26251 0.0475,0.0558 0.18604,0.0641 v 0.0744 h -1.04387 v -0.0744 q 0.12816,-0.004 0.19017,-0.0744 0.0413,-0.0475 0.0413,-0.25218 v -2.00091 q 0,-0.20258 -0.0475,-0.25839 -0.0475,-0.0579 -0.18397,-0.0661 v -0.0765 z"
         style="stroke:#00ffff;stroke-width:0.26458332px"
         id="path775" />
      <path
         inkscape:connector-curvature="0"
         d="m 134.7368,165.94335 v 2.40192 q 0,0.20464 0.0475,0.26251 0.0475,0.0558 0.18604,0.0641 v 0.0744 h -1.04387 v -0.0744 q 0.12816,-0.004 0.19017,-0.0744 0.0413,-0.0475 0.0413,-0.25218 v -2.00091 q 0,-0.20258 -0.0475,-0.25839 -0.0475,-0.0579 -0.18397,-0.0661 v -0.0765 z"
         style="stroke:#00ffff;stroke-width:0.26458332px"
         id="path777" />
      <path
         inkscape:connector-curvature="0"
         d="m 135.61943,165.8772 q 0.13436,0 0.22738,0.0951 0.093,0.093 0.093,0.22531 0,0.13229 -0.0951,0.2253 -0.093,0.093 -0.22531,0.093 -0.13229,0 -0.22531,-0.093 -0.093,-0.093 -0.093,-0.2253 0,-0.1323 0.093,-0.22531 0.093,-0.0951 0.22531,-0.0951 z m 0.28939,0.93638 v 1.53169 q 0,0.20464 0.0475,0.26251 0.0475,0.0558 0.18604,0.0641 v 0.0744 h -1.04387 v -0.0744 q 0.12816,-0.004 0.19017,-0.0744 0.0413,-0.0475 0.0413,-0.25218 v -1.12862 q 0,-0.20463 -0.0475,-0.26044 -0.0475,-0.0579 -0.18397,-0.0661 v -0.0765 z"
         style="stroke:#00ffff;stroke-width:0.26458332px"
         id="path779" />
      <path
         inkscape:connector-curvature="0"
         d="m 137.55006,166.75983 0.031,0.6594 h -0.0703 q -0.12609,-0.29353 -0.26252,-0.40101 -0.13436,-0.10749 -0.26872,-0.10749 -0.0847,0 -0.14469,0.0579 -0.0599,0.0558 -0.0599,0.13022 0,0.0558 0.0413,0.10749 0.0661,0.0847 0.37,0.29145 0.30386,0.20464 0.39894,0.34934 0.0972,0.14262 0.0972,0.32039 0,0.16123 -0.0806,0.31626 -0.0806,0.15503 -0.22738,0.23771 -0.14676,0.0827 -0.32453,0.0827 -0.13849,0 -0.37,-0.0868 -0.062,-0.0227 -0.0848,-0.0227 -0.0682,0 -0.11369,0.10335 h -0.0682 l -0.0331,-0.69453 h 0.0703 q 0.093,0.27285 0.25425,0.40928 0.16329,0.13643 0.30799,0.13643 0.0992,0 0.16123,-0.06 0.0641,-0.062 0.0641,-0.14883 0,-0.0992 -0.062,-0.17156 -0.062,-0.0724 -0.27699,-0.21911 -0.31626,-0.21911 -0.40928,-0.33486 -0.13642,-0.1695 -0.13642,-0.37414 0,-0.22324 0.15296,-0.40308 0.15503,-0.1819 0.44648,-0.1819 0.1571,0 0.30386,0.0765 0.0558,0.031 0.0909,0.031 0.0372,0 0.06,-0.0145 0.0227,-0.0165 0.0723,-0.0889 z"
         style="stroke:#00ffff;stroke-width:0.26458332px"
         id="path781" />
      <path
         inkscape:connector-curvature="0"
         d="m 138.88538,166.7557 q 0.25218,0 0.46922,0.13023 0.21705,0.13022 0.32867,0.37 0.11368,0.23978 0.11368,0.52503 0,0.41135 -0.20877,0.68833 -0.25218,0.33486 -0.6966,0.33486 -0.43615,0 -0.67179,-0.30592 -0.23564,-0.30592 -0.23564,-0.709 0,-0.41548 0.23977,-0.72347 0.24185,-0.31006 0.66146,-0.31006 z m 0.008,0.14676 q -0.10542,0 -0.1819,0.0806 -0.0744,0.0786 -0.0992,0.31419 -0.0227,0.23358 -0.0227,0.65112 0,0.22118 0.0289,0.41341 0.0227,0.14677 0.0971,0.22325 0.0744,0.0765 0.1695,0.0765 0.093,0 0.15503,-0.0517 0.0806,-0.0703 0.10749,-0.19637 0.0413,-0.19637 0.0413,-0.79375 0,-0.3514 -0.0393,-0.48162 -0.0393,-0.1323 -0.11576,-0.19224 -0.0537,-0.0434 -0.14056,-0.0434 z"
         style="stroke:#00ffff;stroke-width:0.26458332px"
         id="path783" />
      <path
         inkscape:connector-curvature="0"
         d="m 140.88009,166.81358 v 0.25011 q 0.14883,-0.16123 0.28526,-0.23358 0.13642,-0.0744 0.29352,-0.0744 0.1881,0 0.31212,0.10542 0.12403,0.10335 0.16537,0.25838 0.0331,0.11783 0.0331,0.45269 v 0.75241 q 0,0.22324 0.0393,0.27905 0.0413,0.0537 0.16949,0.0682 v 0.0744 h -0.97771 v -0.0744 q 0.10955,-0.0145 0.15709,-0.091 0.0331,-0.0517 0.0331,-0.25631 v -0.8599 q 0,-0.23771 -0.0186,-0.29972 -0.0186,-0.062 -0.0641,-0.0951 -0.0434,-0.0351 -0.0971,-0.0351 -0.17777,0 -0.33073,0.25425 v 1.0356 q 0,0.21704 0.0393,0.27492 0.0413,0.0579 0.15089,0.0723 v 0.0744 h -0.97772 v -0.0744 q 0.12196,-0.0124 0.17364,-0.0786 0.0351,-0.0455 0.0351,-0.26871 v -1.09141 q 0,-0.21911 -0.0413,-0.27285 -0.0393,-0.0537 -0.16744,-0.0703 v -0.0765 z"
         style="stroke:#00ffff;stroke-width:0.26458332px"
         id="path785" />
      <path
         inkscape:connector-curvature="0"
         d="m 142.51513,169.48835 v -0.0909 q 0.23978,-0.10335 0.34727,-0.26872 0.10955,-0.1633 0.10955,-0.33486 0,-0.0351 -0.0145,-0.0537 -0.0145,-0.0165 -0.0289,-0.0165 -0.0124,0 -0.0372,0.0145 -0.06,0.0351 -0.14883,0.0351 -0.12196,0 -0.21291,-0.0951 -0.0889,-0.0951 -0.0889,-0.22324 0,-0.13642 0.10335,-0.23978 0.10336,-0.10335 0.25012,-0.10335 0.17776,0 0.30385,0.13849 0.1261,0.13643 0.1261,0.37621 0,0.29559 -0.17984,0.52503 -0.17777,0.22944 -0.52917,0.33693 z"
         style="stroke:#00ffff;stroke-width:0.26458332px"
         id="path787" />
      <path
         inkscape:connector-curvature="0"
         d="m 145.1713,168.80415 0.76275,-2.31303 h -0.58085 q -0.34106,0 -0.51263,0.0889 -0.11988,0.062 -0.19843,0.23358 h -0.0786 l 0.20257,-0.87023 h 1.67018 l -0.94051,2.8608 z"
         style="stroke:#00ffff;stroke-width:0.26458332px"
         id="path789" />
      <path
         inkscape:connector-curvature="0"
         d="m 147.72618,165.87927 -0.91984,2.93109 h -0.26458 l 0.92398,-2.93109 z"
         style="stroke:#00ffff;stroke-width:0.26458332px"
         id="path791" />
      <path
         inkscape:connector-curvature="0"
         d="m 149.46458,168.74628 h -1.64951 v -0.0455 q 0.75861,-0.9033 0.91984,-1.21543 0.1633,-0.31212 0.1633,-0.60978 0,-0.21704 -0.13436,-0.35967 -0.13436,-0.14469 -0.32866,-0.14469 -0.31833,0 -0.49403,0.31832 l -0.0765,-0.0269 q 0.11162,-0.39687 0.339,-0.58704 0.22737,-0.19017 0.52503,-0.19017 0.21291,0 0.38861,0.0992 0.17569,0.0992 0.27491,0.27285 0.0992,0.17157 0.0992,0.32246 0,0.27492 -0.15296,0.55811 -0.20877,0.3824 -0.91157,1.0666 h 0.60565 q 0.22324,0 0.28938,-0.0186 0.0682,-0.0186 0.11162,-0.062 0.0434,-0.0455 0.11369,-0.1881 h 0.0744 z"
         style="stroke:#00ffff;stroke-width:0.26458332px"
         id="path793" />
      <path
         inkscape:connector-curvature="0"
         d="m 151.79002,167.34481 q 0,0.41961 -0.11782,0.78342 -0.0703,0.22324 -0.19017,0.36587 -0.11782,0.14262 -0.26872,0.22737 -0.15089,0.0827 -0.32866,0.0827 -0.20257,0 -0.36587,-0.10335 -0.1633,-0.10335 -0.28939,-0.29559 -0.0909,-0.14056 -0.15916,-0.37413 -0.0889,-0.31626 -0.0889,-0.65319 0,-0.45682 0.12815,-0.83923 0.10542,-0.31626 0.3204,-0.48369 0.21497,-0.1695 0.45475,-0.1695 0.24391,0 0.45475,0.16743 0.21291,0.16537 0.31213,0.44649 0.13849,0.38654 0.13849,0.84542 z m -0.63665,-0.004 q 0,-0.73587 -0.008,-0.85783 -0.0207,-0.28732 -0.0992,-0.38861 -0.0517,-0.0661 -0.16743,-0.0661 -0.0889,0 -0.14056,0.0496 -0.0765,0.0723 -0.10335,0.25631 -0.0269,0.1819 -0.0269,1.27538 0,0.59531 0.0413,0.79788 0.031,0.14676 0.0889,0.19637 0.0579,0.0496 0.15296,0.0496 0.10335,0 0.15503,-0.0661 0.0868,-0.11575 0.0992,-0.3576 z"
         style="stroke:#00ffff;stroke-width:0.26458332px"
         id="path795" />
      <path
         inkscape:connector-curvature="0"
         d="m 153.69791,168.74628 h -1.64951 v -0.0455 q 0.75861,-0.9033 0.91984,-1.21543 0.1633,-0.31212 0.1633,-0.60978 0,-0.21704 -0.13436,-0.35967 -0.13436,-0.14469 -0.32866,-0.14469 -0.31833,0 -0.49403,0.31832 l -0.0765,-0.0269 q 0.11162,-0.39687 0.339,-0.58704 0.22738,-0.19017 0.52503,-0.19017 0.21291,0 0.38861,0.0992 0.1757,0.0992 0.27492,0.27285 0.0992,0.17157 0.0992,0.32246 0,0.27492 -0.15297,0.55811 -0.20877,0.3824 -0.91157,1.0666 h 0.60565 q 0.22324,0 0.28939,-0.0186 0.0682,-0.0186 0.11162,-0.062 0.0434,-0.0455 0.11369,-0.1881 h 0.0744 z"
         style="stroke:#00ffff;stroke-width:0.26458332px"
         id="path797" />
      <path
         inkscape:connector-curvature="0"
         d="m 155.44044,165.88547 v 2.29237 q 0,0.25838 0.0227,0.33073 0.0227,0.0703 0.0951,0.11575 0.0724,0.0455 0.23151,0.0455 h 0.0641 v 0.0765 h -1.47588 v -0.0765 h 0.0744 q 0.17983,0 0.25631,-0.0414 0.0765,-0.0413 0.10336,-0.11368 0.0269,-0.0724 0.0269,-0.33693 v -1.45315 q 0,-0.1943 -0.0186,-0.24184 -0.0186,-0.0496 -0.0703,-0.0827 -0.0496,-0.0351 -0.11575,-0.0351 -0.10542,0 -0.25632,0.0661 l -0.0372,-0.0744 1.03146,-0.47129 z"
         style="stroke:#00ffff;stroke-width:0.26458332px"
         id="path799" />
    </g>
  </g>
</svg>
