  0
SECTION
  2
HEADER
  9
$ACADVER
  1
AC1014
  9
$HANDSEED
  5
FFFF
  9
$MEASUREMENT
 70
     1
  0
ENDSEC
  0
SECTION
  2
TABLES
  0
TABLE
  2
VPORT
  5
8
330
0
100
AcDbSymbolTable
 70
     4
  0
VPORT
  5
2E
330
8
100
AcDbSymbolTableRecord
100
AcDbViewportTableRecord
  2
*ACTIVE
 70
     0
 10
0.0
 20
0.0
 11
1.0
 21
1.0
 12
210.0
 22
148.5
 13
0.0
 23
0.0
 14
10.0
 24
10.0
 15
10.0
 25
10.0
 16
0.0
 26
0.0
 36
1.0
 17
0.0
 27
0.0
 37
0.0
 40
341.0
 41
1.24
 42
50.0
 43
0.0
 44
0.0
 50
0.0
 51
0.0
 71
     0
 72
   100
 73
     1
 74
     3
 75
     0
 76
     0
 77
     0
 78
     0
  0
ENDTAB
  0
TABLE
  2
LTYPE
  5
5
330
0
100
AcDbSymbolTable
 70
     1
  0
LTYPE
  5
14
330
5
100
AcDbSymbolTableRecord
100
AcDbLinetypeTableRecord
  2
BYBLOCK
 70
     0
  3

 72
    65
 73
     0
 40
0.0
  0
LTYPE
  5
15
330
5
100
AcDbSymbolTableRecord
100
AcDbLinetypeTableRecord
  2
BYLAYER
 70
     0
  3

 72
    65
 73
     0
 40
0.0
  0
LTYPE
  5
16
330
5
100
AcDbSymbolTableRecord
100
AcDbLinetypeTableRecord
  2
CONTINUOUS
 70
     0
  3
Solid line
 72
    65
 73
     0
 40
0.0
  0
ENDTAB
  0
TABLE
  2
LAYER
  5
2
100
AcDbSymbolTable
 70
2
  0
LAYER
  5
50
100
AcDbSymbolTableRecord
100
AcDbLayerTableRecord
  2
0
 70
0
  6
CONTINUOUS
  0
LAYER
  5
51
100
AcDbSymbolTableRecord
100
AcDbLayerTableRecord
  2
Layer_1
 70
0
  6
CONTINUOUS
  0
ENDTAB
  0
TABLE
  2
STYLE
  5
3
330
0
100
AcDbSymbolTable
 70
     1
  0
STYLE
  5
11
330
3
100
AcDbSymbolTableRecord
100
AcDbTextStyleTableRecord
  2
STANDARD
 70
     0
 40
0.0
 41
1.0
 50
0.0
 71
     0
 42
2.5
  3
txt
  4

  0
ENDTAB
  0
TABLE
  2
VIEW
  5
6
330
0
100
AcDbSymbolTable
 70
     0
  0
ENDTAB
  0
TABLE
  2
UCS
  5
7
330
0
100
AcDbSymbolTable
 70
     0
  0
ENDTAB
  0
TABLE
  2
APPID
  5
9
330
0
100
AcDbSymbolTable
 70
     2
  0
APPID
  5
12
330
9
100
AcDbSymbolTableRecord
100
AcDbRegAppTableRecord
  2
ACAD
 70
     0
  0
ENDTAB
  0
TABLE
  2
DIMSTYLE
  5
A
330
0
100
AcDbSymbolTable
 70
     1
  0
DIMSTYLE
105
27
330
A
100
AcDbSymbolTableRecord
100
AcDbDimStyleTableRecord
  2
ISO-25
 70
     0
  3

  4

  5

  6

  7

 40
1.0
 41
2.5
 42
0.625
 43
3.75
 44
1.25
 45
0.0
 46
0.0
 47
0.0
 48
0.0
140
2.5
141
2.5
142
0.0
143
0.03937007874016
144
1.0
145
0.0
146
1.0
147
0.625
 71
     0
 72
     0
 73
     0
 74
     0
 75
     0
 76
     0
 77
     1
 78
     8
170
     0
171
     3
172
     1
173
     0
174
     0
175
     0
176
     0
177
     0
178
     0
270
     2
271
     2
272
     2
273
     2
274
     3
340
11
275
     0
280
     0
281
     0
282
     0
283
     0
284
     8
285
     0
286
     0
287
     3
288
     0
  0
ENDTAB
  0
TABLE
  2
BLOCK_RECORD
  5
1
330
0
100
AcDbSymbolTable
 70
     1
  0
BLOCK_RECORD
  5
1F
330
1
100
AcDbSymbolTableRecord
100
AcDbBlockTableRecord
  2
*MODEL_SPACE
  0
BLOCK_RECORD
  5
1B
330
1
100
AcDbSymbolTableRecord
100
AcDbBlockTableRecord
  2
*PAPER_SPACE
  0
ENDTAB
  0
ENDSEC
  0
SECTION
  2
BLOCKS
  0
BLOCK
  5
20
330
1F
100
AcDbEntity
  8
0
100
AcDbBlockBegin
  2
*MODEL_SPACE
 70
     0
 10
0.0
 20
0.0
 30
0.0
  3
*MODEL_SPACE
  1

  0
ENDBLK
  5
21
330
1F
100
AcDbEntity
  8
0
100
AcDbBlockEnd
  0
BLOCK
  5
1C
330
1B
100
AcDbEntity
 67
     1
  8
0
100
AcDbBlockBegin
  2
*PAPER_SPACE
  1

  0
ENDBLK
  5
1D
330
1B
100
AcDbEntity
 67
     1
  8
0
100
AcDbBlockEnd
  0
ENDSEC
  0
SECTION
  2
ENTITIES
  0
LINE
  5
100
100
AcDbEntity
  8
Layer_1
 62
6
100
AcDbLine
 10
7.897404
 20
255.875691
 30
0.0
 11
126.694616
 21
245.482282
 31
0.0
  0
LINE
  5
101
100
AcDbEntity
  8
Layer_1
 62
6
100
AcDbLine
 10
126.694616
 20
245.482282
 30
0.0
 11
125.786147
 21
235.098434
 31
0.0
  0
LINE
  5
102
100
AcDbEntity
  8
Layer_1
 62
6
100
AcDbLine
 10
125.786147
 20
235.098434
 30
0.0
 11
6.988935
 21
245.491843
 31
0.0
  0
LINE
  5
103
100
AcDbEntity
  8
Layer_1
 62
6
100
AcDbLine
 10
6.988935
 20
245.491843
 30
0.0
 11
7.897404
 21
255.875691
 31
0.0
  0
LINE
  5
104
100
AcDbEntity
  8
Layer_1
 62
7
100
AcDbLine
 10
25.845487
 20
246.861542
 30
0.0
 11
25.583997
 21
243.873094
 31
0.0
  0
LINE
  5
105
100
AcDbEntity
  8
Layer_1
 62
7
100
AcDbLine
 10
25.583997
 20
243.873094
 30
0.0
 11
25.583997
 21
238.258448
 31
0.0
  0
LINE
  5
106
100
AcDbEntity
  8
Layer_1
 62
7
100
AcDbLine
 10
25.583997
 20
238.258448
 30
0.0
 11
30.493777
 21
238.258448
 31
0.0
  0
SPLINE
  5
107
100
AcDbEntity
  8
Layer_1
 62
7
100
AcDbSpline
 70
8
 71
3
 72
8
 73
4
 74
0
 40
0
 40
0
 40
0
 40
0
 40
1
 40
1
 40
1
 40
1
 10
30.493777
 20
238.258448
 30
0.0
 10
30.493715
 20
238.396610
 30
0.0
 10
30.605735
 20
238.508627
 30
0.0
 10
30.743897
 20
238.508561
 30
0.0
  0
SPLINE
  5
108
100
AcDbEntity
  8
Layer_1
 62
7
100
AcDbSpline
 70
8
 71
3
 72
8
 73
4
 74
0
 40
0
 40
0
 40
0
 40
0
 40
1
 40
1
 40
1
 40
1
 10
30.743897
 20
238.508561
 30
0.0
 10
30.882055
 20
238.508622
 30
0.0
 10
30.994069
 20
238.396606
 30
0.0
 10
30.994007
 20
238.258448
 30
0.0
  0
SPLINE
  5
109
100
AcDbEntity
  8
Layer_1
 62
7
100
AcDbSpline
 70
8
 71
3
 72
8
 73
4
 74
0
 40
0
 40
0
 40
0
 40
0
 40
1
 40
1
 40
1
 40
1
 10
30.994007
 20
238.258448
 30
0.0
 10
30.994069
 20
238.120290
 30
0.0
 10
30.882055
 20
238.008274
 30
0.0
 10
30.743897
 20
238.008335
 30
0.0
  0
LINE
  5
10a
100
AcDbEntity
  8
Layer_1
 62
7
100
AcDbLine
 10
30.743897
 20
238.008335
 30
0.0
 11
30.743897
 21
235.098434
 31
0.0
  0
LINE
  5
10b
100
AcDbEntity
  8
Layer_1
 62
7
100
AcDbLine
 10
30.743897
 20
235.098434
 30
0.0
 11
37.354347
 21
235.098434
 31
0.0
  0
LINE
  5
10c
100
AcDbEntity
  8
Layer_1
 62
7
100
AcDbLine
 10
37.354347
 20
235.098434
 30
0.0
 11
37.354347
 21
238.008335
 31
0.0
  0
SPLINE
  5
10d
100
AcDbEntity
  8
Layer_1
 62
7
100
AcDbSpline
 70
8
 71
3
 72
8
 73
4
 74
0
 40
0
 40
0
 40
0
 40
0
 40
1
 40
1
 40
1
 40
1
 10
37.354347
 20
238.008335
 30
0.0
 10
37.216185
 20
238.008269
 30
0.0
 10
37.104165
 20
238.120286
 30
0.0
 10
37.104227
 20
238.258448
 30
0.0
  0
SPLINE
  5
10e
100
AcDbEntity
  8
Layer_1
 62
7
100
AcDbSpline
 70
8
 71
3
 72
8
 73
4
 74
0
 40
0
 40
0
 40
0
 40
0
 40
1
 40
1
 40
1
 40
1
 10
37.104227
 20
238.258448
 30
0.0
 10
37.104165
 20
238.396610
 30
0.0
 10
37.216185
 20
238.508627
 30
0.0
 10
37.354347
 20
238.508561
 30
0.0
  0
SPLINE
  5
10f
100
AcDbEntity
  8
Layer_1
 62
7
100
AcDbSpline
 70
8
 71
3
 72
8
 73
4
 74
0
 40
0
 40
0
 40
0
 40
0
 40
1
 40
1
 40
1
 40
1
 10
37.354347
 20
238.508561
 30
0.0
 10
37.492505
 20
238.508622
 30
0.0
 10
37.604519
 20
238.396606
 30
0.0
 10
37.604457
 20
238.258448
 30
0.0
  0
LINE
  5
110
100
AcDbEntity
  8
Layer_1
 62
7
100
AcDbLine
 10
37.604457
 20
238.258448
 30
0.0
 11
42.428967
 21
238.258448
 31
0.0
  0
SPLINE
  5
111
100
AcDbEntity
  8
Layer_1
 62
7
100
AcDbSpline
 70
8
 71
3
 72
8
 73
4
 74
0
 40
0
 40
0
 40
0
 40
0
 40
1
 40
1
 40
1
 40
1
 10
42.428967
 20
238.258448
 30
0.0
 10
42.428905
 20
238.396610
 30
0.0
 10
42.540925
 20
238.508627
 30
0.0
 10
42.679087
 20
238.508561
 30
0.0
  0
SPLINE
  5
112
100
AcDbEntity
  8
Layer_1
 62
7
100
AcDbSpline
 70
8
 71
3
 72
8
 73
4
 74
0
 40
0
 40
0
 40
0
 40
0
 40
1
 40
1
 40
1
 40
1
 10
42.679087
 20
238.508561
 30
0.0
 10
42.817245
 20
238.508622
 30
0.0
 10
42.929259
 20
238.396606
 30
0.0
 10
42.929197
 20
238.258448
 30
0.0
  0
SPLINE
  5
113
100
AcDbEntity
  8
Layer_1
 62
7
100
AcDbSpline
 70
8
 71
3
 72
8
 73
4
 74
0
 40
0
 40
0
 40
0
 40
0
 40
1
 40
1
 40
1
 40
1
 10
42.929197
 20
238.258448
 30
0.0
 10
42.929259
 20
238.120290
 30
0.0
 10
42.817245
 20
238.008274
 30
0.0
 10
42.679087
 20
238.008335
 30
0.0
  0
LINE
  5
114
100
AcDbEntity
  8
Layer_1
 62
7
100
AcDbLine
 10
42.679087
 20
238.008335
 30
0.0
 11
42.679087
 21
235.098434
 31
0.0
  0
LINE
  5
115
100
AcDbEntity
  8
Layer_1
 62
7
100
AcDbLine
 10
42.679087
 20
235.098434
 30
0.0
 11
49.289527
 21
235.098434
 31
0.0
  0
LINE
  5
116
100
AcDbEntity
  8
Layer_1
 62
7
100
AcDbLine
 10
49.289527
 20
235.098434
 30
0.0
 11
49.289527
 21
238.008335
 31
0.0
  0
LINE
  5
117
100
AcDbEntity
  8
Layer_1
 62
7
100
AcDbLine
 10
49.289527
 20
238.008335
 30
0.0
 11
49.477016
 21
241.775856
 31
0.0
  0
LINE
  5
118
100
AcDbEntity
  8
Layer_1
 62
7
100
AcDbLine
 10
49.477016
 20
241.775856
 30
0.0
 11
42.755567
 21
242.370859
 31
0.0
  0
SPLINE
  5
119
100
AcDbEntity
  8
Layer_1
 62
7
100
AcDbSpline
 70
8
 71
3
 72
8
 73
4
 74
0
 40
0
 40
0
 40
0
 40
0
 40
1
 40
1
 40
1
 40
1
 10
42.755567
 20
242.370859
 30
0.0
 10
42.744387
 20
242.241830
 30
0.0
 10
42.636509
 20
242.142706
 30
0.0
 10
42.506997
 20
242.142449
 30
0.0
  0
SPLINE
  5
11a
100
AcDbEntity
  8
Layer_1
 62
7
100
AcDbSpline
 70
8
 71
3
 72
8
 73
4
 74
0
 40
0
 40
0
 40
0
 40
0
 40
1
 40
1
 40
1
 40
1
 10
42.506997
 20
242.142449
 30
0.0
 10
42.368839
 20
242.142388
 30
0.0
 10
42.256825
 20
242.254404
 30
0.0
 10
42.256887
 20
242.392562
 30
0.0
  0
SPLINE
  5
11b
100
AcDbEntity
  8
Layer_1
 62
7
100
AcDbSpline
 70
8
 71
3
 72
8
 73
4
 74
0
 40
0
 40
0
 40
0
 40
0
 40
1
 40
1
 40
1
 40
1
 10
42.256887
 20
242.392562
 30
0.0
 10
42.256824
 20
242.530721
 30
0.0
 10
42.368838
 20
242.642737
 30
0.0
 10
42.506997
 20
242.642676
 30
0.0
  0
SPLINE
  5
11c
100
AcDbEntity
  8
Layer_1
 62
7
100
AcDbSpline
 70
8
 71
3
 72
8
 73
4
 74
0
 40
0
 40
0
 40
0
 40
0
 40
1
 40
1
 40
1
 40
1
 10
42.506997
 20
242.642676
 30
0.0
 10
42.514197
 20
242.642657
 30
0.0
 10
42.521487
 20
242.642324
 30
0.0
 10
42.528697
 20
242.641676
 30
0.0
  0
LINE
  5
11d
100
AcDbEntity
  8
Layer_1
 62
7
100
AcDbLine
 10
42.528697
 20
242.641676
 30
0.0
 11
42.768477
 21
245.381042
 31
0.0
  0
LINE
  5
11e
100
AcDbEntity
  8
Layer_1
 62
7
100
AcDbLine
 10
42.768477
 20
245.381042
 30
0.0
 11
37.787907
 21
245.816676
 31
0.0
  0
LINE
  5
11f
100
AcDbEntity
  8
Layer_1
 62
7
100
AcDbLine
 10
37.787907
 20
245.816676
 30
0.0
 11
37.548127
 21
243.077307
 31
0.0
  0
SPLINE
  5
120
100
AcDbEntity
  8
Layer_1
 62
7
100
AcDbSpline
 70
8
 71
3
 72
8
 73
4
 74
0
 40
0
 40
0
 40
0
 40
0
 40
1
 40
1
 40
1
 40
1
 10
37.548127
 20
243.077307
 30
0.0
 10
37.677350
 20
243.066107
 30
0.0
 10
37.776544
 20
242.957936
 30
0.0
 10
37.776537
 20
242.828228
 30
0.0
  0
SPLINE
  5
121
100
AcDbEntity
  8
Layer_1
 62
7
100
AcDbSpline
 70
8
 71
3
 72
8
 73
4
 74
0
 40
0
 40
0
 40
0
 40
0
 40
1
 40
1
 40
1
 40
1
 10
37.776537
 20
242.828228
 30
0.0
 10
37.776601
 20
242.690065
 30
0.0
 10
37.664580
 20
242.578046
 30
0.0
 10
37.526417
 20
242.578112
 30
0.0
  0
SPLINE
  5
122
100
AcDbEntity
  8
Layer_1
 62
7
100
AcDbSpline
 70
8
 71
3
 72
8
 73
4
 74
0
 40
0
 40
0
 40
0
 40
0
 40
1
 40
1
 40
1
 40
1
 10
37.526417
 20
242.578112
 30
0.0
 10
37.388258
 20
242.578051
 30
0.0
 10
37.276243
 20
242.690069
 30
0.0
 10
37.276307
 20
242.828228
 30
0.0
  0
SPLINE
  5
123
100
AcDbEntity
  8
Layer_1
 62
7
100
AcDbSpline
 70
8
 71
3
 72
8
 73
4
 74
0
 40
0
 40
0
 40
0
 40
0
 40
1
 40
1
 40
1
 40
1
 10
37.276307
 20
242.828228
 30
0.0
 10
37.276326
 20
242.835428
 30
0.0
 10
37.276659
 20
242.842718
 30
0.0
 10
37.277307
 20
242.849928
 30
0.0
  0
LINE
  5
124
100
AcDbEntity
  8
Layer_1
 62
7
100
AcDbLine
 10
37.277307
 20
242.849928
 30
0.0
 11
30.813657
 21
243.415756
 31
0.0
  0
SPLINE
  5
125
100
AcDbEntity
  8
Layer_1
 62
7
100
AcDbSpline
 70
8
 71
3
 72
8
 73
4
 74
0
 40
0
 40
0
 40
0
 40
0
 40
1
 40
1
 40
1
 40
1
 10
30.813657
 20
243.415756
 30
0.0
 10
30.802477
 20
243.286731
 30
0.0
 10
30.694605
 20
243.187609
 30
0.0
 10
30.565097
 20
243.187347
 30
0.0
  0
SPLINE
  5
126
100
AcDbEntity
  8
Layer_1
 62
7
100
AcDbSpline
 70
8
 71
3
 72
8
 73
4
 74
0
 40
0
 40
0
 40
0
 40
0
 40
1
 40
1
 40
1
 40
1
 10
30.565097
 20
243.187347
 30
0.0
 10
30.426935
 20
243.187281
 30
0.0
 10
30.314915
 20
243.299298
 30
0.0
 10
30.314977
 20
243.437460
 30
0.0
  0
SPLINE
  5
127
100
AcDbEntity
  8
Layer_1
 62
7
100
AcDbSpline
 70
8
 71
3
 72
8
 73
4
 74
0
 40
0
 40
0
 40
0
 40
0
 40
1
 40
1
 40
1
 40
1
 10
30.314977
 20
243.437460
 30
0.0
 10
30.314914
 20
243.575623
 30
0.0
 10
30.426934
 20
243.687640
 30
0.0
 10
30.565097
 20
243.687574
 30
0.0
  0
SPLINE
  5
128
100
AcDbEntity
  8
Layer_1
 62
7
100
AcDbSpline
 70
8
 71
3
 72
8
 73
4
 74
0
 40
0
 40
0
 40
0
 40
0
 40
1
 40
1
 40
1
 40
1
 10
30.565097
 20
243.687574
 30
0.0
 10
30.572297
 20
243.687555
 30
0.0
 10
30.579577
 20
243.687222
 30
0.0
 10
30.586797
 20
243.686574
 30
0.0
  0
LINE
  5
129
100
AcDbEntity
  8
Layer_1
 62
7
100
AcDbLine
 10
30.586797
 20
243.686574
 30
0.0
 11
30.826567
 21
246.425940
 31
0.0
  0
LINE
  5
12a
100
AcDbEntity
  8
Layer_1
 62
7
100
AcDbLine
 10
30.826567
 20
246.425940
 30
0.0
 11
25.845487
 21
246.861542
 31
0.0
  0
LINE
  5
12b
100
AcDbEntity
  8
Layer_1
 62
6
100
AcDbLine
 10
26.394299
 20
223.600533
 30
0.0
 11
33.670341
 21
223.600533
 31
0.0
  0
LINE
  5
12c
100
AcDbEntity
  8
Layer_1
 62
6
100
AcDbLine
 10
33.670341
 20
223.600533
 30
0.0
 11
33.670341
 21
220.104253
 31
0.0
  0
LINE
  5
12d
100
AcDbEntity
  8
Layer_1
 62
6
100
AcDbLine
 10
33.670341
 20
220.104253
 30
0.0
 11
26.394299
 21
220.104253
 31
0.0
  0
LINE
  5
12e
100
AcDbEntity
  8
Layer_1
 62
6
100
AcDbLine
 10
26.394299
 20
220.104253
 30
0.0
 11
26.394299
 21
223.600533
 31
0.0
  0
LINE
  5
12f
100
AcDbEntity
  8
Layer_1
 62
6
100
AcDbLine
 10
26.661568
 20
259.748737
 30
0.0
 11
33.937610
 21
259.748737
 31
0.0
  0
LINE
  5
130
100
AcDbEntity
  8
Layer_1
 62
6
100
AcDbLine
 10
33.937610
 20
259.748737
 30
0.0
 11
33.937610
 21
256.252457
 31
0.0
  0
LINE
  5
131
100
AcDbEntity
  8
Layer_1
 62
6
100
AcDbLine
 10
33.937610
 20
256.252457
 30
0.0
 11
26.661568
 21
256.252457
 31
0.0
  0
LINE
  5
132
100
AcDbEntity
  8
Layer_1
 62
6
100
AcDbLine
 10
26.661568
 20
256.252457
 30
0.0
 11
26.661568
 21
259.748737
 31
0.0
  0
LINE
  5
133
100
AcDbEntity
  8
Layer_1
 62
7
100
AcDbLine
 10
47.254526
 20
229.423940
 30
0.0
 11
47.254526
 21
199.424225
 31
0.0
  0
LINE
  5
134
100
AcDbEntity
  8
Layer_1
 62
7
100
AcDbLine
 10
47.254526
 20
199.424225
 30
0.0
 11
52.517771
 21
199.424225
 31
0.0
  0
LINE
  5
135
100
AcDbEntity
  8
Layer_1
 62
7
100
AcDbLine
 10
52.517771
 20
199.424225
 30
0.0
 11
52.517771
 21
202.424555
 31
0.0
  0
LINE
  5
136
100
AcDbEntity
  8
Layer_1
 62
7
100
AcDbLine
 10
52.517771
 20
202.424555
 30
0.0
 11
58.667783
 21
202.424555
 31
0.0
  0
LINE
  5
137
100
AcDbEntity
  8
Layer_1
 62
7
100
AcDbLine
 10
58.667783
 20
202.424555
 30
0.0
 11
58.667783
 21
199.424225
 31
0.0
  0
LINE
  5
138
100
AcDbEntity
  8
Layer_1
 62
7
100
AcDbLine
 10
58.667783
 20
199.424225
 30
0.0
 11
64.452959
 21
199.424225
 31
0.0
  0
LINE
  5
139
100
AcDbEntity
  8
Layer_1
 62
7
100
AcDbLine
 10
64.452959
 20
199.424225
 30
0.0
 11
64.452959
 21
202.424555
 31
0.0
  0
LINE
  5
13a
100
AcDbEntity
  8
Layer_1
 62
7
100
AcDbLine
 10
64.452959
 20
202.424555
 30
0.0
 11
70.602971
 21
202.424555
 31
0.0
  0
LINE
  5
13b
100
AcDbEntity
  8
Layer_1
 62
7
100
AcDbLine
 10
70.602971
 20
202.424555
 30
0.0
 11
70.602971
 21
226.424123
 31
0.0
  0
LINE
  5
13c
100
AcDbEntity
  8
Layer_1
 62
7
100
AcDbLine
 10
70.602971
 20
226.424123
 30
0.0
 11
64.452959
 21
226.424123
 31
0.0
  0
LINE
  5
13d
100
AcDbEntity
  8
Layer_1
 62
7
100
AcDbLine
 10
64.452959
 20
226.424123
 30
0.0
 11
64.452959
 21
229.423940
 31
0.0
  0
LINE
  5
13e
100
AcDbEntity
  8
Layer_1
 62
7
100
AcDbLine
 10
64.452959
 20
229.423940
 30
0.0
 11
58.667783
 21
229.423940
 31
0.0
  0
LINE
  5
13f
100
AcDbEntity
  8
Layer_1
 62
7
100
AcDbLine
 10
58.667783
 20
229.423940
 30
0.0
 11
58.667783
 21
226.424123
 31
0.0
  0
LINE
  5
140
100
AcDbEntity
  8
Layer_1
 62
7
100
AcDbLine
 10
58.667783
 20
226.424123
 30
0.0
 11
52.517771
 21
226.424123
 31
0.0
  0
LINE
  5
141
100
AcDbEntity
  8
Layer_1
 62
7
100
AcDbLine
 10
52.517771
 20
226.424123
 30
0.0
 11
52.517771
 21
229.423940
 31
0.0
  0
LINE
  5
142
100
AcDbEntity
  8
Layer_1
 62
7
100
AcDbLine
 10
52.517771
 20
229.423940
 30
0.0
 11
47.254526
 21
229.423940
 31
0.0
  0
LINE
  5
143
100
AcDbEntity
  8
Layer_1
 62
6
100
AcDbLine
 10
100.816710
 20
199.007857
 30
0.0
 11
106.966720
 21
199.007857
 31
0.0
  0
LINE
  5
144
100
AcDbEntity
  8
Layer_1
 62
6
100
AcDbLine
 10
106.966720
 20
199.007857
 30
0.0
 11
106.966720
 21
196.007860
 31
0.0
  0
LINE
  5
145
100
AcDbEntity
  8
Layer_1
 62
6
100
AcDbLine
 10
106.966720
 20
196.007860
 30
0.0
 11
100.816710
 21
196.007860
 31
0.0
  0
LINE
  5
146
100
AcDbEntity
  8
Layer_1
 62
6
100
AcDbLine
 10
100.816710
 20
196.007860
 30
0.0
 11
100.816710
 21
199.007857
 31
0.0
  0
LINE
  5
147
100
AcDbEntity
  8
Layer_1
 62
6
100
AcDbLine
 10
112.751900
 20
199.007857
 30
0.0
 11
118.901910
 21
199.007857
 31
0.0
  0
LINE
  5
148
100
AcDbEntity
  8
Layer_1
 62
6
100
AcDbLine
 10
118.901910
 20
199.007857
 30
0.0
 11
118.901910
 21
196.007860
 31
0.0
  0
LINE
  5
149
100
AcDbEntity
  8
Layer_1
 62
6
100
AcDbLine
 10
118.901910
 20
196.007860
 30
0.0
 11
112.751900
 21
196.007860
 31
0.0
  0
LINE
  5
14a
100
AcDbEntity
  8
Layer_1
 62
6
100
AcDbLine
 10
112.751900
 20
196.007860
 30
0.0
 11
112.751900
 21
199.007857
 31
0.0
  0
LINE
  5
14b
100
AcDbEntity
  8
Layer_1
 62
6
100
AcDbLine
 10
111.342830
 20
188.256270
 30
0.0
 11
115.792830
 21
188.256270
 31
0.0
  0
LINE
  5
14c
100
AcDbEntity
  8
Layer_1
 62
6
100
AcDbLine
 10
115.792830
 20
188.256270
 30
0.0
 11
115.792830
 21
185.256270
 31
0.0
  0
LINE
  5
14d
100
AcDbEntity
  8
Layer_1
 62
6
100
AcDbLine
 10
115.792830
 20
185.256270
 30
0.0
 11
111.342830
 21
185.256270
 31
0.0
  0
LINE
  5
14e
100
AcDbEntity
  8
Layer_1
 62
6
100
AcDbLine
 10
111.342830
 20
185.256270
 30
0.0
 11
111.342830
 21
188.256270
 31
0.0
  0
LINE
  5
14f
100
AcDbEntity
  8
Layer_1
 62
7
100
AcDbLine
 10
49.477016
 20
241.775856
 30
0.0
 11
49.215526
 21
238.787408
 31
0.0
  0
LINE
  5
150
100
AcDbEntity
  8
Layer_1
 62
7
100
AcDbLine
 10
49.215526
 20
238.787408
 30
0.0
 11
49.215526
 21
233.172762
 31
0.0
  0
LINE
  5
151
100
AcDbEntity
  8
Layer_1
 62
7
100
AcDbLine
 10
49.215526
 20
233.172762
 30
0.0
 11
54.125306
 21
233.172762
 31
0.0
  0
SPLINE
  5
152
100
AcDbEntity
  8
Layer_1
 62
7
100
AcDbSpline
 70
8
 71
3
 72
8
 73
4
 74
0
 40
0
 40
0
 40
0
 40
0
 40
1
 40
1
 40
1
 40
1
 10
54.125306
 20
233.172762
 30
0.0
 10
54.125244
 20
233.310924
 30
0.0
 10
54.237264
 20
233.422941
 30
0.0
 10
54.375426
 20
233.422875
 30
0.0
  0
SPLINE
  5
153
100
AcDbEntity
  8
Layer_1
 62
7
100
AcDbSpline
 70
8
 71
3
 72
8
 73
4
 74
0
 40
0
 40
0
 40
0
 40
0
 40
1
 40
1
 40
1
 40
1
 10
54.375426
 20
233.422875
 30
0.0
 10
54.513584
 20
233.422936
 30
0.0
 10
54.625598
 20
233.310920
 30
0.0
 10
54.625536
 20
233.172762
 30
0.0
  0
SPLINE
  5
154
100
AcDbEntity
  8
Layer_1
 62
7
100
AcDbSpline
 70
8
 71
3
 72
8
 73
4
 74
0
 40
0
 40
0
 40
0
 40
0
 40
1
 40
1
 40
1
 40
1
 10
54.625536
 20
233.172762
 30
0.0
 10
54.625598
 20
233.034604
 30
0.0
 10
54.513584
 20
232.922588
 30
0.0
 10
54.375426
 20
232.922649
 30
0.0
  0
LINE
  5
155
100
AcDbEntity
  8
Layer_1
 62
7
100
AcDbLine
 10
54.375426
 20
232.922649
 30
0.0
 11
54.375426
 21
230.012748
 31
0.0
  0
LINE
  5
156
100
AcDbEntity
  8
Layer_1
 62
7
100
AcDbLine
 10
54.375426
 20
230.012748
 30
0.0
 11
60.985876
 21
230.012748
 31
0.0
  0
LINE
  5
157
100
AcDbEntity
  8
Layer_1
 62
7
100
AcDbLine
 10
60.985876
 20
230.012748
 30
0.0
 11
60.985876
 21
232.922649
 31
0.0
  0
SPLINE
  5
158
100
AcDbEntity
  8
Layer_1
 62
7
100
AcDbSpline
 70
8
 71
3
 72
8
 73
4
 74
0
 40
0
 40
0
 40
0
 40
0
 40
1
 40
1
 40
1
 40
1
 10
60.985876
 20
232.922649
 30
0.0
 10
60.847714
 20
232.922583
 30
0.0
 10
60.735694
 20
233.034600
 30
0.0
 10
60.735756
 20
233.172762
 30
0.0
  0
SPLINE
  5
159
100
AcDbEntity
  8
Layer_1
 62
7
100
AcDbSpline
 70
8
 71
3
 72
8
 73
4
 74
0
 40
0
 40
0
 40
0
 40
0
 40
1
 40
1
 40
1
 40
1
 10
60.735756
 20
233.172762
 30
0.0
 10
60.735694
 20
233.310924
 30
0.0
 10
60.847714
 20
233.422941
 30
0.0
 10
60.985876
 20
233.422875
 30
0.0
  0
SPLINE
  5
15a
100
AcDbEntity
  8
Layer_1
 62
7
100
AcDbSpline
 70
8
 71
3
 72
8
 73
4
 74
0
 40
0
 40
0
 40
0
 40
0
 40
1
 40
1
 40
1
 40
1
 10
60.985876
 20
233.422875
 30
0.0
 10
61.124034
 20
233.422936
 30
0.0
 10
61.236048
 20
233.310920
 30
0.0
 10
61.235986
 20
233.172762
 30
0.0
  0
LINE
  5
15b
100
AcDbEntity
  8
Layer_1
 62
7
100
AcDbLine
 10
61.235986
 20
233.172762
 30
0.0
 11
66.060496
 21
233.172762
 31
0.0
  0
SPLINE
  5
15c
100
AcDbEntity
  8
Layer_1
 62
7
100
AcDbSpline
 70
8
 71
3
 72
8
 73
4
 74
0
 40
0
 40
0
 40
0
 40
0
 40
1
 40
1
 40
1
 40
1
 10
66.060496
 20
233.172762
 30
0.0
 10
66.060434
 20
233.310924
 30
0.0
 10
66.172454
 20
233.422941
 30
0.0
 10
66.310616
 20
233.422875
 30
0.0
  0
SPLINE
  5
15d
100
AcDbEntity
  8
Layer_1
 62
7
100
AcDbSpline
 70
8
 71
3
 72
8
 73
4
 74
0
 40
0
 40
0
 40
0
 40
0
 40
1
 40
1
 40
1
 40
1
 10
66.310616
 20
233.422875
 30
0.0
 10
66.448774
 20
233.422936
 30
0.0
 10
66.560788
 20
233.310920
 30
0.0
 10
66.560726
 20
233.172762
 30
0.0
  0
SPLINE
  5
15e
100
AcDbEntity
  8
Layer_1
 62
7
100
AcDbSpline
 70
8
 71
3
 72
8
 73
4
 74
0
 40
0
 40
0
 40
0
 40
0
 40
1
 40
1
 40
1
 40
1
 10
66.560726
 20
233.172762
 30
0.0
 10
66.560788
 20
233.034604
 30
0.0
 10
66.448774
 20
232.922588
 30
0.0
 10
66.310616
 20
232.922649
 30
0.0
  0
LINE
  5
15f
100
AcDbEntity
  8
Layer_1
 62
7
100
AcDbLine
 10
66.310616
 20
232.922649
 30
0.0
 11
66.310616
 21
230.012748
 31
0.0
  0
LINE
  5
160
100
AcDbEntity
  8
Layer_1
 62
7
100
AcDbLine
 10
66.310616
 20
230.012748
 30
0.0
 11
72.921056
 21
230.012748
 31
0.0
  0
LINE
  5
161
100
AcDbEntity
  8
Layer_1
 62
7
100
AcDbLine
 10
72.921056
 20
230.012748
 30
0.0
 11
72.921056
 21
232.922649
 31
0.0
  0
LINE
  5
162
100
AcDbEntity
  8
Layer_1
 62
7
100
AcDbLine
 10
72.921056
 20
232.922649
 30
0.0
 11
73.108545
 21
236.690170
 31
0.0
  0
LINE
  5
163
100
AcDbEntity
  8
Layer_1
 62
7
100
AcDbLine
 10
73.108545
 20
236.690170
 30
0.0
 11
66.387096
 21
237.285173
 31
0.0
  0
SPLINE
  5
164
100
AcDbEntity
  8
Layer_1
 62
7
100
AcDbSpline
 70
8
 71
3
 72
8
 73
4
 74
0
 40
0
 40
0
 40
0
 40
0
 40
1
 40
1
 40
1
 40
1
 10
66.387096
 20
237.285173
 30
0.0
 10
66.375916
 20
237.156144
 30
0.0
 10
66.268038
 20
237.057020
 30
0.0
 10
66.138526
 20
237.056763
 30
0.0
  0
SPLINE
  5
165
100
AcDbEntity
  8
Layer_1
 62
7
100
AcDbSpline
 70
8
 71
3
 72
8
 73
4
 74
0
 40
0
 40
0
 40
0
 40
0
 40
1
 40
1
 40
1
 40
1
 10
66.138526
 20
237.056763
 30
0.0
 10
66.000368
 20
237.056702
 30
0.0
 10
65.888354
 20
237.168718
 30
0.0
 10
65.888416
 20
237.306876
 30
0.0
  0
SPLINE
  5
166
100
AcDbEntity
  8
Layer_1
 62
7
100
AcDbSpline
 70
8
 71
3
 72
8
 73
4
 74
0
 40
0
 40
0
 40
0
 40
0
 40
1
 40
1
 40
1
 40
1
 10
65.888416
 20
237.306876
 30
0.0
 10
65.888353
 20
237.445035
 30
0.0
 10
66.000367
 20
237.557051
 30
0.0
 10
66.138526
 20
237.556990
 30
0.0
  0
SPLINE
  5
167
100
AcDbEntity
  8
Layer_1
 62
7
100
AcDbSpline
 70
8
 71
3
 72
8
 73
4
 74
0
 40
0
 40
0
 40
0
 40
0
 40
1
 40
1
 40
1
 40
1
 10
66.138526
 20
237.556990
 30
0.0
 10
66.145726
 20
237.556971
 30
0.0
 10
66.153016
 20
237.556638
 30
0.0
 10
66.160226
 20
237.555990
 30
0.0
  0
LINE
  5
168
100
AcDbEntity
  8
Layer_1
 62
7
100
AcDbLine
 10
66.160226
 20
237.555990
 30
0.0
 11
66.400006
 21
240.295356
 31
0.0
  0
LINE
  5
169
100
AcDbEntity
  8
Layer_1
 62
7
100
AcDbLine
 10
66.400006
 20
240.295356
 30
0.0
 11
61.419436
 21
240.730990
 31
0.0
  0
LINE
  5
16a
100
AcDbEntity
  8
Layer_1
 62
7
100
AcDbLine
 10
61.419436
 20
240.730990
 30
0.0
 11
61.179656
 21
237.991621
 31
0.0
  0
SPLINE
  5
16b
100
AcDbEntity
  8
Layer_1
 62
7
100
AcDbSpline
 70
8
 71
3
 72
8
 73
4
 74
0
 40
0
 40
0
 40
0
 40
0
 40
1
 40
1
 40
1
 40
1
 10
61.179656
 20
237.991621
 30
0.0
 10
61.308879
 20
237.980421
 30
0.0
 10
61.408073
 20
237.872250
 30
0.0
 10
61.408066
 20
237.742542
 30
0.0
  0
SPLINE
  5
16c
100
AcDbEntity
  8
Layer_1
 62
7
100
AcDbSpline
 70
8
 71
3
 72
8
 73
4
 74
0
 40
0
 40
0
 40
0
 40
0
 40
1
 40
1
 40
1
 40
1
 10
61.408066
 20
237.742542
 30
0.0
 10
61.408130
 20
237.604379
 30
0.0
 10
61.296109
 20
237.492360
 30
0.0
 10
61.157946
 20
237.492426
 30
0.0
  0
SPLINE
  5
16d
100
AcDbEntity
  8
Layer_1
 62
7
100
AcDbSpline
 70
8
 71
3
 72
8
 73
4
 74
0
 40
0
 40
0
 40
0
 40
0
 40
1
 40
1
 40
1
 40
1
 10
61.157946
 20
237.492426
 30
0.0
 10
61.019787
 20
237.492365
 30
0.0
 10
60.907772
 20
237.604383
 30
0.0
 10
60.907836
 20
237.742542
 30
0.0
  0
SPLINE
  5
16e
100
AcDbEntity
  8
Layer_1
 62
7
100
AcDbSpline
 70
8
 71
3
 72
8
 73
4
 74
0
 40
0
 40
0
 40
0
 40
0
 40
1
 40
1
 40
1
 40
1
 10
60.907836
 20
237.742542
 30
0.0
 10
60.907855
 20
237.749742
 30
0.0
 10
60.908188
 20
237.757032
 30
0.0
 10
60.908836
 20
237.764242
 30
0.0
  0
LINE
  5
16f
100
AcDbEntity
  8
Layer_1
 62
7
100
AcDbLine
 10
60.908836
 20
237.764242
 30
0.0
 11
54.445186
 21
238.330070
 31
0.0
  0
SPLINE
  5
170
100
AcDbEntity
  8
Layer_1
 62
7
100
AcDbSpline
 70
8
 71
3
 72
8
 73
4
 74
0
 40
0
 40
0
 40
0
 40
0
 40
1
 40
1
 40
1
 40
1
 10
54.445186
 20
238.330070
 30
0.0
 10
54.434006
 20
238.201045
 30
0.0
 10
54.326134
 20
238.101923
 30
0.0
 10
54.196626
 20
238.101661
 30
0.0
  0
SPLINE
  5
171
100
AcDbEntity
  8
Layer_1
 62
7
100
AcDbSpline
 70
8
 71
3
 72
8
 73
4
 74
0
 40
0
 40
0
 40
0
 40
0
 40
1
 40
1
 40
1
 40
1
 10
54.196626
 20
238.101661
 30
0.0
 10
54.058464
 20
238.101595
 30
0.0
 10
53.946444
 20
238.213612
 30
0.0
 10
53.946506
 20
238.351774
 30
0.0
  0
SPLINE
  5
172
100
AcDbEntity
  8
Layer_1
 62
7
100
AcDbSpline
 70
8
 71
3
 72
8
 73
4
 74
0
 40
0
 40
0
 40
0
 40
0
 40
1
 40
1
 40
1
 40
1
 10
53.946506
 20
238.351774
 30
0.0
 10
53.946443
 20
238.489937
 30
0.0
 10
54.058463
 20
238.601954
 30
0.0
 10
54.196626
 20
238.601888
 30
0.0
  0
SPLINE
  5
173
100
AcDbEntity
  8
Layer_1
 62
7
100
AcDbSpline
 70
8
 71
3
 72
8
 73
4
 74
0
 40
0
 40
0
 40
0
 40
0
 40
1
 40
1
 40
1
 40
1
 10
54.196626
 20
238.601888
 30
0.0
 10
54.203826
 20
238.601869
 30
0.0
 10
54.211106
 20
238.601536
 30
0.0
 10
54.218326
 20
238.600888
 30
0.0
  0
LINE
  5
174
100
AcDbEntity
  8
Layer_1
 62
7
100
AcDbLine
 10
54.218326
 20
238.600888
 30
0.0
 11
54.458096
 21
241.340254
 31
0.0
  0
LINE
  5
175
100
AcDbEntity
  8
Layer_1
 62
7
100
AcDbLine
 10
54.458096
 20
241.340254
 30
0.0
 11
49.477016
 21
241.775856
 31
0.0
  0
LINE
  5
176
100
AcDbEntity
  8
Layer_1
 62
7
100
AcDbLine
 10
27.651074
 20
201.656108
 30
0.0
 11
27.651075
 21
204.655918
 31
0.0
  0
LINE
  5
177
100
AcDbEntity
  8
Layer_1
 62
7
100
AcDbLine
 10
27.651075
 20
204.655918
 30
0.0
 11
32.200944
 21
204.655918
 31
0.0
  0
LINE
  5
178
100
AcDbEntity
  8
Layer_1
 62
7
100
AcDbLine
 10
32.200944
 20
204.655918
 30
0.0
 11
32.200944
 21
201.656108
 31
0.0
  0
LINE
  5
179
100
AcDbEntity
  8
Layer_1
 62
7
100
AcDbLine
 10
32.200944
 20
201.656108
 30
0.0
 11
27.651074
 21
201.656108
 31
0.0
  0
LINE
  5
17a
100
AcDbEntity
  8
Layer_1
 62
7
100
AcDbLine
 10
39.863944
 20
201.656108
 30
0.0
 11
39.863944
 21
204.655918
 31
0.0
  0
LINE
  5
17b
100
AcDbEntity
  8
Layer_1
 62
7
100
AcDbLine
 10
39.863944
 20
204.655918
 30
0.0
 11
44.413944
 21
204.655918
 31
0.0
  0
LINE
  5
17c
100
AcDbEntity
  8
Layer_1
 62
7
100
AcDbLine
 10
44.413944
 20
204.655918
 30
0.0
 11
44.413944
 21
201.656108
 31
0.0
  0
LINE
  5
17d
100
AcDbEntity
  8
Layer_1
 62
7
100
AcDbLine
 10
44.413944
 20
201.656108
 30
0.0
 11
39.863944
 21
201.656108
 31
0.0
  0
LINE
  5
17e
100
AcDbEntity
  8
Layer_1
 62
7
100
AcDbLine
 10
44.413944
 20
231.656336
 30
0.0
 11
44.413944
 21
228.656519
 31
0.0
  0
LINE
  5
17f
100
AcDbEntity
  8
Layer_1
 62
7
100
AcDbLine
 10
44.413944
 20
228.656519
 30
0.0
 11
39.863944
 21
228.656519
 31
0.0
  0
LINE
  5
180
100
AcDbEntity
  8
Layer_1
 62
7
100
AcDbLine
 10
39.863944
 20
228.656519
 30
0.0
 11
39.863944
 21
231.656336
 31
0.0
  0
LINE
  5
181
100
AcDbEntity
  8
Layer_1
 62
7
100
AcDbLine
 10
39.863944
 20
231.656336
 30
0.0
 11
44.413944
 21
231.656336
 31
0.0
  0
LINE
  5
182
100
AcDbEntity
  8
Layer_1
 62
7
100
AcDbLine
 10
27.651075
 20
228.656519
 30
0.0
 11
32.200944
 21
228.656519
 31
0.0
  0
LINE
  5
183
100
AcDbEntity
  8
Layer_1
 62
7
100
AcDbLine
 10
32.200944
 20
228.656519
 30
0.0
 11
32.200944
 21
231.656337
 31
0.0
  0
LINE
  5
184
100
AcDbEntity
  8
Layer_1
 62
7
100
AcDbLine
 10
32.200944
 20
231.656337
 30
0.0
 11
27.651074
 21
231.656338
 31
0.0
  0
LINE
  5
185
100
AcDbEntity
  8
Layer_1
 62
7
100
AcDbLine
 10
27.651074
 20
231.656338
 30
0.0
 11
27.651075
 21
228.656519
 31
0.0
  0
LINE
  5
186
100
AcDbEntity
  8
Layer_1
 62
7
100
AcDbLine
 10
26.433683
 20
233.482426
 30
0.0
 11
45.834234
 21
233.482426
 31
0.0
  0
LINE
  5
187
100
AcDbEntity
  8
Layer_1
 62
7
100
AcDbLine
 10
45.834234
 20
233.482426
 30
0.0
 11
45.834234
 21
199.424221
 31
0.0
  0
LINE
  5
188
100
AcDbEntity
  8
Layer_1
 62
7
100
AcDbLine
 10
45.834234
 20
199.424221
 30
0.0
 11
26.433683
 21
199.424221
 31
0.0
  0
LINE
  5
189
100
AcDbEntity
  8
Layer_1
 62
7
100
AcDbLine
 10
26.433683
 20
199.424221
 30
0.0
 11
26.433683
 21
233.482426
 31
0.0
  0
ENDSEC
  0
SECTION
  2
OBJECTS
  0
DICTIONARY
  5
C
330
0
100
AcDbDictionary
  3
ACAD_GROUP
350
D
  3
ACAD_MLINESTYLE
350
17
  0
DICTIONARY
  5
D
330
C
100
AcDbDictionary
  0
DICTIONARY
  5
1A
330
C
100
AcDbDictionary
  0
DICTIONARY
  5
17
330
C
100
AcDbDictionary
  3
STANDARD
350
18
  0
DICTIONARY
  5
19
330
C
100
AcDbDictionary
  0
ENDSEC
  0
EOF
