<?xml version="1.0" encoding="UTF-8" standalone="no"?>
<!-- Created with Inkscape (http://www.inkscape.org/) -->

<svg
   xmlns:dc="http://purl.org/dc/elements/1.1/"
   xmlns:cc="http://creativecommons.org/ns#"
   xmlns:rdf="http://www.w3.org/1999/02/22-rdf-syntax-ns#"
   xmlns:svg="http://www.w3.org/2000/svg"
   xmlns="http://www.w3.org/2000/svg"
   xmlns:sodipodi="http://sodipodi.sourceforge.net/DTD/sodipodi-0.dtd"
   xmlns:inkscape="http://www.inkscape.org/namespaces/inkscape"
   width="122.11054mm"
   height="65.925423mm"
   viewBox="0 0 122.11054 65.925423"
   version="1.1"
   id="svg3924"
   inkscape:version="0.92.4 (5da689c313, 2019-01-14)"
   sodipodi:docname="Feet3.svg">
  <defs
     id="defs3918" />
  <sodipodi:namedview
     id="base"
     pagecolor="#ffffff"
     bordercolor="#666666"
     borderopacity="1.0"
     inkscape:pageopacity="0.0"
     inkscape:pageshadow="2"
     inkscape:zoom="2.6080358"
     inkscape:cx="234.59314"
     inkscape:cy="127.27676"
     inkscape:document-units="mm"
     inkscape:current-layer="layer1"
     showgrid="false"
     inkscape:window-width="1920"
     inkscape:window-height="1137"
     inkscape:window-x="1672"
     inkscape:window-y="-8"
     inkscape:window-maximized="1"
     inkscape:snap-midpoints="false"
     inkscape:snap-global="true"
     inkscape:snap-bbox="true"
     inkscape:snap-bbox-midpoints="false"
     inkscape:snap-others="true"
     inkscape:snap-object-midpoints="true"
     inkscape:object-nodes="true"
     inkscape:bbox-nodes="true"
     fit-margin-top="0"
     fit-margin-left="0"
     fit-margin-right="0"
     fit-margin-bottom="0" />
  <metadata
     id="metadata3921">
    <rdf:RDF>
      <cc:Work
         rdf:about="">
        <dc:format>image/svg+xml</dc:format>
        <dc:type
           rdf:resource="http://purl.org/dc/dcmitype/StillImage" />
        <dc:title></dc:title>
      </cc:Work>
    </rdf:RDF>
  </metadata>
  <g
     inkscape:label="Layer 1"
     inkscape:groupmode="layer"
     id="layer1"
     transform="translate(-4.7273891,-31.782647)">
    <path
       style="color:#000000;clip-rule:nonzero;display:inline;overflow:visible;visibility:visible;opacity:1;isolation:auto;mix-blend-mode:normal;color-interpolation:sRGB;color-interpolation-filters:linearRGB;solid-color:#000000;solid-opacity:1;fill:none;fill-opacity:1;fill-rule:nonzero;stroke:#ff00ff;stroke-width:0.26458332;stroke-linecap:butt;stroke-linejoin:miter;stroke-miterlimit:4;stroke-dasharray:none;stroke-dashoffset:0;stroke-opacity:1;color-rendering:auto;image-rendering:auto;shape-rendering:auto;text-rendering:auto;enable-background:accumulate"
       d="M 11.451572,40.279514 H 130.70257 V 50.703027 H 11.451572 Z"
       id="rect3926"
       transform="rotate(5)"
       inkscape:connector-curvature="0" />
    <text
       xml:space="preserve"
       style="font-style:normal;font-variant:normal;font-weight:normal;font-stretch:normal;font-size:3.52777767px;line-height:125%;font-family:Arial;-inkscape-font-specification:'Arial, Normal';font-variant-ligatures:normal;font-variant-caps:normal;font-variant-numeric:normal;font-feature-settings:normal;text-align:center;letter-spacing:0px;word-spacing:0px;writing-mode:lr-tb;text-anchor:middle;fill:#ff00ff;fill-opacity:1;stroke:none;stroke-width:0.26458332px;stroke-linecap:butt;stroke-linejoin:miter;stroke-opacity:1"
       x="17.610325"
       y="50.095394"
       id="text27"><tspan
         sodipodi:role="line"
         id="tspan25"
         x="17.610325"
         y="50.095394"
         style="fill:#ff00ff;stroke-width:0.26458332px">5mm Tabs</tspan></text>
    <text
       xml:space="preserve"
       style="font-style:normal;font-variant:normal;font-weight:normal;font-stretch:normal;font-size:3.52777767px;line-height:125%;font-family:Arial;-inkscape-font-specification:'Arial, Normal';font-variant-ligatures:normal;font-variant-caps:normal;font-variant-numeric:normal;font-feature-settings:normal;text-align:center;letter-spacing:0px;word-spacing:0px;writing-mode:lr-tb;text-anchor:middle;fill:#ff00ff;fill-opacity:1;stroke:none;stroke-width:0.26458332px;stroke-linecap:butt;stroke-linejoin:miter;stroke-opacity:1"
       x="15.157415"
       y="61.858501"
       id="text31"><tspan
         sodipodi:role="line"
         id="tspan29"
         x="15.157415"
         y="61.858501"
         style="fill:#ff00ff;stroke-width:0.26458332px">6.61mm Tabs</tspan></text>
    <path
       style="color:#000000;clip-rule:nonzero;display:inline;overflow:visible;visibility:visible;opacity:1;isolation:auto;mix-blend-mode:normal;color-interpolation:sRGB;color-interpolation-filters:linearRGB;solid-color:#000000;solid-opacity:1;fill:none;fill-opacity:1;fill-rule:nonzero;stroke:#000000;stroke-width:0.26458332;stroke-linecap:butt;stroke-linejoin:miter;stroke-miterlimit:4;stroke-dasharray:none;stroke-dashoffset:0;stroke-opacity:1;color-rendering:auto;image-rendering:auto;shape-rendering:auto;text-rendering:auto;enable-background:accumulate"
       d="m 25.845487,50.138458 -0.26149,2.988448 v 5.614646 h 4.90978 c -6.2e-5,-0.138162 0.111958,-0.250179 0.25012,-0.250113 0.138158,-6.1e-5 0.250172,0.111955 0.25011,0.250113 6.2e-5,0.138158 -0.111952,0.250174 -0.25011,0.250113 v 2.909901 h 6.61045 v -2.909901 c -0.138162,6.6e-5 -0.250182,-0.111951 -0.25012,-0.250113 -6.2e-5,-0.138162 0.111958,-0.250179 0.25012,-0.250113 0.138158,-6.1e-5 0.250172,0.111955 0.25011,0.250113 h 4.82451 c -6.2e-5,-0.138162 0.111958,-0.250179 0.25012,-0.250113 0.138158,-6.1e-5 0.250172,0.111955 0.25011,0.250113 6.2e-5,0.138158 -0.111952,0.250174 -0.25011,0.250113 v 2.909901 h 6.61044 v -2.909901 l 0.187489,-3.767521 -6.721449,-0.595003 c -0.01118,0.129029 -0.119058,0.228153 -0.24857,0.22841 -0.138158,6.1e-5 -0.250172,-0.111955 -0.25011,-0.250113 -6.3e-5,-0.138159 0.111951,-0.250175 0.25011,-0.250114 0.0072,1.9e-5 0.01449,3.52e-4 0.0217,0.001 l 0.23978,-2.739366 -4.98057,-0.435634 -0.23978,2.739369 c 0.129223,0.0112 0.228417,0.119371 0.22841,0.249079 6.4e-5,0.138163 -0.111957,0.250182 -0.25012,0.250116 -0.138159,6.1e-5 -0.250174,-0.111957 -0.25011,-0.250116 1.9e-5,-0.0072 3.52e-4,-0.01449 10e-4,-0.0217 l -6.46365,-0.565828 c -0.01118,0.129025 -0.119052,0.228147 -0.24856,0.228409 -0.138162,6.6e-5 -0.250182,-0.111951 -0.25012,-0.250113 -6.3e-5,-0.138163 0.111957,-0.25018 0.25012,-0.250114 0.0072,1.9e-5 0.01448,3.52e-4 0.0217,10e-4 l 0.23977,-2.739366 z"
       id="path216"
       inkscape:connector-curvature="0"
       sodipodi:nodetypes="cccccccccccccccccccccccccccccccccccccccc" />
    <rect
       y="37.283527"
       x="55.205891"
       height="3.4962797"
       width="7.2760415"
       id="rect202"
       style="color:#000000;clip-rule:nonzero;display:inline;overflow:visible;visibility:visible;opacity:1;isolation:auto;mix-blend-mode:normal;color-interpolation:sRGB;color-interpolation-filters:linearRGB;solid-color:#000000;solid-opacity:1;fill:none;fill-opacity:1;fill-rule:nonzero;stroke:#ff00ff;stroke-width:0.26458332;stroke-linecap:butt;stroke-linejoin:miter;stroke-miterlimit:4;stroke-dasharray:none;stroke-dashoffset:0;stroke-opacity:1;color-rendering:auto;image-rendering:auto;shape-rendering:auto;text-rendering:auto;enable-background:accumulate" />
    <rect
       style="color:#000000;clip-rule:nonzero;display:inline;overflow:visible;visibility:visible;opacity:1;isolation:auto;mix-blend-mode:normal;color-interpolation:sRGB;color-interpolation-filters:linearRGB;solid-color:#000000;solid-opacity:1;fill:none;fill-opacity:1;fill-rule:nonzero;stroke:#ff00ff;stroke-width:0.26458332;stroke-linecap:butt;stroke-linejoin:miter;stroke-miterlimit:4;stroke-dasharray:none;stroke-dashoffset:0;stroke-opacity:1;color-rendering:auto;image-rendering:auto;shape-rendering:auto;text-rendering:auto;enable-background:accumulate"
       id="rect184"
       width="7.2760415"
       height="3.4962797"
       x="26.661568"
       y="37.251263" />
    <text
       id="text206"
       y="34.515522"
       x="64.864433"
       style="font-style:normal;font-variant:normal;font-weight:normal;font-stretch:normal;font-size:3.52777767px;line-height:125%;font-family:Arial;-inkscape-font-specification:'Arial, Normal';font-variant-ligatures:normal;font-variant-caps:normal;font-variant-numeric:normal;font-feature-settings:normal;text-align:center;letter-spacing:0px;word-spacing:0px;writing-mode:lr-tb;text-anchor:middle;fill:none;fill-opacity:1;stroke:#ff00ff;stroke-width:0.26458332px;stroke-linecap:butt;stroke-linejoin:miter;stroke-opacity:1"
       xml:space="preserve"><tspan
         style="fill:none;stroke:#ff00ff;stroke-width:0.26458332px"
         y="34.515522"
         x="64.864433"
         id="tspan204"
         sodipodi:role="line">6.61mm-kerf</tspan></text>
    <text
       xml:space="preserve"
       style="font-style:normal;font-variant:normal;font-weight:normal;font-stretch:normal;font-size:3.52777767px;line-height:125%;font-family:Arial;-inkscape-font-specification:'Arial, Normal';font-variant-ligatures:normal;font-variant-caps:normal;font-variant-numeric:normal;font-feature-settings:normal;text-align:center;letter-spacing:0px;word-spacing:0px;writing-mode:lr-tb;text-anchor:middle;fill:none;fill-opacity:1;stroke:#ff00ff;stroke-width:0.26458332px;stroke-linecap:butt;stroke-linejoin:miter;stroke-opacity:1"
       x="36.320107"
       y="34.483257"
       id="text188"><tspan
         sodipodi:role="line"
         id="tspan186"
         x="36.320107"
         y="34.483257"
         style="fill:none;stroke:#ff00ff;stroke-width:0.26458332px">5mm-kerf</tspan></text>
    <text
       id="text210"
       y="39.834866"
       x="72.498306"
       style="font-style:normal;font-variant:normal;font-weight:normal;font-stretch:normal;font-size:3.52777767px;line-height:125%;font-family:Arial;-inkscape-font-specification:'Arial, Normal';font-variant-ligatures:normal;font-variant-caps:normal;font-variant-numeric:normal;font-feature-settings:normal;text-align:center;letter-spacing:0px;word-spacing:0px;writing-mode:lr-tb;text-anchor:middle;fill:none;fill-opacity:1;stroke:#ff00ff;stroke-width:0.26458332px;stroke-linecap:butt;stroke-linejoin:miter;stroke-opacity:1"
       xml:space="preserve"><tspan
         style="fill:none;stroke:#ff00ff;stroke-width:0.26458332px"
         y="39.834866"
         x="72.498306"
         id="tspan208"
         sodipodi:role="line">3mm+kerf</tspan></text>
    <text
       xml:space="preserve"
       style="font-style:normal;font-variant:normal;font-weight:normal;font-stretch:normal;font-size:3.52777767px;line-height:125%;font-family:Arial;-inkscape-font-specification:'Arial, Normal';font-variant-ligatures:normal;font-variant-caps:normal;font-variant-numeric:normal;font-feature-settings:normal;text-align:center;letter-spacing:0px;word-spacing:0px;writing-mode:lr-tb;text-anchor:middle;fill:none;fill-opacity:1;stroke:#ff00ff;stroke-width:0.26458332px;stroke-linecap:butt;stroke-linejoin:miter;stroke-opacity:1"
       x="43.953979"
       y="39.802601"
       id="text192"><tspan
         sodipodi:role="line"
         id="tspan190"
         x="43.953979"
         y="39.802601"
         style="fill:none;stroke:#ff00ff;stroke-width:0.26458332px">3mm+kerf</tspan></text>
    <flowRoot
       xml:space="preserve"
       id="flowRoot194"
       style="font-style:normal;font-variant:normal;font-weight:normal;font-stretch:normal;font-size:13.33333302px;line-height:125%;font-family:Arial;-inkscape-font-specification:'Arial, Normal';font-variant-ligatures:normal;font-variant-caps:normal;font-variant-numeric:normal;font-feature-settings:normal;text-align:center;letter-spacing:0px;word-spacing:0px;writing-mode:lr-tb;text-anchor:middle;fill:#000000;fill-opacity:1;stroke:none;stroke-width:1px;stroke-linecap:butt;stroke-linejoin:miter;stroke-opacity:1"><flowRegion
         id="flowRegion196"><rect
           id="rect198"
           width="202.53558"
           height="67.680222"
           x="56.063465"
           y="253.03088" /></flowRegion><flowPara
         id="flowPara200" /></flowRoot>    <path
       style="color:#000000;clip-rule:nonzero;display:inline;overflow:visible;visibility:visible;opacity:1;isolation:auto;mix-blend-mode:normal;color-interpolation:sRGB;color-interpolation-filters:linearRGB;solid-color:#000000;solid-opacity:1;fill:none;fill-opacity:1;fill-rule:nonzero;stroke:#000000;stroke-width:0.26458332;stroke-linecap:butt;stroke-linejoin:miter;stroke-miterlimit:4;stroke-dasharray:none;stroke-dashoffset:0;stroke-opacity:1;color-rendering:auto;image-rendering:auto;shape-rendering:auto;text-rendering:auto;enable-background:accumulate"
       d="m 47.254526,67.57606 v 29.999715 h 5.263245 v -3.00033 h 6.150012 v 3.00033 h 5.785176 v -3.00033 h 6.150012 V 70.575877 H 64.452959 V 67.57606 h -5.785176 v 2.999817 H 52.517771 V 67.57606 Z"
       id="rect360"
       inkscape:connector-curvature="0"
       sodipodi:nodetypes="ccccccccccccccccc" />
    <path
       sodipodi:nodetypes="cccccccccccccccccccccccccccccccccccccccc"
       inkscape:connector-curvature="0"
       id="path358"
       d="m 49.477016,55.224144 -0.26149,2.988448 v 5.614646 h 4.90978 c -6.2e-5,-0.138162 0.111958,-0.250179 0.25012,-0.250113 0.138158,-6.1e-5 0.250172,0.111955 0.25011,0.250113 6.2e-5,0.138158 -0.111952,0.250174 -0.25011,0.250113 v 2.909901 h 6.61045 v -2.909901 c -0.138162,6.6e-5 -0.250182,-0.111951 -0.25012,-0.250113 -6.2e-5,-0.138162 0.111958,-0.250179 0.25012,-0.250113 0.138158,-6.1e-5 0.250172,0.111955 0.25011,0.250113 h 4.82451 c -6.2e-5,-0.138162 0.111958,-0.250179 0.25012,-0.250113 0.138158,-6.1e-5 0.250172,0.111955 0.25011,0.250113 6.2e-5,0.138158 -0.111952,0.250174 -0.25011,0.250113 v 2.909901 h 6.61044 v -2.909901 l 0.187489,-3.767521 -6.721449,-0.595003 c -0.01118,0.129029 -0.119058,0.228153 -0.24857,0.22841 -0.138158,6.1e-5 -0.250172,-0.111955 -0.25011,-0.250113 -6.3e-5,-0.138159 0.111951,-0.250175 0.25011,-0.250114 0.0072,1.9e-5 0.01449,3.52e-4 0.0217,10e-4 l 0.23978,-2.739366 -4.98057,-0.435634 -0.23978,2.739369 c 0.129223,0.0112 0.228417,0.119371 0.22841,0.249079 6.4e-5,0.138163 -0.111957,0.250182 -0.25012,0.250116 -0.138159,6.1e-5 -0.250174,-0.111957 -0.25011,-0.250116 1.9e-5,-0.0072 3.52e-4,-0.01449 10e-4,-0.0217 l -6.46365,-0.565828 c -0.01118,0.129025 -0.119052,0.228147 -0.24856,0.228409 -0.138162,6.6e-5 -0.250182,-0.111951 -0.25012,-0.250113 -6.3e-5,-0.138163 0.111957,-0.25018 0.25012,-0.250114 0.0072,1.9e-5 0.01448,3.52e-4 0.0217,0.001 l 0.23977,-2.739366 z"
       style="color:#000000;clip-rule:nonzero;display:inline;overflow:visible;visibility:visible;opacity:1;isolation:auto;mix-blend-mode:normal;color-interpolation:sRGB;color-interpolation-filters:linearRGB;solid-color:#000000;solid-opacity:1;fill:none;fill-opacity:1;fill-rule:nonzero;stroke:#000000;stroke-width:0.26458332;stroke-linecap:butt;stroke-linejoin:miter;stroke-miterlimit:4;stroke-dasharray:none;stroke-dashoffset:0;stroke-opacity:1;color-rendering:auto;image-rendering:auto;shape-rendering:auto;text-rendering:auto;enable-background:accumulate" />
    <path
       id="path383"
       style="fill:none;fill-rule:evenodd;stroke:#000000;stroke-width:0.26458332px;stroke-linecap:butt;stroke-linejoin:miter;stroke-opacity:1"
       d="m 27.651074,95.343892 10e-7,-2.99981 h 4.549869 v 2.99981 z m 12.21287,0 v -2.99981 h 4.55 v 2.99981 z m 4.55,-30.000228 v 2.999817 h -4.55 v -2.999817 z m -16.762869,2.999817 h 4.549869 v -2.999818 l -4.54987,-1e-6 z"
       inkscape:connector-curvature="0"
       sodipodi:nodetypes="cccccccccccccccccccc" />
    <rect
       style="color:#000000;clip-rule:nonzero;display:inline;overflow:visible;visibility:visible;opacity:1;isolation:auto;mix-blend-mode:normal;color-interpolation:sRGB;color-interpolation-filters:linearRGB;solid-color:#000000;solid-opacity:1;fill:none;fill-opacity:1;fill-rule:nonzero;stroke:#000000;stroke-width:0.26458332;stroke-linecap:butt;stroke-linejoin:miter;stroke-miterlimit:4;stroke-dasharray:none;stroke-dashoffset:0;stroke-opacity:1;color-rendering:auto;image-rendering:auto;shape-rendering:auto;text-rendering:auto;enable-background:accumulate"
       id="rect387"
       width="19.400551"
       height="34.058205"
       x="26.433683"
       y="63.517574" />
  </g>
</svg>
