<?xml version="1.0" encoding="UTF-8" standalone="no"?>
<!-- Generated by SVGo -->

<svg
   xmlns:dc="http://purl.org/dc/elements/1.1/"
   xmlns:cc="http://creativecommons.org/ns#"
   xmlns:rdf="http://www.w3.org/1999/02/22-rdf-syntax-ns#"
   xmlns:svg="http://www.w3.org/2000/svg"
   xmlns="http://www.w3.org/2000/svg"
   xmlns:sodipodi="http://sodipodi.sourceforge.net/DTD/sodipodi-0.dtd"
   xmlns:inkscape="http://www.inkscape.org/namespaces/inkscape"
   width="338.802mm"
   height="129.251mm"
   viewBox="0.000 0.000 338.802 129.251"
   version="1.1"
   id="svg56"
   sodipodi:docname="Open Layer_x2.svg"
   inkscape:version="0.92.4 (5da689c313, 2019-01-14)">
  <metadata
     id="metadata62">
    <rdf:RDF>
      <cc:Work
         rdf:about="">
        <dc:format>image/svg+xml</dc:format>
        <dc:type
           rdf:resource="http://purl.org/dc/dcmitype/StillImage" />
        <dc:title />
      </cc:Work>
    </rdf:RDF>
  </metadata>
  <defs
     id="defs60" />
  <sodipodi:namedview
     pagecolor="#ffffff"
     bordercolor="#666666"
     borderopacity="1"
     objecttolerance="10"
     gridtolerance="10"
     guidetolerance="10"
     inkscape:pageopacity="0"
     inkscape:pageshadow="2"
     inkscape:window-width="1463"
     inkscape:window-height="760"
     id="namedview58"
     showgrid="false"
     inkscape:zoom="0.9902293"
     inkscape:cx="353.26107"
     inkscape:cy="269.27818"
     inkscape:window-x="-8"
     inkscape:window-y="-8"
     inkscape:window-maximized="1"
     inkscape:current-layer="svg56"
     inkscape:snap-midpoints="true"
     inkscape:snap-nodes="false"
     inkscape:snap-bbox="true"
     inkscape:snap-bbox-midpoints="true"
     inkscape:snap-others="false" />
  <path
     id="path42"
     style="fill:none;fill-rule:evenodd;stroke:#000000;stroke-width:0.26458332px;stroke-linecap:butt;stroke-linejoin:miter;stroke-opacity:1"
     d="M 319.90191,111.12552 H 15.100887 V 15.874483 H 26.474354 V 3.8746988 H 9.1012535 v 0 L 8.6299642,3.8933024 8.1617755,3.9485961 7.6997882,4.0405801 7.2460693,4.1687376 6.8042358,4.3315186 6.3768715,4.5284056 5.966044,4.7593993 5.5738199,5.0203652 5.2038167,5.3123372 4.8581013,5.6327309 4.5382243,5.9784463 4.2462524,6.3484497 3.9847697,6.7406736 3.753776,7.1515014 3.5568887,7.5783487 3.394108,8.0206989 3.2659505,8.4744181 3.1739665,8.9364054 3.1191893,9.4045941 3.1011026,9.8743327 3.1000692,117.12567 l 0.01912,0.47077 0.054777,0.46819 0.091984,0.46199 0.1281575,0.45371 0.1627807,0.44236 0.1968873,0.42684 0.2309937,0.41083 0.2614827,0.39223 0.2919719,0.37 0.319877,0.34571 0.3457154,0.3204 0.3700032,0.29197 0.3922241,0.26096 0.4108275,0.231 0.4273643,0.19689 0.4418335,0.16278 0.4537189,0.12815 0.4619873,0.092 0.4681887,0.0553 0.4712893,0.0176 H 325.90208 l 0.46971,-0.0176 0.46821,-0.0553 0.46199,-0.092 0.45423,-0.12815 0.44183,-0.16278 0.42685,-0.19689 0.41135,-0.231 0.39169,-0.26096 0.37002,-0.29197 0.34624,-0.3204 0.31985,-0.34571 0.29199,-0.37 0.26096,-0.39223 0.23098,-0.41083 0.19691,-0.42684 0.1633,-0.44236 0.12763,-0.45371 0.092,-0.46199 0.0553,-0.46819 0.0191,-0.47077 3e-5,-6.00015 m -12.00034,0 5.99674,-5.81147 5.99674,5.81147" />
  <path
     id="path23"
     style="fill:none;fill-rule:evenodd;stroke:#000000;stroke-width:0.26458332px;stroke-linecap:butt;stroke-linejoin:miter;stroke-opacity:1"
     d="m 319.90877,103.06239 5.99674,-5.811466 5.99674,5.811466 m 0,0 -3e-5,-101.2501499 -0.0191,-0.4707723 -0.0553,-0.4681887 -0.092,-0.46198736 -0.12763,-0.45371914 -0.1633,-0.44235025 -0.19691,-0.42684726 -0.23098,-0.41082779 -0.26096,-0.3922239 -0.29199,-0.3700034 -0.31985,-0.3457154 -0.34624,-0.3203937 -0.37002,-0.291972 -0.39169,-0.2609659 -0.41135,-0.2309937 -0.42685,-0.196887 -0.44183,-0.162781 -0.45423,-0.1281575 -0.46199,-0.091984 -0.46821,-0.055294 -0.46971,-0.018604 H 39.474592 V 7.811357 H 319.90191 v 95.251033 0"
     inkscape:connector-curvature="0" />
  <path
     inkscape:connector-curvature="0"
     id="path680"
     d="m 112.801,1.5623741 a 1.8999996,1.8999998 0 0 0 1.9,1.899999 1.8999996,1.8999998 0 0 0 1.9,-1.899999 1.8999996,1.8999998 0 0 0 -1.9,-1.90000101 1.8999996,1.8999998 0 0 0 -1.9,1.90000101 z"
     style="color:#000000;overflow:visible;opacity:1;vector-effect:none;fill:none;fill-opacity:1;stroke:#008000;stroke-width:0.05mm;stroke-linecap:butt;stroke-linejoin:miter;stroke-miterlimit:4;stroke-dasharray:none;stroke-dashoffset:0;stroke-opacity:1" />
  <path
     inkscape:connector-curvature="0"
     id="path682"
     d="m 7.2004957,9.8745004 a 1.8999996,1.8999998 0 0 0 1.9,1.8999986 1.8999996,1.8999998 0 0 0 1.9000003,-1.8999986 1.8999996,1.8999998 0 0 0 -1.9000003,-1.900001 1.8999996,1.8999998 0 0 0 -1.9,1.900001 z"
     style="color:#000000;overflow:visible;opacity:1;vector-effect:none;fill:none;fill-opacity:1;stroke:#008000;stroke-width:0.05mm;stroke-linecap:butt;stroke-linejoin:miter;stroke-miterlimit:4;stroke-dasharray:none;stroke-dashoffset:0;stroke-opacity:1" />
  <path
     inkscape:connector-curvature="0"
     id="path684"
     d="m 7.2004957,63.5005 a 1.8999996,1.8999998 0 0 0 1.9,1.899999 1.8999996,1.8999998 0 0 0 1.9000003,-1.899999 1.8999996,1.8999998 0 0 0 -1.9000003,-1.900001 1.8999996,1.8999998 0 0 0 -1.9,1.900001 z"
     style="color:#000000;overflow:visible;opacity:1;vector-effect:none;fill:none;fill-opacity:1;stroke:#008000;stroke-width:0.05mm;stroke-linecap:butt;stroke-linejoin:miter;stroke-miterlimit:4;stroke-dasharray:none;stroke-dashoffset:0;stroke-opacity:1" />
  <path
     inkscape:connector-curvature="0"
     id="path686"
     d="m 7.2004957,117.1255 a 1.8999996,1.8999998 0 0 0 1.9,1.9 1.8999996,1.8999998 0 0 0 1.9000003,-1.9 1.8999996,1.8999998 0 0 0 -1.9000003,-1.9 1.8999996,1.8999998 0 0 0 -1.9,1.9 z"
     style="color:#000000;overflow:visible;opacity:1;vector-effect:none;fill:none;fill-opacity:1;stroke:#008000;stroke-width:0.05mm;stroke-linecap:butt;stroke-linejoin:miter;stroke-miterlimit:4;stroke-dasharray:none;stroke-dashoffset:0;stroke-opacity:1" />
  <path
     inkscape:connector-curvature="0"
     id="path688"
     d="m 112.801,117.1255 a 1.8999996,1.8999998 0 0 0 1.9,1.9 1.8999996,1.8999998 0 0 0 1.9,-1.9 1.8999996,1.8999998 0 0 0 -1.9,-1.9 1.8999996,1.8999998 0 0 0 -1.9,1.9 z"
     style="color:#000000;overflow:visible;opacity:1;vector-effect:none;fill:none;fill-opacity:1;stroke:#008000;stroke-width:0.05mm;stroke-linecap:butt;stroke-linejoin:miter;stroke-miterlimit:4;stroke-dasharray:none;stroke-dashoffset:0;stroke-opacity:1" />
  <path
     inkscape:connector-curvature="0"
     id="path690"
     d="m 218.401,117.1255 a 1.8999996,1.8999998 0 0 0 1.9,1.9 1.8999996,1.8999998 0 0 0 1.9,-1.9 1.8999996,1.8999998 0 0 0 -1.9,-1.9 1.8999996,1.8999998 0 0 0 -1.9,1.9 z"
     style="color:#000000;overflow:visible;opacity:1;vector-effect:none;fill:none;fill-opacity:1;stroke:#008000;stroke-width:0.05mm;stroke-linecap:butt;stroke-linejoin:miter;stroke-miterlimit:4;stroke-dasharray:none;stroke-dashoffset:0;stroke-opacity:1" />
  <path
     inkscape:connector-curvature="0"
     id="path692"
     d="m 218.401,1.5623741 a 1.8999996,1.8999998 0 0 0 1.9,1.899999 1.8999996,1.8999998 0 0 0 1.9,-1.899999 1.8999996,1.8999998 0 0 0 -1.9,-1.90000101 1.8999996,1.8999998 0 0 0 -1.9,1.90000101 z"
     style="color:#000000;overflow:visible;opacity:1;vector-effect:none;fill:none;fill-opacity:1;stroke:#008000;stroke-width:0.05mm;stroke-linecap:butt;stroke-linejoin:miter;stroke-miterlimit:4;stroke-dasharray:none;stroke-dashoffset:0;stroke-opacity:1" />
  <path
     inkscape:connector-curvature="0"
     id="path694"
     d="m 324.002,1.5623741 a 1.8999996,1.8999998 0 0 0 1.9,1.899999 1.8999996,1.8999998 0 0 0 1.9,-1.899999 1.8999996,1.8999998 0 0 0 -1.9,-1.90000101 1.8999996,1.8999998 0 0 0 -1.9,1.90000101 z"
     style="color:#000000;overflow:visible;opacity:1;vector-effect:none;fill:none;fill-opacity:1;stroke:#008000;stroke-width:0.05mm;stroke-linecap:butt;stroke-linejoin:miter;stroke-miterlimit:4;stroke-dasharray:none;stroke-dashoffset:0;stroke-opacity:1" />
  <path
     inkscape:connector-curvature="0"
     id="path696"
     d="m 324.002,55.187374 a 1.8999996,1.8999998 0 0 0 1.9,1.899999 1.8999996,1.8999998 0 0 0 1.9,-1.899999 1.8999996,1.8999998 0 0 0 -1.9,-1.900001 1.8999996,1.8999998 0 0 0 -1.9,1.900001 z"
     style="color:#000000;overflow:visible;opacity:1;vector-effect:none;fill:none;fill-opacity:1;stroke:#008000;stroke-width:0.05mm;stroke-linecap:butt;stroke-linejoin:miter;stroke-miterlimit:4;stroke-dasharray:none;stroke-dashoffset:0;stroke-opacity:1" />
  <path
     inkscape:connector-curvature="0"
     id="path698"
     d="m 324.002,117.1255 a 1.8999996,1.8999998 0 0 0 1.9,1.9 1.8999996,1.8999998 0 0 0 1.9,-1.9 1.8999996,1.8999998 0 0 0 -1.9,-1.9 1.8999996,1.8999998 0 0 0 -1.9,1.9 z"
     style="color:#000000;overflow:visible;opacity:1;vector-effect:none;fill:none;fill-opacity:1;stroke:#008000;stroke-width:0.05mm;stroke-linecap:butt;stroke-linejoin:miter;stroke-miterlimit:4;stroke-dasharray:none;stroke-dashoffset:0;stroke-opacity:1" />
</svg>
