<?xml version="1.0"?>
<!-- Generated by SVGo -->
<svg width="338.802mm" height="129.251mm"
     viewBox="0.000 0.000 338.802 129.251"
     xmlns="http://www.w3.org/2000/svg" 
     xmlns:xlink="http://www.w3.org/1999/xlink">
<polygon points="328.272,5.019 328.740,5.074 329.202,5.166 329.656,5.294 330.098,5.457 330.525,5.654 330.936,5.885 331.328,6.146 331.698,6.438 332.044,6.758 332.364,7.104 332.656,7.474 332.917,7.866 333.148,8.277 333.345,8.704 333.508,9.146 333.636,9.600 333.728,10.062 333.783,10.530 333.802,11.001 333.802,118.251 333.783,118.722 333.728,119.190 333.636,119.652 333.508,120.106 333.345,120.548 333.148,120.975 332.917,121.386 332.656,121.778 332.364,122.148 332.044,122.494 331.698,122.814 331.328,123.106 330.936,123.367 330.525,123.598 330.098,123.795 329.656,123.958 329.202,124.086 328.740,124.178 328.272,124.233 327.802,124.251 11.001,124.251 10.530,124.233 10.062,124.178 9.600,124.086 9.146,123.958 8.704,123.795 8.277,123.598 7.866,123.367 7.474,123.106 7.104,122.814 6.758,122.494 6.438,122.148 6.146,121.778 5.885,121.386 5.654,120.975 5.457,120.548 5.294,120.106 5.166,119.652 5.074,119.190 5.019,118.722 5.000,118.251 5.001,11.000 5.019,10.530 5.074,10.062 5.166,9.600 5.294,9.146 5.457,8.704 5.654,8.277 5.885,7.866 6.146,7.474 6.438,7.104 6.758,6.758 7.104,6.438 7.474,6.146 7.866,5.885 8.277,5.654 8.704,5.457 9.146,5.294 9.600,5.166 10.062,5.074 10.530,5.019 11.001,5.000 327.802,5.000" style="fill:none;stroke-width:0.050000mm;stroke:black"/>
<polygon points="10.228,115.874 9.531,116.229 8.978,116.782 8.623,117.479 8.500,118.251 8.623,119.024 8.978,119.721 9.531,120.274 10.228,120.629 11.001,120.751 11.773,120.629 12.470,120.274 13.023,119.721 13.378,119.024 13.501,118.251 13.378,117.479 13.023,116.782 12.470,116.229 11.773,115.874 11.001,115.751" style="fill:none;stroke-width:0.050000mm;stroke:black"/>
<polygon points="115.828,115.874 115.131,116.229 114.578,116.782 114.223,117.479 114.101,118.251 114.223,119.024 114.578,119.721 115.131,120.274 115.828,120.629 116.601,120.751 117.373,120.629 118.070,120.274 118.623,119.721 118.978,119.024 119.101,118.251 118.978,117.479 118.623,116.782 118.070,116.229 117.373,115.874 116.601,115.751" style="fill:none;stroke-width:0.050000mm;stroke:black"/>
<polygon points="221.429,115.874 220.732,116.229 220.179,116.782 219.824,117.479 219.701,118.251 219.824,119.024 220.179,119.721 220.732,120.274 221.429,120.629 222.201,120.751 222.974,120.629 223.671,120.274 224.224,119.721 224.579,119.024 224.701,118.251 224.579,117.479 224.224,116.782 223.671,116.229 222.974,115.874 222.201,115.751" style="fill:none;stroke-width:0.050000mm;stroke:black"/>
<polygon points="327.029,115.874 326.332,116.229 325.779,116.782 325.424,117.479 325.302,118.251 325.424,119.024 325.779,119.721 326.332,120.274 327.029,120.629 327.802,120.751 328.574,120.629 329.271,120.274 329.824,119.721 330.179,119.024 330.302,118.251 330.179,117.479 329.824,116.782 329.271,116.229 328.574,115.874 327.802,115.751" style="fill:none;stroke-width:0.050000mm;stroke:black"/>
<polygon points="179.069,95.726 179.069,96.726 178.269,96.726 178.269,99.825 179.069,99.825 179.069,100.426 177.544,100.426 177.544,97.196 170.794,97.196 170.794,100.426 169.969,100.426 169.969,103.226 170.794,103.226 170.794,109.495 172.519,109.495 172.519,110.696 175.819,110.696 175.819,109.495 177.544,109.495 177.544,105.025 179.069,105.025 179.069,105.626 178.269,105.626 178.269,108.726 179.069,108.726 179.069,109.726 193.069,109.726 193.069,108.726 193.869,108.726 193.869,105.626 193.069,105.626 193.069,105.025 194.594,105.025 194.594,109.495 196.319,109.495 196.319,110.696 199.619,110.696 199.619,109.495 201.344,109.495 201.344,103.226 202.169,103.226 202.169,100.426 201.344,100.426 201.344,97.196 194.594,97.196 194.594,100.426 193.069,100.426 193.069,99.825 193.869,99.825 193.869,96.726 193.069,96.726 193.069,95.726" style="fill:none;stroke-width:0.050000mm;stroke:black"/>
<polygon points="102.869,95.726 102.869,96.726 102.069,96.726 102.069,99.825 102.869,99.825 102.869,100.426 101.344,100.426 101.344,97.196 94.594,97.196 94.594,100.426 93.769,100.426 93.769,103.226 94.594,103.226 94.594,109.495 96.319,109.495 96.319,110.696 99.619,110.696 99.619,109.495 101.344,109.495 101.344,105.025 102.869,105.025 102.869,105.626 102.069,105.626 102.069,108.726 102.869,108.726 102.869,109.726 116.869,109.726 116.869,108.726 117.669,108.726 117.669,105.626 116.869,105.626 116.869,105.025 118.394,105.025 118.394,109.495 120.119,109.495 120.119,110.696 123.419,110.696 123.419,109.495 125.144,109.495 125.144,103.226 125.969,103.226 125.969,100.426 125.144,100.426 125.144,97.196 118.394,97.196 118.394,100.426 116.869,100.426 116.869,99.825 117.669,99.825 117.669,96.726 116.869,96.726 116.869,95.726" style="fill:none;stroke-width:0.050000mm;stroke:black"/>
<polygon points="305.276,95.726 305.276,96.726 304.476,96.726 304.476,99.825 305.276,99.825 305.276,105.626 304.476,105.626 304.476,108.726 305.276,108.726 305.276,109.726 319.276,109.726 319.276,108.726 320.076,108.726 320.076,105.626 319.276,105.626 319.276,99.825 320.076,99.825 320.076,96.726 319.276,96.726 319.276,95.726" style="fill:none;stroke-width:0.050000mm;stroke:black"/>
<polygon points="286.226,95.726 286.226,96.726 285.426,96.726 285.426,99.825 286.226,99.825 286.226,105.626 285.426,105.626 285.426,108.726 286.226,108.726 286.226,109.726 300.226,109.726 300.226,108.726 301.026,108.726 301.026,105.626 300.226,105.626 300.226,99.825 301.026,99.825 301.026,96.726 300.226,96.726 300.226,95.726" style="fill:none;stroke-width:0.050000mm;stroke:black"/>
<polygon points="267.176,95.726 267.176,96.726 266.376,96.726 266.376,99.825 267.176,99.825 267.176,105.626 266.376,105.626 266.376,108.726 267.176,108.726 267.176,109.726 281.176,109.726 281.176,108.726 281.976,108.726 281.976,105.626 281.176,105.626 281.176,99.825 281.976,99.825 281.976,96.726 281.176,96.726 281.176,95.726" style="fill:none;stroke-width:0.050000mm;stroke:black"/>
<polygon points="236.219,95.726 236.219,96.726 235.419,96.726 235.419,99.825 236.219,99.825 236.219,105.626 235.419,105.626 235.419,108.726 236.219,108.726 236.219,109.726 250.219,109.726 250.219,108.726 251.019,108.726 251.019,105.626 250.219,105.626 250.219,99.825 251.019,99.825 251.019,96.726 250.219,96.726 250.219,95.726" style="fill:none;stroke-width:0.050000mm;stroke:black"/>
<polygon points="212.407,95.726 212.407,96.726 211.607,96.726 211.607,99.825 212.407,99.825 212.407,105.626 211.607,105.626 211.607,108.726 212.407,108.726 212.407,109.726 226.407,109.726 226.407,108.726 227.207,108.726 227.207,105.626 226.407,105.626 226.407,99.825 227.207,99.825 227.207,96.726 226.407,96.726 226.407,95.726" style="fill:none;stroke-width:0.050000mm;stroke:black"/>
<polygon points="140.969,95.726 140.969,96.726 140.169,96.726 140.169,99.825 140.969,99.825 140.969,105.626 140.169,105.626 140.169,108.726 140.969,108.726 140.969,109.726 154.969,109.726 154.969,108.726 155.769,108.726 155.769,105.626 154.969,105.626 154.969,99.825 155.769,99.825 155.769,96.726 154.969,96.726 154.969,95.726" style="fill:none;stroke-width:0.050000mm;stroke:black"/>
<polygon points="69.532,95.726 69.532,96.726 68.732,96.726 68.732,99.825 69.532,99.825 69.532,105.626 68.732,105.626 68.732,108.726 69.532,108.726 69.532,109.726 83.532,109.726 83.532,108.726 84.332,108.726 84.332,105.626 83.532,105.626 83.532,99.825 84.332,99.825 84.332,96.726 83.532,96.726 83.532,95.726" style="fill:none;stroke-width:0.050000mm;stroke:black"/>
<polygon points="45.719,95.726 45.719,96.726 44.919,96.726 44.919,99.825 45.719,99.825 45.719,105.626 44.919,105.626 44.919,108.726 45.719,108.726 45.719,109.726 59.719,109.726 59.719,108.726 60.519,108.726 60.519,105.626 59.719,105.626 59.719,99.825 60.519,99.825 60.519,96.726 59.719,96.726 59.719,95.726" style="fill:none;stroke-width:0.050000mm;stroke:black"/>
<polygon points="21.907,95.726 21.907,96.726 21.107,96.726 21.107,99.825 21.907,99.825 21.907,105.626 21.107,105.626 21.107,108.726 21.907,108.726 21.907,109.726 35.907,109.726 35.907,108.726 36.707,108.726 36.707,105.626 35.907,105.626 35.907,99.825 36.707,99.825 36.707,96.726 35.907,96.726 35.907,95.726" style="fill:none;stroke-width:0.050000mm;stroke:black"/>
<polygon points="31.432,76.676 31.432,77.676 30.632,77.676 30.632,80.775 31.432,80.775 31.432,81.376 29.907,81.376 29.907,78.146 23.157,78.146 23.157,81.376 22.332,81.376 22.332,84.176 23.157,84.176 23.157,90.446 24.882,90.446 24.882,91.646 28.182,91.646 28.182,90.446 29.907,90.446 29.907,85.976 31.432,85.976 31.432,86.576 30.632,86.576 30.632,89.676 31.432,89.676 31.432,90.676 45.432,90.676 45.432,89.676 46.232,89.676 46.232,86.576 45.432,86.576 45.432,85.976 46.957,85.976 46.957,90.446 48.682,90.446 48.682,91.646 51.982,91.646 51.982,90.446 53.707,90.446 53.707,84.176 54.532,84.176 54.532,81.376 53.707,81.376 53.707,78.146 46.957,78.146 46.957,81.376 45.432,81.376 45.432,80.775 46.232,80.775 46.232,77.676 45.432,77.676 45.432,76.676" style="fill:none;stroke-width:0.050000mm;stroke:black"/>
<polygon points="305.276,76.676 305.276,77.676 304.476,77.676 304.476,80.775 305.276,80.775 305.276,86.576 304.476,86.576 304.476,89.676 305.276,89.676 305.276,90.676 319.276,90.676 319.276,89.676 320.076,89.676 320.076,86.576 319.276,86.576 319.276,80.775 320.076,80.775 320.076,77.676 319.276,77.676 319.276,76.676" style="fill:none;stroke-width:0.050000mm;stroke:black"/>
<polygon points="286.226,76.676 286.226,77.676 285.426,77.676 285.426,80.775 286.226,80.775 286.226,86.576 285.426,86.576 285.426,89.676 286.226,89.676 286.226,90.676 300.226,90.676 300.226,89.676 301.026,89.676 301.026,86.576 300.226,86.576 300.226,80.775 301.026,80.775 301.026,77.676 300.226,77.676 300.226,76.676" style="fill:none;stroke-width:0.050000mm;stroke:black"/>
<polygon points="260.032,76.676 260.032,77.676 259.232,77.676 259.232,80.775 260.032,80.775 260.032,86.576 259.232,86.576 259.232,89.676 260.032,89.676 260.032,90.676 274.032,90.676 274.032,89.676 274.832,89.676 274.832,86.576 274.032,86.576 274.032,80.775 274.832,80.775 274.832,77.676 274.032,77.676 274.032,76.676" style="fill:none;stroke-width:0.050000mm;stroke:black"/>
<polygon points="233.838,76.676 233.838,77.676 233.038,77.676 233.038,80.775 233.838,80.775 233.838,86.576 233.038,86.576 233.038,89.676 233.838,89.676 233.838,90.676 247.838,90.676 247.838,89.676 248.638,89.676 248.638,86.576 247.838,86.576 247.838,80.775 248.638,80.775 248.638,77.676 247.838,77.676 247.838,76.676" style="fill:none;stroke-width:0.050000mm;stroke:black"/>
<polygon points="214.788,76.676 214.788,77.676 213.988,77.676 213.988,80.775 214.788,80.775 214.788,86.576 213.988,86.576 213.988,89.676 214.788,89.676 214.788,90.676 228.788,90.676 228.788,89.676 229.588,89.676 229.588,86.576 228.788,86.576 228.788,80.775 229.588,80.775 229.588,77.676 228.788,77.676 228.788,76.676" style="fill:none;stroke-width:0.050000mm;stroke:black"/>
<polygon points="195.738,76.676 195.738,77.676 194.938,77.676 194.938,80.775 195.738,80.775 195.738,86.576 194.938,86.576 194.938,89.676 195.738,89.676 195.738,90.676 209.738,90.676 209.738,89.676 210.538,89.676 210.538,86.576 209.738,86.576 209.738,80.775 210.538,80.775 210.538,77.676 209.738,77.676 209.738,76.676" style="fill:none;stroke-width:0.050000mm;stroke:black"/>
<polygon points="176.688,76.676 176.688,77.676 175.888,77.676 175.888,80.775 176.688,80.775 176.688,86.576 175.888,86.576 175.888,89.676 176.688,89.676 176.688,90.676 190.688,90.676 190.688,89.676 191.488,89.676 191.488,86.576 190.688,86.576 190.688,80.775 191.488,80.775 191.488,77.676 190.688,77.676 190.688,76.676" style="fill:none;stroke-width:0.050000mm;stroke:black"/>
<polygon points="157.638,76.676 157.638,77.676 156.838,77.676 156.838,80.775 157.638,80.775 157.638,86.576 156.838,86.576 156.838,89.676 157.638,89.676 157.638,90.676 171.638,90.676 171.638,89.676 172.438,89.676 172.438,86.576 171.638,86.576 171.638,80.775 172.438,80.775 172.438,77.676 171.638,77.676 171.638,76.676" style="fill:none;stroke-width:0.050000mm;stroke:black"/>
<polygon points="138.588,76.676 138.588,77.676 137.788,77.676 137.788,80.775 138.588,80.775 138.588,86.576 137.788,86.576 137.788,89.676 138.588,89.676 138.588,90.676 152.588,90.676 152.588,89.676 153.388,89.676 153.388,86.576 152.588,86.576 152.588,80.775 153.388,80.775 153.388,77.676 152.588,77.676 152.588,76.676" style="fill:none;stroke-width:0.050000mm;stroke:black"/>
<polygon points="119.538,76.676 119.538,77.676 118.738,77.676 118.738,80.775 119.538,80.775 119.538,86.576 118.738,86.576 118.738,89.676 119.538,89.676 119.538,90.676 133.538,90.676 133.538,89.676 134.338,89.676 134.338,86.576 133.538,86.576 133.538,80.775 134.338,80.775 134.338,77.676 133.538,77.676 133.538,76.676" style="fill:none;stroke-width:0.050000mm;stroke:black"/>
<polygon points="100.488,76.676 100.488,77.676 99.688,77.676 99.688,80.775 100.488,80.775 100.488,86.576 99.688,86.576 99.688,89.676 100.488,89.676 100.488,90.676 114.488,90.676 114.488,89.676 115.288,89.676 115.288,86.576 114.488,86.576 114.488,80.775 115.288,80.775 115.288,77.676 114.488,77.676 114.488,76.676" style="fill:none;stroke-width:0.050000mm;stroke:black"/>
<polygon points="81.438,76.676 81.438,77.676 80.638,77.676 80.638,80.775 81.438,80.775 81.438,86.576 80.638,86.576 80.638,89.676 81.438,89.676 81.438,90.676 95.438,90.676 95.438,89.676 96.238,89.676 96.238,86.576 95.438,86.576 95.438,80.775 96.238,80.775 96.238,77.676 95.438,77.676 95.438,76.676" style="fill:none;stroke-width:0.050000mm;stroke:black"/>
<polygon points="62.388,76.676 62.388,77.676 61.588,77.676 61.588,80.775 62.388,80.775 62.388,86.576 61.588,86.576 61.588,89.676 62.388,89.676 62.388,90.676 76.388,90.676 76.388,89.676 77.188,89.676 77.188,86.576 76.388,86.576 76.388,80.775 77.188,80.775 77.188,77.676 76.388,77.676 76.388,76.676" style="fill:none;stroke-width:0.050000mm;stroke:black"/>
<polygon points="274.319,57.626 274.319,58.626 273.519,58.626 273.519,61.726 274.319,61.726 274.319,62.326 272.794,62.326 272.794,59.096 266.044,59.096 266.044,62.326 265.219,62.326 265.219,65.126 266.044,65.126 266.044,71.396 267.769,71.396 267.769,72.596 271.069,72.596 271.069,71.396 272.794,71.396 272.794,66.926 274.319,66.926 274.319,67.526 273.519,67.526 273.519,70.626 274.319,70.626 274.319,71.626 288.319,71.626 288.319,70.626 289.119,70.626 289.119,67.526 288.319,67.526 288.319,66.926 289.844,66.926 289.844,71.396 291.569,71.396 291.569,72.596 294.869,72.596 294.869,71.396 296.594,71.396 296.594,65.126 297.419,65.126 297.419,62.326 296.594,62.326 296.594,59.096 289.844,59.096 289.844,62.326 288.319,62.326 288.319,61.726 289.119,61.726 289.119,58.626 288.319,58.626 288.319,57.626" style="fill:none;stroke-width:0.050000mm;stroke:black"/>
<polygon points="305.276,57.626 305.276,58.626 304.476,58.626 304.476,61.726 305.276,61.726 305.276,67.526 304.476,67.526 304.476,70.626 305.276,70.626 305.276,71.626 319.276,71.626 319.276,70.626 320.076,70.626 320.076,67.526 319.276,67.526 319.276,61.726 320.076,61.726 320.076,58.626 319.276,58.626 319.276,57.626" style="fill:none;stroke-width:0.050000mm;stroke:black"/>
<polygon points="243.363,57.626 243.363,58.626 242.563,58.626 242.563,61.726 243.363,61.726 243.363,67.526 242.563,67.526 242.563,70.626 243.363,70.626 243.363,71.626 257.363,71.626 257.363,70.626 258.162,70.626 258.162,67.526 257.363,67.526 257.363,61.726 258.162,61.726 258.162,58.626 257.363,58.626 257.363,57.626" style="fill:none;stroke-width:0.050000mm;stroke:black"/>
<polygon points="224.313,57.626 224.313,58.626 223.513,58.626 223.513,61.726 224.313,61.726 224.313,67.526 223.513,67.526 223.513,70.626 224.313,70.626 224.313,71.626 238.313,71.626 238.313,70.626 239.113,70.626 239.113,67.526 238.313,67.526 238.313,61.726 239.113,61.726 239.113,58.626 238.313,58.626 238.313,57.626" style="fill:none;stroke-width:0.050000mm;stroke:black"/>
<polygon points="205.263,57.626 205.263,58.626 204.463,58.626 204.463,61.726 205.263,61.726 205.263,67.526 204.463,67.526 204.463,70.626 205.263,70.626 205.263,71.626 219.263,71.626 219.263,70.626 220.063,70.626 220.063,67.526 219.263,67.526 219.263,61.726 220.063,61.726 220.063,58.626 219.263,58.626 219.263,57.626" style="fill:none;stroke-width:0.050000mm;stroke:black"/>
<polygon points="186.213,57.626 186.213,58.626 185.413,58.626 185.413,61.726 186.213,61.726 186.213,67.526 185.413,67.526 185.413,70.626 186.213,70.626 186.213,71.626 200.213,71.626 200.213,70.626 201.013,70.626 201.013,67.526 200.213,67.526 200.213,61.726 201.013,61.726 201.013,58.626 200.213,58.626 200.213,57.626" style="fill:none;stroke-width:0.050000mm;stroke:black"/>
<polygon points="167.163,57.626 167.163,58.626 166.363,58.626 166.363,61.726 167.163,61.726 167.163,67.526 166.363,67.526 166.363,70.626 167.163,70.626 167.163,71.626 181.163,71.626 181.163,70.626 181.963,70.626 181.963,67.526 181.163,67.526 181.163,61.726 181.963,61.726 181.963,58.626 181.163,58.626 181.163,57.626" style="fill:none;stroke-width:0.050000mm;stroke:black"/>
<polygon points="148.113,57.626 148.113,58.626 147.313,58.626 147.313,61.726 148.113,61.726 148.113,67.526 147.313,67.526 147.313,70.626 148.113,70.626 148.113,71.626 162.113,71.626 162.113,70.626 162.913,70.626 162.913,67.526 162.113,67.526 162.113,61.726 162.913,61.726 162.913,58.626 162.113,58.626 162.113,57.626" style="fill:none;stroke-width:0.050000mm;stroke:black"/>
<polygon points="129.063,57.626 129.063,58.626 128.263,58.626 128.263,61.726 129.063,61.726 129.063,67.526 128.263,67.526 128.263,70.626 129.063,70.626 129.063,71.626 143.063,71.626 143.063,70.626 143.863,70.626 143.863,67.526 143.063,67.526 143.063,61.726 143.863,61.726 143.863,58.626 143.063,58.626 143.063,57.626" style="fill:none;stroke-width:0.050000mm;stroke:black"/>
<polygon points="110.013,57.626 110.013,58.626 109.213,58.626 109.213,61.726 110.013,61.726 110.013,67.526 109.213,67.526 109.213,70.626 110.013,70.626 110.013,71.626 124.013,71.626 124.013,70.626 124.813,70.626 124.813,67.526 124.013,67.526 124.013,61.726 124.813,61.726 124.813,58.626 124.013,58.626 124.013,57.626" style="fill:none;stroke-width:0.050000mm;stroke:black"/>
<polygon points="90.963,57.626 90.963,58.626 90.163,58.626 90.163,61.726 90.963,61.726 90.963,67.526 90.163,67.526 90.163,70.626 90.963,70.626 90.963,71.626 104.963,71.626 104.963,70.626 105.763,70.626 105.763,67.526 104.963,67.526 104.963,61.726 105.763,61.726 105.763,58.626 104.963,58.626 104.963,57.626" style="fill:none;stroke-width:0.050000mm;stroke:black"/>
<polygon points="71.913,57.626 71.913,58.626 71.113,58.626 71.113,61.726 71.913,61.726 71.913,67.526 71.113,67.526 71.113,70.626 71.913,70.626 71.913,71.626 85.913,71.626 85.913,70.626 86.713,70.626 86.713,67.526 85.913,67.526 85.913,61.726 86.713,61.726 86.713,58.626 85.913,58.626 85.913,57.626" style="fill:none;stroke-width:0.050000mm;stroke:black"/>
<polygon points="52.863,57.626 52.863,58.626 52.063,58.626 52.063,61.726 52.863,61.726 52.863,67.526 52.063,67.526 52.063,70.626 52.863,70.626 52.863,71.626 66.863,71.626 66.863,70.626 67.663,70.626 67.663,67.526 66.863,67.526 66.863,61.726 67.663,61.726 67.663,58.626 66.863,58.626 66.863,57.626" style="fill:none;stroke-width:0.050000mm;stroke:black"/>
<polygon points="26.669,57.626 26.669,58.626 25.869,58.626 25.869,61.726 26.669,61.726 26.669,67.526 25.869,67.526 25.869,70.626 26.669,70.626 26.669,71.626 40.669,71.626 40.669,70.626 41.469,70.626 41.469,67.526 40.669,67.526 40.669,61.726 41.469,61.726 41.469,58.626 40.669,58.626 40.669,57.626" style="fill:none;stroke-width:0.050000mm;stroke:black"/>
<polygon points="10.228,62.248 9.531,62.603 8.978,63.157 8.623,63.853 8.500,64.626 8.623,65.398 8.978,66.095 9.531,66.649 10.228,67.004 11.001,67.126 11.773,67.004 12.470,66.649 13.023,66.095 13.378,65.398 13.501,64.626 13.378,63.853 13.023,63.157 12.470,62.603 11.773,62.248 11.001,62.126" style="fill:none;stroke-width:0.050000mm;stroke:black"/>
<polygon points="327.029,62.248 326.332,62.603 325.779,63.157 325.424,63.853 325.302,64.626 325.424,65.398 325.779,66.095 326.332,66.649 327.029,67.004 327.802,67.126 328.574,67.004 329.271,66.649 329.824,66.095 330.179,65.398 330.302,64.626 330.179,63.853 329.824,63.157 329.271,62.603 328.574,62.248 327.802,62.126" style="fill:none;stroke-width:0.050000mm;stroke:black"/>
<polygon points="305.276,38.576 305.276,39.576 304.476,39.576 304.476,42.676 305.276,42.676 305.276,48.476 304.476,48.476 304.476,51.576 305.276,51.576 305.276,52.576 319.276,52.576 319.276,51.576 320.076,51.576 320.076,48.476 319.276,48.476 319.276,42.676 320.076,42.676 320.076,39.576 319.276,39.576 319.276,38.576" style="fill:none;stroke-width:0.050000mm;stroke:black"/>
<polygon points="281.463,38.576 281.463,39.576 280.663,39.576 280.663,42.676 281.463,42.676 281.463,48.476 280.663,48.476 280.663,51.576 281.463,51.576 281.463,52.576 295.463,52.576 295.463,51.576 296.263,51.576 296.263,48.476 295.463,48.476 295.463,42.676 296.263,42.676 296.263,39.576 295.463,39.576 295.463,38.576" style="fill:none;stroke-width:0.050000mm;stroke:black"/>
<polygon points="257.650,38.576 257.650,39.576 256.851,39.576 256.851,42.676 257.650,42.676 257.650,48.476 256.851,48.476 256.851,51.576 257.650,51.576 257.650,52.576 271.651,52.576 271.651,51.576 272.451,51.576 272.451,48.476 271.651,48.476 271.651,42.676 272.451,42.676 272.451,39.576 271.651,39.576 271.651,38.576" style="fill:none;stroke-width:0.050000mm;stroke:black"/>
<polygon points="238.601,38.576 238.601,39.576 237.801,39.576 237.801,42.676 238.601,42.676 238.601,48.476 237.801,48.476 237.801,51.576 238.601,51.576 238.601,52.576 252.601,52.576 252.601,51.576 253.401,51.576 253.401,48.476 252.601,48.476 252.601,42.676 253.401,42.676 253.401,39.576 252.601,39.576 252.601,38.576" style="fill:none;stroke-width:0.050000mm;stroke:black"/>
<polygon points="219.551,38.576 219.551,39.576 218.751,39.576 218.751,42.676 219.551,42.676 219.551,48.476 218.751,48.476 218.751,51.576 219.551,51.576 219.551,52.576 233.551,52.576 233.551,51.576 234.351,51.576 234.351,48.476 233.551,48.476 233.551,42.676 234.351,42.676 234.351,39.576 233.551,39.576 233.551,38.576" style="fill:none;stroke-width:0.050000mm;stroke:black"/>
<polygon points="200.501,38.576 200.501,39.576 199.701,39.576 199.701,42.676 200.501,42.676 200.501,48.476 199.701,48.476 199.701,51.576 200.501,51.576 200.501,52.576 214.501,52.576 214.501,51.576 215.301,51.576 215.301,48.476 214.501,48.476 214.501,42.676 215.301,42.676 215.301,39.576 214.501,39.576 214.501,38.576" style="fill:none;stroke-width:0.050000mm;stroke:black"/>
<polygon points="181.451,38.576 181.451,39.576 180.651,39.576 180.651,42.676 181.451,42.676 181.451,48.476 180.651,48.476 180.651,51.576 181.451,51.576 181.451,52.576 195.451,52.576 195.451,51.576 196.251,51.576 196.251,48.476 195.451,48.476 195.451,42.676 196.251,42.676 196.251,39.576 195.451,39.576 195.451,38.576" style="fill:none;stroke-width:0.050000mm;stroke:black"/>
<polygon points="162.401,38.576 162.401,39.576 161.601,39.576 161.601,42.676 162.401,42.676 162.401,48.476 161.601,48.476 161.601,51.576 162.401,51.576 162.401,52.576 176.401,52.576 176.401,51.576 177.201,51.576 177.201,48.476 176.401,48.476 176.401,42.676 177.201,42.676 177.201,39.576 176.401,39.576 176.401,38.576" style="fill:none;stroke-width:0.050000mm;stroke:black"/>
<polygon points="143.351,38.576 143.351,39.576 142.551,39.576 142.551,42.676 143.351,42.676 143.351,48.476 142.551,48.476 142.551,51.576 143.351,51.576 143.351,52.576 157.351,52.576 157.351,51.576 158.151,51.576 158.151,48.476 157.351,48.476 157.351,42.676 158.151,42.676 158.151,39.576 157.351,39.576 157.351,38.576" style="fill:none;stroke-width:0.050000mm;stroke:black"/>
<polygon points="124.301,38.576 124.301,39.576 123.501,39.576 123.501,42.676 124.301,42.676 124.301,48.476 123.501,48.476 123.501,51.576 124.301,51.576 124.301,52.576 138.301,52.576 138.301,51.576 139.101,51.576 139.101,48.476 138.301,48.476 138.301,42.676 139.101,42.676 139.101,39.576 138.301,39.576 138.301,38.576" style="fill:none;stroke-width:0.050000mm;stroke:black"/>
<polygon points="105.251,38.576 105.251,39.576 104.451,39.576 104.451,42.676 105.251,42.676 105.251,48.476 104.451,48.476 104.451,51.576 105.251,51.576 105.251,52.576 119.251,52.576 119.251,51.576 120.051,51.576 120.051,48.476 119.251,48.476 119.251,42.676 120.051,42.676 120.051,39.576 119.251,39.576 119.251,38.576" style="fill:none;stroke-width:0.050000mm;stroke:black"/>
<polygon points="86.201,38.576 86.201,39.576 85.401,39.576 85.401,42.676 86.201,42.676 86.201,48.476 85.401,48.476 85.401,51.576 86.201,51.576 86.201,52.576 100.201,52.576 100.201,51.576 101.001,51.576 101.001,48.476 100.201,48.476 100.201,42.676 101.001,42.676 101.001,39.576 100.201,39.576 100.201,38.576" style="fill:none;stroke-width:0.050000mm;stroke:black"/>
<polygon points="67.151,38.576 67.151,39.576 66.351,39.576 66.351,42.676 67.151,42.676 67.151,48.476 66.351,48.476 66.351,51.576 67.151,51.576 67.151,52.576 81.151,52.576 81.151,51.576 81.951,51.576 81.951,48.476 81.151,48.476 81.151,42.676 81.951,42.676 81.951,39.576 81.151,39.576 81.151,38.576" style="fill:none;stroke-width:0.050000mm;stroke:black"/>
<polygon points="48.101,38.576 48.101,39.576 47.301,39.576 47.301,42.676 48.101,42.676 48.101,48.476 47.301,48.476 47.301,51.576 48.101,51.576 48.101,52.576 62.101,52.576 62.101,51.576 62.901,51.576 62.901,48.476 62.101,48.476 62.101,42.676 62.901,42.676 62.901,39.576 62.101,39.576 62.101,38.576" style="fill:none;stroke-width:0.050000mm;stroke:black"/>
<polygon points="24.288,38.576 24.288,39.576 23.488,39.576 23.488,42.676 24.288,42.676 24.288,48.476 23.488,48.476 23.488,51.576 24.288,51.576 24.288,52.576 38.288,52.576 38.288,51.576 39.088,51.576 39.088,48.476 38.288,48.476 38.288,42.676 39.088,42.676 39.088,39.576 38.288,39.576 38.288,38.576" style="fill:none;stroke-width:0.050000mm;stroke:black"/>
<polygon points="305.276,19.526 305.276,20.526 304.476,20.526 304.476,23.626 305.276,23.626 305.276,29.425 304.476,29.425 304.476,32.526 305.276,32.526 305.276,33.526 319.276,33.526 319.276,32.526 320.076,32.526 320.076,29.425 319.276,29.425 319.276,23.626 320.076,23.626 320.076,20.526 319.276,20.526 319.276,19.526" style="fill:none;stroke-width:0.050000mm;stroke:black"/>
<polygon points="286.226,19.526 286.226,20.526 285.426,20.526 285.426,23.626 286.226,23.626 286.226,29.425 285.426,29.425 285.426,32.526 286.226,32.526 286.226,33.526 300.226,33.526 300.226,32.526 301.026,32.526 301.026,29.425 300.226,29.425 300.226,23.626 301.026,23.626 301.026,20.526 300.226,20.526 300.226,19.526" style="fill:none;stroke-width:0.050000mm;stroke:black"/>
<polygon points="267.176,19.526 267.176,20.526 266.376,20.526 266.376,23.626 267.176,23.626 267.176,29.425 266.376,29.425 266.376,32.526 267.176,32.526 267.176,33.526 281.176,33.526 281.176,32.526 281.976,32.526 281.976,29.425 281.176,29.425 281.176,23.626 281.976,23.626 281.976,20.526 281.176,20.526 281.176,19.526" style="fill:none;stroke-width:0.050000mm;stroke:black"/>
<polygon points="248.126,19.526 248.126,20.526 247.326,20.526 247.326,23.626 248.126,23.626 248.126,29.425 247.326,29.425 247.326,32.526 248.126,32.526 248.126,33.526 262.126,33.526 262.126,32.526 262.926,32.526 262.926,29.425 262.126,29.425 262.126,23.626 262.926,23.626 262.926,20.526 262.126,20.526 262.126,19.526" style="fill:none;stroke-width:0.050000mm;stroke:black"/>
<polygon points="229.076,19.526 229.076,20.526 228.276,20.526 228.276,23.626 229.076,23.626 229.076,29.425 228.276,29.425 228.276,32.526 229.076,32.526 229.076,33.526 243.076,33.526 243.076,32.526 243.876,32.526 243.876,29.425 243.076,29.425 243.076,23.626 243.876,23.626 243.876,20.526 243.076,20.526 243.076,19.526" style="fill:none;stroke-width:0.050000mm;stroke:black"/>
<polygon points="210.026,19.526 210.026,20.526 209.226,20.526 209.226,23.626 210.026,23.626 210.026,29.425 209.226,29.425 209.226,32.526 210.026,32.526 210.026,33.526 224.026,33.526 224.026,32.526 224.826,32.526 224.826,29.425 224.026,29.425 224.026,23.626 224.826,23.626 224.826,20.526 224.026,20.526 224.026,19.526" style="fill:none;stroke-width:0.050000mm;stroke:black"/>
<polygon points="190.976,19.526 190.976,20.526 190.176,20.526 190.176,23.626 190.976,23.626 190.976,29.425 190.176,29.425 190.176,32.526 190.976,32.526 190.976,33.526 204.976,33.526 204.976,32.526 205.776,32.526 205.776,29.425 204.976,29.425 204.976,23.626 205.776,23.626 205.776,20.526 204.976,20.526 204.976,19.526" style="fill:none;stroke-width:0.050000mm;stroke:black"/>
<polygon points="171.926,19.526 171.926,20.526 171.126,20.526 171.126,23.626 171.926,23.626 171.926,29.425 171.126,29.425 171.126,32.526 171.926,32.526 171.926,33.526 185.926,33.526 185.926,32.526 186.726,32.526 186.726,29.425 185.926,29.425 185.926,23.626 186.726,23.626 186.726,20.526 185.926,20.526 185.926,19.526" style="fill:none;stroke-width:0.050000mm;stroke:black"/>
<polygon points="152.876,19.526 152.876,20.526 152.076,20.526 152.076,23.626 152.876,23.626 152.876,29.425 152.076,29.425 152.076,32.526 152.876,32.526 152.876,33.526 166.876,33.526 166.876,32.526 167.676,32.526 167.676,29.425 166.876,29.425 166.876,23.626 167.676,23.626 167.676,20.526 166.876,20.526 166.876,19.526" style="fill:none;stroke-width:0.050000mm;stroke:black"/>
<polygon points="133.826,19.526 133.826,20.526 133.025,20.526 133.025,23.626 133.826,23.626 133.826,29.425 133.025,29.425 133.025,32.526 133.826,32.526 133.826,33.526 147.826,33.526 147.826,32.526 148.626,32.526 148.626,29.425 147.826,29.425 147.826,23.626 148.626,23.626 148.626,20.526 147.826,20.526 147.826,19.526" style="fill:none;stroke-width:0.050000mm;stroke:black"/>
<polygon points="114.775,19.526 114.775,20.526 113.976,20.526 113.976,23.626 114.775,23.626 114.775,29.425 113.976,29.425 113.976,32.526 114.775,32.526 114.775,33.526 128.775,33.526 128.775,32.526 129.575,32.526 129.575,29.425 128.775,29.425 128.775,23.626 129.575,23.626 129.575,20.526 128.775,20.526 128.775,19.526" style="fill:none;stroke-width:0.050000mm;stroke:black"/>
<polygon points="95.726,19.526 95.726,20.526 94.926,20.526 94.926,23.626 95.726,23.626 95.726,29.425 94.926,29.425 94.926,32.526 95.726,32.526 95.726,33.526 109.726,33.526 109.726,32.526 110.525,32.526 110.525,29.425 109.726,29.425 109.726,23.626 110.525,23.626 110.525,20.526 109.726,20.526 109.726,19.526" style="fill:none;stroke-width:0.050000mm;stroke:black"/>
<polygon points="76.676,19.526 76.676,20.526 75.876,20.526 75.876,23.626 76.676,23.626 76.676,29.425 75.876,29.425 75.876,32.526 76.676,32.526 76.676,33.526 90.676,33.526 90.676,32.526 91.476,32.526 91.476,29.425 90.676,29.425 90.676,23.626 91.476,23.626 91.476,20.526 90.676,20.526 90.676,19.526" style="fill:none;stroke-width:0.050000mm;stroke:black"/>
<polygon points="57.626,19.526 57.626,20.526 56.826,20.526 56.826,23.626 57.626,23.626 57.626,29.425 56.826,29.425 56.826,32.526 57.626,32.526 57.626,33.526 71.626,33.526 71.626,32.526 72.426,32.526 72.426,29.425 71.626,29.425 71.626,23.626 72.426,23.626 72.426,20.526 71.626,20.526 71.626,19.526" style="fill:none;stroke-width:0.050000mm;stroke:black"/>
<polygon points="38.576,19.526 38.576,20.526 37.776,20.526 37.776,23.626 38.576,23.626 38.576,29.425 37.776,29.425 37.776,32.526 38.576,32.526 38.576,33.526 52.576,33.526 52.576,32.526 53.376,32.526 53.376,29.425 52.576,29.425 52.576,23.626 53.376,23.626 53.376,20.526 52.576,20.526 52.576,19.526" style="fill:none;stroke-width:0.050000mm;stroke:black"/>
<polygon points="19.526,19.526 19.526,20.526 18.725,20.526 18.725,23.626 19.526,23.626 19.526,29.425 18.725,29.425 18.725,32.526 19.526,32.526 19.526,33.526 33.526,33.526 33.526,32.526 34.325,32.526 34.325,29.425 33.526,29.425 33.526,23.626 34.325,23.626 34.325,20.526 33.526,20.526 33.526,19.526" style="fill:none;stroke-width:0.050000mm;stroke:black"/>
<polygon points="327.029,8.623 326.332,8.978 325.779,9.531 325.424,10.228 325.302,11.001 325.424,11.773 325.779,12.470 326.332,13.023 327.029,13.378 327.802,13.501 328.574,13.378 329.271,13.023 329.824,12.470 330.179,11.773 330.302,11.001 330.179,10.228 329.824,9.531 329.271,8.978 328.574,8.623 327.802,8.501" style="fill:none;stroke-width:0.050000mm;stroke:black"/>
<polygon points="221.429,8.623 220.732,8.978 220.179,9.531 219.824,10.228 219.701,11.001 219.824,11.773 220.179,12.470 220.732,13.023 221.429,13.378 222.201,13.501 222.974,13.378 223.671,13.023 224.224,12.470 224.579,11.773 224.701,11.001 224.579,10.228 224.224,9.531 223.671,8.978 222.974,8.623 222.201,8.501" style="fill:none;stroke-width:0.050000mm;stroke:black"/>
<polygon points="115.828,8.623 115.131,8.978 114.578,9.531 114.223,10.228 114.101,11.001 114.223,11.773 114.578,12.470 115.131,13.023 115.828,13.378 116.601,13.501 117.373,13.378 118.070,13.023 118.623,12.470 118.978,11.773 119.101,11.001 118.978,10.228 118.623,9.531 118.070,8.978 117.373,8.623 116.601,8.501" style="fill:none;stroke-width:0.050000mm;stroke:black"/>
<polygon points="10.228,8.623 9.531,8.978 8.978,9.531 8.623,10.228 8.500,11.000 8.623,11.773 8.978,12.470 9.531,13.023 10.228,13.378 11.001,13.500 11.773,13.378 12.470,13.023 13.023,12.470 13.378,11.773 13.501,11.000 13.378,10.228 13.023,9.531 12.470,8.978 11.773,8.623 11.001,8.500" style="fill:none;stroke-width:0.050000mm;stroke:black"/>
</svg>
