  0
SECTION
  2
HEADER
  9
$ACADVER
  1
AC1014
  9
$HANDSEED
  5
FFFF
  9
$MEASUREMENT
 70
     1
  0
ENDSEC
  0
SECTION
  2
TABLES
  0
TABLE
  2
VPORT
  5
8
330
0
100
AcDbSymbolTable
 70
     4
  0
VPORT
  5
2E
330
8
100
AcDbSymbolTableRecord
100
AcDbViewportTableRecord
  2
*ACTIVE
 70
     0
 10
0.0
 20
0.0
 11
1.0
 21
1.0
 12
210.0
 22
148.5
 13
0.0
 23
0.0
 14
10.0
 24
10.0
 15
10.0
 25
10.0
 16
0.0
 26
0.0
 36
1.0
 17
0.0
 27
0.0
 37
0.0
 40
341.0
 41
1.24
 42
50.0
 43
0.0
 44
0.0
 50
0.0
 51
0.0
 71
     0
 72
   100
 73
     1
 74
     3
 75
     0
 76
     0
 77
     0
 78
     0
  0
ENDTAB
  0
TABLE
  2
LTYPE
  5
5
330
0
100
AcDbSymbolTable
 70
     1
  0
LTYPE
  5
14
330
5
100
AcDbSymbolTableRecord
100
AcDbLinetypeTableRecord
  2
BYBLOCK
 70
     0
  3

 72
    65
 73
     0
 40
0.0
  0
LTYPE
  5
15
330
5
100
AcDbSymbolTableRecord
100
AcDbLinetypeTableRecord
  2
BYLAYER
 70
     0
  3

 72
    65
 73
     0
 40
0.0
  0
LTYPE
  5
16
330
5
100
AcDbSymbolTableRecord
100
AcDbLinetypeTableRecord
  2
CONTINUOUS
 70
     0
  3
Solid line
 72
    65
 73
     0
 40
0.0
  0
ENDTAB
  0
TABLE
  2
LAYER
  5
2
100
AcDbSymbolTable
 70
2
  0
LAYER
  5
50
100
AcDbSymbolTableRecord
100
AcDbLayerTableRecord
  2
0
 70
0
  6
CONTINUOUS
  0
LAYER
  5
51
100
AcDbSymbolTableRecord
100
AcDbLayerTableRecord
  2
Layer_1
 70
0
  6
CONTINUOUS
  0
ENDTAB
  0
TABLE
  2
STYLE
  5
3
330
0
100
AcDbSymbolTable
 70
     1
  0
STYLE
  5
11
330
3
100
AcDbSymbolTableRecord
100
AcDbTextStyleTableRecord
  2
STANDARD
 70
     0
 40
0.0
 41
1.0
 50
0.0
 71
     0
 42
2.5
  3
txt
  4

  0
ENDTAB
  0
TABLE
  2
VIEW
  5
6
330
0
100
AcDbSymbolTable
 70
     0
  0
ENDTAB
  0
TABLE
  2
UCS
  5
7
330
0
100
AcDbSymbolTable
 70
     0
  0
ENDTAB
  0
TABLE
  2
APPID
  5
9
330
0
100
AcDbSymbolTable
 70
     2
  0
APPID
  5
12
330
9
100
AcDbSymbolTableRecord
100
AcDbRegAppTableRecord
  2
ACAD
 70
     0
  0
ENDTAB
  0
TABLE
  2
DIMSTYLE
  5
A
330
0
100
AcDbSymbolTable
 70
     1
  0
DIMSTYLE
105
27
330
A
100
AcDbSymbolTableRecord
100
AcDbDimStyleTableRecord
  2
ISO-25
 70
     0
  3

  4

  5

  6

  7

 40
1.0
 41
2.5
 42
0.625
 43
3.75
 44
1.25
 45
0.0
 46
0.0
 47
0.0
 48
0.0
140
2.5
141
2.5
142
0.0
143
0.03937007874016
144
1.0
145
0.0
146
1.0
147
0.625
 71
     0
 72
     0
 73
     0
 74
     0
 75
     0
 76
     0
 77
     1
 78
     8
170
     0
171
     3
172
     1
173
     0
174
     0
175
     0
176
     0
177
     0
178
     0
270
     2
271
     2
272
     2
273
     2
274
     3
340
11
275
     0
280
     0
281
     0
282
     0
283
     0
284
     8
285
     0
286
     0
287
     3
288
     0
  0
ENDTAB
  0
TABLE
  2
BLOCK_RECORD
  5
1
330
0
100
AcDbSymbolTable
 70
     1
  0
BLOCK_RECORD
  5
1F
330
1
100
AcDbSymbolTableRecord
100
AcDbBlockTableRecord
  2
*MODEL_SPACE
  0
BLOCK_RECORD
  5
1B
330
1
100
AcDbSymbolTableRecord
100
AcDbBlockTableRecord
  2
*PAPER_SPACE
  0
ENDTAB
  0
ENDSEC
  0
SECTION
  2
BLOCKS
  0
BLOCK
  5
20
330
1F
100
AcDbEntity
  8
0
100
AcDbBlockBegin
  2
*MODEL_SPACE
 70
     0
 10
0.0
 20
0.0
 30
0.0
  3
*MODEL_SPACE
  1

  0
ENDBLK
  5
21
330
1F
100
AcDbEntity
  8
0
100
AcDbBlockEnd
  0
BLOCK
  5
1C
330
1B
100
AcDbEntity
 67
     1
  8
0
100
AcDbBlockBegin
  2
*PAPER_SPACE
  1

  0
ENDBLK
  5
1D
330
1B
100
AcDbEntity
 67
     1
  8
0
100
AcDbBlockEnd
  0
ENDSEC
  0
SECTION
  2
ENTITIES
  0
SPLINE
  5
100
100
AcDbEntity
  8
Layer_1
 62
5
100
AcDbSpline
 70
8
 71
3
 72
8
 73
4
 74
0
 40
0
 40
0
 40
0
 40
0
 40
1
 40
1
 40
1
 40
1
 10
33.944181
 20
268.126828
 30
0.0
 10
32.551771
 20
268.126778
 30
0.0
 10
31.216413
 20
267.573587
 30
0.0
 10
30.231879
 20
266.588956
 30
0.0
  0
SPLINE
  5
101
100
AcDbEntity
  8
Layer_1
 62
5
100
AcDbSpline
 70
8
 71
3
 72
8
 73
4
 74
0
 40
0
 40
0
 40
0
 40
0
 40
1
 40
1
 40
1
 40
1
 10
30.231879
 20
266.588956
 30
0.0
 10
29.247345
 20
265.604325
 30
0.0
 10
28.694285
 20
264.268913
 30
0.0
 10
28.694372
 20
262.876503
 30
0.0
  0
SPLINE
  5
102
100
AcDbEntity
  8
Layer_1
 62
5
100
AcDbSpline
 70
8
 71
3
 72
8
 73
4
 74
0
 40
0
 40
0
 40
0
 40
0
 40
1
 40
1
 40
1
 40
1
 10
28.694372
 20
262.876503
 30
0.0
 10
28.694477
 20
259.977157
 30
0.0
 10
31.044835
 20
257.626798
 30
0.0
 10
33.944181
 20
257.626693
 30
0.0
  0
SPLINE
  5
103
100
AcDbEntity
  8
Layer_1
 62
5
100
AcDbSpline
 70
8
 71
3
 72
8
 73
4
 74
0
 40
0
 40
0
 40
0
 40
0
 40
1
 40
1
 40
1
 40
1
 10
33.944181
 20
257.626693
 30
0.0
 10
36.843527
 20
257.626798
 30
0.0
 10
39.193886
 20
259.977157
 30
0.0
 10
39.193991
 20
262.876503
 30
0.0
  0
SPLINE
  5
104
100
AcDbEntity
  8
Layer_1
 62
5
100
AcDbSpline
 70
8
 71
3
 72
8
 73
4
 74
0
 40
0
 40
0
 40
0
 40
0
 40
1
 40
1
 40
1
 40
1
 10
39.193991
 20
262.876503
 30
0.0
 10
39.194077
 20
264.268913
 30
0.0
 10
38.641018
 20
265.604325
 30
0.0
 10
37.656484
 20
266.588956
 30
0.0
  0
SPLINE
  5
105
100
AcDbEntity
  8
Layer_1
 62
5
100
AcDbSpline
 70
8
 71
3
 72
8
 73
4
 74
0
 40
0
 40
0
 40
0
 40
0
 40
1
 40
1
 40
1
 40
1
 10
37.656484
 20
266.588956
 30
0.0
 10
36.671950
 20
267.573587
 30
0.0
 10
35.336591
 20
268.126778
 30
0.0
 10
33.944181
 20
268.126828
 30
0.0
  0
LINE
  5
106
100
AcDbEntity
  8
Layer_1
 62
5
100
AcDbLine
 10
33.944181
 20
268.126828
 30
0.0
 11
33.944181
 21
268.126828
 31
0.0
  0
SPLINE
  5
107
100
AcDbEntity
  8
Layer_1
 62
5
100
AcDbSpline
 70
8
 71
3
 72
8
 73
4
 74
0
 40
0
 40
0
 40
0
 40
0
 40
1
 40
1
 40
1
 40
1
 10
33.944181
 20
264.776645
 30
0.0
 10
34.448142
 20
264.776683
 30
0.0
 10
34.931472
 20
264.576502
 30
0.0
 10
35.287826
 20
264.220148
 30
0.0
  0
SPLINE
  5
108
100
AcDbEntity
  8
Layer_1
 62
5
100
AcDbSpline
 70
8
 71
3
 72
8
 73
4
 74
0
 40
0
 40
0
 40
0
 40
0
 40
1
 40
1
 40
1
 40
1
 10
35.287826
 20
264.220148
 30
0.0
 10
35.644180
 20
263.863794
 30
0.0
 10
35.844361
 20
263.380463
 30
0.0
 10
35.844323
 20
262.876503
 30
0.0
  0
SPLINE
  5
109
100
AcDbEntity
  8
Layer_1
 62
5
100
AcDbSpline
 70
8
 71
3
 72
8
 73
4
 74
0
 40
0
 40
0
 40
0
 40
0
 40
1
 40
1
 40
1
 40
1
 10
35.844323
 20
262.876503
 30
0.0
 10
35.844117
 20
261.827252
 30
0.0
 10
34.993432
 20
260.976798
 30
0.0
 10
33.944181
 20
260.976876
 30
0.0
  0
SPLINE
  5
10a
100
AcDbEntity
  8
Layer_1
 62
5
100
AcDbSpline
 70
8
 71
3
 72
8
 73
4
 74
0
 40
0
 40
0
 40
0
 40
0
 40
1
 40
1
 40
1
 40
1
 10
33.944181
 20
260.976876
 30
0.0
 10
32.894931
 20
260.976798
 30
0.0
 10
32.044245
 20
261.827252
 30
0.0
 10
32.044039
 20
262.876503
 30
0.0
  0
SPLINE
  5
10b
100
AcDbEntity
  8
Layer_1
 62
5
100
AcDbSpline
 70
8
 71
3
 72
8
 73
4
 74
0
 40
0
 40
0
 40
0
 40
0
 40
1
 40
1
 40
1
 40
1
 10
32.044039
 20
262.876503
 30
0.0
 10
32.044001
 20
263.380463
 30
0.0
 10
32.244182
 20
263.863794
 30
0.0
 10
32.600536
 20
264.220148
 30
0.0
  0
SPLINE
  5
10c
100
AcDbEntity
  8
Layer_1
 62
5
100
AcDbSpline
 70
8
 71
3
 72
8
 73
4
 74
0
 40
0
 40
0
 40
0
 40
0
 40
1
 40
1
 40
1
 40
1
 10
32.600536
 20
264.220148
 30
0.0
 10
32.956890
 20
264.576502
 30
0.0
 10
33.440221
 20
264.776683
 30
0.0
 10
33.944181
 20
264.776645
 30
0.0
  0
LINE
  5
10d
100
AcDbEntity
  8
Layer_1
 62
5
100
AcDbLine
 10
33.944181
 20
264.776645
 30
0.0
 11
33.944181
 21
264.776645
 31
0.0
  0
LINE
  5
10e
100
AcDbEntity
  8
Layer_1
 62
5
100
AcDbLine
 10
43.680411
 20
265.704341
 30
0.0
 11
41.430418
 21
264.405712
 31
0.0
  0
LINE
  5
10f
100
AcDbEntity
  8
Layer_1
 62
5
100
AcDbLine
 10
41.430418
 20
264.405712
 30
0.0
 11
41.430418
 21
261.807421
 31
0.0
  0
LINE
  5
110
100
AcDbEntity
  8
Layer_1
 62
5
100
AcDbLine
 10
41.430418
 20
261.807421
 30
0.0
 11
43.680411
 21
260.508276
 31
0.0
  0
LINE
  5
111
100
AcDbEntity
  8
Layer_1
 62
5
100
AcDbLine
 10
43.680411
 20
260.508276
 30
0.0
 11
45.930401
 21
261.807421
 31
0.0
  0
LINE
  5
112
100
AcDbEntity
  8
Layer_1
 62
5
100
AcDbLine
 10
45.930401
 20
261.807421
 30
0.0
 11
45.930401
 21
264.405712
 31
0.0
  0
LINE
  5
113
100
AcDbEntity
  8
Layer_1
 62
5
100
AcDbLine
 10
45.930401
 20
264.405712
 30
0.0
 11
43.680411
 21
265.704341
 31
0.0
  0
SPLINE
  5
114
100
AcDbEntity
  8
Layer_1
 62
5
100
AcDbSpline
 70
8
 71
3
 72
8
 73
4
 74
0
 40
0
 40
0
 40
0
 40
0
 40
1
 40
1
 40
1
 40
1
 10
43.680411
 20
264.106505
 30
0.0
 10
43.945696
 20
264.106626
 30
0.0
 10
44.200157
 20
264.001331
 30
0.0
 10
44.387790
 20
263.813795
 30
0.0
  0
SPLINE
  5
115
100
AcDbEntity
  8
Layer_1
 62
5
100
AcDbSpline
 70
8
 71
3
 72
8
 73
4
 74
0
 40
0
 40
0
 40
0
 40
0
 40
1
 40
1
 40
1
 40
1
 10
44.387790
 20
263.813795
 30
0.0
 10
44.575423
 20
263.626259
 30
0.0
 10
44.680850
 20
263.371852
 30
0.0
 10
44.680866
 20
263.106567
 30
0.0
  0
SPLINE
  5
116
100
AcDbEntity
  8
Layer_1
 62
5
100
AcDbSpline
 70
8
 71
3
 72
8
 73
4
 74
0
 40
0
 40
0
 40
0
 40
0
 40
1
 40
1
 40
1
 40
1
 10
44.680866
 20
263.106567
 30
0.0
 10
44.680850
 20
262.841282
 30
0.0
 10
44.575423
 20
262.586875
 30
0.0
 10
44.387790
 20
262.399339
 30
0.0
  0
SPLINE
  5
117
100
AcDbEntity
  8
Layer_1
 62
5
100
AcDbSpline
 70
8
 71
3
 72
8
 73
4
 74
0
 40
0
 40
0
 40
0
 40
0
 40
1
 40
1
 40
1
 40
1
 10
44.387790
 20
262.399339
 30
0.0
 10
44.200157
 20
262.211802
 30
0.0
 10
43.945696
 20
262.106507
 30
0.0
 10
43.680411
 20
262.106628
 30
0.0
  0
SPLINE
  5
118
100
AcDbEntity
  8
Layer_1
 62
5
100
AcDbSpline
 70
8
 71
3
 72
8
 73
4
 74
0
 40
0
 40
0
 40
0
 40
0
 40
1
 40
1
 40
1
 40
1
 10
43.680411
 20
262.106628
 30
0.0
 10
43.128174
 20
262.106661
 30
0.0
 10
42.680505
 20
262.554329
 30
0.0
 10
42.680471
 20
263.106567
 30
0.0
  0
SPLINE
  5
119
100
AcDbEntity
  8
Layer_1
 62
5
100
AcDbSpline
 70
8
 71
3
 72
8
 73
4
 74
0
 40
0
 40
0
 40
0
 40
0
 40
1
 40
1
 40
1
 40
1
 10
42.680471
 20
263.106567
 30
0.0
 10
42.680505
 20
263.658804
 30
0.0
 10
43.128174
 20
264.106472
 30
0.0
 10
43.680411
 20
264.106505
 30
0.0
  0
LINE
  5
11a
100
AcDbEntity
  8
Layer_1
 62
5
100
AcDbLine
 10
43.680411
 20
264.106505
 30
0.0
 11
43.680411
 21
264.106505
 31
0.0
  0
LINE
  5
11b
100
AcDbEntity
  8
Layer_1
 62
6
100
AcDbLine
 10
4.205676
 20
256.120651
 30
0.0
 11
3.944193
 21
253.132203
 31
0.0
  0
LINE
  5
11c
100
AcDbEntity
  8
Layer_1
 62
6
100
AcDbLine
 10
3.944193
 20
253.132203
 30
0.0
 11
3.944193
 21
247.517556
 31
0.0
  0
LINE
  5
11d
100
AcDbEntity
  8
Layer_1
 62
6
100
AcDbLine
 10
3.944193
 20
247.517556
 30
0.0
 11
8.853970
 21
247.517556
 31
0.0
  0
SPLINE
  5
11e
100
AcDbEntity
  8
Layer_1
 62
6
100
AcDbSpline
 70
8
 71
3
 72
8
 73
4
 74
0
 40
0
 40
0
 40
0
 40
0
 40
1
 40
1
 40
1
 40
1
 10
8.853970
 20
247.517556
 30
0.0
 10
8.853940
 20
247.583899
 30
0.0
 10
8.880281
 20
247.647534
 30
0.0
 10
8.927193
 20
247.694446
 30
0.0
  0
SPLINE
  5
11f
100
AcDbEntity
  8
Layer_1
 62
6
100
AcDbSpline
 70
8
 71
3
 72
8
 73
4
 74
0
 40
0
 40
0
 40
0
 40
0
 40
1
 40
1
 40
1
 40
1
 10
8.927193
 20
247.694446
 30
0.0
 10
8.974105
 20
247.741358
 30
0.0
 10
9.037740
 20
247.767699
 30
0.0
 10
9.104084
 20
247.767669
 30
0.0
  0
SPLINE
  5
120
100
AcDbEntity
  8
Layer_1
 62
6
100
AcDbSpline
 70
8
 71
3
 72
8
 73
4
 74
0
 40
0
 40
0
 40
0
 40
0
 40
1
 40
1
 40
1
 40
1
 10
9.104084
 20
247.767669
 30
0.0
 10
9.170427
 20
247.767699
 30
0.0
 10
9.234062
 20
247.741358
 30
0.0
 10
9.280974
 20
247.694446
 30
0.0
  0
SPLINE
  5
121
100
AcDbEntity
  8
Layer_1
 62
6
100
AcDbSpline
 70
8
 71
3
 72
8
 73
4
 74
0
 40
0
 40
0
 40
0
 40
0
 40
1
 40
1
 40
1
 40
1
 10
9.280974
 20
247.694446
 30
0.0
 10
9.327886
 20
247.647534
 30
0.0
 10
9.354228
 20
247.583899
 30
0.0
 10
9.354198
 20
247.517556
 30
0.0
  0
SPLINE
  5
122
100
AcDbEntity
  8
Layer_1
 62
6
100
AcDbSpline
 70
8
 71
3
 72
8
 73
4
 74
0
 40
0
 40
0
 40
0
 40
0
 40
1
 40
1
 40
1
 40
1
 10
9.354198
 20
247.517556
 30
0.0
 10
9.354228
 20
247.451213
 30
0.0
 10
9.327886
 20
247.387578
 30
0.0
 10
9.280974
 20
247.340666
 30
0.0
  0
SPLINE
  5
123
100
AcDbEntity
  8
Layer_1
 62
6
100
AcDbSpline
 70
8
 71
3
 72
8
 73
4
 74
0
 40
0
 40
0
 40
0
 40
0
 40
1
 40
1
 40
1
 40
1
 10
9.280974
 20
247.340666
 30
0.0
 10
9.234062
 20
247.293754
 30
0.0
 10
9.170427
 20
247.267413
 30
0.0
 10
9.104084
 20
247.267443
 30
0.0
  0
LINE
  5
124
100
AcDbEntity
  8
Layer_1
 62
6
100
AcDbLine
 10
9.104084
 20
247.267443
 30
0.0
 11
9.104084
 21
244.357542
 31
0.0
  0
LINE
  5
125
100
AcDbEntity
  8
Layer_1
 62
6
100
AcDbLine
 10
9.104084
 20
244.357542
 30
0.0
 11
15.714533
 21
244.357542
 31
0.0
  0
SPLINE
  5
126
100
AcDbEntity
  8
Layer_1
 62
6
100
AcDbSpline
 70
8
 71
3
 72
8
 73
4
 74
0
 40
0
 40
0
 40
0
 40
0
 40
1
 40
1
 40
1
 40
1
 10
15.714533
 20
244.357542
 30
0.0
 10
15.714533
 20
244.357542
 30
0.0
 10
15.714533
 20
247.267443
 30
0.0
 10
15.714533
 20
247.267443
 30
0.0
  0
SPLINE
  5
127
100
AcDbEntity
  8
Layer_1
 62
6
100
AcDbSpline
 70
8
 71
3
 72
8
 73
4
 74
0
 40
0
 40
0
 40
0
 40
0
 40
1
 40
1
 40
1
 40
1
 10
15.714533
 20
247.267443
 30
0.0
 10
15.648190
 20
247.267413
 30
0.0
 10
15.584555
 20
247.293754
 30
0.0
 10
15.537643
 20
247.340666
 30
0.0
  0
SPLINE
  5
128
100
AcDbEntity
  8
Layer_1
 62
6
100
AcDbSpline
 70
8
 71
3
 72
8
 73
4
 74
0
 40
0
 40
0
 40
0
 40
0
 40
1
 40
1
 40
1
 40
1
 10
15.537643
 20
247.340666
 30
0.0
 10
15.490731
 20
247.387578
 30
0.0
 10
15.464390
 20
247.451213
 30
0.0
 10
15.464420
 20
247.517556
 30
0.0
  0
SPLINE
  5
129
100
AcDbEntity
  8
Layer_1
 62
6
100
AcDbSpline
 70
8
 71
3
 72
8
 73
4
 74
0
 40
0
 40
0
 40
0
 40
0
 40
1
 40
1
 40
1
 40
1
 10
15.464420
 20
247.517556
 30
0.0
 10
15.464390
 20
247.583899
 30
0.0
 10
15.490731
 20
247.647534
 30
0.0
 10
15.537643
 20
247.694446
 30
0.0
  0
SPLINE
  5
12a
100
AcDbEntity
  8
Layer_1
 62
6
100
AcDbSpline
 70
8
 71
3
 72
8
 73
4
 74
0
 40
0
 40
0
 40
0
 40
0
 40
1
 40
1
 40
1
 40
1
 10
15.537643
 20
247.694446
 30
0.0
 10
15.584555
 20
247.741358
 30
0.0
 10
15.648190
 20
247.767699
 30
0.0
 10
15.714533
 20
247.767669
 30
0.0
  0
SPLINE
  5
12b
100
AcDbEntity
  8
Layer_1
 62
6
100
AcDbSpline
 70
8
 71
3
 72
8
 73
4
 74
0
 40
0
 40
0
 40
0
 40
0
 40
1
 40
1
 40
1
 40
1
 10
15.714533
 20
247.767669
 30
0.0
 10
15.780876
 20
247.767699
 30
0.0
 10
15.844511
 20
247.741358
 30
0.0
 10
15.891423
 20
247.694446
 30
0.0
  0
SPLINE
  5
12c
100
AcDbEntity
  8
Layer_1
 62
6
100
AcDbSpline
 70
8
 71
3
 72
8
 73
4
 74
0
 40
0
 40
0
 40
0
 40
0
 40
1
 40
1
 40
1
 40
1
 10
15.891423
 20
247.694446
 30
0.0
 10
15.938335
 20
247.647534
 30
0.0
 10
15.964677
 20
247.583899
 30
0.0
 10
15.964647
 20
247.517556
 30
0.0
  0
SPLINE
  5
12d
100
AcDbEntity
  8
Layer_1
 62
6
100
AcDbSpline
 70
8
 71
3
 72
8
 73
4
 74
0
 40
0
 40
0
 40
0
 40
0
 40
1
 40
1
 40
1
 40
1
 10
15.964647
 20
247.517556
 30
0.0
 10
15.964647
 20
247.517556
 30
0.0
 10
20.789159
 20
247.517556
 30
0.0
 10
20.789159
 20
247.517556
 30
0.0
  0
SPLINE
  5
12e
100
AcDbEntity
  8
Layer_1
 62
6
100
AcDbSpline
 70
8
 71
3
 72
8
 73
4
 74
0
 40
0
 40
0
 40
0
 40
0
 40
1
 40
1
 40
1
 40
1
 10
20.789159
 20
247.517556
 30
0.0
 10
20.789129
 20
247.583899
 30
0.0
 10
20.815471
 20
247.647534
 30
0.0
 10
20.862383
 20
247.694446
 30
0.0
  0
SPLINE
  5
12f
100
AcDbEntity
  8
Layer_1
 62
6
100
AcDbSpline
 70
8
 71
3
 72
8
 73
4
 74
0
 40
0
 40
0
 40
0
 40
0
 40
1
 40
1
 40
1
 40
1
 10
20.862383
 20
247.694446
 30
0.0
 10
20.909295
 20
247.741358
 30
0.0
 10
20.972930
 20
247.767699
 30
0.0
 10
21.039273
 20
247.767669
 30
0.0
  0
SPLINE
  5
130
100
AcDbEntity
  8
Layer_1
 62
6
100
AcDbSpline
 70
8
 71
3
 72
8
 73
4
 74
0
 40
0
 40
0
 40
0
 40
0
 40
1
 40
1
 40
1
 40
1
 10
21.039273
 20
247.767669
 30
0.0
 10
21.105616
 20
247.767699
 30
0.0
 10
21.169251
 20
247.741358
 30
0.0
 10
21.216163
 20
247.694446
 30
0.0
  0
SPLINE
  5
131
100
AcDbEntity
  8
Layer_1
 62
6
100
AcDbSpline
 70
8
 71
3
 72
8
 73
4
 74
0
 40
0
 40
0
 40
0
 40
0
 40
1
 40
1
 40
1
 40
1
 10
21.216163
 20
247.694446
 30
0.0
 10
21.263075
 20
247.647534
 30
0.0
 10
21.289417
 20
247.583899
 30
0.0
 10
21.289387
 20
247.517556
 30
0.0
  0
SPLINE
  5
132
100
AcDbEntity
  8
Layer_1
 62
6
100
AcDbSpline
 70
8
 71
3
 72
8
 73
4
 74
0
 40
0
 40
0
 40
0
 40
0
 40
1
 40
1
 40
1
 40
1
 10
21.289387
 20
247.517556
 30
0.0
 10
21.289417
 20
247.451213
 30
0.0
 10
21.263075
 20
247.387578
 30
0.0
 10
21.216163
 20
247.340666
 30
0.0
  0
SPLINE
  5
133
100
AcDbEntity
  8
Layer_1
 62
6
100
AcDbSpline
 70
8
 71
3
 72
8
 73
4
 74
0
 40
0
 40
0
 40
0
 40
0
 40
1
 40
1
 40
1
 40
1
 10
21.216163
 20
247.340666
 30
0.0
 10
21.169251
 20
247.293754
 30
0.0
 10
21.105616
 20
247.267413
 30
0.0
 10
21.039273
 20
247.267443
 30
0.0
  0
LINE
  5
134
100
AcDbEntity
  8
Layer_1
 62
6
100
AcDbLine
 10
21.039273
 20
247.267443
 30
0.0
 11
21.039273
 21
244.357542
 31
0.0
  0
LINE
  5
135
100
AcDbEntity
  8
Layer_1
 62
6
100
AcDbLine
 10
21.039273
 20
244.357542
 30
0.0
 11
27.649722
 21
244.357542
 31
0.0
  0
SPLINE
  5
136
100
AcDbEntity
  8
Layer_1
 62
6
100
AcDbSpline
 70
8
 71
3
 72
8
 73
4
 74
0
 40
0
 40
0
 40
0
 40
0
 40
1
 40
1
 40
1
 40
1
 10
27.649722
 20
244.357542
 30
0.0
 10
27.649722
 20
244.357542
 30
0.0
 10
27.649722
 20
247.267443
 30
0.0
 10
27.649722
 20
247.267443
 30
0.0
  0
SPLINE
  5
137
100
AcDbEntity
  8
Layer_1
 62
6
100
AcDbSpline
 70
8
 71
3
 72
8
 73
4
 74
0
 40
0
 40
0
 40
0
 40
0
 40
1
 40
1
 40
1
 40
1
 10
27.649722
 20
247.267443
 30
0.0
 10
27.583379
 20
247.267413
 30
0.0
 10
27.519744
 20
247.293754
 30
0.0
 10
27.472832
 20
247.340666
 30
0.0
  0
SPLINE
  5
138
100
AcDbEntity
  8
Layer_1
 62
6
100
AcDbSpline
 70
8
 71
3
 72
8
 73
4
 74
0
 40
0
 40
0
 40
0
 40
0
 40
1
 40
1
 40
1
 40
1
 10
27.472832
 20
247.340666
 30
0.0
 10
27.425920
 20
247.387578
 30
0.0
 10
27.399578
 20
247.451213
 30
0.0
 10
27.399608
 20
247.517556
 30
0.0
  0
SPLINE
  5
139
100
AcDbEntity
  8
Layer_1
 62
6
100
AcDbSpline
 70
8
 71
3
 72
8
 73
4
 74
0
 40
0
 40
0
 40
0
 40
0
 40
1
 40
1
 40
1
 40
1
 10
27.399608
 20
247.517556
 30
0.0
 10
27.399578
 20
247.583899
 30
0.0
 10
27.425920
 20
247.647534
 30
0.0
 10
27.472832
 20
247.694446
 30
0.0
  0
SPLINE
  5
13a
100
AcDbEntity
  8
Layer_1
 62
6
100
AcDbSpline
 70
8
 71
3
 72
8
 73
4
 74
0
 40
0
 40
0
 40
0
 40
0
 40
1
 40
1
 40
1
 40
1
 10
27.472832
 20
247.694446
 30
0.0
 10
27.519744
 20
247.741358
 30
0.0
 10
27.583379
 20
247.767699
 30
0.0
 10
27.649722
 20
247.767669
 30
0.0
  0
SPLINE
  5
13b
100
AcDbEntity
  8
Layer_1
 62
6
100
AcDbSpline
 70
8
 71
3
 72
8
 73
4
 74
0
 40
0
 40
0
 40
0
 40
0
 40
1
 40
1
 40
1
 40
1
 10
27.649722
 20
247.767669
 30
0.0
 10
27.716065
 20
247.767699
 30
0.0
 10
27.779700
 20
247.741358
 30
0.0
 10
27.826612
 20
247.694446
 30
0.0
  0
SPLINE
  5
13c
100
AcDbEntity
  8
Layer_1
 62
6
100
AcDbSpline
 70
8
 71
3
 72
8
 73
4
 74
0
 40
0
 40
0
 40
0
 40
0
 40
1
 40
1
 40
1
 40
1
 10
27.826612
 20
247.694446
 30
0.0
 10
27.873524
 20
247.647534
 30
0.0
 10
27.899866
 20
247.583899
 30
0.0
 10
27.899836
 20
247.517556
 30
0.0
  0
LINE
  5
13d
100
AcDbEntity
  8
Layer_1
 62
6
100
AcDbLine
 10
27.899836
 20
247.517556
 30
0.0
 11
32.809615
 21
247.517556
 31
0.0
  0
LINE
  5
13e
100
AcDbEntity
  8
Layer_1
 62
6
100
AcDbLine
 10
32.809615
 20
247.517556
 30
0.0
 11
32.809615
 21
250.606774
 31
0.0
  0
LINE
  5
13f
100
AcDbEntity
  8
Layer_1
 62
6
100
AcDbLine
 10
32.809615
 20
250.606774
 30
0.0
 11
33.071098
 21
253.595224
 31
0.0
  0
LINE
  5
140
100
AcDbEntity
  8
Layer_1
 62
6
100
AcDbLine
 10
33.071098
 20
253.595224
 30
0.0
 11
28.090005
 21
254.031371
 31
0.0
  0
LINE
  5
141
100
AcDbEntity
  8
Layer_1
 62
6
100
AcDbLine
 10
28.090005
 20
254.031371
 30
0.0
 11
27.850227
 21
251.291486
 31
0.0
  0
SPLINE
  5
142
100
AcDbEntity
  8
Layer_1
 62
6
100
AcDbSpline
 70
8
 71
3
 72
8
 73
4
 74
0
 40
0
 40
0
 40
0
 40
0
 40
1
 40
1
 40
1
 40
1
 10
27.850227
 20
251.291486
 30
0.0
 10
27.979450
 20
251.280284
 30
0.0
 10
28.078642
 20
251.172115
 30
0.0
 10
28.078636
 20
251.042408
 30
0.0
  0
SPLINE
  5
143
100
AcDbEntity
  8
Layer_1
 62
6
100
AcDbSpline
 70
8
 71
3
 72
8
 73
4
 74
0
 40
0
 40
0
 40
0
 40
0
 40
1
 40
1
 40
1
 40
1
 10
28.078636
 20
251.042408
 30
0.0
 10
28.078667
 20
250.976064
 30
0.0
 10
28.052326
 20
250.912429
 30
0.0
 10
28.005414
 20
250.865516
 30
0.0
  0
SPLINE
  5
144
100
AcDbEntity
  8
Layer_1
 62
6
100
AcDbSpline
 70
8
 71
3
 72
8
 73
4
 74
0
 40
0
 40
0
 40
0
 40
0
 40
1
 40
1
 40
1
 40
1
 10
28.005414
 20
250.865516
 30
0.0
 10
27.958502
 20
250.818604
 30
0.0
 10
27.894867
 20
250.792262
 30
0.0
 10
27.828523
 20
250.792292
 30
0.0
  0
SPLINE
  5
145
100
AcDbEntity
  8
Layer_1
 62
6
100
AcDbSpline
 70
8
 71
3
 72
8
 73
4
 74
0
 40
0
 40
0
 40
0
 40
0
 40
1
 40
1
 40
1
 40
1
 10
27.828523
 20
250.792292
 30
0.0
 10
27.762179
 20
250.792262
 30
0.0
 10
27.698544
 20
250.818604
 30
0.0
 10
27.651632
 20
250.865516
 30
0.0
  0
SPLINE
  5
146
100
AcDbEntity
  8
Layer_1
 62
6
100
AcDbSpline
 70
8
 71
3
 72
8
 73
4
 74
0
 40
0
 40
0
 40
0
 40
0
 40
1
 40
1
 40
1
 40
1
 10
27.651632
 20
250.865516
 30
0.0
 10
27.604719
 20
250.912428
 30
0.0
 10
27.578378
 20
250.976064
 30
0.0
 10
27.578409
 20
251.042408
 30
0.0
  0
SPLINE
  5
147
100
AcDbEntity
  8
Layer_1
 62
6
100
AcDbSpline
 70
8
 71
3
 72
8
 73
4
 74
0
 40
0
 40
0
 40
0
 40
0
 40
1
 40
1
 40
1
 40
1
 10
27.578409
 20
251.042408
 30
0.0
 10
27.578428
 20
251.049652
 30
0.0
 10
27.578761
 20
251.056893
 30
0.0
 10
27.579409
 20
251.064108
 30
0.0
  0
SPLINE
  5
148
100
AcDbEntity
  8
Layer_1
 62
6
100
AcDbSpline
 70
8
 71
3
 72
8
 73
4
 74
0
 40
0
 40
0
 40
0
 40
0
 40
1
 40
1
 40
1
 40
1
 10
27.579409
 20
251.064108
 30
0.0
 10
27.579409
 20
251.064108
 30
0.0
 10
21.115749
 20
251.629967
 30
0.0
 10
21.115749
 20
251.629967
 30
0.0
  0
SPLINE
  5
149
100
AcDbEntity
  8
Layer_1
 62
6
100
AcDbSpline
 70
8
 71
3
 72
8
 73
4
 74
0
 40
0
 40
0
 40
0
 40
0
 40
1
 40
1
 40
1
 40
1
 10
21.115749
 20
251.629967
 30
0.0
 10
21.104565
 20
251.500941
 30
0.0
 10
20.996696
 20
251.401818
 30
0.0
 10
20.867186
 20
251.401557
 30
0.0
  0
SPLINE
  5
14a
100
AcDbEntity
  8
Layer_1
 62
6
100
AcDbSpline
 70
8
 71
3
 72
8
 73
4
 74
0
 40
0
 40
0
 40
0
 40
0
 40
1
 40
1
 40
1
 40
1
 10
20.867186
 20
251.401557
 30
0.0
 10
20.800842
 20
251.401526
 30
0.0
 10
20.737207
 20
251.427868
 30
0.0
 10
20.690295
 20
251.474780
 30
0.0
  0
SPLINE
  5
14b
100
AcDbEntity
  8
Layer_1
 62
6
100
AcDbSpline
 70
8
 71
3
 72
8
 73
4
 74
0
 40
0
 40
0
 40
0
 40
0
 40
1
 40
1
 40
1
 40
1
 10
20.690295
 20
251.474780
 30
0.0
 10
20.643383
 20
251.521691
 30
0.0
 10
20.617041
 20
251.585326
 30
0.0
 10
20.617071
 20
251.651670
 30
0.0
  0
SPLINE
  5
14c
100
AcDbEntity
  8
Layer_1
 62
6
100
AcDbSpline
 70
8
 71
3
 72
8
 73
4
 74
0
 40
0
 40
0
 40
0
 40
0
 40
1
 40
1
 40
1
 40
1
 10
20.617071
 20
251.651670
 30
0.0
 10
20.617041
 20
251.718014
 30
0.0
 10
20.643382
 20
251.781649
 30
0.0
 10
20.690295
 20
251.828561
 30
0.0
  0
SPLINE
  5
14d
100
AcDbEntity
  8
Layer_1
 62
6
100
AcDbSpline
 70
8
 71
3
 72
8
 73
4
 74
0
 40
0
 40
0
 40
0
 40
0
 40
1
 40
1
 40
1
 40
1
 10
20.690295
 20
251.828561
 30
0.0
 10
20.737207
 20
251.875473
 30
0.0
 10
20.800842
 20
251.901815
 30
0.0
 10
20.867186
 20
251.901784
 30
0.0
  0
SPLINE
  5
14e
100
AcDbEntity
  8
Layer_1
 62
6
100
AcDbSpline
 70
8
 71
3
 72
8
 73
4
 74
0
 40
0
 40
0
 40
0
 40
0
 40
1
 40
1
 40
1
 40
1
 10
20.867186
 20
251.901784
 30
0.0
 10
20.874430
 20
251.901765
 30
0.0
 10
20.881671
 20
251.901432
 30
0.0
 10
20.888886
 20
251.900784
 30
0.0
  0
LINE
  5
14f
100
AcDbEntity
  8
Layer_1
 62
6
100
AcDbLine
 10
20.888886
 20
251.900784
 30
0.0
 11
21.128664
 21
254.640151
 31
0.0
  0
LINE
  5
150
100
AcDbEntity
  8
Layer_1
 62
6
100
AcDbLine
 10
21.128664
 20
254.640151
 30
0.0
 11
16.148090
 21
255.075784
 31
0.0
  0
LINE
  5
151
100
AcDbEntity
  8
Layer_1
 62
6
100
AcDbLine
 10
16.148090
 20
255.075784
 30
0.0
 11
15.908311
 21
252.336416
 31
0.0
  0
SPLINE
  5
152
100
AcDbEntity
  8
Layer_1
 62
6
100
AcDbSpline
 70
8
 71
3
 72
8
 73
4
 74
0
 40
0
 40
0
 40
0
 40
0
 40
1
 40
1
 40
1
 40
1
 10
15.908311
 20
252.336416
 30
0.0
 10
16.037534
 20
252.325214
 30
0.0
 10
16.136728
 20
252.217045
 30
0.0
 10
16.136721
 20
252.087337
 30
0.0
  0
SPLINE
  5
153
100
AcDbEntity
  8
Layer_1
 62
6
100
AcDbSpline
 70
8
 71
3
 72
8
 73
4
 74
0
 40
0
 40
0
 40
0
 40
0
 40
1
 40
1
 40
1
 40
1
 10
16.136721
 20
252.087337
 30
0.0
 10
16.136752
 20
252.020993
 30
0.0
 10
16.110411
 20
251.957357
 30
0.0
 10
16.063499
 20
251.910444
 30
0.0
  0
SPLINE
  5
154
100
AcDbEntity
  8
Layer_1
 62
6
100
AcDbSpline
 70
8
 71
3
 72
8
 73
4
 74
0
 40
0
 40
0
 40
0
 40
0
 40
1
 40
1
 40
1
 40
1
 10
16.063499
 20
251.910444
 30
0.0
 10
16.016587
 20
251.863532
 30
0.0
 10
15.952951
 20
251.837190
 30
0.0
 10
15.886607
 20
251.837220
 30
0.0
  0
SPLINE
  5
155
100
AcDbEntity
  8
Layer_1
 62
6
100
AcDbSpline
 70
8
 71
3
 72
8
 73
4
 74
0
 40
0
 40
0
 40
0
 40
0
 40
1
 40
1
 40
1
 40
1
 10
15.886607
 20
251.837220
 30
0.0
 10
15.820263
 20
251.837190
 30
0.0
 10
15.756627
 20
251.863532
 30
0.0
 10
15.709715
 20
251.910444
 30
0.0
  0
SPLINE
  5
156
100
AcDbEntity
  8
Layer_1
 62
6
100
AcDbSpline
 70
8
 71
3
 72
8
 73
4
 74
0
 40
0
 40
0
 40
0
 40
0
 40
1
 40
1
 40
1
 40
1
 10
15.709715
 20
251.910444
 30
0.0
 10
15.662803
 20
251.957357
 30
0.0
 10
15.636462
 20
252.020993
 30
0.0
 10
15.636493
 20
252.087337
 30
0.0
  0
SPLINE
  5
157
100
AcDbEntity
  8
Layer_1
 62
6
100
AcDbSpline
 70
8
 71
3
 72
8
 73
4
 74
0
 40
0
 40
0
 40
0
 40
0
 40
1
 40
1
 40
1
 40
1
 10
15.636493
 20
252.087337
 30
0.0
 10
15.636512
 20
252.094581
 30
0.0
 10
15.636845
 20
252.101822
 30
0.0
 10
15.637493
 20
252.109037
 30
0.0
  0
SPLINE
  5
158
100
AcDbEntity
  8
Layer_1
 62
6
100
AcDbSpline
 70
8
 71
3
 72
8
 73
4
 74
0
 40
0
 40
0
 40
0
 40
0
 40
1
 40
1
 40
1
 40
1
 10
15.637493
 20
252.109037
 30
0.0
 10
15.637493
 20
252.109037
 30
0.0
 10
9.173848
 20
252.674865
 30
0.0
 10
9.173848
 20
252.674865
 30
0.0
  0
SPLINE
  5
159
100
AcDbEntity
  8
Layer_1
 62
6
100
AcDbSpline
 70
8
 71
3
 72
8
 73
4
 74
0
 40
0
 40
0
 40
0
 40
0
 40
1
 40
1
 40
1
 40
1
 10
9.173848
 20
252.674865
 30
0.0
 10
9.162663
 20
252.545839
 30
0.0
 10
9.054793
 20
252.446716
 30
0.0
 10
8.925284
 20
252.446456
 30
0.0
  0
SPLINE
  5
15a
100
AcDbEntity
  8
Layer_1
 62
6
100
AcDbSpline
 70
8
 71
3
 72
8
 73
4
 74
0
 40
0
 40
0
 40
0
 40
0
 40
1
 40
1
 40
1
 40
1
 10
8.925284
 20
252.446456
 30
0.0
 10
8.858940
 20
252.446426
 30
0.0
 10
8.795305
 20
252.472767
 30
0.0
 10
8.748393
 20
252.519679
 30
0.0
  0
SPLINE
  5
15b
100
AcDbEntity
  8
Layer_1
 62
6
100
AcDbSpline
 70
8
 71
3
 72
8
 73
4
 74
0
 40
0
 40
0
 40
0
 40
0
 40
1
 40
1
 40
1
 40
1
 10
8.748393
 20
252.519679
 30
0.0
 10
8.701481
 20
252.566591
 30
0.0
 10
8.675140
 20
252.630226
 30
0.0
 10
8.675170
 20
252.696569
 30
0.0
  0
SPLINE
  5
15c
100
AcDbEntity
  8
Layer_1
 62
6
100
AcDbSpline
 70
8
 71
3
 72
8
 73
4
 74
0
 40
0
 40
0
 40
0
 40
0
 40
1
 40
1
 40
1
 40
1
 10
8.675170
 20
252.696569
 30
0.0
 10
8.675139
 20
252.762913
 30
0.0
 10
8.701481
 20
252.826548
 30
0.0
 10
8.748393
 20
252.873460
 30
0.0
  0
SPLINE
  5
15d
100
AcDbEntity
  8
Layer_1
 62
6
100
AcDbSpline
 70
8
 71
3
 72
8
 73
4
 74
0
 40
0
 40
0
 40
0
 40
0
 40
1
 40
1
 40
1
 40
1
 10
8.748393
 20
252.873460
 30
0.0
 10
8.795305
 20
252.920372
 30
0.0
 10
8.858940
 20
252.946713
 30
0.0
 10
8.925284
 20
252.946683
 30
0.0
  0
SPLINE
  5
15e
100
AcDbEntity
  8
Layer_1
 62
6
100
AcDbSpline
 70
8
 71
3
 72
8
 73
4
 74
0
 40
0
 40
0
 40
0
 40
0
 40
1
 40
1
 40
1
 40
1
 10
8.925284
 20
252.946683
 30
0.0
 10
8.932528
 20
252.946664
 30
0.0
 10
8.939768
 20
252.946331
 30
0.0
 10
8.946984
 20
252.945683
 30
0.0
  0
LINE
  5
15f
100
AcDbEntity
  8
Layer_1
 62
6
100
AcDbLine
 10
8.946984
 20
252.945683
 30
0.0
 11
9.186763
 21
255.685050
 31
0.0
  0
LINE
  5
160
100
AcDbEntity
  8
Layer_1
 62
6
100
AcDbLine
 10
9.186763
 20
255.685050
 30
0.0
 11
4.205676
 21
256.120651
 31
0.0
  0
LINE
  5
161
100
AcDbEntity
  8
Layer_1
 62
6
100
AcDbLine
 10
45.049664
 20
261.606319
 30
0.0
 11
51.149664
 21
261.606319
 31
0.0
  0
LINE
  5
162
100
AcDbEntity
  8
Layer_1
 62
6
100
AcDbLine
 10
51.149664
 20
261.606319
 30
0.0
 11
51.149664
 21
258.606319
 31
0.0
  0
LINE
  5
163
100
AcDbEntity
  8
Layer_1
 62
6
100
AcDbLine
 10
51.149664
 20
258.606319
 30
0.0
 11
45.049664
 21
258.606319
 31
0.0
  0
LINE
  5
164
100
AcDbEntity
  8
Layer_1
 62
6
100
AcDbLine
 10
45.049664
 20
258.606319
 30
0.0
 11
45.049664
 21
261.606319
 31
0.0
  0
LINE
  5
165
100
AcDbEntity
  8
Layer_1
 62
6
100
AcDbLine
 10
45.930401
 20
267.405712
 30
0.0
 11
50.410401
 21
267.405712
 31
0.0
  0
LINE
  5
166
100
AcDbEntity
  8
Layer_1
 62
6
100
AcDbLine
 10
50.410401
 20
267.405712
 30
0.0
 11
50.410401
 21
264.405712
 31
0.0
  0
LINE
  5
167
100
AcDbEntity
  8
Layer_1
 62
6
100
AcDbLine
 10
50.410401
 20
264.405712
 30
0.0
 11
45.930401
 21
264.405712
 31
0.0
  0
LINE
  5
168
100
AcDbEntity
  8
Layer_1
 62
6
100
AcDbLine
 10
45.930401
 20
264.405712
 30
0.0
 11
45.930401
 21
267.405712
 31
0.0
  0
LINE
  5
169
100
AcDbEntity
  8
Layer_1
 62
6
100
AcDbLine
 10
27.944192
 20
268.876603
 30
0.0
 11
27.944192
 21
280.876603
 31
0.0
  0
LINE
  5
16a
100
AcDbEntity
  8
Layer_1
 62
6
100
AcDbLine
 10
27.944192
 20
280.876603
 30
0.0
 11
39.944192
 21
280.876603
 31
0.0
  0
LINE
  5
16b
100
AcDbEntity
  8
Layer_1
 62
6
100
AcDbLine
 10
39.944192
 20
280.876603
 30
0.0
 11
39.944192
 21
256.876603
 31
0.0
  0
LINE
  5
16c
100
AcDbEntity
  8
Layer_1
 62
6
100
AcDbLine
 10
39.944192
 20
268.876603
 30
0.0
 11
27.944192
 21
268.876603
 31
0.0
  0
LINE
  5
16d
100
AcDbEntity
  8
Layer_1
 62
6
100
AcDbLine
 10
27.944192
 20
268.876603
 30
0.0
 11
27.944192
 21
256.876603
 31
0.0
  0
LINE
  5
16e
100
AcDbEntity
  8
Layer_1
 62
6
100
AcDbLine
 10
15.944192
 20
268.876603
 30
0.0
 11
15.944192
 21
280.876603
 31
0.0
  0
LINE
  5
16f
100
AcDbEntity
  8
Layer_1
 62
6
100
AcDbLine
 10
15.944192
 20
280.876603
 30
0.0
 11
27.944192
 21
280.876603
 31
0.0
  0
LINE
  5
170
100
AcDbEntity
  8
Layer_1
 62
6
100
AcDbLine
 10
15.944192
 20
268.876603
 30
0.0
 11
3.944193
 21
268.876603
 31
0.0
  0
LINE
  5
171
100
AcDbEntity
  8
Layer_1
 62
6
100
AcDbLine
 10
3.944193
 20
268.876603
 30
0.0
 11
3.944193
 21
256.876603
 31
0.0
  0
LINE
  5
172
100
AcDbEntity
  8
Layer_1
 62
6
100
AcDbLine
 10
3.944193
 20
256.876603
 30
0.0
 11
39.944192
 21
256.876603
 31
0.0
  0
LINE
  5
173
100
AcDbEntity
  8
Layer_1
 62
6
100
AcDbLine
 10
15.944192
 20
256.876603
 30
0.0
 11
15.944192
 21
268.876603
 31
0.0
  0
LINE
  5
174
100
AcDbEntity
  8
Layer_1
 62
6
100
AcDbLine
 10
15.944192
 20
268.876603
 30
0.0
 11
27.944192
 21
268.876603
 31
0.0
  0
LINE
  5
175
100
AcDbEntity
  8
Layer_1
 62
6
100
AcDbLine
 10
3.944193
 20
268.876603
 30
0.0
 11
3.944193
 21
280.876603
 31
0.0
  0
LINE
  5
176
100
AcDbEntity
  8
Layer_1
 62
6
100
AcDbLine
 10
3.944193
 20
280.876603
 30
0.0
 11
15.944192
 21
280.876603
 31
0.0
  0
SPLINE
  5
177
100
AcDbEntity
  8
Layer_1
 62
6
100
AcDbSpline
 70
8
 71
3
 72
8
 73
4
 74
0
 40
0
 40
0
 40
0
 40
0
 40
1
 40
1
 40
1
 40
1
 10
11.844192
 20
274.876601
 30
0.0
 10
11.844192
 20
274.372690
 30
0.0
 10
11.644014
 20
273.889417
 30
0.0
 10
11.287694
 20
273.533098
 30
0.0
  0
SPLINE
  5
178
100
AcDbEntity
  8
Layer_1
 62
6
100
AcDbSpline
 70
8
 71
3
 72
8
 73
4
 74
0
 40
0
 40
0
 40
0
 40
0
 40
1
 40
1
 40
1
 40
1
 10
11.287694
 20
273.533098
 30
0.0
 10
10.931375
 20
273.176780
 30
0.0
 10
10.448103
 20
272.976602
 30
0.0
 10
9.944192
 20
272.976602
 30
0.0
  0
SPLINE
  5
179
100
AcDbEntity
  8
Layer_1
 62
6
100
AcDbSpline
 70
8
 71
3
 72
8
 73
4
 74
0
 40
0
 40
0
 40
0
 40
0
 40
1
 40
1
 40
1
 40
1
 10
9.944192
 20
272.976602
 30
0.0
 10
8.894851
 20
272.976602
 30
0.0
 10
8.044193
 20
273.827261
 30
0.0
 10
8.044192
 20
274.876601
 30
0.0
  0
SPLINE
  5
17a
100
AcDbEntity
  8
Layer_1
 62
6
100
AcDbSpline
 70
8
 71
3
 72
8
 73
4
 74
0
 40
0
 40
0
 40
0
 40
0
 40
1
 40
1
 40
1
 40
1
 10
8.044192
 20
274.876601
 30
0.0
 10
8.044192
 20
275.380512
 30
0.0
 10
8.244370
 20
275.863785
 30
0.0
 10
8.600689
 20
276.220104
 30
0.0
  0
SPLINE
  5
17b
100
AcDbEntity
  8
Layer_1
 62
6
100
AcDbSpline
 70
8
 71
3
 72
8
 73
4
 74
0
 40
0
 40
0
 40
0
 40
0
 40
1
 40
1
 40
1
 40
1
 10
8.600689
 20
276.220104
 30
0.0
 10
8.957008
 20
276.576424
 30
0.0
 10
9.440280
 20
276.776602
 30
0.0
 10
9.944192
 20
276.776602
 30
0.0
  0
SPLINE
  5
17c
100
AcDbEntity
  8
Layer_1
 62
6
100
AcDbSpline
 70
8
 71
3
 72
8
 73
4
 74
0
 40
0
 40
0
 40
0
 40
0
 40
1
 40
1
 40
1
 40
1
 10
9.944192
 20
276.776602
 30
0.0
 10
10.448103
 20
276.776602
 30
0.0
 10
10.931376
 20
276.576424
 30
0.0
 10
11.287695
 20
276.220105
 30
0.0
  0
SPLINE
  5
17d
100
AcDbEntity
  8
Layer_1
 62
6
100
AcDbSpline
 70
8
 71
3
 72
8
 73
4
 74
0
 40
0
 40
0
 40
0
 40
0
 40
1
 40
1
 40
1
 40
1
 10
11.287695
 20
276.220105
 30
0.0
 10
11.644014
 20
275.863785
 30
0.0
 10
11.844192
 20
275.380513
 30
0.0
 10
11.844192
 20
274.876601
 30
0.0
  0
LINE
  5
17e
100
AcDbEntity
  8
Layer_1
 62
6
100
AcDbLine
 10
11.844192
 20
274.876601
 30
0.0
 11
11.844192
 21
274.876601
 31
0.0
  0
SPLINE
  5
17f
100
AcDbEntity
  8
Layer_1
 62
6
100
AcDbSpline
 70
8
 71
3
 72
8
 73
4
 74
0
 40
0
 40
0
 40
0
 40
0
 40
1
 40
1
 40
1
 40
1
 10
23.844192
 20
274.876601
 30
0.0
 10
23.844192
 20
274.372690
 30
0.0
 10
23.644014
 20
273.889417
 30
0.0
 10
23.287694
 20
273.533098
 30
0.0
  0
SPLINE
  5
180
100
AcDbEntity
  8
Layer_1
 62
6
100
AcDbSpline
 70
8
 71
3
 72
8
 73
4
 74
0
 40
0
 40
0
 40
0
 40
0
 40
1
 40
1
 40
1
 40
1
 10
23.287694
 20
273.533098
 30
0.0
 10
22.931375
 20
273.176779
 30
0.0
 10
22.448102
 20
272.976602
 30
0.0
 10
21.944191
 20
272.976602
 30
0.0
  0
SPLINE
  5
181
100
AcDbEntity
  8
Layer_1
 62
6
100
AcDbSpline
 70
8
 71
3
 72
8
 73
4
 74
0
 40
0
 40
0
 40
0
 40
0
 40
1
 40
1
 40
1
 40
1
 10
21.944191
 20
272.976602
 30
0.0
 10
20.894851
 20
272.976602
 30
0.0
 10
20.044192
 20
273.827261
 30
0.0
 10
20.044192
 20
274.876601
 30
0.0
  0
SPLINE
  5
182
100
AcDbEntity
  8
Layer_1
 62
6
100
AcDbSpline
 70
8
 71
3
 72
8
 73
4
 74
0
 40
0
 40
0
 40
0
 40
0
 40
1
 40
1
 40
1
 40
1
 10
20.044192
 20
274.876601
 30
0.0
 10
20.044192
 20
275.380512
 30
0.0
 10
20.244369
 20
275.863785
 30
0.0
 10
20.600688
 20
276.220104
 30
0.0
  0
SPLINE
  5
183
100
AcDbEntity
  8
Layer_1
 62
6
100
AcDbSpline
 70
8
 71
3
 72
8
 73
4
 74
0
 40
0
 40
0
 40
0
 40
0
 40
1
 40
1
 40
1
 40
1
 10
20.600688
 20
276.220104
 30
0.0
 10
20.957007
 20
276.576424
 30
0.0
 10
21.440280
 20
276.776602
 30
0.0
 10
21.944191
 20
276.776602
 30
0.0
  0
SPLINE
  5
184
100
AcDbEntity
  8
Layer_1
 62
6
100
AcDbSpline
 70
8
 71
3
 72
8
 73
4
 74
0
 40
0
 40
0
 40
0
 40
0
 40
1
 40
1
 40
1
 40
1
 10
21.944191
 20
276.776602
 30
0.0
 10
22.448103
 20
276.776602
 30
0.0
 10
22.931376
 20
276.576424
 30
0.0
 10
23.287695
 20
276.220105
 30
0.0
  0
SPLINE
  5
185
100
AcDbEntity
  8
Layer_1
 62
6
100
AcDbSpline
 70
8
 71
3
 72
8
 73
4
 74
0
 40
0
 40
0
 40
0
 40
0
 40
1
 40
1
 40
1
 40
1
 10
23.287695
 20
276.220105
 30
0.0
 10
23.644014
 20
275.863786
 30
0.0
 10
23.844192
 20
275.380513
 30
0.0
 10
23.844192
 20
274.876601
 30
0.0
  0
LINE
  5
186
100
AcDbEntity
  8
Layer_1
 62
6
100
AcDbLine
 10
23.844192
 20
274.876601
 30
0.0
 11
23.844192
 21
274.876601
 31
0.0
  0
SPLINE
  5
187
100
AcDbEntity
  8
Layer_1
 62
6
100
AcDbSpline
 70
8
 71
3
 72
8
 73
4
 74
0
 40
0
 40
0
 40
0
 40
0
 40
1
 40
1
 40
1
 40
1
 10
35.844192
 20
274.876601
 30
0.0
 10
35.844192
 20
274.372690
 30
0.0
 10
35.644014
 20
273.889417
 30
0.0
 10
35.287694
 20
273.533098
 30
0.0
  0
SPLINE
  5
188
100
AcDbEntity
  8
Layer_1
 62
6
100
AcDbSpline
 70
8
 71
3
 72
8
 73
4
 74
0
 40
0
 40
0
 40
0
 40
0
 40
1
 40
1
 40
1
 40
1
 10
35.287694
 20
273.533098
 30
0.0
 10
34.931375
 20
273.176779
 30
0.0
 10
34.448102
 20
272.976602
 30
0.0
 10
33.944191
 20
272.976602
 30
0.0
  0
SPLINE
  5
189
100
AcDbEntity
  8
Layer_1
 62
6
100
AcDbSpline
 70
8
 71
3
 72
8
 73
4
 74
0
 40
0
 40
0
 40
0
 40
0
 40
1
 40
1
 40
1
 40
1
 10
33.944191
 20
272.976602
 30
0.0
 10
32.894851
 20
272.976602
 30
0.0
 10
32.044192
 20
273.827261
 30
0.0
 10
32.044192
 20
274.876601
 30
0.0
  0
SPLINE
  5
18a
100
AcDbEntity
  8
Layer_1
 62
6
100
AcDbSpline
 70
8
 71
3
 72
8
 73
4
 74
0
 40
0
 40
0
 40
0
 40
0
 40
1
 40
1
 40
1
 40
1
 10
32.044192
 20
274.876601
 30
0.0
 10
32.044192
 20
275.380512
 30
0.0
 10
32.244369
 20
275.863785
 30
0.0
 10
32.600688
 20
276.220104
 30
0.0
  0
SPLINE
  5
18b
100
AcDbEntity
  8
Layer_1
 62
6
100
AcDbSpline
 70
8
 71
3
 72
8
 73
4
 74
0
 40
0
 40
0
 40
0
 40
0
 40
1
 40
1
 40
1
 40
1
 10
32.600688
 20
276.220104
 30
0.0
 10
32.957007
 20
276.576424
 30
0.0
 10
33.440280
 20
276.776602
 30
0.0
 10
33.944191
 20
276.776602
 30
0.0
  0
SPLINE
  5
18c
100
AcDbEntity
  8
Layer_1
 62
6
100
AcDbSpline
 70
8
 71
3
 72
8
 73
4
 74
0
 40
0
 40
0
 40
0
 40
0
 40
1
 40
1
 40
1
 40
1
 10
33.944191
 20
276.776602
 30
0.0
 10
34.448103
 20
276.776602
 30
0.0
 10
34.931376
 20
276.576424
 30
0.0
 10
35.287695
 20
276.220105
 30
0.0
  0
SPLINE
  5
18d
100
AcDbEntity
  8
Layer_1
 62
6
100
AcDbSpline
 70
8
 71
3
 72
8
 73
4
 74
0
 40
0
 40
0
 40
0
 40
0
 40
1
 40
1
 40
1
 40
1
 10
35.287695
 20
276.220105
 30
0.0
 10
35.644014
 20
275.863786
 30
0.0
 10
35.844192
 20
275.380513
 30
0.0
 10
35.844192
 20
274.876601
 30
0.0
  0
LINE
  5
18e
100
AcDbEntity
  8
Layer_1
 62
6
100
AcDbLine
 10
35.844192
 20
274.876601
 30
0.0
 11
35.844192
 21
274.876601
 31
0.0
  0
SPLINE
  5
18f
100
AcDbEntity
  8
Layer_1
 62
6
100
AcDbSpline
 70
8
 71
3
 72
8
 73
4
 74
0
 40
0
 40
0
 40
0
 40
0
 40
1
 40
1
 40
1
 40
1
 10
11.844192
 20
262.876602
 30
0.0
 10
11.844192
 20
262.372691
 30
0.0
 10
11.644014
 20
261.889418
 30
0.0
 10
11.287695
 20
261.533099
 30
0.0
  0
SPLINE
  5
190
100
AcDbEntity
  8
Layer_1
 62
6
100
AcDbSpline
 70
8
 71
3
 72
8
 73
4
 74
0
 40
0
 40
0
 40
0
 40
0
 40
1
 40
1
 40
1
 40
1
 10
11.287695
 20
261.533099
 30
0.0
 10
10.931376
 20
261.176780
 30
0.0
 10
10.448103
 20
260.976602
 30
0.0
 10
9.944192
 20
260.976602
 30
0.0
  0
SPLINE
  5
191
100
AcDbEntity
  8
Layer_1
 62
6
100
AcDbSpline
 70
8
 71
3
 72
8
 73
4
 74
0
 40
0
 40
0
 40
0
 40
0
 40
1
 40
1
 40
1
 40
1
 10
9.944192
 20
260.976602
 30
0.0
 10
8.894851
 20
260.976602
 30
0.0
 10
8.044192
 20
261.827261
 30
0.0
 10
8.044192
 20
262.876602
 30
0.0
  0
SPLINE
  5
192
100
AcDbEntity
  8
Layer_1
 62
6
100
AcDbSpline
 70
8
 71
3
 72
8
 73
4
 74
0
 40
0
 40
0
 40
0
 40
0
 40
1
 40
1
 40
1
 40
1
 10
8.044192
 20
262.876602
 30
0.0
 10
8.044192
 20
263.925943
 30
0.0
 10
8.894851
 20
264.776602
 30
0.0
 10
9.944192
 20
264.776602
 30
0.0
  0
SPLINE
  5
193
100
AcDbEntity
  8
Layer_1
 62
6
100
AcDbSpline
 70
8
 71
3
 72
8
 73
4
 74
0
 40
0
 40
0
 40
0
 40
0
 40
1
 40
1
 40
1
 40
1
 10
9.944192
 20
264.776602
 30
0.0
 10
10.448103
 20
264.776602
 30
0.0
 10
10.931376
 20
264.576424
 30
0.0
 10
11.287695
 20
264.220105
 30
0.0
  0
SPLINE
  5
194
100
AcDbEntity
  8
Layer_1
 62
6
100
AcDbSpline
 70
8
 71
3
 72
8
 73
4
 74
0
 40
0
 40
0
 40
0
 40
0
 40
1
 40
1
 40
1
 40
1
 10
11.287695
 20
264.220105
 30
0.0
 10
11.644014
 20
263.863786
 30
0.0
 10
11.844192
 20
263.380513
 30
0.0
 10
11.844192
 20
262.876602
 30
0.0
  0
LINE
  5
195
100
AcDbEntity
  8
Layer_1
 62
6
100
AcDbLine
 10
11.844192
 20
262.876602
 30
0.0
 11
11.844192
 21
262.876602
 31
0.0
  0
SPLINE
  5
196
100
AcDbEntity
  8
Layer_1
 62
6
100
AcDbSpline
 70
8
 71
3
 72
8
 73
4
 74
0
 40
0
 40
0
 40
0
 40
0
 40
1
 40
1
 40
1
 40
1
 10
23.844192
 20
262.876603
 30
0.0
 10
23.844192
 20
262.372692
 30
0.0
 10
23.644014
 20
261.889419
 30
0.0
 10
23.287694
 20
261.533100
 30
0.0
  0
SPLINE
  5
197
100
AcDbEntity
  8
Layer_1
 62
6
100
AcDbSpline
 70
8
 71
3
 72
8
 73
4
 74
0
 40
0
 40
0
 40
0
 40
0
 40
1
 40
1
 40
1
 40
1
 10
23.287694
 20
261.533100
 30
0.0
 10
22.931375
 20
261.176781
 30
0.0
 10
22.448102
 20
260.976604
 30
0.0
 10
21.944191
 20
260.976604
 30
0.0
  0
SPLINE
  5
198
100
AcDbEntity
  8
Layer_1
 62
6
100
AcDbSpline
 70
8
 71
3
 72
8
 73
4
 74
0
 40
0
 40
0
 40
0
 40
0
 40
1
 40
1
 40
1
 40
1
 10
21.944191
 20
260.976604
 30
0.0
 10
20.894851
 20
260.976604
 30
0.0
 10
20.044192
 20
261.827263
 30
0.0
 10
20.044192
 20
262.876603
 30
0.0
  0
SPLINE
  5
199
100
AcDbEntity
  8
Layer_1
 62
6
100
AcDbSpline
 70
8
 71
3
 72
8
 73
4
 74
0
 40
0
 40
0
 40
0
 40
0
 40
1
 40
1
 40
1
 40
1
 10
20.044192
 20
262.876603
 30
0.0
 10
20.044192
 20
263.380514
 30
0.0
 10
20.244369
 20
263.863787
 30
0.0
 10
20.600688
 20
264.220106
 30
0.0
  0
SPLINE
  5
19a
100
AcDbEntity
  8
Layer_1
 62
6
100
AcDbSpline
 70
8
 71
3
 72
8
 73
4
 74
0
 40
0
 40
0
 40
0
 40
0
 40
1
 40
1
 40
1
 40
1
 10
20.600688
 20
264.220106
 30
0.0
 10
20.957007
 20
264.576426
 30
0.0
 10
21.440280
 20
264.776604
 30
0.0
 10
21.944191
 20
264.776604
 30
0.0
  0
SPLINE
  5
19b
100
AcDbEntity
  8
Layer_1
 62
6
100
AcDbSpline
 70
8
 71
3
 72
8
 73
4
 74
0
 40
0
 40
0
 40
0
 40
0
 40
1
 40
1
 40
1
 40
1
 10
21.944191
 20
264.776604
 30
0.0
 10
22.448103
 20
264.776604
 30
0.0
 10
22.931376
 20
264.576426
 30
0.0
 10
23.287695
 20
264.220107
 30
0.0
  0
SPLINE
  5
19c
100
AcDbEntity
  8
Layer_1
 62
6
100
AcDbSpline
 70
8
 71
3
 72
8
 73
4
 74
0
 40
0
 40
0
 40
0
 40
0
 40
1
 40
1
 40
1
 40
1
 10
23.287695
 20
264.220107
 30
0.0
 10
23.644014
 20
263.863788
 30
0.0
 10
23.844192
 20
263.380515
 30
0.0
 10
23.844192
 20
262.876603
 30
0.0
  0
LINE
  5
19d
100
AcDbEntity
  8
Layer_1
 62
6
100
AcDbLine
 10
23.844192
 20
262.876603
 30
0.0
 11
23.844192
 21
262.876603
 31
0.0
  0
SPLINE
  5
19e
100
AcDbEntity
  8
Layer_1
 62
3
100
AcDbSpline
 70
8
 71
3
 72
8
 73
4
 74
0
 40
0
 40
0
 40
0
 40
0
 40
1
 40
1
 40
1
 40
1
 10
35.844181
 20
262.876758
 30
0.0
 10
35.844181
 20
261.827417
 30
0.0
 10
34.993522
 20
260.976759
 30
0.0
 10
33.944181
 20
260.976759
 30
0.0
  0
SPLINE
  5
19f
100
AcDbEntity
  8
Layer_1
 62
3
100
AcDbSpline
 70
8
 71
3
 72
8
 73
4
 74
0
 40
0
 40
0
 40
0
 40
0
 40
1
 40
1
 40
1
 40
1
 10
33.944181
 20
260.976759
 30
0.0
 10
32.894840
 20
260.976759
 30
0.0
 10
32.044181
 20
261.827417
 30
0.0
 10
32.044181
 20
262.876758
 30
0.0
  0
SPLINE
  5
1a0
100
AcDbEntity
  8
Layer_1
 62
3
100
AcDbSpline
 70
8
 71
3
 72
8
 73
4
 74
0
 40
0
 40
0
 40
0
 40
0
 40
1
 40
1
 40
1
 40
1
 10
32.044181
 20
262.876758
 30
0.0
 10
32.044181
 20
263.380670
 30
0.0
 10
32.244359
 20
263.863942
 30
0.0
 10
32.600678
 20
264.220262
 30
0.0
  0
SPLINE
  5
1a1
100
AcDbEntity
  8
Layer_1
 62
3
100
AcDbSpline
 70
8
 71
3
 72
8
 73
4
 74
0
 40
0
 40
0
 40
0
 40
0
 40
1
 40
1
 40
1
 40
1
 10
32.600678
 20
264.220262
 30
0.0
 10
32.956997
 20
264.576581
 30
0.0
 10
33.440269
 20
264.776759
 30
0.0
 10
33.944181
 20
264.776759
 30
0.0
  0
SPLINE
  5
1a2
100
AcDbEntity
  8
Layer_1
 62
3
100
AcDbSpline
 70
8
 71
3
 72
8
 73
4
 74
0
 40
0
 40
0
 40
0
 40
0
 40
1
 40
1
 40
1
 40
1
 10
33.944181
 20
264.776759
 30
0.0
 10
34.448093
 20
264.776759
 30
0.0
 10
34.931365
 20
264.576581
 30
0.0
 10
35.287684
 20
264.220262
 30
0.0
  0
SPLINE
  5
1a3
100
AcDbEntity
  8
Layer_1
 62
3
100
AcDbSpline
 70
8
 71
3
 72
8
 73
4
 74
0
 40
0
 40
0
 40
0
 40
0
 40
1
 40
1
 40
1
 40
1
 10
35.287684
 20
264.220262
 30
0.0
 10
35.644003
 20
263.863942
 30
0.0
 10
35.844181
 20
263.380670
 30
0.0
 10
35.844181
 20
262.876758
 30
0.0
  0
LINE
  5
1a4
100
AcDbEntity
  8
Layer_1
 62
3
100
AcDbLine
 10
35.844181
 20
262.876758
 30
0.0
 11
35.844181
 21
262.876758
 31
0.0
  0
SPLINE
  5
1a5
100
AcDbEntity
  8
Layer_1
 62
3
100
AcDbSpline
 70
8
 71
3
 72
8
 73
4
 74
0
 40
0
 40
0
 40
0
 40
0
 40
1
 40
1
 40
1
 40
1
 10
44.680622
 20
263.106461
 30
0.0
 10
44.680622
 20
262.554176
 30
0.0
 10
44.232907
 20
262.106461
 30
0.0
 10
43.680622
 20
262.106461
 30
0.0
  0
SPLINE
  5
1a6
100
AcDbEntity
  8
Layer_1
 62
3
100
AcDbSpline
 70
8
 71
3
 72
8
 73
4
 74
0
 40
0
 40
0
 40
0
 40
0
 40
1
 40
1
 40
1
 40
1
 10
43.680622
 20
262.106461
 30
0.0
 10
43.128337
 20
262.106461
 30
0.0
 10
42.680622
 20
262.554176
 30
0.0
 10
42.680622
 20
263.106461
 30
0.0
  0
SPLINE
  5
1a7
100
AcDbEntity
  8
Layer_1
 62
3
100
AcDbSpline
 70
8
 71
3
 72
8
 73
4
 74
0
 40
0
 40
0
 40
0
 40
0
 40
1
 40
1
 40
1
 40
1
 10
42.680622
 20
263.106461
 30
0.0
 10
42.680622
 20
263.658746
 30
0.0
 10
43.128337
 20
264.106461
 30
0.0
 10
43.680622
 20
264.106461
 30
0.0
  0
SPLINE
  5
1a8
100
AcDbEntity
  8
Layer_1
 62
3
100
AcDbSpline
 70
8
 71
3
 72
8
 73
4
 74
0
 40
0
 40
0
 40
0
 40
0
 40
1
 40
1
 40
1
 40
1
 10
43.680622
 20
264.106461
 30
0.0
 10
44.232907
 20
264.106461
 30
0.0
 10
44.680622
 20
263.658746
 30
0.0
 10
44.680622
 20
263.106461
 30
0.0
  0
LINE
  5
1a9
100
AcDbEntity
  8
Layer_1
 62
3
100
AcDbLine
 10
44.680622
 20
263.106461
 30
0.0
 11
44.680622
 21
263.106461
 31
0.0
  0
LINE
  5
1aa
100
AcDbEntity
  8
Layer_1
 62
7
100
AcDbLine
 10
40.273354
 20
266.853790
 30
0.0
 11
46.971503
 21
266.853790
 31
0.0
  0
LINE
  5
1ab
100
AcDbEntity
  8
Layer_1
 62
7
100
AcDbLine
 10
46.971503
 20
266.853790
 30
0.0
 11
46.971503
 21
258.835704
 31
0.0
  0
LINE
  5
1ac
100
AcDbEntity
  8
Layer_1
 62
7
100
AcDbLine
 10
46.971503
 20
258.835704
 30
0.0
 11
40.273354
 21
258.835704
 31
0.0
  0
LINE
  5
1ad
100
AcDbEntity
  8
Layer_1
 62
7
100
AcDbLine
 10
40.273354
 20
258.835704
 30
0.0
 11
40.273354
 21
266.853790
 31
0.0
  0
LINE
  5
1ae
100
AcDbEntity
  8
Layer_1
 62
6
100
AcDbLine
 10
42.153912
 20
270.294758
 30
0.0
 11
53.682187
 21
270.294758
 31
0.0
  0
LINE
  5
1af
100
AcDbEntity
  8
Layer_1
 62
6
100
AcDbLine
 10
53.682187
 20
270.294758
 30
0.0
 11
53.682187
 21
256.876603
 31
0.0
  0
LINE
  5
1b0
100
AcDbEntity
  8
Layer_1
 62
6
100
AcDbLine
 10
53.682187
 20
256.876603
 30
0.0
 11
42.153912
 21
256.876603
 31
0.0
  0
LINE
  5
1b1
100
AcDbEntity
  8
Layer_1
 62
6
100
AcDbLine
 10
42.153912
 20
256.876603
 30
0.0
 11
42.153912
 21
270.294758
 31
0.0
  0
SPLINE
  5
1b2
100
AcDbEntity
  8
Layer_1
 62
6
100
AcDbSpline
 70
8
 71
3
 72
8
 73
4
 74
0
 40
0
 40
0
 40
0
 40
0
 40
1
 40
1
 40
1
 40
1
 10
35.444192
 20
274.876603
 30
0.0
 10
35.444192
 20
274.478778
 30
0.0
 10
35.286157
 20
274.097247
 30
0.0
 10
35.004852
 20
273.815943
 30
0.0
  0
SPLINE
  5
1b3
100
AcDbEntity
  8
Layer_1
 62
6
100
AcDbSpline
 70
8
 71
3
 72
8
 73
4
 74
0
 40
0
 40
0
 40
0
 40
0
 40
1
 40
1
 40
1
 40
1
 10
35.004852
 20
273.815943
 30
0.0
 10
34.723548
 20
273.534638
 30
0.0
 10
34.342017
 20
273.376603
 30
0.0
 10
33.944192
 20
273.376603
 30
0.0
  0
SPLINE
  5
1b4
100
AcDbEntity
  8
Layer_1
 62
6
100
AcDbSpline
 70
8
 71
3
 72
8
 73
4
 74
0
 40
0
 40
0
 40
0
 40
0
 40
1
 40
1
 40
1
 40
1
 10
33.944192
 20
273.376603
 30
0.0
 10
33.546367
 20
273.376603
 30
0.0
 10
33.164836
 20
273.534638
 30
0.0
 10
32.883532
 20
273.815943
 30
0.0
  0
SPLINE
  5
1b5
100
AcDbEntity
  8
Layer_1
 62
6
100
AcDbSpline
 70
8
 71
3
 72
8
 73
4
 74
0
 40
0
 40
0
 40
0
 40
0
 40
1
 40
1
 40
1
 40
1
 10
32.883532
 20
273.815943
 30
0.0
 10
32.602227
 20
274.097247
 30
0.0
 10
32.444192
 20
274.478778
 30
0.0
 10
32.444192
 20
274.876603
 30
0.0
  0
SPLINE
  5
1b6
100
AcDbEntity
  8
Layer_1
 62
6
100
AcDbSpline
 70
8
 71
3
 72
8
 73
4
 74
0
 40
0
 40
0
 40
0
 40
0
 40
1
 40
1
 40
1
 40
1
 10
32.444192
 20
274.876603
 30
0.0
 10
32.444192
 20
275.705030
 30
0.0
 10
33.115765
 20
276.376602
 30
0.0
 10
33.944192
 20
276.376602
 30
0.0
  0
SPLINE
  5
1b7
100
AcDbEntity
  8
Layer_1
 62
6
100
AcDbSpline
 70
8
 71
3
 72
8
 73
4
 74
0
 40
0
 40
0
 40
0
 40
0
 40
1
 40
1
 40
1
 40
1
 10
33.944192
 20
276.376602
 30
0.0
 10
34.772619
 20
276.376602
 30
0.0
 10
35.444192
 20
275.705030
 30
0.0
 10
35.444192
 20
274.876603
 30
0.0
  0
LINE
  5
1b8
100
AcDbEntity
  8
Layer_1
 62
6
100
AcDbLine
 10
35.444192
 20
274.876603
 30
0.0
 11
35.444192
 21
274.876603
 31
0.0
  0
SPLINE
  5
1b9
100
AcDbEntity
  8
Layer_1
 62
6
100
AcDbSpline
 70
8
 71
3
 72
8
 73
4
 74
0
 40
0
 40
0
 40
0
 40
0
 40
1
 40
1
 40
1
 40
1
 10
23.444192
 20
274.876603
 30
0.0
 10
23.444192
 20
274.478778
 30
0.0
 10
23.286157
 20
274.097247
 30
0.0
 10
23.004852
 20
273.815943
 30
0.0
  0
SPLINE
  5
1ba
100
AcDbEntity
  8
Layer_1
 62
6
100
AcDbSpline
 70
8
 71
3
 72
8
 73
4
 74
0
 40
0
 40
0
 40
0
 40
0
 40
1
 40
1
 40
1
 40
1
 10
23.004852
 20
273.815943
 30
0.0
 10
22.723548
 20
273.534638
 30
0.0
 10
22.342017
 20
273.376603
 30
0.0
 10
21.944192
 20
273.376603
 30
0.0
  0
SPLINE
  5
1bb
100
AcDbEntity
  8
Layer_1
 62
6
100
AcDbSpline
 70
8
 71
3
 72
8
 73
4
 74
0
 40
0
 40
0
 40
0
 40
0
 40
1
 40
1
 40
1
 40
1
 10
21.944192
 20
273.376603
 30
0.0
 10
21.546367
 20
273.376603
 30
0.0
 10
21.164836
 20
273.534638
 30
0.0
 10
20.883532
 20
273.815943
 30
0.0
  0
SPLINE
  5
1bc
100
AcDbEntity
  8
Layer_1
 62
6
100
AcDbSpline
 70
8
 71
3
 72
8
 73
4
 74
0
 40
0
 40
0
 40
0
 40
0
 40
1
 40
1
 40
1
 40
1
 10
20.883532
 20
273.815943
 30
0.0
 10
20.602227
 20
274.097247
 30
0.0
 10
20.444192
 20
274.478778
 30
0.0
 10
20.444192
 20
274.876603
 30
0.0
  0
SPLINE
  5
1bd
100
AcDbEntity
  8
Layer_1
 62
6
100
AcDbSpline
 70
8
 71
3
 72
8
 73
4
 74
0
 40
0
 40
0
 40
0
 40
0
 40
1
 40
1
 40
1
 40
1
 10
20.444192
 20
274.876603
 30
0.0
 10
20.444192
 20
275.705030
 30
0.0
 10
21.115765
 20
276.376602
 30
0.0
 10
21.944192
 20
276.376602
 30
0.0
  0
SPLINE
  5
1be
100
AcDbEntity
  8
Layer_1
 62
6
100
AcDbSpline
 70
8
 71
3
 72
8
 73
4
 74
0
 40
0
 40
0
 40
0
 40
0
 40
1
 40
1
 40
1
 40
1
 10
21.944192
 20
276.376602
 30
0.0
 10
22.772619
 20
276.376602
 30
0.0
 10
23.444192
 20
275.705030
 30
0.0
 10
23.444192
 20
274.876603
 30
0.0
  0
LINE
  5
1bf
100
AcDbEntity
  8
Layer_1
 62
6
100
AcDbLine
 10
23.444192
 20
274.876603
 30
0.0
 11
23.444192
 21
274.876603
 31
0.0
  0
SPLINE
  5
1c0
100
AcDbEntity
  8
Layer_1
 62
6
100
AcDbSpline
 70
8
 71
3
 72
8
 73
4
 74
0
 40
0
 40
0
 40
0
 40
0
 40
1
 40
1
 40
1
 40
1
 10
11.444192
 20
274.876603
 30
0.0
 10
11.444192
 20
274.478778
 30
0.0
 10
11.286157
 20
274.097247
 30
0.0
 10
11.004852
 20
273.815943
 30
0.0
  0
SPLINE
  5
1c1
100
AcDbEntity
  8
Layer_1
 62
6
100
AcDbSpline
 70
8
 71
3
 72
8
 73
4
 74
0
 40
0
 40
0
 40
0
 40
0
 40
1
 40
1
 40
1
 40
1
 10
11.004852
 20
273.815943
 30
0.0
 10
10.723548
 20
273.534638
 30
0.0
 10
10.342017
 20
273.376603
 30
0.0
 10
9.944192
 20
273.376603
 30
0.0
  0
SPLINE
  5
1c2
100
AcDbEntity
  8
Layer_1
 62
6
100
AcDbSpline
 70
8
 71
3
 72
8
 73
4
 74
0
 40
0
 40
0
 40
0
 40
0
 40
1
 40
1
 40
1
 40
1
 10
9.944192
 20
273.376603
 30
0.0
 10
9.546368
 20
273.376603
 30
0.0
 10
9.164837
 20
273.534638
 30
0.0
 10
8.883532
 20
273.815943
 30
0.0
  0
SPLINE
  5
1c3
100
AcDbEntity
  8
Layer_1
 62
6
100
AcDbSpline
 70
8
 71
3
 72
8
 73
4
 74
0
 40
0
 40
0
 40
0
 40
0
 40
1
 40
1
 40
1
 40
1
 10
8.883532
 20
273.815943
 30
0.0
 10
8.602227
 20
274.097247
 30
0.0
 10
8.444192
 20
274.478778
 30
0.0
 10
8.444192
 20
274.876603
 30
0.0
  0
SPLINE
  5
1c4
100
AcDbEntity
  8
Layer_1
 62
6
100
AcDbSpline
 70
8
 71
3
 72
8
 73
4
 74
0
 40
0
 40
0
 40
0
 40
0
 40
1
 40
1
 40
1
 40
1
 10
8.444192
 20
274.876603
 30
0.0
 10
8.444193
 20
275.705030
 30
0.0
 10
9.115766
 20
276.376602
 30
0.0
 10
9.944192
 20
276.376602
 30
0.0
  0
SPLINE
  5
1c5
100
AcDbEntity
  8
Layer_1
 62
6
100
AcDbSpline
 70
8
 71
3
 72
8
 73
4
 74
0
 40
0
 40
0
 40
0
 40
0
 40
1
 40
1
 40
1
 40
1
 10
9.944192
 20
276.376602
 30
0.0
 10
10.772619
 20
276.376602
 30
0.0
 10
11.444192
 20
275.705030
 30
0.0
 10
11.444192
 20
274.876603
 30
0.0
  0
LINE
  5
1c6
100
AcDbEntity
  8
Layer_1
 62
6
100
AcDbLine
 10
11.444192
 20
274.876603
 30
0.0
 11
11.444192
 21
274.876603
 31
0.0
  0
SPLINE
  5
1c7
100
AcDbEntity
  8
Layer_1
 62
6
100
AcDbSpline
 70
8
 71
3
 72
8
 73
4
 74
0
 40
0
 40
0
 40
0
 40
0
 40
1
 40
1
 40
1
 40
1
 10
11.444192
 20
262.876603
 30
0.0
 10
11.444192
 20
262.478778
 30
0.0
 10
11.286157
 20
262.097247
 30
0.0
 10
11.004852
 20
261.815943
 30
0.0
  0
SPLINE
  5
1c8
100
AcDbEntity
  8
Layer_1
 62
6
100
AcDbSpline
 70
8
 71
3
 72
8
 73
4
 74
0
 40
0
 40
0
 40
0
 40
0
 40
1
 40
1
 40
1
 40
1
 10
11.004852
 20
261.815943
 30
0.0
 10
10.723548
 20
261.534638
 30
0.0
 10
10.342017
 20
261.376603
 30
0.0
 10
9.944192
 20
261.376603
 30
0.0
  0
SPLINE
  5
1c9
100
AcDbEntity
  8
Layer_1
 62
6
100
AcDbSpline
 70
8
 71
3
 72
8
 73
4
 74
0
 40
0
 40
0
 40
0
 40
0
 40
1
 40
1
 40
1
 40
1
 10
9.944192
 20
261.376603
 30
0.0
 10
9.546368
 20
261.376603
 30
0.0
 10
9.164837
 20
261.534638
 30
0.0
 10
8.883532
 20
261.815943
 30
0.0
  0
SPLINE
  5
1ca
100
AcDbEntity
  8
Layer_1
 62
6
100
AcDbSpline
 70
8
 71
3
 72
8
 73
4
 74
0
 40
0
 40
0
 40
0
 40
0
 40
1
 40
1
 40
1
 40
1
 10
8.883532
 20
261.815943
 30
0.0
 10
8.602227
 20
262.097247
 30
0.0
 10
8.444192
 20
262.478778
 30
0.0
 10
8.444192
 20
262.876603
 30
0.0
  0
SPLINE
  5
1cb
100
AcDbEntity
  8
Layer_1
 62
6
100
AcDbSpline
 70
8
 71
3
 72
8
 73
4
 74
0
 40
0
 40
0
 40
0
 40
0
 40
1
 40
1
 40
1
 40
1
 10
8.444192
 20
262.876603
 30
0.0
 10
8.444193
 20
263.705030
 30
0.0
 10
9.115766
 20
264.376602
 30
0.0
 10
9.944192
 20
264.376602
 30
0.0
  0
SPLINE
  5
1cc
100
AcDbEntity
  8
Layer_1
 62
6
100
AcDbSpline
 70
8
 71
3
 72
8
 73
4
 74
0
 40
0
 40
0
 40
0
 40
0
 40
1
 40
1
 40
1
 40
1
 10
9.944192
 20
264.376602
 30
0.0
 10
10.772619
 20
264.376602
 30
0.0
 10
11.444192
 20
263.705030
 30
0.0
 10
11.444192
 20
262.876603
 30
0.0
  0
LINE
  5
1cd
100
AcDbEntity
  8
Layer_1
 62
6
100
AcDbLine
 10
11.444192
 20
262.876603
 30
0.0
 11
11.444192
 21
262.876603
 31
0.0
  0
SPLINE
  5
1ce
100
AcDbEntity
  8
Layer_1
 62
6
100
AcDbSpline
 70
8
 71
3
 72
8
 73
4
 74
0
 40
0
 40
0
 40
0
 40
0
 40
1
 40
1
 40
1
 40
1
 10
23.444192
 20
262.876605
 30
0.0
 10
23.444192
 20
262.478780
 30
0.0
 10
23.286157
 20
262.097249
 30
0.0
 10
23.004852
 20
261.815945
 30
0.0
  0
SPLINE
  5
1cf
100
AcDbEntity
  8
Layer_1
 62
6
100
AcDbSpline
 70
8
 71
3
 72
8
 73
4
 74
0
 40
0
 40
0
 40
0
 40
0
 40
1
 40
1
 40
1
 40
1
 10
23.004852
 20
261.815945
 30
0.0
 10
22.723548
 20
261.534640
 30
0.0
 10
22.342017
 20
261.376605
 30
0.0
 10
21.944192
 20
261.376605
 30
0.0
  0
SPLINE
  5
1d0
100
AcDbEntity
  8
Layer_1
 62
6
100
AcDbSpline
 70
8
 71
3
 72
8
 73
4
 74
0
 40
0
 40
0
 40
0
 40
0
 40
1
 40
1
 40
1
 40
1
 10
21.944192
 20
261.376605
 30
0.0
 10
21.546367
 20
261.376605
 30
0.0
 10
21.164836
 20
261.534640
 30
0.0
 10
20.883532
 20
261.815945
 30
0.0
  0
SPLINE
  5
1d1
100
AcDbEntity
  8
Layer_1
 62
6
100
AcDbSpline
 70
8
 71
3
 72
8
 73
4
 74
0
 40
0
 40
0
 40
0
 40
0
 40
1
 40
1
 40
1
 40
1
 10
20.883532
 20
261.815945
 30
0.0
 10
20.602227
 20
262.097249
 30
0.0
 10
20.444192
 20
262.478780
 30
0.0
 10
20.444192
 20
262.876605
 30
0.0
  0
SPLINE
  5
1d2
100
AcDbEntity
  8
Layer_1
 62
6
100
AcDbSpline
 70
8
 71
3
 72
8
 73
4
 74
0
 40
0
 40
0
 40
0
 40
0
 40
1
 40
1
 40
1
 40
1
 10
20.444192
 20
262.876605
 30
0.0
 10
20.444192
 20
263.705032
 30
0.0
 10
21.115765
 20
264.376604
 30
0.0
 10
21.944192
 20
264.376604
 30
0.0
  0
SPLINE
  5
1d3
100
AcDbEntity
  8
Layer_1
 62
6
100
AcDbSpline
 70
8
 71
3
 72
8
 73
4
 74
0
 40
0
 40
0
 40
0
 40
0
 40
1
 40
1
 40
1
 40
1
 10
21.944192
 20
264.376604
 30
0.0
 10
22.772619
 20
264.376604
 30
0.0
 10
23.444192
 20
263.705032
 30
0.0
 10
23.444192
 20
262.876605
 30
0.0
  0
LINE
  5
1d4
100
AcDbEntity
  8
Layer_1
 62
6
100
AcDbLine
 10
23.444192
 20
262.876605
 30
0.0
 11
23.444192
 21
262.876605
 31
0.0
  0
SPLINE
  5
1d5
100
AcDbEntity
  8
Layer_1
 62
6
100
AcDbSpline
 70
8
 71
3
 72
8
 73
4
 74
0
 40
0
 40
0
 40
0
 40
0
 40
1
 40
1
 40
1
 40
1
 10
23.444192
 20
262.876605
 30
0.0
 10
23.444192
 20
262.478780
 30
0.0
 10
23.286157
 20
262.097249
 30
0.0
 10
23.004852
 20
261.815945
 30
0.0
  0
SPLINE
  5
1d6
100
AcDbEntity
  8
Layer_1
 62
6
100
AcDbSpline
 70
8
 71
3
 72
8
 73
4
 74
0
 40
0
 40
0
 40
0
 40
0
 40
1
 40
1
 40
1
 40
1
 10
23.004852
 20
261.815945
 30
0.0
 10
22.723548
 20
261.534640
 30
0.0
 10
22.342017
 20
261.376605
 30
0.0
 10
21.944192
 20
261.376605
 30
0.0
  0
SPLINE
  5
1d7
100
AcDbEntity
  8
Layer_1
 62
6
100
AcDbSpline
 70
8
 71
3
 72
8
 73
4
 74
0
 40
0
 40
0
 40
0
 40
0
 40
1
 40
1
 40
1
 40
1
 10
21.944192
 20
261.376605
 30
0.0
 10
21.546367
 20
261.376605
 30
0.0
 10
21.164836
 20
261.534640
 30
0.0
 10
20.883532
 20
261.815945
 30
0.0
  0
SPLINE
  5
1d8
100
AcDbEntity
  8
Layer_1
 62
6
100
AcDbSpline
 70
8
 71
3
 72
8
 73
4
 74
0
 40
0
 40
0
 40
0
 40
0
 40
1
 40
1
 40
1
 40
1
 10
20.883532
 20
261.815945
 30
0.0
 10
20.602227
 20
262.097249
 30
0.0
 10
20.444192
 20
262.478780
 30
0.0
 10
20.444192
 20
262.876605
 30
0.0
  0
SPLINE
  5
1d9
100
AcDbEntity
  8
Layer_1
 62
6
100
AcDbSpline
 70
8
 71
3
 72
8
 73
4
 74
0
 40
0
 40
0
 40
0
 40
0
 40
1
 40
1
 40
1
 40
1
 10
20.444192
 20
262.876605
 30
0.0
 10
20.444192
 20
263.705032
 30
0.0
 10
21.115765
 20
264.376604
 30
0.0
 10
21.944192
 20
264.376604
 30
0.0
  0
SPLINE
  5
1da
100
AcDbEntity
  8
Layer_1
 62
6
100
AcDbSpline
 70
8
 71
3
 72
8
 73
4
 74
0
 40
0
 40
0
 40
0
 40
0
 40
1
 40
1
 40
1
 40
1
 10
21.944192
 20
264.376604
 30
0.0
 10
22.772619
 20
264.376604
 30
0.0
 10
23.444192
 20
263.705032
 30
0.0
 10
23.444192
 20
262.876605
 30
0.0
  0
LINE
  5
1db
100
AcDbEntity
  8
Layer_1
 62
6
100
AcDbLine
 10
23.444192
 20
262.876605
 30
0.0
 11
23.444192
 21
262.876605
 31
0.0
  0
LINE
  5
1dc
100
AcDbEntity
  8
Layer_1
 62
7
100
AcDbLine
 10
41.961159
 20
284.140274
 30
0.0
 11
41.961159
 21
254.140554
 31
0.0
  0
LINE
  5
1dd
100
AcDbEntity
  8
Layer_1
 62
7
100
AcDbLine
 10
41.961159
 20
254.140554
 30
0.0
 11
47.326206
 21
254.140554
 31
0.0
  0
LINE
  5
1de
100
AcDbEntity
  8
Layer_1
 62
7
100
AcDbLine
 10
47.326206
 20
254.140554
 30
0.0
 11
47.326206
 21
257.140371
 31
0.0
  0
LINE
  5
1df
100
AcDbEntity
  8
Layer_1
 62
7
100
AcDbLine
 10
47.326206
 20
257.140371
 30
0.0
 11
53.526346
 21
257.140371
 31
0.0
  0
LINE
  5
1e0
100
AcDbEntity
  8
Layer_1
 62
7
100
AcDbLine
 10
53.526346
 20
257.140371
 30
0.0
 11
53.526346
 21
254.140554
 31
0.0
  0
LINE
  5
1e1
100
AcDbEntity
  8
Layer_1
 62
7
100
AcDbLine
 10
53.526346
 20
254.140554
 30
0.0
 11
59.261396
 21
254.140554
 31
0.0
  0
LINE
  5
1e2
100
AcDbEntity
  8
Layer_1
 62
7
100
AcDbLine
 10
59.261396
 20
254.140554
 30
0.0
 11
59.261396
 21
257.140371
 31
0.0
  0
LINE
  5
1e3
100
AcDbEntity
  8
Layer_1
 62
7
100
AcDbLine
 10
59.261396
 20
257.140371
 30
0.0
 11
65.461533
 21
257.140371
 31
0.0
  0
LINE
  5
1e4
100
AcDbEntity
  8
Layer_1
 62
7
100
AcDbLine
 10
65.461533
 20
257.140371
 30
0.0
 11
65.461533
 21
254.140554
 31
0.0
  0
LINE
  5
1e5
100
AcDbEntity
  8
Layer_1
 62
7
100
AcDbLine
 10
65.461533
 20
254.140554
 30
0.0
 11
70.826582
 21
254.140554
 31
0.0
  0
LINE
  5
1e6
100
AcDbEntity
  8
Layer_1
 62
7
100
AcDbLine
 10
70.826582
 20
254.140554
 30
0.0
 11
70.826582
 21
284.140274
 31
0.0
  0
LINE
  5
1e7
100
AcDbEntity
  8
Layer_1
 62
7
100
AcDbLine
 10
70.826582
 20
284.140274
 30
0.0
 11
65.461533
 21
284.140274
 31
0.0
  0
LINE
  5
1e8
100
AcDbEntity
  8
Layer_1
 62
7
100
AcDbLine
 10
65.461533
 20
284.140274
 30
0.0
 11
65.461533
 21
281.140458
 31
0.0
  0
LINE
  5
1e9
100
AcDbEntity
  8
Layer_1
 62
7
100
AcDbLine
 10
65.461533
 20
281.140458
 30
0.0
 11
59.261396
 21
281.140458
 31
0.0
  0
LINE
  5
1ea
100
AcDbEntity
  8
Layer_1
 62
7
100
AcDbLine
 10
59.261396
 20
281.140458
 30
0.0
 11
59.261396
 21
284.140274
 31
0.0
  0
LINE
  5
1eb
100
AcDbEntity
  8
Layer_1
 62
7
100
AcDbLine
 10
59.261396
 20
284.140274
 30
0.0
 11
53.526346
 21
284.140274
 31
0.0
  0
LINE
  5
1ec
100
AcDbEntity
  8
Layer_1
 62
7
100
AcDbLine
 10
53.526346
 20
284.140274
 30
0.0
 11
53.526346
 21
281.140458
 31
0.0
  0
LINE
  5
1ed
100
AcDbEntity
  8
Layer_1
 62
7
100
AcDbLine
 10
53.526346
 20
281.140458
 30
0.0
 11
47.326206
 21
281.140458
 31
0.0
  0
LINE
  5
1ee
100
AcDbEntity
  8
Layer_1
 62
7
100
AcDbLine
 10
47.326206
 20
281.140458
 30
0.0
 11
47.326206
 21
284.140274
 31
0.0
  0
LINE
  5
1ef
100
AcDbEntity
  8
Layer_1
 62
7
100
AcDbLine
 10
47.326206
 20
284.140274
 30
0.0
 11
41.961159
 21
284.140274
 31
0.0
  0
LINE
  5
1f0
100
AcDbEntity
  8
Layer_1
 62
7
100
AcDbLine
 10
27.944189
 20
268.876604
 30
0.0
 11
39.944189
 21
268.876604
 31
0.0
  0
LINE
  5
1f1
100
AcDbEntity
  8
Layer_1
 62
7
100
AcDbLine
 10
39.944189
 20
268.876604
 30
0.0
 11
39.944189
 21
256.876604
 31
0.0
  0
LINE
  5
1f2
100
AcDbEntity
  8
Layer_1
 62
7
100
AcDbLine
 10
39.944189
 20
256.876604
 30
0.0
 11
27.944189
 21
256.876604
 31
0.0
  0
LINE
  5
1f3
100
AcDbEntity
  8
Layer_1
 62
7
100
AcDbLine
 10
27.944189
 20
256.876604
 30
0.0
 11
27.944189
 21
268.876604
 31
0.0
  0
ENDSEC
  0
SECTION
  2
OBJECTS
  0
DICTIONARY
  5
C
330
0
100
AcDbDictionary
  3
ACAD_GROUP
350
D
  3
ACAD_MLINESTYLE
350
17
  0
DICTIONARY
  5
D
330
C
100
AcDbDictionary
  0
DICTIONARY
  5
1A
330
C
100
AcDbDictionary
  0
DICTIONARY
  5
17
330
C
100
AcDbDictionary
  3
STANDARD
350
18
  0
DICTIONARY
  5
19
330
C
100
AcDbDictionary
  0
ENDSEC
  0
EOF
