<?xml version="1.0" encoding="UTF-8" standalone="no"?>
<!-- Created with Inkscape (http://www.inkscape.org/) -->

<svg
   xmlns:dc="http://purl.org/dc/elements/1.1/"
   xmlns:cc="http://creativecommons.org/ns#"
   xmlns:rdf="http://www.w3.org/1999/02/22-rdf-syntax-ns#"
   xmlns:svg="http://www.w3.org/2000/svg"
   xmlns="http://www.w3.org/2000/svg"
   xmlns:sodipodi="http://sodipodi.sourceforge.net/DTD/sodipodi-0.dtd"
   xmlns:inkscape="http://www.inkscape.org/namespaces/inkscape"
   width="210mm"
   height="297mm"
   viewBox="0 0 210 297"
   version="1.1"
   id="svg226"
   inkscape:version="0.92.4 (5da689c313, 2019-01-14)"
   sodipodi:docname="testcuts.svg">
  <defs
     id="defs220" />
  <sodipodi:namedview
     id="base"
     pagecolor="#ffffff"
     bordercolor="#666666"
     borderopacity="1.0"
     inkscape:pageopacity="0.0"
     inkscape:pageshadow="2"
     inkscape:zoom="1.979899"
     inkscape:cx="67.818448"
     inkscape:cy="1038.6984"
     inkscape:document-units="mm"
     inkscape:current-layer="layer1"
     showgrid="false"
     inkscape:snap-bbox="false"
     inkscape:bbox-nodes="true"
     inkscape:snap-global="true"
     inkscape:window-width="1463"
     inkscape:window-height="760"
     inkscape:window-x="-8"
     inkscape:window-y="-8"
     inkscape:window-maximized="1"
     inkscape:snap-object-midpoints="true"
     inkscape:object-nodes="true"
     inkscape:snap-nodes="true" />
  <metadata
     id="metadata223">
    <rdf:RDF>
      <cc:Work
         rdf:about="">
        <dc:format>image/svg+xml</dc:format>
        <dc:type
           rdf:resource="http://purl.org/dc/dcmitype/StillImage" />
        <dc:title></dc:title>
      </cc:Work>
    </rdf:RDF>
  </metadata>
  <g
     inkscape:label="Layer 1"
     inkscape:groupmode="layer"
     id="layer1">
    <path
       style="color:#000000;overflow:visible;opacity:1;vector-effect:none;fill:#0000ff;fill-opacity:1;stroke:#0000ff;stroke-width:0.18897638mm;stroke-linecap:butt;stroke-linejoin:miter;stroke-miterlimit:4;stroke-dasharray:none;stroke-dashoffset:0;stroke-opacity:1"
       d="M 128.29297 109.12695 A 19.84252 19.84252 0 0 0 108.45117 128.9707 A 19.84252 19.84252 0 0 0 128.29297 148.8125 A 19.84252 19.84252 0 0 0 148.13477 128.9707 A 19.84252 19.84252 0 0 0 128.29297 109.12695 z M 128.29297 121.78906 A 7.1811009 7.1811016 0 0 1 135.47461 128.9707 A 7.1811009 7.1811016 0 0 1 128.29297 136.15039 A 7.1811009 7.1811016 0 0 1 121.11133 128.9707 A 7.1811009 7.1811016 0 0 1 128.29297 121.78906 z "
       transform="scale(0.26458333)"
       id="path307" />
    <path
       style="color:#000000;overflow:visible;opacity:1;vector-effect:none;fill:#0000ff;fill-opacity:1;stroke:#0000ff;stroke-width:0.05mm;stroke-linecap:butt;stroke-linejoin:miter;stroke-miterlimit:4;stroke-dasharray:none;stroke-dashoffset:0;stroke-opacity:1"
       d="m 43.680411,31.295659 -2.249993,1.298629 v 2.598291 l 2.249993,1.299145 2.24999,-1.299145 v -2.598291 z m 0,1.597836 a 0.99999992,1 0 0 1 1.000455,0.999938 0.99999992,1 0 0 1 -1.000455,0.999939 0.99999992,1 0 0 1 -0.99994,-0.999939 0.99999992,1 0 0 1 0.99994,-0.999938 z"
       id="path391"
       inkscape:connector-curvature="0" />
    <path
       style="color:#000000;clip-rule:nonzero;display:inline;overflow:visible;visibility:visible;opacity:1;isolation:auto;mix-blend-mode:normal;color-interpolation:sRGB;color-interpolation-filters:linearRGB;solid-color:#000000;solid-opacity:1;fill:none;fill-opacity:1;fill-rule:nonzero;stroke:#ff00ff;stroke-width:0.26458332;stroke-linecap:butt;stroke-linejoin:miter;stroke-miterlimit:4;stroke-dasharray:none;stroke-dashoffset:0;stroke-opacity:1;color-rendering:auto;image-rendering:auto;shape-rendering:auto;text-rendering:auto;enable-background:accumulate"
       d="m 4.2056758,40.879349 -0.2614831,2.988448 v 5.614647 h 4.9097769 a 0.25,0.25 0 0 1 0.250114,-0.250113 0.25,0.25 0 0 1 0.250114,0.250113 0.25,0.25 0 0 1 -0.250114,0.250113 v 2.909901 h 6.6104494 v -2.909901 a 0.24999999,0.24999999 0 0 1 -0.250113,-0.250113 0.24999999,0.24999999 0 0 1 0.250113,-0.250113 0.24999999,0.24999999 0 0 1 0.250114,0.250113 h 4.824512 a 0.24999999,0.24999999 0 0 1 0.250114,-0.250113 0.24999999,0.24999999 0 0 1 0.250114,0.250113 0.24999999,0.24999999 0 0 1 -0.250114,0.250113 v 2.909901 h 6.610449 v -2.909901 a 0.24999999,0.24999999 0 0 1 -0.250114,-0.250113 0.24999999,0.24999999 0 0 1 0.250114,-0.250113 0.24999999,0.24999999 0 0 1 0.250114,0.250113 h 4.909779 v -3.089218 l 0.261483,-2.98845 -4.981093,-0.436147 -0.239778,2.739885 a 0.24999999,0.24999999 0 0 1 0.228409,0.249078 0.24999999,0.24999999 0 0 1 -0.250113,0.250116 0.24999999,0.24999999 0 0 1 -0.250114,-0.250116 0.24999999,0.24999999 0 0 1 10e-4,-0.0217 l -6.46366,-0.565859 a 0.24999998,0.24999998 0 0 1 -0.248563,0.22841 0.24999998,0.24999998 0 0 1 -0.250115,-0.250113 0.24999998,0.24999998 0 0 1 0.250115,-0.250114 0.24999998,0.24999998 0 0 1 0.0217,10e-4 l 0.239778,-2.739367 -4.980574,-0.435633 -0.239779,2.739368 a 0.24999998,0.24999998 0 0 1 0.22841,0.249079 0.24999998,0.24999998 0 0 1 -0.250114,0.250117 0.24999998,0.24999998 0 0 1 -0.250114,-0.250117 0.24999998,0.24999998 0 0 1 10e-4,-0.0217 L 9.1738476,44.325135 a 0.24999998,0.24999998 0 0 1 -0.248564,0.228409 0.24999998,0.24999998 0 0 1 -0.250114,-0.250113 0.24999998,0.24999998 0 0 1 0.250114,-0.250114 0.24999998,0.24999998 0 0 1 0.0217,10e-4 l 0.239779,-2.739367 z"
       id="rect3928"
       inkscape:connector-curvature="0" />
    <rect
       y="35.393681"
       x="45.049664"
       height="3"
       width="6.0999999"
       id="rect202"
       style="color:#000000;clip-rule:nonzero;display:inline;overflow:visible;visibility:visible;opacity:1;isolation:auto;mix-blend-mode:normal;color-interpolation:sRGB;color-interpolation-filters:linearRGB;solid-color:#000000;solid-opacity:1;fill:none;fill-opacity:1;fill-rule:nonzero;stroke:#ff00ff;stroke-width:0.26458329;stroke-linecap:butt;stroke-linejoin:miter;stroke-miterlimit:4;stroke-dasharray:none;stroke-dashoffset:0;stroke-opacity:1;color-rendering:auto;image-rendering:auto;shape-rendering:auto;text-rendering:auto;enable-background:accumulate" />
    <rect
       style="color:#000000;clip-rule:nonzero;display:inline;overflow:visible;visibility:visible;opacity:1;isolation:auto;mix-blend-mode:normal;color-interpolation:sRGB;color-interpolation-filters:linearRGB;solid-color:#000000;solid-opacity:1;fill:none;fill-opacity:1;fill-rule:nonzero;stroke:#ff00ff;stroke-width:0.26458332;stroke-linecap:butt;stroke-linejoin:miter;stroke-miterlimit:4;stroke-dasharray:none;stroke-dashoffset:0;stroke-opacity:1;color-rendering:auto;image-rendering:auto;shape-rendering:auto;text-rendering:auto;enable-background:accumulate"
       id="rect184"
       width="4.48"
       height="3"
       x="45.930401"
       y="29.594288" />
    <text
       id="text206"
       y="43.21484"
       x="53.420486"
       style="font-style:normal;font-variant:normal;font-weight:normal;font-stretch:normal;font-size:3.52777767px;line-height:125%;font-family:Arial;-inkscape-font-specification:'Arial, Normal';font-variant-ligatures:normal;font-variant-caps:normal;font-variant-numeric:normal;font-feature-settings:normal;text-align:center;letter-spacing:0px;word-spacing:0px;writing-mode:lr-tb;text-anchor:middle;fill:none;fill-opacity:1;stroke:#ff00ff;stroke-width:0.26458332px;stroke-linecap:butt;stroke-linejoin:miter;stroke-opacity:1"
       xml:space="preserve"><tspan
         style="fill:none;stroke:#ff00ff;stroke-width:0.26458332px"
         y="43.21484"
         x="53.420486"
         id="tspan204"
         sodipodi:role="line">6.61mm-kerf</tspan></text>
    <text
       xml:space="preserve"
       style="font-style:normal;font-variant:normal;font-weight:normal;font-stretch:normal;font-size:3.52777767px;line-height:125%;font-family:Arial;-inkscape-font-specification:'Arial, Normal';font-variant-ligatures:normal;font-variant-caps:normal;font-variant-numeric:normal;font-feature-settings:normal;text-align:center;letter-spacing:0px;word-spacing:0px;writing-mode:lr-tb;text-anchor:middle;fill:none;fill-opacity:1;stroke:#ff00ff;stroke-width:0.26458332px;stroke-linecap:butt;stroke-linejoin:miter;stroke-opacity:1"
       x="52.24807"
       y="24.993652"
       id="text188"><tspan
         sodipodi:role="line"
         id="tspan186"
         x="52.24807"
         y="24.993652"
         style="fill:none;stroke:#ff00ff;stroke-width:0.26458332px">5mm-kerf</tspan></text>
    <text
       id="text210"
       y="38.517815"
       x="60.203922"
       style="font-style:normal;font-variant:normal;font-weight:normal;font-stretch:normal;font-size:3.52777767px;line-height:125%;font-family:Arial;-inkscape-font-specification:'Arial, Normal';font-variant-ligatures:normal;font-variant-caps:normal;font-variant-numeric:normal;font-feature-settings:normal;text-align:center;letter-spacing:0px;word-spacing:0px;writing-mode:lr-tb;text-anchor:middle;fill:none;fill-opacity:1;stroke:#ff00ff;stroke-width:0.26458332px;stroke-linecap:butt;stroke-linejoin:miter;stroke-opacity:1"
       xml:space="preserve"><tspan
         style="fill:none;stroke:#ff00ff;stroke-width:0.26458332px"
         y="38.517815"
         x="60.203922"
         id="tspan208"
         sodipodi:role="line">3mm+kerf</tspan></text>
    <text
       xml:space="preserve"
       style="font-style:normal;font-variant:normal;font-weight:normal;font-stretch:normal;font-size:3.52777767px;line-height:125%;font-family:Arial;-inkscape-font-specification:'Arial, Normal';font-variant-ligatures:normal;font-variant-caps:normal;font-variant-numeric:normal;font-feature-settings:normal;text-align:center;letter-spacing:0px;word-spacing:0px;writing-mode:lr-tb;text-anchor:middle;fill:none;fill-opacity:1;stroke:#ff00ff;stroke-width:0.26458332px;stroke-linecap:butt;stroke-linejoin:miter;stroke-opacity:1"
       x="59.881947"
       y="30.312996"
       id="text192"><tspan
         sodipodi:role="line"
         id="tspan190"
         x="59.881947"
         y="30.312996"
         style="fill:none;stroke:#ff00ff;stroke-width:0.26458332px">3mm+kerf</tspan></text>
    <path
       id="path314"
       style="color:#000000;clip-rule:nonzero;display:inline;overflow:visible;visibility:visible;opacity:1;isolation:auto;mix-blend-mode:normal;color-interpolation:sRGB;color-interpolation-filters:linearRGB;solid-color:#000000;solid-opacity:1;fill:none;fill-opacity:1;fill-rule:nonzero;stroke:#ff00ff;stroke-width:0.26458332;stroke-linecap:butt;stroke-linejoin:miter;stroke-miterlimit:4;stroke-dasharray:none;stroke-dashoffset:0;stroke-opacity:1;color-rendering:auto;image-rendering:auto;shape-rendering:auto;text-rendering:auto;enable-background:accumulate"
       d="m 27.944192,28.123397 v -12 h 12 m 0,0 v 24 m 0,-12 h -12 v 12 m -12,-12 v -12 h 12 m -12,12 H 3.9441927 v 12 H 39.944192 m -24,0 v -12 h 12 m -23.9999993,0 v -12 H 15.944192"
       inkscape:connector-curvature="0"
       sodipodi:nodetypes="ccccccccccccccccccccc" />
    <path
       style="color:#000000;overflow:visible;opacity:1;vector-effect:none;fill:none;fill-opacity:1;stroke:#ff00ff;stroke-width:0.05mm;stroke-linecap:butt;stroke-linejoin:miter;stroke-miterlimit:4;stroke-dasharray:none;stroke-dashoffset:0;stroke-opacity:1"
       d="M 11.844192,22.123399 A 1.8999996,1.8999998 0 0 1 9.9441915,24.023398 1.8999996,1.8999998 0 0 1 8.0441922,22.123399 1.8999996,1.8999998 0 0 1 9.9441915,20.223398 1.8999996,1.8999998 0 0 1 11.844192,22.123399 Z"
       id="path274"
       inkscape:connector-curvature="0" />
    <path
       style="color:#000000;overflow:visible;opacity:1;vector-effect:none;fill:none;fill-opacity:1;stroke:#ff00ff;stroke-width:0.05mm;stroke-linecap:butt;stroke-linejoin:miter;stroke-miterlimit:4;stroke-dasharray:none;stroke-dashoffset:0;stroke-opacity:1"
       d="m 23.844192,22.123399 a 1.8999996,1.8999998 0 0 1 -1.900001,1.899999 1.8999996,1.8999998 0 0 1 -1.899999,-1.899999 1.8999996,1.8999998 0 0 1 1.899999,-1.900001 1.8999996,1.8999998 0 0 1 1.900001,1.900001 z"
       id="path276"
       inkscape:connector-curvature="0" />
    <path
       style="color:#000000;overflow:visible;opacity:1;vector-effect:none;fill:none;fill-opacity:1;stroke:#ff00ff;stroke-width:0.05mm;stroke-linecap:butt;stroke-linejoin:miter;stroke-miterlimit:4;stroke-dasharray:none;stroke-dashoffset:0;stroke-opacity:1"
       d="m 35.844192,22.123399 a 1.8999996,1.8999998 0 0 1 -1.900001,1.899999 1.8999996,1.8999998 0 0 1 -1.899999,-1.899999 1.8999996,1.8999998 0 0 1 1.899999,-1.900001 1.8999996,1.8999998 0 0 1 1.900001,1.900001 z"
       id="path278"
       inkscape:connector-curvature="0" />
    <path
       style="color:#000000;overflow:visible;opacity:1;vector-effect:none;fill:none;fill-opacity:1;stroke:#ff00ff;stroke-width:0.05mm;stroke-linecap:butt;stroke-linejoin:miter;stroke-miterlimit:4;stroke-dasharray:none;stroke-dashoffset:0;stroke-opacity:1"
       d="m 11.844192,34.123398 a 1.8999996,1.8999998 0 0 1 -1.9000005,1.9 1.8999996,1.8999998 0 0 1 -1.8999993,-1.9 1.8999996,1.8999998 0 0 1 1.8999993,-1.9 1.8999996,1.8999998 0 0 1 1.9000005,1.9 z"
       id="path280"
       inkscape:connector-curvature="0" />
    <path
       style="color:#000000;overflow:visible;opacity:1;vector-effect:none;fill:none;fill-opacity:1;stroke:#ff00ff;stroke-width:0.05mm;stroke-linecap:butt;stroke-linejoin:miter;stroke-miterlimit:4;stroke-dasharray:none;stroke-dashoffset:0;stroke-opacity:1"
       d="m 23.844192,34.123397 a 1.8999996,1.8999998 0 0 1 -1.900001,1.899999 1.8999996,1.8999998 0 0 1 -1.899999,-1.899999 1.8999996,1.8999998 0 0 1 1.899999,-1.900001 1.8999996,1.8999998 0 0 1 1.900001,1.900001 z"
       id="path282"
       inkscape:connector-curvature="0" />
    <path
       style="color:#000000;overflow:visible;opacity:1;vector-effect:none;fill:none;fill-opacity:1;stroke:#008000;stroke-width:0.05mm;stroke-linecap:butt;stroke-linejoin:miter;stroke-miterlimit:4;stroke-dasharray:none;stroke-dashoffset:0;stroke-opacity:1"
       d="m 35.844181,34.123242 a 1.8999996,1.8999998 0 0 1 -1.9,1.899999 1.8999996,1.8999998 0 0 1 -1.9,-1.899999 1.8999996,1.8999998 0 0 1 1.9,-1.900001 1.8999996,1.8999998 0 0 1 1.9,1.900001 z"
       id="path284"
       inkscape:connector-curvature="0" />
    <ellipse
       style="color:#000000;overflow:visible;opacity:1;vector-effect:none;fill:none;fill-opacity:1;stroke:#008000;stroke-width:0.05mm;stroke-linecap:butt;stroke-linejoin:miter;stroke-miterlimit:4;stroke-dasharray:none;stroke-dashoffset:0;stroke-opacity:1"
       id="path387"
       cx="43.680622"
       cy="33.893539"
       rx="0.99999994"
       ry="1" />
    <rect
       style="color:#000000;clip-rule:nonzero;display:inline;overflow:visible;visibility:visible;opacity:1;isolation:auto;mix-blend-mode:normal;color-interpolation:sRGB;color-interpolation-filters:linearRGB;solid-color:#000000;solid-opacity:1;fill:none;fill-opacity:1;fill-rule:nonzero;stroke:#000000;stroke-width:0.26458332;stroke-linecap:butt;stroke-linejoin:miter;stroke-miterlimit:4;stroke-dasharray:none;stroke-dashoffset:0;stroke-opacity:1;color-rendering:auto;image-rendering:auto;shape-rendering:auto;text-rendering:auto;enable-background:accumulate"
       id="rect393"
       width="6.6981492"
       height="8.0180864"
       x="40.273354"
       y="30.14621" />
    <rect
       style="color:#000000;clip-rule:nonzero;display:inline;overflow:visible;visibility:visible;opacity:1;isolation:auto;mix-blend-mode:normal;color-interpolation:sRGB;color-interpolation-filters:linearRGB;solid-color:#000000;solid-opacity:1;fill:none;fill-opacity:1;fill-rule:nonzero;stroke:#ff00ff;stroke-width:0.26458332;stroke-linecap:butt;stroke-linejoin:miter;stroke-miterlimit:4;stroke-dasharray:none;stroke-dashoffset:0;stroke-opacity:1;color-rendering:auto;image-rendering:auto;shape-rendering:auto;text-rendering:auto;enable-background:accumulate"
       id="rect395"
       width="11.528275"
       height="13.418155"
       x="42.153912"
       y="26.705242" />
    <path
       style="color:#000000;overflow:visible;opacity:1;vector-effect:none;fill:none;fill-opacity:1;stroke:#ff00ff;stroke-width:0.05mm;stroke-linecap:butt;stroke-linejoin:miter;stroke-miterlimit:4;stroke-dasharray:none;stroke-dashoffset:0;stroke-opacity:1"
       d="m 35.444192,22.123397 a 1.4999997,1.4999998 0 0 1 -1.5,1.5 1.4999997,1.4999998 0 0 1 -1.5,-1.5 1.4999997,1.4999998 0 0 1 1.5,-1.499999 1.4999997,1.4999998 0 0 1 1.5,1.499999 z"
       id="path611"
       inkscape:connector-curvature="0" />
    <path
       style="color:#000000;overflow:visible;opacity:1;vector-effect:none;fill:none;fill-opacity:1;stroke:#ff00ff;stroke-width:0.05mm;stroke-linecap:butt;stroke-linejoin:miter;stroke-miterlimit:4;stroke-dasharray:none;stroke-dashoffset:0;stroke-opacity:1"
       d="m 23.444192,22.123397 a 1.4999997,1.4999998 0 0 1 -1.5,1.5 1.4999997,1.4999998 0 0 1 -1.5,-1.5 1.4999997,1.4999998 0 0 1 1.5,-1.499999 1.4999997,1.4999998 0 0 1 1.5,1.499999 z"
       id="path613"
       inkscape:connector-curvature="0" />
    <path
       style="color:#000000;overflow:visible;opacity:1;vector-effect:none;fill:none;fill-opacity:1;stroke:#ff00ff;stroke-width:0.05mm;stroke-linecap:butt;stroke-linejoin:miter;stroke-miterlimit:4;stroke-dasharray:none;stroke-dashoffset:0;stroke-opacity:1"
       d="m 11.444192,22.123397 a 1.4999997,1.4999998 0 0 1 -1.4999997,1.5 1.4999997,1.4999998 0 0 1 -1.5,-1.5 1.4999997,1.4999998 0 0 1 1.5,-1.499999 1.4999997,1.4999998 0 0 1 1.4999997,1.499999 z"
       id="path615"
       inkscape:connector-curvature="0" />
    <path
       style="color:#000000;overflow:visible;opacity:1;vector-effect:none;fill:none;fill-opacity:1;stroke:#ff00ff;stroke-width:0.05mm;stroke-linecap:butt;stroke-linejoin:miter;stroke-miterlimit:4;stroke-dasharray:none;stroke-dashoffset:0;stroke-opacity:1"
       d="m 11.444192,34.123397 a 1.4999997,1.4999998 0 0 1 -1.4999997,1.5 1.4999997,1.4999998 0 0 1 -1.5,-1.5 1.4999997,1.4999998 0 0 1 1.5,-1.499999 1.4999997,1.4999998 0 0 1 1.4999997,1.499999 z"
       id="path617"
       inkscape:connector-curvature="0" />
    <path
       style="color:#000000;overflow:visible;opacity:1;vector-effect:none;fill:none;fill-opacity:1;stroke:#ff00ff;stroke-width:0.05mm;stroke-linecap:butt;stroke-linejoin:miter;stroke-miterlimit:4;stroke-dasharray:none;stroke-dashoffset:0;stroke-opacity:1"
       d="m 23.444192,34.123395 a 1.4999997,1.4999998 0 0 1 -1.5,1.5 1.4999997,1.4999998 0 0 1 -1.5,-1.5 1.4999997,1.4999998 0 0 1 1.5,-1.499999 1.4999997,1.4999998 0 0 1 1.5,1.499999 z"
       id="path619"
       inkscape:connector-curvature="0" />
    <path
       inkscape:connector-curvature="0"
       id="path609"
       d="m 23.444192,34.123395 a 1.4999997,1.4999998 0 0 1 -1.5,1.5 1.4999997,1.4999998 0 0 1 -1.5,-1.5 1.4999997,1.4999998 0 0 1 1.5,-1.499999 1.4999997,1.4999998 0 0 1 1.5,1.499999 z"
       style="color:#000000;overflow:visible;opacity:1;vector-effect:none;fill:none;fill-opacity:1;stroke:#ff00ff;stroke-width:0.05mm;stroke-linecap:butt;stroke-linejoin:miter;stroke-miterlimit:4;stroke-dasharray:none;stroke-dashoffset:0;stroke-opacity:1" />
    <path
       inkscape:connector-curvature="0"
       id="path649"
       d="m 41.961159,12.859726 v 29.99972 h 5.365047 v -2.999817 h 6.20014 v 2.999817 h 5.73505 v -2.999817 h 6.200137 v 2.999817 h 5.365049 v -29.99972 h -5.365049 v 2.999816 h -6.200137 v -2.999816 h -5.73505 v 2.999816 h -6.20014 v -2.999816 z"
       style="color:#000000;clip-rule:nonzero;display:inline;overflow:visible;visibility:visible;opacity:1;isolation:auto;mix-blend-mode:normal;color-interpolation:sRGB;color-interpolation-filters:linearRGB;solid-color:#000000;solid-opacity:1;fill:none;fill-opacity:1;fill-rule:nonzero;stroke:#000000;stroke-width:0.26458332;stroke-linecap:butt;stroke-linejoin:miter;stroke-miterlimit:4;stroke-dasharray:none;stroke-dashoffset:0;stroke-opacity:1;color-rendering:auto;image-rendering:auto;shape-rendering:auto;text-rendering:auto;enable-background:accumulate" />
    <text
       xml:space="preserve"
       style="font-style:normal;font-variant:normal;font-weight:normal;font-stretch:normal;font-size:3.52777767px;line-height:125%;font-family:Arial;-inkscape-font-specification:'Arial, Normal';font-variant-ligatures:normal;font-variant-caps:normal;font-variant-numeric:normal;font-feature-settings:normal;text-align:center;letter-spacing:0px;word-spacing:0px;writing-mode:lr-tb;text-anchor:middle;fill:#000000;fill-opacity:1;stroke:none;stroke-width:0.26458332px;stroke-linecap:butt;stroke-linejoin:miter;stroke-opacity:1"
       x="4.6772165"
       y="2.7362499"
       id="text676"><tspan
         sodipodi:role="line"
         id="tspan674"
         x="4.6772161"
         y="2.7362499"
         style="stroke-width:0.26458332px">longer screw needs 4.75</tspan><tspan
         sodipodi:role="line"
         x="4.6772161"
         y="7.1459723"
         style="stroke-width:0.26458332px"
         id="tspan678">smaller screw needs 4.8</tspan></text>
    <text
       xml:space="preserve"
       style="font-style:normal;font-variant:normal;font-weight:normal;font-stretch:normal;font-size:3.52777767px;line-height:125%;font-family:Arial;-inkscape-font-specification:'Arial, Normal';font-variant-ligatures:normal;font-variant-caps:normal;font-variant-numeric:normal;font-feature-settings:normal;text-align:center;letter-spacing:0px;word-spacing:0px;writing-mode:lr-tb;text-anchor:middle;fill:#000000;fill-opacity:1;stroke:none;stroke-width:0.26458332px;stroke-linecap:butt;stroke-linejoin:miter;stroke-opacity:1"
       x="44.099472"
       y="57.392864"
       id="text732"><tspan
         sodipodi:role="line"
         id="tspan730"
         x="44.099472"
         y="57.392864"
         style="stroke-width:0.26458332px">engrave 70-80 @ 400 subtracting hole</tspan><tspan
         sodipodi:role="line"
         x="44.099472"
         y="61.802586"
         style="stroke-width:0.26458332px"
         id="tspan734" /></text>
    <rect
       style="color:#000000;clip-rule:nonzero;display:inline;overflow:visible;visibility:visible;opacity:1;isolation:auto;mix-blend-mode:normal;color-interpolation:sRGB;color-interpolation-filters:linearRGB;solid-color:#000000;solid-opacity:1;fill:none;fill-opacity:1;fill-rule:nonzero;stroke:#000000;stroke-width:0.26458332;stroke-linecap:butt;stroke-linejoin:miter;stroke-miterlimit:4;stroke-dasharray:none;stroke-dashoffset:0;stroke-opacity:1;color-rendering:auto;image-rendering:auto;shape-rendering:auto;text-rendering:auto;enable-background:accumulate"
       id="rect297"
       width="12"
       height="12"
       x="27.944189"
       y="28.123396" />
  </g>
</svg>
